<svg xmlns="http://www.w3.org/2000/svg" xmlns:xlink="http://www.w3.org/1999/xlink" width="0" height="0" style="position:absolute">

<symbol id="crown" viewBox="0 0 220 220">
        <style>.st0{fill:#EC1C24;}.st1{fill:#F6921E;}.st2{fill:#FFCA05;}.st3{fill:#8BC53F;}.st4{fill:#00ADEE;}.st5{fill:#5B57A4;}.st6{fill:#FFFFFF;}.st7{fill:none;stroke:#5B57A4;stroke-width:0.25;stroke-miterlimit:10;}.st8{fill:#A2238D;}</style><path class="st8" d="M211.9 126c-2.2-1.1-3.6-3.7-5.3-6.5-2.1-3.7-4.5-7.7-8.9-9.6 4.4-1.8 6.8-5.9 8.8-9.6 1.6-2.9 3.1-5.5 5.3-6.6-2.4-.4-4.6-2.4-7-4.6-3.1-2.9-6.6-6-11.4-6.3 3.6-3.1 4.6-7.7 5.4-11.9.7-3.3 1.2-6.2 3-7.9-2.4.4-5.1-.8-8.1-2.2-3.9-1.7-8.2-3.6-12.8-2.5 2.5-4.1 2-8.7 1.5-13-.4-3.3-.7-6.3.4-8.5-2.2 1.1-5.1.8-8.4.4-4.2-.5-8.9-.9-12.9 1.6 1.1-4.7-.8-8.9-2.5-12.8-1.4-3-2.6-5.7-2.2-8.1-1.7 1.7-4.7 2.3-7.9 3-4.2.8-8.8 1.8-11.9 5.4-.3-4.8-3.5-8.3-6.3-11.4-2.2-2.4-4.2-4.6-4.6-7-1.1 2.2-3.7 3.7-6.6 5.3-3.7 2.1-7.8 4.4-9.6 8.8-1.8-4.4-5.9-6.8-9.5-8.9-2.9-1.6-5.4-3.1-6.5-5.2-.4 2.4-2.4 4.6-4.7 7.1-2.9 3.1-6 6.6-6.4 11.4-3.1-3.7-7.7-4.6-11.8-5.5-3.2-.7-6.1-1.3-7.8-3 .4 2.4-.9 5.1-2.2 8.2-1.8 3.9-3.7 8.2-2.6 12.8-4.1-2.5-8.7-2.1-12.9-1.6-3.3.3-6.2.7-8.3-.4 1.1 2.2.8 5.1.4 8.5-.5 4.2-1 8.9 1.5 13-4.7-1.1-8.9.7-12.8 2.5-3 1.4-5.7 2.6-8.1 2.2 1.7 1.7 2.3 4.7 3 7.9.8 4.2 1.8 8.8 5.4 11.9-4.8.4-8.3 3.5-11.4 6.3-2.4 2.2-4.6 4.2-7 4.6 2.2 1.1 3.6 3.7 5.3 6.6 2.1 3.7 4.4 7.8 8.8 9.6-4.5 1.8-6.8 5.9-8.9 9.5-1.6 2.9-3.1 5.4-5.3 6.5 2.4.4 4.6 2.4 7.1 4.7 3.1 2.9 6.6 6 11.4 6.4-3.7 3.1-4.7 7.7-5.5 11.8-.7 3.2-1.3 6.1-3 7.8 2.4-.4 5.1.9 8.2 2.3 3.9 1.8 8.1 3.7 12.8 2.6-2.5 4.1-2.1 8.7-1.6 12.9.3 3.3.7 6.2-.4 8.4 2.2-1.1 5.2-.8 8.5-.4 4.2.5 8.9 1 13-1.5-1.1 4.7.8 8.9 2.6 12.8 1.4 3 2.6 5.7 2.2 8.2 1.7-1.7 4.6-2.3 7.8-3 4.1-.9 8.7-1.8 11.8-5.5.4 4.8 3.5 8.3 6.4 11.4 2.3 2.4 4.3 4.6 4.7 7.1 1.1-2.2 3.7-3.6 6.5-5.3 3.7-2.1 7.7-4.5 9.5-8.9 1.8 4.4 5.9 6.8 9.6 8.8 2.9 1.6 5.5 3.1 6.6 5.3.4-2.4 2.4-4.6 4.6-7 2.8-3.1 6-6.6 6.3-11.4 3.1 3.7 7.7 4.6 11.9 5.4 3.3.6 6.2 1.2 7.9 3-.4-2.4.8-5.1 2.2-8.1 1.8-3.9 3.6-8.1 2.5-12.8 4.1 2.5 8.8 2 13 1.5 3.3-.4 6.3-.7 8.5.4-1.1-2.2-.8-5.1-.4-8.4.5-4.2.9-8.9-1.6-13 4.6 1.1 8.9-.8 12.8-2.6 3-1.4 5.7-2.6 8.2-2.2-1.7-1.7-2.3-4.6-3-7.8-.9-4.2-1.8-8.8-5.5-11.8 4.8-.4 8.3-3.5 11.4-6.4 2.2-2.2 4.4-4.3 6.8-4.7zm-14 2c-2.6 2.4-5.6 5.1-9.4 5.4l-5.4.4 4.1 3.5c2.9 2.5 3.7 6.4 4.4 9.9v.1c.4 1.8.7 3.5 1.3 5.1-1.6.4-3.2 1.2-4.8 1.9-2.6 1.2-5.5 2.5-8.4 2.5-.8 0-1.5-.1-2.2-.3l-5.2-1.3 2.8 4.6c2 3.3 1.6 7.3 1.2 10.8-.2 1.7-.4 3.5-.3 5.2h-.7c-1.4 0-2.9.2-4.4.3h-.1c-1.7.2-3.3.4-4.8.4-2.5 0-4.4-.5-6-1.5l-4.6-2.8 1.3 5.2c.9 3.7-.7 7.2-2.2 10.6-.8 1.7-1.5 3.3-1.9 4.9-1.6-.6-3.3-.9-5.2-1.3-3.5-.7-7.5-1.5-9.9-4.4l-3.5-4.1-.4 5.4c-.3 3.8-2.9 6.7-5.4 9.4-1.2 1.3-2.4 2.6-3.3 4-1.3-1-2.9-1.9-4.5-2.8-3.3-1.8-6.6-3.7-8.1-7.2l-2-5-2 5c-1.4 3.6-4.9 5.5-8 7.3h-.1c-1.6.9-3.1 1.8-4.4 2.8-.9-1.4-2.2-2.7-3.4-4.1-2.5-2.8-5.2-5.6-5.4-9.4l-.4-5.4-3.5 4.2c-2.4 2.9-6.4 3.7-9.9 4.4-1.8.4-3.5.7-5.1 1.3-.4-1.6-1.2-3.2-2-4.9-1.5-3.3-3.2-6.9-2.3-10.6l1.3-5.2-4.6 2.8c-1.7 1-3.6 1.5-6.2 1.5-1.6 0-3.2-.2-4.6-.3-1.5-.2-3-.3-4.4-.3h-.8c.1-1.7-.1-3.4-.3-5.3-.4-3.7-.9-7.6 1.1-10.8l2.8-4.6-5.2 1.3c-.7.2-1.5.3-2.2.3-2.9 0-5.8-1.3-8.4-2.5h-.1c-1.6-.7-3.2-1.5-4.8-1.9.6-1.6 1-3.4 1.3-5.2.7-3.5 1.5-7.5 4.4-9.9l4.1-3.5-5.4-.4c-3.8-.3-6.8-3-9.4-5.4-1.3-1.2-2.6-2.4-4-3.3 1.1-1.3 1.9-2.9 2.8-4.5 1.8-3.3 3.7-6.7 7.2-8.1l5-2.1-5-2c-3.5-1.4-5.4-4.8-7.3-8-.9-1.6-1.8-3.1-2.8-4.4 1.4-.9 2.7-2.1 4.1-3.4 2.6-2.4 5.6-5.2 9.4-5.5l5.4-.4-4.1-3.5c-2.9-2.5-3.7-6.4-4.5-9.9v-.1c-.4-1.8-.7-3.5-1.3-5 1.6-.4 3.3-1.2 5-2 2.6-1.2 5.5-2.5 8.5-2.5.7 0 1.5.1 2.2.3l5.2 1.2-3.2-4.6c-2-3.2-1.5-7.1-1.1-10.8.2-1.8.4-3.6.3-5.3h.8c1.4 0 2.8-.1 4.3-.3h.2c1.4-.2 3.1-.3 4.6-.3 2.5 0 4.5.5 6.2 1.5l4.6 2.8-1.3-5.2c-.9-3.7.8-7.4 2.3-10.6V32c.8-1.7 1.5-3.3 1.9-4.9 1.5.6 3.2.9 4.9 1.3h.1c3.5.7 7.4 1.5 9.9 4.4l3.5 4.1.4-5.4c.3-3.8 3-6.8 5.4-9.4 1.3-1.4 2.5-2.7 3.4-4.1 1.3 1 2.8 1.9 4.4 2.8 3.1 1.8 6.6 3.8 8 7.3l2 5 2-5c1.4-3.5 5-5.5 8.1-7.2 1.6-.9 3.2-1.8 4.5-2.8.9 1.4 2.1 2.7 3.3 4 2.4 2.6 5.1 5.6 5.4 9.4l.4 5.4 3.5-4.1c2.5-2.9 6.4-3.7 9.9-4.4h.1c1.8-.4 3.5-.7 5.1-1.3.4 1.6 1.2 3.2 1.9 4.8 1.5 3.2 3.1 6.9 2.2 10.6l-1.3 5.2 4.6-2.8c1.6-1 3.5-1.5 6-1.5 1.6 0 3.2.2 4.8.4 1.5.2 3.1.4 4.6.4h.7c-.1 1.7.1 3.4.3 5.2.4 3.5.8 7.5-1.2 10.8l-2.8 4.6 5.2-1.3c.7-.2 1.4-.3 2.1-.3 2.9 0 5.9 1.3 8.5 2.5h.1c1.7.8 3.3 1.5 4.9 1.9-.6 1.5-.9 3.3-1.3 5.1-.8 3.7-1.5 7.5-4.4 9.9l-4.1 3.5 5.4.4c3.8.3 6.8 3 9.4 5.5v.1c1.4 1.2 2.7 2.4 4 3.4-1 1.3-1.9 2.8-2.8 4.4-1.9 3.2-3.8 6.6-7.3 8l-5 2 5 2.1c3.5 1.5 5.5 5 7.2 8.1.9 1.6 1.8 3.2 2.8 4.5-1.1.9-2.4 2.1-3.7 3.4z"/><path class="st8" d="M132 150.5c.5 0 .9 0 1.4.1 1.3-2.9 4.1-6.6 7.4-9.8 2.9-2.9 5.9-5.3 8.5-6.7.4-.2.8-.4 1.3-.6-.3-3.2.3-7.7 1.5-12.2 1.1-4 2.5-7.6 4-10.1.2-.4.5-.8.8-1.2-1.9-2.6-3.6-6.9-4.8-11.3-1.1-4-1.6-7.8-1.5-10.7 0-.5 0-.9.1-1.4-2.9-1.3-6.6-4.1-9.8-7.4-2.9-2.9-5.3-5.9-6.7-8.5-.2-.4-.4-.8-.6-1.3-3.2.3-7.8-.3-12.2-1.5-4-1.1-7.6-2.5-10.1-4-.4-.2-.8-.5-1.2-.8-.4.3-.8.6-1.2.8-2.5 1.5-6.1 2.9-10.1 4-4.4 1.2-9 1.8-12.2 1.5-.2.4-.4.9-.6 1.3-1.4 2.6-3.8 5.6-6.7 8.5-3.2 3.2-6.9 6-9.8 7.4.1.5.1.9.1 1.4.1 2.9-.5 6.8-1.6 10.7-1.2 4.4-3 8.7-4.8 11.3.3.4.6.8.8 1.2 1.5 2.5 3 6.1 4 10.1 1.2 4.4 1.8 9 1.5 12.2l1.2.6c2.6 1.4 5.6 3.8 8.5 6.7 3.2 3.2 6 6.9 7.4 9.8.5-.1 1-.1 1.4-.1 3-.1 6.8.5 10.7 1.6 4.4 1.2 8.7 2.9 11.3 4.8 2.6-1.9 6.9-3.6 11.3-4.8 3.9-1.1 7.8-1.6 10.7-1.6z"/><path class="st8" d="M189.6 112.2l-4.9-2 4.9-2c3.4-1.4 5.3-4.7 7.1-7.8.9-1.5 1.7-3 2.7-4.3-1.4-.9-2.6-2.1-3.9-3.3v-.1c-2.6-2.4-5.5-5-9.1-5.3l-5.2-.4 4-3.4c2.8-2.4 3.6-6.1 4.3-9.7.4-1.7.7-3.4 1.3-4.9-1.6-.4-3.1-1.1-4.7-1.9h-.1c-2.5-1.2-5.4-2.5-8.3-2.5-.7 0-1.4.1-2.1.2l-5.1 1.2 2.8-4.5c2-3.2 1.5-7.1 1.1-10.5-.2-1.8-.4-3.5-.3-5.1h-.7c-1.4 0-3-.2-4.5-.4s-3.1-.4-4.6-.4c-2.4 0-4.3.5-5.9 1.4l-4.5 2.8 1.2-5.1c.9-3.6-.7-7.2-2.2-10.4-.7-1.6-1.4-3.2-1.9-4.7-1.5.6-3.2.9-4.9 1.3h-.1c-3.4.7-7.3 1.5-9.7 4.3l-3.4 4-.4-5.2c-.3-3.7-2.9-6.6-5.3-9.2-1.2-1.3-2.3-2.6-3.2-3.9-1.3 1-2.8 1.9-4.4 2.8-3 1.7-6.5 3.6-7.9 7.1l-2 4.9-2-4.9c-1.4-3.5-4.8-5.4-7.8-7.1-1.5-.9-3-1.7-4.2-2.7-.9 1.4-2.1 2.7-3.3 4-2.4 2.6-5 5.5-5.3 9.2l-.5 5.3-3.4-4c-2.4-2.8-6.2-3.6-9.7-4.3h-.1c-1.7-.4-3.4-.7-4.8-1.3-.4 1.6-1.2 3.1-1.9 4.8v.1c-1.5 3.2-3.1 6.8-2.2 10.3l1.2 5.1-4.5-2.8c-1.6-1-3.5-1.5-6-1.5-1.5 0-3.1.2-4.5.3h-.2c-1.5.2-2.8.3-4.1.3h-.8c.1 1.6-.1 3.4-.3 5.2-.4 3.6-.9 7.4 1.1 10.5l2.7 4.4-5.1-1.2c-.7-.2-1.4-.2-2.1-.2-2.9 0-5.7 1.3-8.2 2.5-1.7.8-3.2 1.5-4.8 1.9.6 1.5.9 3.1 1.3 4.9v.1c.7 3.4 1.5 7.3 4.3 9.7l4 3.4-5.2.4c-3.7.3-6.6 3-9.2 5.3-1.3 1.2-2.6 2.4-4 3.3 1 1.2 1.8 2.7 2.7 4.2 1.8 3.2 3.7 6.4 7.1 7.8l4.9 2-4.9 2c-3.4 1.4-5.3 4.7-7.1 7.9-.9 1.6-1.7 3.1-2.8 4.4 1.3.9 2.6 2 3.9 3.2 2.6 2.3 5.5 5 9.2 5.3l5.3.4-4 3.4c-2.8 2.4-3.6 6.3-4.3 9.7-.3 1.7-.7 3.5-1.3 5 1.5.4 3.1 1.1 4.7 1.8h.1c2.5 1.1 5.3 2.4 8.2 2.4.7 0 1.5-.1 2.2-.3l5.1-1.3-2.8 4.5c-1.9 3.1-1.5 6.9-1.1 10.5.2 1.8.4 3.5.3 5.1h.7c1.4 0 2.8.2 4.3.3 1.4.2 3 .3 4.5.3 2.5 0 4.4-.5 6-1.5l4.5-2.8-1.3 5.1c-.9 3.6.8 7.2 2.2 10.3.7 1.6 1.5 3.2 1.9 4.8 1.5-.6 3.2-.9 4.9-1.3 3.4-.7 7.3-1.5 9.6-4.3l3.4-4.1.4 5.3c.3 3.7 2.8 6.5 5.3 9.2 1.2 1.3 2.4 2.6 3.3 4 1.2-1 2.7-1.8 4.2-2.7h.1c3-1.7 6.4-3.6 7.8-7.1l2-4.9 2 4.9c1.4 3.4 4.7 5.3 7.9 7.1 1.6.9 3.1 1.7 4.4 2.8.9-1.3 2-2.6 3.2-3.9 2.5-2.7 5-5.5 5.3-9.2l.4-5.2 3.4 4c2.4 2.8 6.3 3.6 9.7 4.3 1.8.4 3.5.7 5 1.3.4-1.6 1.1-3.1 1.9-4.7 1.5-3.3 3-6.8 2.2-10.4l-1.3-5.1 4.5 2.8c1.6 1 3.4 1.4 5.9 1.4 1.5 0 3-.2 4.7-.4h.1c1.5-.2 2.9-.3 4.3-.3h.7c-.1-1.6.1-3.4.3-5.1.4-3.4.8-7.3-1.1-10.5l-2.8-4.5 5.1 1.3c.7.2 1.4.3 2.1.3 2.8 0 5.7-1.3 8.2-2.4 1.6-.7 3.2-1.4 4.7-1.9-.6-1.5-.9-3.2-1.3-4.9v-.1c-.7-3.4-1.4-7.3-4.3-9.7l-4-3.4 5.2-.4c3.7-.3 6.6-2.9 9.2-5.2 1.3-1.2 2.6-2.4 3.9-3.2-1-1.3-1.9-2.8-2.8-4.4-1.1-3-3-6.4-6.4-7.9zM167.4 132c-3.1 2.3-6.5 4.8-10.6 5.4 1.5 3.9 1.1 8.1.7 11.9-.4 3.5-.7 6.7.4 9-2.4-1.2-5.5-.8-9.1-.4-3.8.4-8 .9-11.9-.6-.6 4.1-3.1 7.5-5.4 10.6-2.1 2.8-4 5.4-4.1 8-1.5-2.2-4.4-3.5-7.7-4.9-3.5-1.5-7.4-3.2-10-6.5-2.6 3.2-6.4 4.9-10 6.5-3.3 1.4-6.2 2.7-7.7 4.9-.1-2.6-2-5.1-4.1-8-2.3-3.1-4.8-6.5-5.4-10.6-3.9 1.5-8.1 1-11.9.6-3.6-.4-6.7-.8-9.1.4 1.2-2.4.8-5.5.5-9-.4-3.8-.9-8 .7-11.9-4.1-.6-7.5-3.1-10.6-5.4-2.9-2.2-5.4-4.1-8.1-4.2 2.2-1.4 3.5-4.3 4.9-7.6 1.5-3.5 3.3-7.4 6.5-9.9-3.2-2.6-5-6.5-6.5-10-1.4-3.3-2.7-6.2-4.9-7.7 2.6-.1 5.2-2 8-4.1 3.1-2.3 6.5-4.8 10.6-5.4-1.5-3.9-1-8.1-.6-11.9.4-3.6.8-6.7-.4-9.1 2.4 1.2 5.5.8 9 .4 3.8-.4 8-.9 11.9.7.6-4.1 3.1-7.5 5.4-10.6 2.1-2.9 4-5.4 4.2-8.1 1.4 2.2 4.3 3.5 7.6 4.9 3.5 1.5 7.4 3.3 10 6.5 2.6-3.3 6.4-5 10-6.5 3.2-1.4 6.1-2.7 7.5-4.9.1 2.7 2 5.2 4.2 8.1 2.3 3.1 4.8 6.5 5.4 10.6 3.9-1.5 8.1-1.1 11.9-.7 3.5.4 6.6.7 9-.4-1.2 2.4-.8 5.5-.4 9.1.5 3.9.9 8.1-.6 11.9 4.1.6 7.5 3.1 10.6 5.4 2.9 2.1 5.4 4 8 4.1-2.2 1.4-3.5 4.4-4.9 7.7-1.5 3.5-3.2 7.4-6.5 10 3.2 2.6 5 6.4 6.5 9.9 1.4 3.3 2.7 6.1 4.9 7.6-2.5.1-5 2-7.9 4.2z"/><path class="st8" d="M130.2 152.2c-2.4 0-5.4.4-8.6 1.3-6 1.6-11.7 4.5-11 7 1.4 5.4 6.1 7.5 10.2 9.2 2.7 1.2 5.1 2.2 6.3 4 .1-2.2 1.7-4.2 3.4-6.6 2.6-3.6 5.6-7.6 4.1-13.1-.4-1.4-2.6-1.8-4.4-1.8zm-.8 13.4c-1.5 2.1-2.9 3.9-3 5.8-1-1.6-3.2-2.5-5.6-3.5-3.6-1.6-7.7-3.3-9-8.2-.6-2.2 4.5-4.8 9.8-6.2 2.8-.7 5.5-1.1 7.6-1.1 1.5 0 3.5.3 3.9 1.6 1.3 4.8-1.3 8.4-3.7 11.6zM98.4 66.6c3.2-.9 6.1-2 8.1-3.2 1.5-.9 3.3-2.3 2.9-3.7-1.5-5.5-6.1-7.5-10.1-9.3-2.7-1.2-5-2.2-6.2-4-.1 2.2-1.7 4.2-3.4 6.6-2.7 3.6-5.7 7.6-4.2 13.1.5 2.4 6.9 2.1 12.9.5zm-7.8-12.1c1.6-2.1 3-3.9 3-5.9 1.1 1.6 3.1 2.5 5.5 3.6 3.6 1.6 7.7 3.4 9 8.2.4 1.3-1.2 2.5-2.6 3.3-1.8 1.1-4.3 2.1-7.1 2.9-5.3 1.4-11 1.7-11.5-.5-1.4-4.8 1.3-8.4 3.7-11.6zM156.2 149.2c.5-4.4 1.1-9.4-2.9-13.4-1-1.1-3.1-.2-4.7.7-2 1.1-4.5 3-6.8 5.4-4.4 4.4-7.8 9.8-6.1 11.6 4 4 9 3.4 13.4 2.8 2.9-.3 5.5-.6 7.5.4-1-2-.7-4.6-.4-7.5zm-7.9 5.4c-3.9.4-8.4 1-11.9-2.6-1.6-1.6 1.5-6.4 5.4-10.2 2-2.1 4.2-3.7 6-4.8 1.4-.8 3.2-1.5 4.2-.6 3.5 3.5 3 8 2.6 11.9-.3 2.5-.5 4.8.3 6.5-1.7-.8-4-.5-6.6-.2zM66.7 84.3c1.8 1.8 7.2-1.7 11.6-6.1 2.3-2.3 4.2-4.7 5.4-6.8.9-1.6 1.7-3.6.6-4.7-4-4-9-3.4-13.4-3-2.9.3-5.5.6-7.4-.4 1 1.9.7 4.5.3 7.4-.5 4.6-1.1 9.6 2.9 13.6zm-1.6-19.2c1.7.9 4 .6 6.5.3 3.9-.4 8.4-.9 11.9 2.6.9.9.2 2.8-.6 4.1-1 1.8-2.7 4-4.8 6-3.9 3.9-8.6 7-10.2 5.4-3.5-3.5-3-8-2.5-11.9.3-2.5.6-4.8-.3-6.5zM169.6 120.8c-1.8-4.1-3.8-8.7-9.3-10.2-1.4-.4-2.8 1.4-3.7 2.9-1.2 2-2.4 4.9-3.2 8-1.6 6-1.9 12.4.5 13 5.4 1.5 9.5-1.6 13.1-4.2 2.4-1.8 4.5-3.3 6.6-3.4-1.8-1.1-2.8-3.4-4-6.1zm-4.1 8.7c-3.2 2.4-6.7 5-11.6 3.7-2.2-.6-1.9-6.3-.5-11.5.8-2.8 1.8-5.4 2.8-7.2.8-1.4 2.1-2.9 3.3-2.6 4.8 1.3 6.6 5.4 8.2 9 1 2.4 1.9 4.4 3.5 5.5-1.7.1-3.6 1.5-5.7 3.1zM59.6 109.4c2.4.7 5.3-5 6.9-11 .9-3.2 1.3-6.3 1.3-8.6 0-1.8-.4-4-1.8-4.4-5.5-1.5-9.5 1.5-13.1 4.1-2.3 1.7-4.4 3.3-6.6 3.4 1.8 1.2 2.9 3.6 4 6.3 1.9 4.1 3.9 8.7 9.3 10.2zM48.7 93.5c1.9-.1 3.8-1.4 5.8-3 3.1-2.3 6.7-5 11.6-3.7 1.3.3 1.6 2.3 1.6 3.9 0 2.1-.3 4.8-1.1 7.6-1.4 5.3-4 10.3-6.2 9.7-4.8-1.3-6.6-5.4-8.2-9-1-2.3-1.9-4.4-3.5-5.5zM152.2 89.8c-.1 2.4.4 5.4 1.3 8.6 1.6 6 4.5 11.7 7 11 5.4-1.4 7.4-6.1 9.2-10.2 1.2-2.7 2.2-5.1 4-6.3-2.2-.1-4.2-1.6-6.6-3.4-3.6-2.6-7.6-5.6-13.1-4.2-1.4.5-1.8 2.7-1.8 4.5zm13.3.7c2.1 1.5 3.9 2.9 5.8 3-1.6 1.1-2.5 3.2-3.5 5.6-1.6 3.6-3.3 7.7-8.2 9-2.2.6-4.7-4.5-6.2-9.7-.7-2.8-1.1-5.5-1.1-7.6 0-1.6.3-3.6 1.6-3.9 4.9-1.3 8.5 1.3 11.6 3.6zM66.6 121.7c-.9-3.2-2-6.1-3.2-8.1-.9-1.5-2.3-3.3-3.7-2.9-5.5 1.5-7.5 6.1-9.3 10.1-1.2 2.7-2.2 5-4 6.2 2.2.1 4.3 1.7 6.6 3.4 3.6 2.7 7.6 5.7 13.1 4.2 2.4-.6 2.1-7 .5-12.9zm-12.1 7.8c-2.1-1.6-3.9-2.9-5.9-3 1.6-1.1 2.5-3.1 3.6-5.5 1.6-3.6 3.4-7.7 8.2-9 1.2-.3 2.5 1.2 3.3 2.6 1.1 1.8 2.1 4.3 2.8 7.2 1.4 5.3 1.7 10.9-.5 11.5-4.7 1.2-8.3-1.5-11.5-3.8zM141.8 78.2c4.4 4.4 9.7 7.9 11.5 6.1 4-4 3.4-9 2.9-13.4-.3-2.9-.6-5.5.3-7.5-1.9 1-4.5.7-7.4.4-4.4-.5-9.4-1-13.4 3-1 1-.2 3.1.7 4.7 1.1 2 3 4.4 5.4 6.7zM136.5 68c3.5-3.5 8-3 11.9-2.6 2.6.3 4.8.5 6.5-.3-.9 1.7-.6 4-.3 6.6.4 3.9 1 8.4-2.6 11.9-1.6 1.6-6.4-1.5-10.2-5.4-2.1-2.1-3.7-4.2-4.7-6.1-.8-1.3-1.5-3.2-.6-4.1zM71.4 136.4c-1.6-.9-3.6-1.7-4.7-.7-4 4-3.4 9-3 13.4.3 2.9.6 5.5-.4 7.4 1.9-1 4.5-.7 7.5-.3 4.4.5 9.5 1.1 13.4-2.9 1.8-1.8-1.7-7.2-6-11.5-2.3-2.3-4.7-4.2-6.8-5.4zm12.1 15.7c-3.5 3.5-8 3-11.9 2.5-2.6-.3-4.9-.5-6.6.3.9-1.7.6-4 .3-6.5-.4-3.9-.9-8.3 2.6-11.9.9-.9 2.8-.2 4.2.6 1.9 1 4 2.7 6 4.7 3.9 3.9 7 8.7 5.4 10.3zM113.6 63.4c2 1.2 4.9 2.3 8.1 3.2 6 1.6 12.4 1.9 13-.5 1.4-5.5-1.6-9.5-4.2-13.1-1.8-2.4-3.3-4.5-3.4-6.6-1.2 1.8-3.6 2.8-6.2 4-4.1 1.8-8.7 3.8-10.1 9.3-.5 1.4 1.2 2.8 2.8 3.7zm-1.7-3c1.3-4.8 5.4-6.6 9-8.2 2.4-1 4.4-2 5.5-3.6.1 1.9 1.5 3.8 3.1 5.9 2.4 3.2 5 6.7 3.7 11.6-.6 2.2-6.3 1.9-11.6.5-2.8-.8-5.3-1.8-7.1-2.9-1.4-.8-2.9-2.1-2.6-3.3zM98.4 153.4c-3.2-.9-6.3-1.3-8.6-1.2-1.8 0-4 .4-4.4 1.8-1.5 5.4 1.5 9.5 4.2 13.1 1.7 2.3 3.3 4.4 3.4 6.6 1.2-1.8 3.6-2.9 6.3-4 4.1-1.8 8.7-3.8 10.2-9.2.5-2.6-5.2-5.5-11.1-7.1zm9.7 6.2c-1.3 4.8-5.4 6.6-9 8.2-2.4 1-4.5 2-5.6 3.6-.1-1.9-1.5-3.8-3-5.8-2.3-3.2-5-6.8-3.7-11.6.3-1.3 2.3-1.6 3.9-1.6 2.1 0 4.8.4 7.6 1.1 5.3 1.4 10.4 4 9.8 6.1z"/>
</symbol>

<symbol id="heart" viewBox="0 0 220 220">
        <style>.st0{fill:#EC1C24;}.st1{fill:#F6921E;}.st2{fill:#FFCA05;}.st3{fill:#8BC53F;}.st4{fill:#00ADEE;}.st5{fill:#5B57A4;}.st6{fill:#FFFFFF;}.st7{fill:none;stroke:#5B57A4;stroke-width:0.25;stroke-miterlimit:10;}.st8{fill:#A2238D;}</style><path class="st3" d="M62.1 180.1c1.3 3.5 2.5 6.5 2 9.2 2.1-1.8 5.4-2.3 9.1-2.9 3.6-.5 7.5-1.1 10.8-3.1-9.1-3.2-17.3-8-24.5-14.2-.1 3.9 1.3 7.6 2.6 11zM95.8 186.5c1.9 3.4 5 5.8 7.8 8.1 2.9 2.3 5.6 4.4 6.4 7 .9-2.6 3.4-4.7 6.3-7 2.8-2.3 5.9-4.8 7.8-8.1-4.6.8-9.3 1.3-14.2 1.3-4.8 0-9.5-.4-14.1-1.3zM33.5 146.8c-.6 3.7-1.1 6.9-2.9 9 2.7-.6 5.8.7 9.3 2.1 3.4 1.3 7.1 2.8 10.9 2.7-6.1-7.2-11-15.4-14.2-24.5-2 3.3-2.6 7.1-3.1 10.7zM146.8 186.4c3.7.5 7 1 9.1 2.9-.6-2.7.6-5.8 2-9.2 1.3-3.4 2.8-7.1 2.7-10.9-7.2 6.1-15.5 11-24.5 14.2 3.2 1.9 7.1 2.5 10.7 3zM169.1 160.5c3.9.1 7.6-1.4 11-2.7 3.5-1.4 6.6-2.6 9.3-2-1.8-2.1-2.3-5.3-2.9-9-.6-3.6-1.2-7.5-3.2-10.8-3.2 9-8 17.3-14.2 24.5zM189.3 64.1c-2.7.6-5.8-.6-9.2-2-3.4-1.3-7.1-2.8-11-2.7 6.1 7.2 11 15.5 14.2 24.6 2-3.3 2.6-7.2 3.1-10.9.6-3.6 1.1-6.9 2.9-9zM30.7 64.1c1.9 2.1 2.3 5.4 2.9 9.1.5 3.6 1.1 7.5 3.1 10.7 3.2-9 8.1-17.3 14.2-24.5-3.8-.1-7.5 1.3-10.9 2.7-3.6 1.4-6.6 2.6-9.3 2zM33.4 95.9c-3.3 1.9-5.8 4.9-8.1 7.7-2.3 2.9-4.4 5.5-7 6.3 2.6.9 4.7 3.5 7 6.4 2.2 2.8 4.7 5.9 8 7.8-.8-4.6-1.3-9.3-1.3-14.1.1-4.8.6-9.5 1.4-14.1zM155.7 30.6c-2 1.8-5.3 2.3-9 2.9-3.6.5-7.5 1.2-10.8 3.2 9.1 3.2 17.4 8.1 24.6 14.2.1-3.9-1.4-7.6-2.7-11-1.4-3.5-2.6-6.6-2.1-9.3zM116.4 25.4c-2.9-2.3-5.5-4.4-6.3-7-.9 2.6-3.5 4.7-6.4 7-2.9 2.3-6 4.7-7.8 8.1 4.6-.8 9.3-1.3 14.2-1.3 4.8 0 9.6.5 14.2 1.3-2-3.4-5.1-5.9-7.9-8.1zM64.2 30.6c.6 2.7-.7 5.8-2.1 9.3-1.3 3.4-2.8 7.1-2.7 10.9 7.2-6.1 15.5-11 24.5-14.2-3.3-2-7.2-2.6-10.8-3.2-3.6-.5-6.8-1-8.9-2.8z"/><path class="st3" d="M205.5 100.5c-3.7-4.7-7.9-9.8-13.8-12.4 3.8-5.2 4.8-11.7 5.6-17.6.8-5.5 1.5-10.4 4.3-13.5-4 .8-8.6-.9-13.7-2.9-5.6-2.2-11.7-4.5-18.1-3.8.7-6.4-1.7-12.5-3.9-18.1-2.1-5.2-3.9-9.8-3-13.8-3 2.7-7.9 3.5-13.3 4.3-5.9.9-12.4 1.9-17.6 5.8-2.6-5.9-7.7-10-12.4-13.8-4.3-3.4-8.1-6.5-9.4-10.4-1.3 3.9-5.2 7-9.6 10.5-4.7 3.7-9.9 7.8-12.5 13.7-5.2-3.8-11.7-4.8-17.6-5.7-5.5-1.1-10.3-1.8-13.4-4.5.9 4-1 8.7-3 13.8-2.2 5.6-4.6 11.7-3.9 18.1-6.4-.7-12.5 1.6-18.1 3.8-5.1 2-9.7 3.8-13.7 2.9 2.8 3.1 3.5 8 4.3 13.5.9 6 1.8 12.5 5.6 17.7-5.9 2.6-10 7.7-13.8 12.4-3.4 4.3-6.5 8.1-10.4 9.4 3.9 1.3 7 5.2 10.5 9.6 3.7 4.7 7.8 9.9 13.7 12.5-3.8 5.2-4.8 11.7-5.7 17.6-.8 5.4-1.6 10.3-4.3 13.3 4-.9 8.6 1 13.8 3 5.6 2.2 11.7 4.6 18.1 3.9-.7 6.4 1.6 12.5 3.8 18.1 2 5.1 3.8 9.7 3 13.7 3.1-2.8 8-3.5 13.5-4.3 5.9-.9 12.4-1.8 17.6-5.6 2.6 5.9 7.7 10 12.5 13.7 4.4 3.5 8.3 6.5 9.6 10.5 1.3-3.9 5.1-6.9 9.4-10.4 4.7-3.7 9.8-7.9 12.4-13.8 5.2 3.8 11.7 4.8 17.6 5.6 5.5.8 10.4 1.5 13.5 4.3-.8-4 .9-8.6 2.9-13.7 2.2-5.6 4.5-11.7 3.8-18.1 6.4.7 12.5-1.7 18.1-3.9 5.2-2.1 9.8-3.9 13.8-3-2.7-3-3.5-7.9-4.3-13.3-.9-5.9-1.9-12.4-5.7-17.6 5.9-2.6 10-7.7 13.7-12.5 3.5-4.4 6.5-8.3 10.5-9.6-3.9-1.3-7-5.1-10.4-9.4zm-8.4 16.7c-3 3.8-6.3 7.9-11.2 9.8-.5 2.2-1 4.3-1.7 6.4 3.3 4 4.1 9.2 4.9 14 .6 4.1 1.2 7.8 3.3 10.1-3.1-.6-6.6.7-10.5 2.3-4.5 1.8-9.4 3.7-14.5 2.9-1.5 1.6-3.1 3.2-4.7 4.7.8 5.1-1 10-2.8 14.5-1.5 3.9-2.9 7.4-2.2 10.4-2.3-2.1-6.1-2.6-10.3-3.3-4.7-.7-9.9-1.5-14-4.7-2.1.7-4.3 1.2-6.5 1.7-1.8 4.9-5.9 8.2-9.6 11.2-3.3 2.6-6.2 4.9-7.1 7.9-1-3-3.9-5.3-7.3-7.9-3.8-3-7.9-6.3-9.7-11.1-2.2-.5-4.3-1-6.5-1.7-4 3.2-9.2 4-13.9 4.7-4.2.6-7.9 1.2-10.3 3.3.6-3-.7-6.5-2.2-10.4-1.7-4.5-3.6-9.3-2.8-14.5-1.6-1.5-3.2-3.1-4.7-4.7-5.1.8-10-1.1-14.5-2.9-3.9-1.6-7.4-3-10.5-2.3 2.1-2.3 2.6-6 3.3-10.1.7-4.7 1.5-9.9 4.8-13.9-.7-2.1-1.2-4.3-1.7-6.5-4.8-1.9-8.1-6-11.1-9.7-2.6-3.3-5-6.3-7.9-7.3 3-1 5.3-3.9 7.9-7.1 3-3.7 6.3-7.7 11.1-9.6.5-2.2 1.1-4.4 1.8-6.6-3.2-4-4-9.2-4.7-13.9-.6-4.2-1.2-7.9-3.3-10.3 3 .6 6.5-.7 10.4-2.2 4.5-1.7 9.3-3.6 14.5-2.8 1.5-1.6 3.1-3.2 4.7-4.7-.8-5.1 1.1-10 2.9-14.5 1.6-3.9 3-7.4 2.3-10.5 2.3 2.1 6 2.6 10.1 3.3 4.7.7 9.9 1.5 13.9 4.8 2.1-.7 4.3-1.2 6.5-1.7 1.9-4.9 6-8.1 9.7-11.1 3.3-2.6 6.3-5 7.3-8 1 3 3.9 5.3 7.1 7.9 3.7 3 7.8 6.3 9.6 11.2 2.2.5 4.4 1.1 6.5 1.7 4-3.3 9.2-4.1 14-4.8 4.1-.6 7.8-1.2 10.1-3.3-.6 3.1.7 6.6 2.3 10.5 1.8 4.5 3.7 9.4 2.9 14.5 1.6 1.5 3.2 3.1 4.7 4.7 5.1-.9 10.1 1 14.5 2.8 3.9 1.5 7.4 2.9 10.4 2.2-2.1 2.3-2.6 6.1-3.3 10.3-.7 4.8-1.5 10-4.8 14 .7 2.1 1.2 4.3 1.7 6.5 4.9 1.8 8.2 5.9 11.2 9.6 2.6 3.3 4.9 6.2 7.9 7.1-3.1.8-5.4 3.8-8 7.1z"/><path class="st3" d="M194.6 103.6c-2.3-2.9-4.8-6-8.2-7.8.8 4.6 1.3 9.3 1.3 14.2 0 4.9-.5 9.6-1.3 14.2 3.4-1.9 5.9-5 8.2-7.9 2.3-3 4.4-5.6 7-6.4-2.6-.8-4.6-3.4-7-6.3z"/><g><path class="st3" d="M90.6 70.5L108.8 38l1.3-2.3h-.1c-19.8 0-38.5 7.7-52.5 21.8-4 4-7.4 8.4-10.4 13h43.5zM129.9 70.5h43c-2.9-4.7-6.4-9-10.4-13-13.9-13.9-32.2-21.6-51.8-21.7l1.2 2.3 18 32.4zM149.6 113.4l-17.8 32h35.5z"/><path class="st3" d="M129.9 149l-18 32.5-1.5 2.8-1.5-2.8L90.6 149H46.8l1.5-2.6 20.5-36.6-20.6-36.7-1.3-2.4C39.6 82.4 35.6 95.9 35.6 110c0 19.8 7.7 38.5 21.8 52.5 14 14 32.7 21.8 52.5 21.8 19.8 0 38.5-7.7 52.5-21.8 4.1-4.1 7.7-8.7 10.7-13.6H129.9z"/><path class="st3" d="M125.8 149H94.7l15.6 28zM147.5 109.7L127.8 74H92.7l-20 35.7 20 35.7h35.1zM173.1 70.8l-1.2 2.3-20.3 36.6 20.3 36.6 1.4 2.6c7.1-11.6 11-24.9 11-38.9-.1-14.1-4-27.5-11.2-39.2zM88.7 145.4l-18-32.1-17.9 32.1zM52.8 74l17.9 32.1 18-32.1zM131.8 74l17.8 32.1L167.3 74zM125.8 70.5l-15.5-28-15.6 28z"/></g><path class="st3" d="M173.3 149c-.1-.1-.1-.1 0 0zM110.4 35.2l-.3.5h.6l-.3-.5zM46.8 70.5l.1.2c0-.1.1-.2.2-.2h-.3zM173.3 70.5h-.4c.1.1.2.2.2.4l.2-.4z"/>
</symbol>

<symbol id="root" viewBox="0 0 220 220">
        <style>.st0{fill:#EC1C24;}.st1{fill:#F6921E;}.st2{fill:#FFCA05;}.st3{fill:#8BC53F;}.st4{fill:#00ADEE;}.st5{fill:#5B57A4;}.st6{fill:#FFFFFF;}.st7{fill:none;stroke:#5B57A4;stroke-width:0.25;stroke-miterlimit:10;}.st8{fill:#A2238D;}</style><path class="st0" d="M150.4 69.6H69.6v80.7h80.7V69.6zm-11.3 20.3l-27.3 49.4-1.6 2.9-1.6-2.9-27.7-49.4-1.5-2.7h61.1l-1.4 2.7z"/><path class="st0" d="M110.1 134.6l24.3-43.8H85.7zM53.7 75.3C44 77.9 38 87.3 32.6 95.7c-4.1 6.5-7.8 12.2-12.5 14.1 4.7 1.9 8.4 7.8 12.5 14.3 5.4 8.5 11.4 17.9 21 20.5-6.2-10.1-9.8-21.9-9.8-34.6.1-12.7 3.7-24.6 9.9-34.7zM75.3 166.3c2.6 9.6 12 15.6 20.5 21 6.6 4.1 12.4 7.8 14.3 12.5 1.9-4.7 7.6-8.3 14.1-12.5 8.4-5.4 17.8-11.4 20.4-21.1-10.1 6.2-22 9.8-34.7 9.8-12.6.1-24.5-3.5-34.6-9.7zM144.7 53.7c-2.6-9.7-12-15.7-20.4-21.1-6.4-4.1-12.2-7.8-14.1-12.5-1.9 4.7-7.8 8.4-14.3 12.5-8.5 5.4-18 11.4-20.6 21.1h-.1c10.1-6.2 22-9.8 34.7-9.8 12.8 0 24.7 3.6 34.8 9.8z"/><path class="st0" d="M198.2 89.8c-8.9-13.9-19-29.7-37.2-29.7-.4 0-.9.1-1.3.2.1-.4.2-.8.2-1.3 0-18.2-15.8-28.3-29.7-37.2-9.1-5.8-17.2-11-19.9-17.6-2.7 6.6-11 11.9-20.2 17.7-14.1 8.9-30 18.9-30 37.1 0 .4.1.9.2 1.3-.4-.1-.8-.2-1.3-.2-18.2 0-28.3 15.8-37.2 29.7-5.8 9.1-11 17.2-17.6 19.9 6.6 2.7 11.9 11 17.7 20.2 8.9 14.1 18.9 30 37.1 30 .4 0 .9-.1 1.3-.2-.1.4-.2.8-.2 1.3 0 18.1 15.9 28.2 30 37.1 9.3 5.9 17.5 11.1 20.2 17.7 2.7-6.6 10.8-11.8 19.9-17.6 13.9-8.9 29.7-19 29.7-37.2 0-.4-.1-.9-.2-1.3.4.1.8.2 1.3.2 18.1 0 28.2-15.9 37.1-30 5.9-9.3 11.1-17.5 17.7-20.2-6.6-2.7-11.8-10.8-17.6-19.9zm-6.5 36.1c-7 11.1-14.9 23.6-29 24-3.7 4.8-8 9.2-12.8 12.8-.4 14.1-12.8 22.1-23.8 29.1-7.3 4.7-13.8 8.8-15.9 14.1-2.2-5.3-8.8-9.5-16.2-14.2-11.1-7-23.6-14.9-24-29-4.8-3.7-9.2-8-12.8-12.8-14.1-.4-22-12.9-29-24-4.7-7.4-8.8-14-14.2-16.2 5.3-2.2 9.4-8.6 14.1-15.9 7-11 15-23.4 29.1-23.7 3.7-4.9 8-9.2 12.9-12.9.4-14.1 12.9-22 24-29 7.4-4.7 14-8.9 16.2-14.2 2.2 5.3 8.6 9.4 15.9 14.1 11 7 23.4 15 23.8 29.1 4.9 3.7 9.2 8 12.9 12.9 14.1.4 22.1 12.8 29.1 23.7 4.7 7.3 8.8 13.8 14.1 15.9-5.5 2.2-9.7 8.8-14.4 16.2z"/><path class="st0" d="M187.4 95.7c-5.4-8.4-11.4-17.8-21.1-20.4 6.2 10.1 9.8 22 9.8 34.7 0 12.7-3.6 24.6-9.8 34.6 9.6-2.6 15.6-12 21-20.5 4.1-6.6 7.8-12.4 12.5-14.3-4.6-1.9-8.3-7.7-12.4-14.1z"/><path class="st0" d="M154.1 65.9c-11.8-11.8-27.5-18.3-44.1-18.3-16.7 0-32.3 6.5-44.1 18.3C54.1 77.7 47.6 93.3 47.6 110c0 16.7 6.5 32.3 18.3 44.1 11.8 11.8 27.5 18.3 44.1 18.3 16.7 0 32.3-6.5 44.1-18.3 11.8-11.8 18.3-27.5 18.3-44.1 0-16.7-6.5-32.3-18.3-44.1zm-.1 84.5v3.7H66V66h88v84.4z"/>
</symbol>

<symbol id="sacral" viewBox="0 0 220 220">
        <style>.st0{fill:#EC1C24;}.st1{fill:#F6921E;}.st2{fill:#FFCA05;}.st3{fill:#8BC53F;}.st4{fill:#00ADEE;}.st5{fill:#5B57A4;}.st6{fill:#FFFFFF;}.st7{fill:none;stroke:#5B57A4;stroke-width:0.25;stroke-miterlimit:10;}.st8{fill:#A2238D;}</style><path class="st1" d="M174.1 110c0-13.6-4.2-26.5-12-37.4 5.1 8.7 8 18.7 8 29.4 0 32.6-27 59.1-60.1 59.1-33.2 0-60.2-26.5-60.2-59.1 0-10.7 2.9-20.8 8-29.4-7.8 10.8-12 23.8-12 37.4 0 17.1 6.7 33.2 18.8 45.4 12.1 12.1 28.2 18.8 45.4 18.8 17.1 0 33.2-6.7 45.4-18.8 12-12.2 18.7-28.3 18.7-45.4z"/><path class="st1" d="M110 157.7c31.2 0 56.6-24.9 56.6-55.6 0-30.7-25.4-55.6-56.6-55.6-31.2 0-56.6 24.9-56.6 55.6-.1 30.6 25.3 55.6 56.6 55.6zM85.4 173.1c2.6 7.2 8.7 12.1 14.2 16.4 4.8 3.8 9.1 7.1 10.5 11.4 1.4-4.2 5.6-7.6 10.3-11.4 5.5-4.4 11.5-9.3 14.1-16.5-7.6 3-15.9 4.6-24.5 4.6-8.7.1-17-1.6-24.6-4.5z"/><path class="st1" d="M134.5 47c-2.6-7.3-8.6-12.1-14.1-16.5-4.7-3.8-8.9-7.1-10.3-11.4-1.4 4.3-5.7 7.7-10.5 11.4-5.5 4.4-11.6 9.2-14.2 16.4 7.6-3 15.9-4.6 24.5-4.6 8.7 0 17 1.7 24.6 4.7zM43.1 120.4c-5 5.8-6.1 13.5-7.2 20.4-.9 6-1.7 11.3-4.7 14.6 4.4-.9 9.5 1.1 15.1 3.3 6.6 2.6 13.8 5.5 21.4 4.1-12.9-10.3-22-25.3-24.6-42.4zM176.9 100.1v-.2c5-5.9 6.2-13.6 7.2-20.6.9-6 1.7-11.4 4.7-14.8-4.4.9-9.4-1-15-3.2-6.6-2.6-13.8-5.4-21.4-4 12.9 10.4 22 25.5 24.5 42.8zM67.7 57.2c-7.6-1.4-14.8 1.4-21.4 4-5.6 2.2-10.6 4.1-15 3.2 3 3.4 3.8 8.7 4.7 14.8 1 7 2.2 14.7 7.1 20.5 2.6-17.1 11.6-32.1 24.6-42.5zM176.8 120.3v-.1c-2.6 17.2-11.6 32.2-24.6 42.6 7.6 1.4 14.8-1.5 21.4-4.1 5.7-2.3 10.7-4.3 15.1-3.3-3-3.3-3.8-8.6-4.7-14.6-1-7-2.2-14.7-7.2-20.5z"/><path class="st1" d="M194.8 141.9c-1.7-11-3.6-23.3-13.1-31.9 9.6-8.5 11.4-20.9 13-32 1.2-8.5 2.4-16.1 6.6-20.9-6.2 1.3-13.2-1.5-21.2-4.6-10.5-4.1-22.1-8.6-34.3-4.5-2.5-12.7-12.3-20.5-21.1-27.5-6.7-5.3-12.6-10.1-14.5-16.1-2 6.1-8 10.8-14.8 16.2-8.8 7-18.6 14.8-21.2 27.3-12.2-4.1-23.8.4-34.3 4.5-7.9 3.1-15 5.9-21.2 4.6 4.3 4.8 5.4 12.3 6.6 20.9 1.6 11.2 3.5 23.6 13.1 32.1-9.6 8.5-11.5 20.9-13.2 31.9-1.3 8.4-2.4 15.9-6.6 20.6 6.2-1.3 13.4 1.5 21.4 4.7 10.4 4.2 22.1 8.8 34.2 4.7 2.6 12.5 12.4 20.3 21.2 27.2 6.8 5.3 12.8 10.1 14.8 16.2 2-6 7.9-10.7 14.5-16.1 8.8-7 18.5-14.8 21-27.4 12.2 4 23.8-.6 34.3-4.7 8-3.2 15.1-6 21.4-4.7-4.2-4.6-5.3-12-6.6-20.5zm-18.3 19.9c-8.5 3.4-17.9 7.1-27.8 3.7-3.1 2.2-6.5 4.1-10 5.8-1.9 10.3-9.8 16.7-16.9 22.3-5.3 4.3-10.1 8-11.6 12.8-1.6-4.9-6.4-8.7-11.8-12.9-7.2-5.7-15.1-12-17.1-22.2-3.5-1.6-6.8-3.5-9.9-5.7-9.9 3.5-19.4-.3-27.9-3.6-6.4-2.6-12.1-4.8-17.1-3.8 3.4-3.8 4.3-9.8 5.3-16.5 1.4-9 2.9-19 10.8-25.8-.2-1.9-.3-3.9-.3-5.9 0-1.9.1-3.8.3-5.7-8-6.8-9.4-16.9-10.7-25.9-1-6.8-1.9-12.9-5.3-16.7 4.9 1 10.6-1.2 16.9-3.6 8.5-3.3 17.9-7 27.8-3.5 3.1-2.2 6.5-4.1 10-5.8 1.9-10.3 9.9-16.6 17.1-22.3 5.4-4.3 10.2-8.1 11.8-12.9 1.6 4.8 6.3 8.6 11.6 12.8 7.1 5.7 15 12 16.9 22.3 3.6 1.7 6.9 3.6 10.1 5.9 9.9-3.5 19.3.2 27.8 3.5 6.3 2.5 12 4.7 16.9 3.6-3.4 3.8-4.3 9.9-5.3 16.7-1.3 9.1-2.8 19.2-10.8 26v-.1c.2 1.9.3 3.8.3 5.7 0 1.9-.1 3.9-.3 5.8 8 6.8 9.5 16.9 10.9 25.9 1 6.7 1.9 12.7 5.3 16.5-4.9-1.2-10.6 1.1-17 3.6zM81.3 48.7s-.1 0 0 0c-.1 0 0 0 0 0zM57.8 72.6zM162.1 72.6z"/>
</symbol>

<symbol id="solar" viewBox="0 0 220 220">
        <style>.st0{fill:#EC1C24;}.st1{fill:#F6921E;}.st2{fill:#FFCA05;}.st3{fill:#8BC53F;}.st4{fill:#00ADEE;}.st5{fill:#5B57A4;}.st6{fill:#FFFFFF;}.st7{fill:none;stroke:#5B57A4;stroke-width:0.25;stroke-miterlimit:10;}.st8{fill:#A2238D;}</style><path class="st2" d="M36.2 77.6c-3.9 2.5-7.3 4.8-10.8 4.8 2.8 2 4.3 6 5.9 10.4 1.5 4 3.1 8.3 5.9 11.7.9-12 4.7-23.2 10.7-32.9v.1c-4.4 1-8.2 3.5-11.7 5.9zM37.2 115.6c-2.9 3.4-4.5 7.7-6 11.6-1.6 4.3-3.1 8.2-5.9 10.2 3.5 0 6.9 2.3 10.8 4.9 3.5 2.4 7.3 4.9 11.7 6-5.9-9.7-9.7-20.8-10.6-32.7 0-.1 0-.1 0 0zM54.4 157.2c-.3 4.5.9 8.9 2 13 1.2 4.5 2.3 8.4 1.3 11.7 2.8-2 7-2.2 11.7-2.4 4.2-.2 8.8-.4 13-2-11-4.5-20.5-11.5-28-20.3zM57.7 38c1.1 3.3-.1 7.3-1.3 11.8-1.2 4.1-2.4 8.6-2.1 13 7.5-8.8 17-15.8 27.9-20.3-4.1-1.7-8.7-2-13-2.2-4.6-.1-8.7-.3-11.5-2.3zM162.2 37.9c-2.8 2-6.9 2.2-11.5 2.4-4.3.2-8.9.4-13.1 2.2 10.9 4.5 20.5 11.5 28 20.4.4-4.5-.9-9-2.1-13.1-1.2-4.5-2.4-8.5-1.3-11.9zM118 29.8c-3.6-2.9-6.8-5.5-7.9-8.7-1.1 3.3-4.4 5.9-8 8.8-3.4 2.6-7 5.5-9.3 9.3 5.5-1.3 11.3-2.1 17.2-2.1 6 0 11.7.7 17.3 2.1-2.4-3.9-6-6.8-9.3-9.4zM182.6 104.6c3-3.4 4.6-7.8 6.1-11.9 1.6-4.4 3.1-8.3 5.9-10.4-3.4 0-6.9-2.3-10.7-4.8-3.6-2.4-7.5-4.9-11.9-5.9 0-.1-.1-.1-.1-.2 6 9.9 9.9 21.1 10.7 33.2zM92.7 180.9c2.4 3.8 6 6.7 9.3 9.3 3.7 2.9 7 5.5 8 8.8 1.1-3.3 4.3-5.8 7.9-8.7 3.3-2.7 6.9-5.6 9.3-9.4-5.5 1.3-11.3 2.1-17.3 2.1-5.9-.1-11.7-.8-17.2-2.1z"/><path class="st2" d="M210.3 142.4c-4.1-3-6.3-8.7-8.7-15.2-2.2-5.9-4.6-12.2-8.9-17.2 4.2-5.1 6.6-11.4 8.8-17.3 2.4-6.5 4.6-12.3 8.7-15.4-5.1 0-10.2-3.4-16-7.2-5.3-3.5-10.9-7.2-17.4-8.7.4-6.6-1.4-13.1-3.1-19.2-1.9-6.7-3.6-12.7-2-17.6-4.1 3-10.3 3.3-17.1 3.6-6.3.3-13.1.6-19.2 3.1-3.5-5.6-8.8-9.9-13.6-13.8-5.4-4.3-10.2-8.1-11.7-13-1.6 4.9-6.5 8.7-11.9 13.1-4.9 3.9-10.2 8.1-13.8 13.7-6.1-2.5-12.9-2.8-19.2-3.1-6.9-.3-13-.6-17.1-3.6 1.6 4.9-.1 10.9-2 17.6-1.7 6.1-3.5 12.6-3.1 19.2-6.4 1.6-12 5.3-17.3 8.7-5.8 3.8-10.9 7.1-16 7.2 4.2 3 6.3 8.9 8.7 15.4 2.2 5.9 4.6 12.3 8.8 17.3-4.3 5-6.7 11.4-8.9 17.3-2.4 6.4-4.6 12.2-8.7 15.2 5.2 0 10.3 3.4 16.1 7.3 5.2 3.5 10.9 7.2 17.3 8.8-.5 6.6 1.3 13.1 2.9 19.2 1.8 6.6 3.4 12.5 1.9 17.4 4.2-3 10.4-3.3 17.3-3.6 6.3-.3 13-.5 19.2-3 3.5 5.6 8.8 9.8 13.8 13.7 5.5 4.3 10.3 8.2 11.9 13.1 1.6-4.9 6.4-8.7 11.7-13 4.9-3.9 10.2-8.2 13.7-13.8 6.1 2.5 12.9 2.7 19.2 3 7 .3 13.2.5 17.3 3.6-1.6-4.9.1-10.8 1.9-17.4 1.7-6.1 3.4-12.6 2.9-19.2 6.4-1.6 12.1-5.4 17.3-8.9 6-3.9 11.1-7.3 16.3-7.3zm-40.4 9.1c-.6.9-1.3 1.8-1.9 2.6 1.5 6.1-.2 12.3-1.7 17.9-1.4 5-2.6 9.5-1.4 13.2-3.2-2.3-7.9-2.5-13.2-2.7-5.8-.2-12.2-.5-17.6-3.8-1 .4-2.1.7-3.1 1-2.4 5.8-7.4 9.8-11.9 13.5-4.1 3.3-7.7 6.2-8.9 9.9-1.2-3.7-4.9-6.6-9.1-9.9-4.6-3.6-9.6-7.6-12-13.4-1.1-.3-2.1-.7-3.1-1-5.4 3.3-11.7 3.5-17.6 3.8-5.3.2-10 .4-13.2 2.7 1.2-3.7 0-8.2-1.4-13.2-1.5-5.6-3.2-11.8-1.7-17.9-.7-.9-1.3-1.8-2-2.7-6.2-.5-11.6-4-16.4-7.3-4.4-2.9-8.3-5.6-12.2-5.6 3.1-2.3 4.8-6.6 6.6-11.5 2.1-5.4 4.3-11.4 9.1-15.5v-1.7-1.7c-4.8-4.1-7-10.1-9-15.5-1.8-5-3.5-9.4-6.6-11.7 3.9 0 7.8-2.6 12.1-5.4 4.9-3.2 10.2-6.7 16.5-7.2.6-.9 1.3-1.8 2-2.7-1.5-6.1.2-12.3 1.8-17.9 1.4-5.1 2.7-9.6 1.5-13.4 3.1 2.3 7.8 2.5 13 2.7 5.8.3 12.2.6 17.6 3.9 1-.4 2.1-.7 3.1-1 2.4-5.8 7.4-9.8 12-13.4 4.2-3.3 7.9-6.2 9.1-9.9 1.2 3.7 4.8 6.6 8.9 9.9 4.6 3.6 9.5 7.7 11.9 13.5 1.1.3 2.1.7 3.2 1 5.4-3.4 11.8-3.7 17.6-3.9 5.2-.2 9.9-.5 13-2.7-1.2 3.7.1 8.3 1.5 13.4 1.6 5.7 3.3 11.9 1.8 18 .7.9 1.3 1.8 1.9 2.7 6.3.4 11.7 3.9 16.6 7.2 4.4 2.9 8.3 5.4 12.1 5.4-3.2 2.3-4.8 6.7-6.6 11.7-2 5.5-4.3 11.6-9.2 15.7v3c4.9 4.1 7.2 10.1 9.2 15.6 1.8 4.9 3.5 9.2 6.6 11.5-3.9 0-7.8 2.6-12.2 5.6-5.1 3.2-10.4 6.8-16.7 7.2z"/><path class="st2" d="M188.8 127.2c-1.5-4-3.2-8.4-6.2-11.8-.9 12-4.7 23.2-10.7 32.9 4.4-1.1 8.3-3.6 11.8-6 3.9-2.6 7.4-4.9 10.8-4.9-2.6-2-4.1-5.9-5.7-10.2zM137.6 177.5c4.1 1.7 8.7 1.9 13 2.1 4.7.2 8.9.4 11.7 2.4-1.1-3.3 0-7.2 1.3-11.7 1.1-4.1 2.3-8.6 2-13.1-7.5 8.8-17.1 15.8-28 20.3z"/><g><path class="st2" d="M168.8 73.3l-1.4 2.5-55.6 100.5-1.5 2.8-1.5-2.8L52.6 75.8l-1.5-2.6h114.8l2.9.1c-2.8-4.5-6.1-8.6-9.8-12.4-13.1-13.1-30.5-20.3-49.1-20.3-18.5 0-36 7.2-49.1 20.3C47.7 74 40.5 91.5 40.5 110s7.2 36 20.3 49.1c13.1 13.1 30.5 20.3 49.1 20.3 18.5 0 36-7.2 49.1-20.3 13.1-13.1 20.3-30.5 20.3-49.1 0-13.2-3.6-25.8-10.5-36.7z"/><path class="st2" d="M162.9 76.7H57.1l53.2 95.2z"/></g><path class="st2" d="M182.8 111.6zM168.9 73.2h-.1s0 .1.1 0z"/>
</symbol>

<symbol id="thirdeye" viewBox="0 0 220 220">
        <style>.st0{fill:#EC1C24;}.st1{fill:#F6921E;}.st2{fill:#FFCA05;}.st3{fill:#8BC53F;}.st4{fill:#00ADEE;}.st5{fill:#5B57A4;}.st6{fill:#FFFFFF;}.st7{fill:none;stroke:#5B57A4;stroke-width:0.25;stroke-miterlimit:10;}.st8{fill:#A2238D;}</style><path class="st5" d="M65 149.3c-.7-.8-1.4-1.7-2.1-2.6-.8.7-1.7 1.1-2.7 1.1-15.2 0-23.6-12.1-31-22.7-4.9-7-9.3-13.3-14.8-15.3 5.5-2 9.8-8.2 14.7-15.1C36.6 84.1 45 72.2 60.2 72.2c1 0 1.9.4 2.7 1.1 1.9-2.5 4-4.8 6.3-6.9-2.8-2.2-5.7-3.6-7.9-3.6-19 0-29.6 15-38.9 28.2-6.1 8.6-11.5 16.3-18.4 18.9 6.9 2.6 12.4 10.4 18.5 19.2 9.3 13.3 19.8 28.4 38.8 28.4 2.2 0 4.6-1.7 7-4.5-1.1-1.3-2.2-2.5-3.3-3.7z"/><path class="st5" d="M50.2 110c0-.9 0-1.9.1-2.8v-.8c0-.7.1-1.3.2-2 0-.3 0-.5.1-.8.1-.9.2-1.8.3-2.6v-.1c.1-.9.3-1.8.5-2.6.1-.3.1-.5.2-.8.1-.6.3-1.3.4-1.9.1-.3.1-.5.2-.8.2-.8.4-1.6.7-2.4v-.1c.3-.8.5-1.7.8-2.5.1-.2.2-.5.3-.7.2-.6.5-1.2.7-1.8.1-.2.2-.5.3-.7.3-.7.6-1.5 1-2.2 0-.1.1-.1.1-.2.4-.8.8-1.5 1.2-2.3.1-.2.3-.5.4-.7.3-.5.6-1.1.9-1.6.1-.2.3-.5.4-.7.4-.7.8-1.3 1.3-2 0-.1.1-.1.1-.2-11-3.4-22.3 10.7-28.8 19.9-4.3 6.1-8.2 11.5-13 13.4 4.9 1.8 8.8 7.4 13.1 13.6 6.4 9.2 14.4 21.8 28.7 20.1 0-.1-.1-.1-.1-.2-.4-.7-.9-1.3-1.3-2-.1-.2-.3-.5-.4-.7-.3-.5-.6-1.1-.9-1.6-.1-.2-.3-.5-.4-.7-.4-.8-.8-1.5-1.2-2.3 0-.1-.1-.1-.1-.2-.3-.7-.7-1.5-1-2.2-.1-.2-.2-.5-.3-.8-.2-.6-.5-1.2-.7-1.8-.1-.2-.2-.5-.3-.7-.3-.8-.6-1.6-.8-2.5v-.1c-.2-.8-.5-1.6-.7-2.4-.1-.3-.1-.5-.2-.8-.2-.6-.3-1.3-.4-1.9-.1-.3-.1-.5-.2-.8-.2-.9-.3-1.8-.5-2.7-.1-.9-.2-1.8-.3-2.6 0-.3-.1-.5-.1-.8-.1-.7-.1-1.3-.2-2v-.8c0-1.2-.1-2.2-.1-3.1zM169.8 110c0 .9 0 1.9-.1 2.8v.8c0 .7-.1 1.4-.2 2 0 .3 0 .5-.1.8-.1.9-.2 1.8-.3 2.6v.1c-.1.9-.3 1.8-.5 2.6-.1.3-.1.5-.2.8-.1.6-.3 1.3-.4 1.9-.1.3-.1.5-.2.8-.2.8-.4 1.6-.7 2.4v.1c-.3.8-.5 1.7-.8 2.5-.1.3-.2.5-.3.8-.2.6-.5 1.2-.7 1.8-.1.3-.2.5-.3.8-.3.7-.7 1.5-1 2.2 0 .1 0 .1-.1.2-.4.8-.8 1.6-1.2 2.3-.1.2-.2.4-.4.7-.3.6-.6 1.1-1 1.7-.1.2-.3.4-.4.6-.5.7-.9 1.5-1.4 2.2v.1c13.9 1.7 22.2-10.8 28.7-20.1 4.3-6.2 8.2-11.7 13.1-13.6-4.9-1.8-8.7-7.2-13-13.4-6.5-9.2-15.8-22.6-28.7-19.9.1.1.1.2.2.3.4.6.8 1.3 1.2 1.9.1.2.3.5.4.7.3.5.6 1.1.9 1.6.1.2.3.5.4.7.4.8.8 1.5 1.2 2.3 0 .1.1.1.1.2.3.7.7 1.5 1 2.2.1.2.2.5.3.7.2.6.5 1.2.7 1.8.1.2.2.5.3.7.3.8.6 1.7.8 2.5v.1c.3.8.5 1.6.7 2.5.1.3.1.5.2.8.2.6.3 1.3.4 1.9.1.3.1.5.2.8.2.9.3 1.8.5 2.7v.1c.1.9.2 1.8.3 2.6 0 .3.1.5.1.8.1.7.1 1.3.2 2v.8c0 .9.1 1.8.1 2.7z"/><path class="st5" d="M197.6 90.9c-9.3-13.2-19.9-28.2-38.9-28.2-2.1 0-5.1 1.5-7.9 3.6 2.3 2.1 4.4 4.4 6.3 6.9.8-.7 1.7-1.1 2.7-1.1 15.2 0 23.7 12 31.1 22.5 4.9 6.9 9.2 13 14.7 15.1-5.6 2.1-9.9 8.3-14.8 15.3-7.4 10.7-15.9 22.7-31 22.7-1 0-1.8-.4-2.7-1.1-.7.9-1.4 1.7-2.1 2.5-1.1 1.2-2.1 2.4-3.3 3.5 2.3 2.8 4.7 4.5 7 4.5 19 0 29.5-15.1 38.8-28.4 6.1-8.8 11.6-16.6 18.5-19.2-6.9-2.3-12.3-10-18.4-18.6zM50.6 103.6c0 .3-.1.5-.1.8 0-.3.1-.5.1-.8zM50.4 106.4v.8c-.1-.2-.1-.5 0-.8zM57.3 138.2c.1.2.3.5.4.7-.1-.2-.2-.4-.4-.7zM50.3 112.8v0zM50.5 115.6c0 .3 0 .5.1.8 0-.3-.1-.5-.1-.8zM53.8 130.3c.1.2.2.5.3.7-.1-.2-.2-.5-.3-.7zM54.8 132.8c.1.3.2.5.3.8-.1-.3-.2-.6-.3-.8zM56.1 135.8c0 .1.1.1.1.2-.1-.1-.1-.2-.1-.2zM52 124.5c.1.3.1.5.2.8-.1-.3-.1-.6-.2-.8zM52.9 127.7v0zM51.4 121.8c.1.3.1.5.2.8-.1-.3-.1-.6-.2-.8zM50.9 119.1zM50.9 100.9zM60.5 76.6c0 .1-.1.1-.1.2 0-.1 0-.2.1-.2zM62.9 73.2c1.9-2.5 4-4.8 6.3-6.9-2.3 2.2-4.4 4.5-6.3 6.9zM65 149.3c1.1 1.2 2.2 2.4 3.3 3.5-1.1-1.1-2.2-2.3-3.3-3.5zM59.1 78.7c-.1.2-.3.5-.4.7.1-.2.2-.4.4-.7zM65 149.3c-.7-.8-1.4-1.7-2.1-2.6.7.9 1.4 1.8 2.1 2.6zM52.2 94.8c-.1.3-.1.5-.2.8.1-.3.1-.6.2-.8zM52.9 92.2v0zM51.6 97.5c-.1.3-.1.5-.2.8.1-.3.1-.6.2-.8zM57.7 81.1c-.1.2-.3.5-.4.7.2-.3.3-.5.4-.7zM56.2 84.1c0 .1-.1.1-.1.2 0-.1 0-.2.1-.2zM55.1 86.5c-.1.2-.2.5-.3.7.1-.2.2-.5.3-.7zM54.1 89c-.1.2-.2.5-.3.7.1-.2.2-.5.3-.7zM50.2 110zM60.4 143.3c0 .1.1.1.1.2-.1-.1-.1-.2-.1-.2zM58.7 140.6c.1.2.3.5.4.7-.2-.3-.3-.5-.4-.7z"/><path class="st5" d="M164.9 133.6c.1-.2.2-.5.3-.8-.1.2-.2.5-.3.8zM168.6 98.2c-.1-.3-.1-.5-.2-.8.1.3.1.6.2.8zM169.1 119.1zM169.5 104.4c0-.3 0-.5-.1-.8 0 .3.1.5.1.8zM161.4 79.5c-.1-.2-.3-.5-.4-.7.1.2.2.4.4.7zM169.4 116.4c0-.3.1-.5.1-.8 0 .3-.1.5-.1.8zM163.8 135.9c0-.1.1-.1.1-.2 0 .1 0 .2-.1.2zM165.9 131c.1-.3.2-.5.3-.8-.1.3-.2.6-.3.8zM169.1 100.9zM162.3 138.9c.1-.2.2-.4.4-.7-.2.3-.3.5-.4.7zM159.7 76.8c-.1-.1-.1-.2-.2-.3.1.1.1.2.2.3zM167.8 125.2c.1-.3.1-.5.2-.8-.1.3-.1.6-.2.8zM167.1 127.8v-.1.1zM157.1 73.2c-1.9-2.5-4-4.8-6.3-6.9 2.2 2.2 4.4 4.5 6.3 6.9zM157.1 146.8c-.7.9-1.4 1.7-2.1 2.5.7-.8 1.4-1.7 2.1-2.5zM169.8 110zM168.4 122.5c.1-.3.1-.5.2-.8-.1.3-.1.6-.2.8zM159.5 143.4zM169.7 107.2v-.8.8zM165.2 87.2c-.1-.2-.2-.5-.3-.7.1.2.2.4.3.7zM163.9 84.2c0-.1-.1-.1-.1-.2.1.1.1.2.1.2zM168 95.5c-.1-.3-.1-.5-.2-.8.1.3.1.6.2.8zM77.9 79.7h80c-.6-.9-1.1-1.7-1.7-2.6-.3-.5-.7-1-1.1-1.4-1.5-2-3.2-3.9-5-5.8-.5-.5-1.1-1-1.6-1.5-10.5-9.8-24.1-15.1-38.5-15.1-14.4 0-28 5.3-38.5 15.1-.5.5-1.1 1-1.6 1.5-1.8 1.8-3.5 3.7-5 5.8-.4.5-.7 1-1.1 1.4-.6.8-1.2 1.7-1.7 2.6h15.8zM78.5 82.7H67L80.7 107l29.9 53.5 28.7-52 14.3-25.8h-12.1z"/><path class="st5" d="M158.3 80.3l-.9 1.6-18 32.5-27.6 49.8-1.3 2.3-1.3-2.3L80.6 113 63.2 81.9 62 79.8c-5.7 9-8.7 19.3-8.7 30.2 0 11.9 3.7 23.2 10.4 32.7.4.5.8 1.1 1.2 1.6 1.5 2 3.2 3.9 5 5.8.1.1.2.1.2.2 10.7 10.6 24.8 16.4 39.9 16.4 15 0 29.2-5.8 39.9-16.4.1-.1.2-.1.2-.2 1.8-1.8 3.5-3.8 5-5.8.4-.5.8-1.1 1.2-1.6 6.7-9.5 10.4-20.8 10.4-32.7 0-10.7-2.9-20.8-8.4-29.7zM155 149.3c-1 1.2-2.2 2.3-3.3 3.5 1.1-1.1 2.2-2.3 3.3-3.5zM162.7 81.8c-.1-.2-.3-.5-.4-.7.1.2.2.4.4.7zM167.1 92.3zM166.2 89.7c-.1-.2-.2-.5-.3-.7.1.2.2.5.3.7zM160.9 141.2c.1-.2.3-.4.4-.6-.1.2-.2.4-.4.6zM169.6 113.6v-.8c.1.2.1.5 0 .8z"/><path class="st6" d="M142.6 160.1c-.1.1-.2.2-.4.2.1-.1.3-.1.4-.2zM136.5 56.4c.1.1.2.1.3.2-.1 0-.2-.1-.3-.2zM142.3 59.7c.1 0 .2.1.2.1-.1 0-.1 0-.2-.1zM96.8 168.3c-.4-.1-.7-.2-1.1-.3.4.1.7.2 1.1.3zM86.5 164.9c-.1 0-.2-.1-.3-.1.1.1.2.1.3.1zM133.7 164.9h-.1.1zM83.5 163.6c-.2-.1-.4-.2-.5-.3.2.1.4.2.5.3zM80.7 162.1l-.6-.3c.2 0 .4.2.6.3zM136.9 163.3c-.2.1-.3.2-.5.2.2 0 .4-.1.5-.2zM92.6 52.8c.3-.1.5-.1.8-.2-.3.1-.5.1-.8.2zM50.6 116.4c.1.9.2 1.8.3 2.6-.1-.8-.2-1.7-.3-2.6zM50.9 119.1c.1.9.3 1.8.5 2.7-.2-.9-.3-1.8-.5-2.7zM51.6 122.5c.1.6.3 1.3.4 1.9-.1-.6-.3-1.2-.4-1.9zM52.2 125.2c.2.8.4 1.6.7 2.4-.2-.7-.5-1.5-.7-2.4zM50.4 113.6c0 .7.1 1.4.2 2-.1-.7-.2-1.3-.2-2zM50.3 107.2c0 .9-.1 1.8-.1 2.8 0-.9.1-1.8.1-2.8zM50.5 104.4c-.1.7-.1 1.3-.2 2 .1-.7.2-1.3.2-2zM52.9 127.8c.3.8.5 1.7.8 2.5-.2-.8-.5-1.7-.8-2.5zM50.3 112.8c0-.9-.1-1.8-.1-2.8 0 .9.1 1.9.1 2.8zM59.1 141.3c.4.7.8 1.3 1.3 2-.5-.7-.9-1.4-1.3-2zM56.2 135.9c.4.8.8 1.5 1.2 2.3-.5-.7-.9-1.5-1.2-2.3zM54.1 131c.2.6.5 1.2.7 1.8-.3-.6-.5-1.2-.7-1.8zM55.1 133.6c.3.7.6 1.5 1 2.2-.4-.8-.7-1.5-1-2.2zM57.7 138.9c.3.5.6 1.1.9 1.6-.3-.5-.6-1-.9-1.6zM58.6 79.4c-.3.5-.6 1.1-.9 1.6.3-.5.6-1 .9-1.6zM57.3 81.8c-.4.8-.8 1.5-1.2 2.3.4-.8.8-1.6 1.2-2.3zM56.1 84.3c-.3.7-.7 1.5-1 2.2.3-.8.6-1.5 1-2.2zM65 149.3zM50.9 101c-.1.9-.2 1.7-.3 2.6.1-.9.2-1.8.3-2.6zM60.3 76.8c-.4.6-.9 1.3-1.3 2 .5-.7.9-1.4 1.3-2zM52 95.6c-.2.6-.3 1.3-.4 1.9.1-.7.3-1.3.4-1.9zM51.4 98.2c-.2.9-.3 1.8-.5 2.6.2-.8.3-1.7.5-2.6zM53.8 89.7c-.3.8-.6 1.7-.8 2.5.2-.8.5-1.7.8-2.5zM54.8 87.2c-.2.6-.5 1.2-.7 1.8.2-.6.4-1.2.7-1.8zM52.9 92.3c-.2.8-.5 1.6-.7 2.4.2-.7.5-1.6.7-2.4zM169.6 106.4c0-.7-.1-1.3-.2-2 .1.7.2 1.3.2 2zM167.8 94.8c-.2-.8-.4-1.6-.7-2.5.2.8.5 1.6.7 2.5zM168.4 97.5c-.1-.6-.3-1.3-.4-1.9.1.6.3 1.2.4 1.9zM169.5 115.6c.1-.7.1-1.3.2-2-.1.7-.2 1.3-.2 2zM169.1 100.9c-.1-.9-.3-1.8-.5-2.7.2.9.3 1.8.5 2.7zM169.4 103.6c-.1-.9-.2-1.8-.3-2.6.1.8.2 1.7.3 2.6zM167.1 92.2c-.3-.8-.5-1.7-.8-2.5.2.8.5 1.7.8 2.5zM169.8 110c0-.9 0-1.8-.1-2.8 0 1 .1 1.9.1 2.8zM165.9 89c-.2-.6-.5-1.2-.7-1.8.3.6.5 1.2.7 1.8zM169.8 110c0 .9 0 1.9-.1 2.8 0-.9.1-1.9.1-2.8zM160.9 78.7c-.4-.7-.8-1.3-1.2-1.9.4.6.8 1.3 1.2 1.9zM163.8 84.1c-.4-.8-.8-1.5-1.2-2.3.5.7.9 1.5 1.2 2.3zM162.3 81.1c-.3-.5-.6-1.1-.9-1.6.3.5.6 1 .9 1.6zM164.9 86.5c-.3-.7-.7-1.5-1-2.2.4.7.7 1.4 1 2.2zM162.7 138.2c.4-.8.8-1.5 1.2-2.3-.4.8-.8 1.6-1.2 2.3zM161.3 140.6c.3-.6.7-1.1 1-1.7-.3.6-.6 1.1-1 1.7zM159.5 143.4c.5-.7.9-1.4 1.4-2.2-.4.8-.9 1.5-1.4 2.2zM163.9 135.8c.3-.7.7-1.5 1-2.2-.3.7-.6 1.4-1 2.2zM155 149.3zM167.1 127.6c.2-.8.5-1.6.7-2.4-.2.8-.5 1.6-.7 2.4zM168.6 121.8c.2-.9.3-1.8.5-2.6-.2.8-.3 1.7-.5 2.6zM168 124.4c.2-.6.3-1.3.4-1.9-.1.7-.3 1.3-.4 1.9zM166.2 130.3c.3-.8.6-1.6.8-2.5-.2.8-.5 1.7-.8 2.5zM169.1 119.1c.1-.9.2-1.8.3-2.6-.1.8-.2 1.7-.3 2.6zM165.2 132.8c.2-.6.5-1.2.7-1.8-.2.6-.4 1.2-.7 1.8z"/><path class="st7" d="M151.2 66.6c-2.6-2.4-5.7-4.8-8.7-6.7-.1-.1-.2-.1-.2-.1-.8-.5-1.7-1-2.5-1.5-.1-.1-.2-.1-.4-.2-.8-.5-1.7-.9-2.6-1.4-.1-.1-.2-.1-.3-.2-2.9-1.5-6-2.7-9.2-3.6-.2-.1-.5-.1-.7-.2l-2.4-.6c-.3-.1-.7-.2-1-.2-.7-.2-1.4-.3-2.2-.4-.4-.1-.8-.1-1.1-.2l-2.1-.3c-.4-.1-.8-.1-1.2-.1-.8-.1-1.5-.1-2.3-.2-.3 0-.7-.1-1-.1-1.1-.1-2.2-.1-3.3-.1-1.1 0-2.2 0-3.3.1-.4 0-.7.1-1.1.1-.8.1-1.5.1-2.2.2-.4 0-.8.1-1.2.2l-2.1.3c-.4.1-.8.1-1.2.2-.7.1-1.4.3-2.1.4-.4.1-.7.2-1.1.2-.8.2-1.6.4-2.3.6-.3.1-.5.1-.8.2-2.1.6-4.2 1.4-6.2 2.3h-.1c-1 .4-1.9.9-2.9 1.3-.1.1-.3.1-.4.2-.8.4-1.7.9-2.5 1.3-.1.1-.3.2-.4.2-.8.5-1.7 1-2.5 1.5-.1.1-.2.1-.3.2-2.9 1.9-5.7 4.1-8.2 6.5M67.3 151.9c2 2 5.2 4.8 7.5 6.5 0 0 .1 0 .1.1.8.6 1.7 1.2 2.5 1.7.1.1.3.2.4.3.8.5 1.5.9 2.3 1.4l.6.3c.8.4 1.5.8 2.3 1.2.2.1.4.2.5.3l2.7 1.2c.1 0 .2.1.3.1 2 .9 4 1.6 6.1 2.2.3.1.6.2.9.2.7.2 1.5.4 2.2.6.4.1.7.2 1.1.3.7.2 1.4.3 2.1.4.4.1.8.1 1.2.2l2.1.3c.4.1.8.1 1.2.2.7.1 1.5.1 2.2.2.4 0 .7.1 1.1.1 1.1.1 2.2.1 3.3.1 1.1 0 2.2 0 3.3-.1.4 0 .7-.1 1-.1.8-.1 1.5-.1 2.3-.2.4 0 .8-.1 1.2-.2l2.1-.3c.4-.1.8-.1 1.2-.2.7-.1 1.4-.3 2.1-.4.4-.1.7-.2 1.1-.2.8-.2 1.6-.4 2.3-.6.3-.1.5-.1.8-.2 2.1-.6 4.2-1.4 6.2-2.3h.1c1-.4 1.9-.8 2.8-1.3.2-.1.3-.2.5-.2.8-.4 1.6-.8 2.4-1.3.2-.1.3-.2.5-.3.8-.5 1.6-.9 2.4-1.5.1-.1.2-.2.4-.2.9-.6 1.7-1.2 2.6-1.8 2.3-1.7 4.9-4 6.9-6"/><path class="st6" d="M62 79.7c.1.1.1 0 .1 0H62zM158.6 79.7h-.7c.1.2.3.4.4.6l.3-.6z"/>
</symbol>

<symbol id="throat" viewBox="0 0 220 220">
        <style>.st0{fill:#EC1C24;}.st1{fill:#F6921E;}.st2{fill:#FFCA05;}.st3{fill:#8BC53F;}.st4{fill:#00ADEE;}.st5{fill:#5B57A4;}.st6{fill:#FFFFFF;}.st7{fill:none;stroke:#5B57A4;stroke-width:0.25;stroke-miterlimit:10;}.st8{fill:#A2238D;}</style><path class="st4" d="M44.4 159.2c-1.2 3.1-.8 6.5-.5 9.6.3 2.9.6 5.5-.4 7.4 2-1 4.6-.7 7.5-.3 3.1.4 6.5.7 9.6-.4-6.1-4.6-11.6-10.1-16.2-16.3zM71.5 189.7c1.4 2.6 2.7 4.9 2.5 7 1.4-1.7 4-2.4 6.8-3.2 3-.9 6.3-1.8 8.7-4.1-7.6-1.9-14.7-5-21.3-8.8.2 3.3 1.8 6.3 3.3 9.1zM26.4 139.1c-.8 2.8-1.5 5.3-3.2 6.7 2.2-.2 4.5 1.1 7.1 2.6 2.7 1.5 5.7 3.2 9.1 3.3-3.9-6.6-6.9-13.7-8.8-21.3-2.4 2.4-3.4 5.7-4.2 8.7zM98.4 191.2c1.4 3.1 4.1 5.2 6.6 7.2 2.3 1.8 4.4 3.5 5.1 5.6.7-2.1 2.7-3.7 5-5.5 2.5-2 5.1-4.1 6.5-7.2-3.8.5-7.7.8-11.6.8-4-.1-7.8-.4-11.6-.9zM176.1 168.9c.4-3.1.7-6.6-.5-9.7-4.7 6.2-10.2 11.8-16.4 16.4 3.2 1.2 6.6.8 9.7.5 2.9-.3 5.6-.7 7.5.3-.9-2-.6-4.6-.3-7.5zM44.4 60.7C49 54.6 54.6 49 60.7 44.4c-3.2-1.2-6.6-.9-9.7-.5-2.9.3-5.5.6-7.4-.4 1 2 .7 4.6.3 7.5-.3 3.2-.7 6.6.5 9.7zM21.6 104.9c-1.8 2.3-3.5 4.3-5.5 5 2.1.7 3.7 2.8 5.6 5.1 2 2.5 4.1 5.1 7.2 6.5-.5-3.8-.8-7.6-.8-11.5 0-3.9.3-7.8.8-11.6-3.2 1.4-5.4 4.1-7.3 6.5zM175.6 60.8c1.2-3.2.8-6.7.4-9.8-.3-3-.7-5.6.3-7.5-1.9 1-4.5.7-7.4.4-3.2-.4-6.6-.7-9.8.5 6.2 4.6 11.8 10.2 16.5 16.4zM121.5 28.8c-1.4-3.1-4-5.3-6.5-7.2-2.3-1.8-4.3-3.5-5-5.5-.7 2.1-2.7 3.7-5.1 5.6-2.5 2-5.2 4.1-6.6 7.2h-.1c3.8-.5 7.7-.8 11.6-.8 4.1-.1 8 .2 11.7.7zM173.8 68.6h2.8c-3.1-5-6.9-9.8-11.2-14.1-14.8-14.8-34.5-23-55.5-23-20.9 0-40.6 8.2-55.5 23-4.3 4.3-8 9-11.2 14.1h130.6zM39.4 68.2c-3.4.1-6.4 1.8-9.2 3.3-2.6 1.4-4.9 2.7-7 2.5 1.7 1.4 2.4 4 3.2 6.8.9 3 1.8 6.3 4.1 8.8 2-7.6 5-14.8 8.9-21.4zM176.7 68.8l-1.3 2.4L112 185.9l-1.4 2.5c20.7-.2 40.2-8.3 54.8-23 14.8-14.8 23-34.5 23-55.4 0-14.8-4.1-28.9-11.7-41.2zM180.5 151.8c3.4-.2 6.5-1.8 9.2-3.4 2.6-1.4 4.9-2.7 7.1-2.6-1.6-1.4-2.4-3.9-3.2-6.7-.9-3-1.9-6.3-4.2-8.8-1.9 7.7-5 14.9-8.9 21.5zM110.3 144c-11.9 0-22.5-5.8-29-14.8l29.1 52.1 28.5-51.5c-6.7 8.7-17 14.2-28.6 14.2z"/><path class="st4" d="M110.3 140.4c17.9 0 32.5-14.6 32.5-32.5s-14.6-32.5-32.5-32.5C92.4 75.5 77.8 90 77.8 108c0 17.9 14.6 32.4 32.5 32.4zM198.4 104.9c-2-2.5-4.2-5.2-7.3-6.5.5 3.8.8 7.7.8 11.6 0 3.9-.3 7.8-.8 11.6 3.1-1.4 5.3-4.1 7.3-6.6 1.8-2.3 3.5-4.4 5.6-5.1-2.1-.7-3.8-2.7-5.6-5z"/><path class="st4" d="M208 117.4c2.7-3.5 5.2-6.5 8.3-7.6-3.1-1-5.5-4-8.2-7.4-3-3.7-6.2-7.8-11-9.8 3.6-3.7 5-8.7 6.3-13.3 1.2-4.2 2.3-8 4.7-10.1-3.2.2-6.6-1.6-10.4-3.7-4.2-2.3-8.7-4.8-13.9-4.9 1.9-4.8 1.3-10 .7-14.7-.5-4.4-1-8.3.5-11.2-2.9 1.5-6.7 1-11.1.6-4.7-.5-9.9-1.1-14.7.8-.1-5.1-2.6-9.7-5-13.9-2.2-3.8-4.1-7.3-3.8-10.5-2.1 2.4-5.8 3.5-10 4.7-4.6 1.3-9.6 2.8-13.3 6.4-2-4.7-6.1-8-9.8-10.9-3.4-2.7-6.4-5.1-7.4-8.2-1 3.1-4.1 5.5-7.6 8.3-3.8 3-7.8 6.2-9.9 10.9-3.7-3.6-8.7-5-13.3-6.4-4.2-1.2-7.9-2.3-10-4.7.2 3.3-1.7 6.7-3.8 10.5-2.3 4.2-4.9 8.7-5 13.8-4.8-1.9-9.9-1.3-14.7-.8-4.3.5-8.2.9-11.1-.5 1.5 2.9 1 6.8.5 11.2-.6 4.7-1.2 9.9.7 14.7-5.1.1-9.7 2.6-13.9 4.9-3.8 2.1-7.2 4-10.4 3.7 2.5 2.1 3.5 5.9 4.7 10.1 1.3 4.6 2.7 9.6 6.3 13.3-4.7 2-8 6.1-10.9 9.8-2.7 3.4-5.1 6.4-8.2 7.4 3.1 1 5.5 4.1 8.3 7.6 3 3.7 6.2 7.8 10.9 9.9-3.6 3.7-5 8.7-6.4 13.2-1.2 4.2-2.3 7.9-4.7 10 3.3-.2 6.7 1.7 10.5 3.8 4.2 2.3 8.7 4.9 13.8 5-1.9 4.8-1.3 9.9-.8 14.7.5 4.3.9 8.2-.6 11.1 2.9-1.5 6.8-1 11.2-.5 4.7.6 9.9 1.2 14.7-.7.1 5.1 2.6 9.7 4.9 13.9 2.1 3.8 4 7.2 3.7 10.4 2.1-2.5 5.9-3.5 10.1-4.7 4.6-1.3 9.6-2.7 13.3-6.3 2 4.7 6.1 8 9.9 10.9 3.5 2.7 6.5 5.2 7.6 8.3 1-3.1 4-5.5 7.4-8.2 3.7-3 7.8-6.2 9.8-11 3.7 3.6 8.7 5 13.3 6.3 4.2 1.2 8 2.3 10.1 4.7-.2-3.2 1.6-6.6 3.7-10.4 2.3-4.2 4.8-8.8 4.9-13.9 4.8 1.9 10 1.3 14.7.7 4.4-.5 8.3-1 11.2.5-1.5-2.9-1-6.7-.6-11.1.5-4.7 1.1-9.9-.8-14.7 5.1-.1 9.7-2.6 13.9-5 3.8-2.1 7.3-4.1 10.5-3.8-2.4-2.1-3.5-5.8-4.7-10-1.3-4.6-2.8-9.6-6.4-13.3 5.1-2 8.4-6.1 11.3-9.9zm-17.2 6.2c-.3 1.6-.6 3.2-1 4.8 3.4 2.8 4.7 7.1 5.8 10.9.9 3.2 1.7 6 3.6 7.6-2.5-.2-5.1 1.3-8 2.9-3.5 2-7.4 4.1-11.8 3.7-.9 1.4-1.8 2.7-2.7 4.1 2.1 3.9 1.6 8.3 1.2 12.3-.4 3.3-.7 6.2.4 8.4-2.2-1.1-5.2-.8-8.5-.4-4 .5-8.4 1-12.3-1.1.1-.1.2-.1.3-.2-1.4 1-2.9 2-4.4 2.9.4 4.4-1.7 8.3-3.6 11.8-1.6 2.9-3 5.5-2.8 7.9-1.6-1.9-4.5-2.7-7.7-3.6-3.9-1.1-8.1-2.3-10.9-5.7.7-.2 1.3-.3 2-.5 2.5 2.3 5.8 3.3 8.8 4.1 2.9.8 5.4 1.5 6.8 3.2-.2-2.2 1.1-4.5 2.5-7 1.5-2.8 3.1-5.8 3.2-9.2-8.5 5.1-18 8.6-28.2 10.3-1.3 4.2-4.7 7-7.9 9.5-2.6 2.1-4.9 3.9-5.6 6.2-.8-2.4-3.1-4.2-5.7-6.3-3.1-2.5-6.6-5.3-7.9-9.5-1.6-.3-3.2-.6-4.8-1-2.8 3.3-7.1 4.6-10.9 5.7-3.2.9-6.1 1.7-7.7 3.6.2-2.4-1.2-5-2.8-7.9-1.9-3.5-4-7.3-3.6-11.7-1.4-.9-2.8-1.8-4.1-2.8-3.9 2-8.3 1.5-12.2 1.1-3.3-.4-6.3-.7-8.5.4 1.1-2.2.8-5.1.4-8.4-.4-4-.9-8.3 1.1-12.2-1-1.3-1.9-2.7-2.8-4.1-4.4.4-8.2-1.8-11.7-3.7-2.9-1.6-5.5-3.1-8-2.9 1.9-1.6 2.7-4.4 3.6-7.6 1.1-3.8 2.4-8 5.7-10.9 0 .1.1.2.1.3-.4-1.7-.8-3.5-1-5.2v.1c-4.2-1.3-6.9-4.8-9.4-7.9-2.1-2.6-3.9-5-6.3-5.7 2.3-.8 4.2-3.1 6.2-5.6 2.5-3.1 5.3-6.5 9.5-7.8v.1c.3-1.7.6-3.3 1-4.9-3.4-2.8-4.6-7.1-5.7-10.9-.9-3.2-1.7-6.1-3.6-7.7 2.4.2 5-1.2 7.9-2.8 3.5-1.9 7.4-4 11.8-3.6.9-1.4 1.8-2.7 2.7-4.1-2-3.9-1.6-8.3-1.1-12.3.4-3.3.7-6.3-.4-8.5 2.2 1.1 5.1.8 8.4.4 4-.4 8.4-.9 12.3 1.2 0 0-.1 0-.1.1 1.4-1 2.7-1.9 4.2-2.8-.4-4.4 1.7-8.3 3.7-11.8 1.6-2.9 3.1-5.5 2.9-8 1.6 1.9 4.4 2.7 7.6 3.6 3.8 1.1 8.1 2.4 10.9 5.8-.7.2-1.3.3-2 .5-2.5-2.3-5.7-3.3-8.8-4.2-2.8-.8-5.3-1.5-6.7-3.2.2 2.2-1.1 4.5-2.6 7.1-1.6 2.5-3.3 5.5-3.4 8.9 8.5-5 18-8.6 28.2-10.3 1.3-4.2 4.8-7 7.9-9.5 2.6-2.1 5-3.9 5.7-6.3.8 2.3 3.1 4.2 5.6 6.2 3.1 2.5 6.5 5.3 7.9 9.5h-.1c10.2 1.7 19.8 5.3 28.4 10.4h-.1c-.1-3.4-1.8-6.5-3.3-9.3-1.4-2.6-2.7-4.9-2.6-7.1-1.4 1.6-3.9 2.4-6.7 3.2-3.1.9-6.4 1.9-8.8 4.2-.6-.2-1.3-.3-2-.5 2.8-3.5 7.1-4.7 10.9-5.9 3.2-.9 6-1.7 7.6-3.6-.2 2.5 1.3 5.1 2.9 8 2 3.5 4.1 7.4 3.7 11.9 0 0-.1 0-.1-.1 1.6 1 3.2 2.1 4.8 3.2-.2-.2-.4-.3-.6-.5 3.9-2.1 8.4-1.7 12.4-1.2 3.3.4 6.2.7 8.4-.4-1.1 2.2-.8 5.2-.4 8.5.5 4 1 8.4-1.1 12.4-.1-.1-.1-.2-.2-.3 1 1.4 2 2.9 2.9 4.3 4.4-.4 8.3 1.7 11.9 3.6 2.9 1.6 5.5 3 7.9 2.8-1.9 1.6-2.7 4.5-3.6 7.7-1.1 3.9-2.3 8.1-5.8 11-.2-.7-.3-1.3-.5-2 2.3-2.5 3.3-5.8 4.2-8.8.8-2.9 1.5-5.4 3.2-6.8-2.2.2-4.4-1.1-7-2.5-2.8-1.5-5.8-3.2-9.3-3.2 5.1 8.5 8.6 18.1 10.3 28.2v-.1c4.3 1.3 7.1 4.7 9.6 7.9 2.1 2.6 3.9 4.9 6.2 5.6-2.4.8-4.2 3.1-6.3 5.7-2.5 3.5-5.2 6.9-9.5 8.3z"/><path class="st4" d="M105.9 72.2H49.3l27.5 49.2c-1.7-4.1-2.6-8.7-2.6-13.4 0-18.4 13.9-33.6 31.7-35.8zM146.3 108c0 4.4-.8 8.6-2.3 12.5l26.7-48.2h-56.1c17.9 2.1 31.7 17.3 31.7 35.7zM44.7 71.3l-1.4-2.6C35.6 81 31.5 95.2 31.5 110c0 20.9 8.2 40.6 23 55.4 14.8 14.8 34.5 23 55.5 23h.3l-1.4-2.5L44.7 71.3zM96.5 29.1c-.1 0-.1 0 0 0-.1 0-.1 0 0 0-.1 0-.1 0 0 0zM151.7 180.6zM121.6 28.8c-.1 0-.1 0 0 0zM66.5 40.4c0 .1 0 .1 0 0 0 .1 0 .1 0 0 0 .1 0 .1 0 0zM68.2 39.4zM110.4 188.7l.2-.3h-.3l.1.3zM43.2 68.6c.1.1.1 0 .1 0h-.1zM176.8 68.6h-.3c0 .1.1.1.1.2l.2-.2z"/>
</symbol>
</svg>