<svg xmlns="http://www.w3.org/2000/svg" xmlns:xlink="http://www.w3.org/1999/xlink" width="0" height="0" style="position:absolute">

<symbol id="aura" viewBox="0 0 200 200">
        <path d="M146.8 98.2l46.1 13.8-1.5 8.4-48.5-5.1 37.8 30.7-4.6 6.8-42.4-23 22.9 42.4-6.8 4.6-30.5-37.4 5 47.8-8.2 1.7-14-46.2-13.9 46.2-8.2-1.7 5-47.8-30.5 37.4-6.8-4.6 22.9-42.4-42.5 23-4.5-6.8 37.8-30.7-48.5 5.1-1.5-8.4 46-13.8-46-13.6 1.5-8.3 48.5 5.1-38-30.7 4.5-6.8 42.5 23-22.8-42.4 6.8-4.6 30.5 37.4-5-47.8 8.2-1.7L102 54l14-46.2 8.2 1.7-5 47.8 30.5-37.4 6.8 4.6-22.9 42.4 42.4-23 4.6 6.8-37.8 30.7 48.5-5.1 1.5 8.3-46 13.6z"/>
</symbol>

<symbol id="chakra" viewBox="0 0 200 200">
        <path d="M148.9 103.1l1-1C169.4 82.6 171 52.6 171 52.6s-30 1.6-49.4 21.1c-.5.5-.9.9-1.3 1.4v-1.8c0-27.5-20.1-49.9-20.1-49.9S80.1 45.7 80.1 73.2v1.7c-.4-.4-.8-.8-1.2-1.3-19.5-19.4-49.4-21-49.4-21s1.6 30 21.1 49.4l1 1h-1.2C22.9 103 .5 123.1.5 123.1s22.3 20.1 49.9 20.1 49.9-9 49.9-20.1h.1c0 11.1 22.3 20.1 49.9 20.1s49.9-20.1 49.9-20.1-22.5-20.1-50.1-20.1c-.4 0-.8 0-1.2.1z"/>
</symbol>

<symbol id="crystals" viewBox="0 0 200 200">
        <path d="M180.3 153.6s.1-.1.1-.2v-.1c0-.1.1-.2.1-.2v-.3-.1-.2-.1-.2-.1c0-.1-.1-.2-.1-.2l-13.8-22.6-.1-.1c0-.1-.1-.1-.1-.2l-.1-.1-.1-.1s-.1 0-.1-.1c-.1 0-.1-.1-.2-.1h-.1c-.1 0-.1 0-.2-.1l-21-3.9 27-23.4.1-.1.1-.1c0-.1.1-.1.1-.2v-.1c0-.1 0-.1.1-.2v-.1-.2-.1l.4-26.5v-.3-.1c0-.1 0-.1-.1-.2v-.1c0-.1-.1-.1-.1-.2v-.1c0-.1-.1-.1-.2-.2l-.2-.2h-.1c-.1 0-.1-.1-.2-.1h-.1c-.1 0-.1 0-.2-.1h-.4l-26.5-.4H144h-.1c-.1 0-.1 0-.2.1-.1 0-.1.1-.2.1l-.1.1c-.1 0-.1.1-.1.1l-25 27.2 3.4-60.2v-.2-.1-.2-.1c0-.1-.1-.1-.1-.2 0 0 0-.1-.1-.1 0-.1-.1-.1-.1-.2v-.1L97.3 14.1l-.2-.2H97c-.1 0-.1-.1-.2-.1h-.1c-.1 0-.1 0-.2-.1h-.7-.1c-.1 0-.1 0-.2.1h-.1c-.1 0-.1.1-.2.1h-.1c-.1 0-.1.1-.2.2L71 38.4v.1c0 .1-.1.1-.1.2 0 0 0 .1-.1.1 0 .1-.1.1-.1.2V39.6l3.1 53.9-7-7.5-.1-.1-.1-.1c-.1 0-.1-.1-.2-.1h-.1c-.1 0-.1 0-.2-.1H65.8h-.1l-26.5.4h-.3-.1c-.1 0-.1 0-.2.1h-.1c-.1 0-.1.1-.2.1h-.1l-.2.2-.2.2v.1c0 .1-.1.1-.1.2v.1c0 .1 0 .1-.1.2v.4l.4 26.5v.4c0 .1 0 .1.1.2v.1c0 .1.1.1.1.2l.1.1c0 .1.1.1.1.2l24.1 20.9-30.6 10.2h-.1s-.1 0-.1.1c0 0-.1 0-.1.1 0 0-.1 0-.1.1l-.1.1s-.1 0-.1.1l-.2.2-11 19.6c0 .1-.1.1-.1.2s0 .2-.1.3v.4c0 .1 0 .2.1.3 0 .1.1.2.1.2v.1l.2.2.2.2h.1c.1 0 .2.1.2.1l21.6 6.9H43.2c.1 0 .1 0 .2-.1l44.7-19.7 9.2 24c0 .1.1.2.1.2s0 .1.1.1c0 .1.1.1.1.2l.1.1.1.1s.1 0 .1.1h.1c.1 0 .2.1.3.1l19.8 5.7H118.9c.1 0 .2 0 .3-.1h.1s.1 0 .1-.1l.1-.1s.1 0 .1-.1l.1-.1.1-.1.1-.1s0-.1.1-.1v-.1-.1l8.7-18.5v-.1c0-.1 0-.1.1-.2v-.1-.1-.1-.1-.2-.1c0-.1-.1-.2-.1-.3l-3.9-7.1 31.1 9.5H156.8c.1 0 .2-.1.2-.1l22.6-13.8c.1 0 .1-.1.2-.2l.1-.1c.3 0 .4-.1.4-.2 0 .1 0 0 0 0zm-59.6 3.2l4.3 7.8-5.8-.6-20.8-42.3 3.7.9 18.6 34.2zm-36.4-20.3l-1.9-4.9 1.8-2.5 18.6 42.3-3.4 4.7-15.1-39.6zm-4.3-3.3l1.1 3-39.9 14.4-4.9-2.7L80 133.2zm13.5-13.9l-4.8 2.8-23.4-24.2 1.4-7.9 26.8 29.3zm15.2-73.7l-8.9-24.8 18.4 18.4-9.5 6.4zm-24.9 0l-9.5-6.4 18.4-18.4-8.9 24.8zm22.7 3.7l-1.9 65.6-4.1 4.4-4-.9-8.9-9.7L86 49.3h20.5zm37.2 27.4l1.4 7.9-38.7 39.8-2-3.6c-.1-.3-.4-.5-.7-.6l40-43.5zm-26.3 67.9l-2.3-4.2 44.5-40.9 7.8 1.6-50 43.5zm41.5-49.1l-9.8-10.1 18.9-8.6-9.1 18.7zm-41.6 85.9L107 172l9.8-4.4.5 13.8zM42.4 90.3l18.9 8.6-9.8 10.1-9.1-18.7zm-2 64.1l3.7 9.3-17.7 1.5 14-10.8zm134.6-2.6l-20.6 2.2 3.3-13.6 17.3 11.4zm-12.8-20.7l-5.9 5.4-20.1-4.3 5.6-4.8 20.4 3.7zM42.8 114.6l7.8-1.6 21.5 19.7-6.1 2-23.2-20.1zm2.9 56.8l1.7-5.3 39-16.1 1.1 3-41.8 18.4zm73.6-23.3l32.1 8.8 2.8 7.5-31.2-9.5-3.7-6.8z"/>
</symbol>

<symbol id="home" viewBox="0 0 200 200">
        <text transform="translate(1124 -942)" font-family="'CornucopiaofOrnamentsFour'" font-size="12">1</text><path d="M156.5 168.6h-38v-37.8h-38v37.8h-38v-54.4c0-2 .7-3.2 2.2-4.4 17.5-13 34.9-26.1 52.3-39.2.9-.6 1.8-1.2 2.6-1.8.4.2.7.4.9.5 18.1 13.6 36.3 27.2 54.3 40.9 1 .8 1.7 2.6 1.7 3.9.1 18.2 0 36.4 0 54.5z"/><path d="M175.5 113.3c-.8-.5-1.7-1-2.5-1.6-23.8-18.4-47.5-36.9-71.3-55.4-1.8-1.4-2.9-1.4-4.8 0-23.7 18.5-47.5 36.9-71.3 55.4-.8.6-1.6 1-2.5 1.6V89.5c25.3-19.6 50.7-39.3 76.1-59 25.4 19.7 50.8 39.3 76.1 59 .2 7.9.2 15.9.2 23.8z"/>
</symbol>

<symbol id="meditation" viewBox="0 0 200 200">
        <path d="M198.2 116.9c-7.8-9.4-18.2-.5-26.7 2.1-4.4 1.3-7.7 1.3-12.2 2.6-5.4 1.6-8.6 5.4-13.6.6 19.9-10.3-4.1-26.1-9.3-39.8-1.7-4.6-5.6-11-6-15.9-.4-4.1 1.9-7.1-.8-10.8-4.7-6.6-16.9-2.9-23.3-.9-9.8 3.1-10.8 4.4-20.8 6.9-8.9 2.2-17.8-4.1-36.4 2.4C37 68.4 27.3 73 24.5 82.3 21.8 91.2 12.2 91 .4 92.9v44.9c23.3-9.3 35.9-5.7 59.4-1.5 19.9 3.5 38.9 12.3 59.1 11.7 4.3-.1 6.7-1.6 10.8-2.4 5-.9 10.7 1.7 15.8 1.2 4.6-.5 7.8-2.2 12.3-2 5.2.2 9.3 1.4 14.7 1.3 3.7 0 8.2 1.2 10-3.1 2-4.8-4.5-6.3-3.7-9.4 1.4-5.2 26.9-7.6 19.4-16.7-3.6-4.3 1.9 2.3 0 0zm-73.5-16.1c-1.9 8-16.7 4.7-22.3 4.8-6.8.1-11.9-1-15-7.8-4-8.6-5.9-15 2.7-15.3 8.5-.3 20.3-3.8 28.2-6.4.7 12.3 7.9 18.6 6.4 24.7-.2.8.7-2.9 0 0z"/>
</symbol>

<symbol id="reiki" viewBox="0 0 200 200">
        <path d="M159.2 31.1c-4.4-1-9.2 1.2-11.1 5.5-.7 1.7-3.4 23.5-3.4 25.4-2.9 16.1-5.2 24-7.2 29.7-.1.3-1.2 4-2.1 4-1.9-.1-1.6-4.3-1.6-4.7 0-20.3-1.9-31.2-.3-60.3.2-3.2.2-14.3-1.9-16.9-2.5-3.1-6.7-4.4-10.5-3.3-4 1.2-4.6 5.2-5 9.3-.2 1.5-1 15.4-1 17 3.1 24.1-1 26.7-1 44.2 0 .8-1.5 4.3-1.6 5-.3 1.6-.7 2.8-2.3 2.8-1.6 0-3.7-5.5-4-7.1-.1-.8-.1-1.6-.1-2.4 0-11.3 2.4-22.7.7-37-1.1-9.3 0-18.7 0-28.1 0-5.6-2.9-9.4-8.3-10.8l-.6-.3h-2.8c-2.9.8-4.5 3.1-5.9 6-.9 1.8-1.5 3.9-1.5 5.9 0 9.8-.1 18.6-1.3 28.4-1.4 11.1 0 29.6 0 40.6v1c-.2 2.4-1.5 3.9-3.6 3.8-2 0-3.3-1.6-3.3-4-3.1-12.2-5.9-26.9-7.5-38-.7-5-.8-12.6-2.4-18.6-1.7-6.4-2.7-11.9-8.7-11.9-4.8 0-7.5 2.7-8.1 9-.1.7-.1 1.5-.1 2.2 0 6.3.4 12.7.9 19.1 1.8 21 5.7 49.7 5.7 70.6v2.2c-.7-.8-6.3-4.2-6.3-4.2-9.3-9-8.1-8.8-12.7-14.8-4.5-5.8-17.2-9.5-22.5-5-4 3.3 3.3 11.5 5.7 16.5.4.8 6.8 9.8 15 21.3 8.7 12.3 7.3 12.9 17.8 28.8 8.9 13.4 18.7 26.4 34.4 29.1 3 .5 6 .7 9 1.1.6.1 1.1.2 1.7.3h10c2.6-.3 5.2-.6 7.8-1.1 8.6-1.4 14.4-3.8 21.1-9.5 8.1-6.8 15.5-21 17.4-31.3.7-3.9 1.1-8 1.1-12 .1-29.8 2.1-63.6 6-93-.2-5.3-.6-13.3-5.6-14.5zm-27.5 134.7c-6.6 6.7-15.1 10.1-25.3 10.1-9.7 0-17.8-3.4-24.4-10.1-6.7-6.9-10.1-15.3-10.1-25.4 0-9.7 3.2-17.8 9.7-24.3 1.6-1.7 3.5-3.3 5.5-4.6 5.7-3.7 11.9-5.5 18.7-5.5 8.3 0 15.5 3.1 21.6 9.3 6.2 6.4 9.4 13.7 9.4 21.9 0 8.5-2.9 15.7-8.6 21.7-5.8 5.8-12.8 8.7-20.9 8.7-7.5 0-13.9-2.8-19.3-8.3-5.2-5.3-7.8-11.6-7.8-18.9s2.4-13.4 7.3-18.5c1.4-1.4 2.7-2.5 4.1-3.4 4.5-2.9 9.2-4.4 14-4.4 6.5 0 12.1 2.4 16.7 7.1 4.5 4.6 6.7 10 6.7 16.3 0 6.4-2.2 11.8-6.7 16-4.3 4-9.3 6-15 6-5.4 0-9.9-1.9-13.6-5.7-3.7-3.7-5.5-8.2-5.5-13.4 0-5.1 1.7-9.4 5.2-12.9.8-.8 1.7-1.6 2.5-2.2 3.2-2.1 6.7-3.2 10.5-3.2 4.1 0 7.5 1.4 10.4 4.3 2.9 3.1 4.4 6.7 4.4 10.8s-1.5 7.7-4.6 10.5c-2.8 2.6-6.1 3.8-9.7 3.8-2.8 0-5.3-1-7.4-3.1-2.2-2.2-3.3-4.8-3.3-7.8s1.1-5.6 3.3-7.8l.5-.5c.1-.1.3-.3.5-.4 1.7-1.3 3.6-2 5.7-2 2 0 3.7.7 5 2 1.4 1.3 2 2.9 2 4.9 0 2.8-1.2 4.7-3.5 5.7.6-.6.9-1.3.9-2.3 0-1-.4-1.9-1.1-2.6-.7-.8-1.7-1.1-2.8-1.1-1.1 0-2 .4-2.8 1.1l-.3.3c-.6.8-.9 1.7-.9 2.7 0 1.1.4 2.1 1.2 2.9.9.9 2 1.4 3.4 1.4 2.1 0 3.9-.8 5.4-2.3 1.4-1.5 2.1-3.4 2.1-5.8s-.8-4.4-2.3-6c-1.6-1.7-3.7-2.5-6.2-2.5-2.4 0-4.6.8-6.6 2.3l-.4.4c-3 2.5-4.5 5.7-4.5 9.7 0 3.4 1.2 6.3 3.7 8.8 2.4 2.4 5.2 3.6 8.5 3.6 4.4 0 8.2-1.6 11.4-4.9 2.9-3 4.4-6.7 4.4-11 0-4.6-1.6-8.6-4.8-11.9-3.1-3.3-6.9-4.9-11.5-4.9-4 0-7.7 1.1-11 3.3-.1.1-.3.2-.6.4-.9.6-1.7 1.3-2.4 2.1-3.8 3.9-5.7 8.6-5.7 14.1 0 5.7 2 10.6 5.9 14.7 4 4 8.9 6 14.7 6 6.6 0 12.2-2.4 16.9-7.1 4.3-4.5 6.5-10 6.5-16.5 0-6.7-2.4-12.6-7.2-17.6-4.9-5-10.8-7.5-17.8-7.5-5.4 0-10.4 1.6-15.3 4.9-3.6 2.5-6.4 5.6-8.5 9.5-2.2 4.1-3.4 8.6-3.4 13.6 0 7.7 2.8 14.4 8.4 20.2 5.8 5.9 12.6 8.8 20.4 8.8 8.5 0 15.9-3.1 22.1-9.4 6.1-6.3 9.2-13.9 9.2-22.9 0-8.7-3.3-16.4-9.8-23.1-6.4-6.5-14-9.8-22.8-9.8-4.9 0-9.7 1-14.1 2.9 4.1-2.5 8.9-3.7 14.4-3.7 10.1 0 18.5 3.5 25.3 10.4 6.9 7.1 10.4 15.6 10.4 25.5-.4 11-3.7 19.8-10.4 26.6z"/>
</symbol>
</svg>