<svg xmlns="http://www.w3.org/2000/svg" xmlns:xlink="http://www.w3.org/1999/xlink" width="0" height="0" style="position:absolute">

<symbol id="archive" viewBox="-311 142.9 600.1 509.1">
        <path d="M-7.2 142.9h249.8c21.9 0 29.2 6.5 29.3 26.1.1 21.8.1 43.7 0 65.5-.1 18.6-7.7 25.5-27.8 25.5h-504c-20.4 0-28.1-6.8-28.1-25.2-.1-22.1-.1-44.4 0-66.5.1-18.9 7.6-25.5 28.9-25.5 83.9.1 167.8.1 251.9.1zM192.6 310h-401.3c-18.9 0-25.3 7-25.3 27.8v286.5c0 20.8 6.5 27.8 25.3 27.8H191.6c20.2 0 26.3-6.6 26.3-28.8V337.8c0-20.8-6.4-27.8-25.3-27.8zM37.7 448.5c-3.9.2-7.6.2-11.5.2-11.5.2-23-.2-34.5-.2-11.2 0-22.5.2-33.7.2-3.7 0-7.5 0-11.2-.2-16.6-.3-27.5-14.3-27.5-34.5 0-20.3 10.7-34.1 27.5-34.3 30.3-.3 60.7-.3 91 0 16.1.2 26.5 13.8 26.8 33.5.2 20.6-10.4 34.8-26.9 35.3z"/>
</symbol>

<symbol id="arrow" viewBox="-5 142.9 600.1 509.1">
        <path d="M352.9 379.1V142.9H223.5v236.2H69.8L288.2 652l218.4-272.9"/>
</symbol>

<symbol id="audio" viewBox="0 0 600.1 509.15">
        <path d="M578.85 386.75l-6.8 17.85-67.15 11.9c-10.2 39.1-45.9 68.85-89.25 68.85v11.9c0 6.8-5.1 11.9-11.9 11.9H380.8c-6.8 0-11.9-5.1-11.9-11.9V289c0-6.8 5.1-11.9 11.9-11.9h22.95c6.8 0 11.9 5.1 11.9 11.9v11.9c34.85 0 64.6 19.55 80.75 47.6l24.65-4.25c6.8-22.1 10.2-45.9 10.2-69.7 0-108.8-107.95-204-231.2-204s-231.2 95.2-231.2 204c0 23.8 3.4 47.6 10.2 69.7l24.65 4.25c16.15-28.05 45.9-47.6 80.75-47.6V289c0-6.8 5.1-11.9 11.9-11.9h22.95c6.8 0 11.9 5.1 11.9 11.9v208.25c0 6.8-5.1 11.9-11.9 11.9h-22.95c-6.8 0-11.9-5.1-11.9-11.9v-11.9c-43.35 0-79.05-28.9-89.25-68.85l-67.15-11.9-6.8-17.85C6.8 351.05 0 312.8 0 273.7 0 124.95 137.7 0 300.05 0S600.1 124.95 600.1 273.7c0 38.25-6.8 76.5-21.25 113.05z"/>
</symbol>

<symbol id="bell" viewBox="0 0 20 20">
        <path d="M14.65 8.512c-2.28-4.907-3.466-6.77-7.19-6.693-1.328.026-1.01-.963-2.022-.588-1.01.375-.143.924-1.177 1.773-2.9 2.383-2.634 4.587-1.288 9.84.567 2.213-1.367 2.32-.602 4.465.56 1.564 4.68 2.22 9.025.607 4.347-1.613 7.086-4.814 6.527-6.378-.765-2.146-2.31-.962-3.272-3.028zm-3.726 8.083c-3.882 1.44-7.072.594-7.207.217-.232-.65 1.253-2.816 5.69-4.463 4.44-1.648 6.916-1.037 7.175-.312.153.43-1.775 3.116-5.658 4.557zM9.676 13.1c-2.03.754-3.44 1.615-4.353 2.39.643.584 1.847.726 3.046.28 1.526-.564 2.465-1.865 2.094-2.903l-.016-.036c-.25.083-.508.172-.772.27z"/>
</symbol>

<symbol id="bell-circle" viewBox="-595 381 32 32">
        <path d="M-578.2 399c-5.1 1.9-6.8 4.4-6.5 5.1.2.4 3.8 1.4 8.2-.2s6.6-4.7 6.5-5.2c-.3-.9-3.2-1.6-8.2.3zm-1.2 3.9c-1.4.5-2.5.1-3.2-.6 1-.8 2.1-1.5 4.1-2.2l.4-.2h.1c.1 0 .1 0 0 0 .5 1.2.3 2.4-1.4 3z"/><path d="M-578.1 400c-.1 0-.3.1-.4.1 0 0 .2-.1.4-.1zM-577.9 399.9s-.1 0-.1.1h-.1c0-.1.1-.1.2-.1z"/><path d="M-579 381c-8.8 0-16 7.2-16 16s7.2 16 16 16 16-7.2 16-16-7.1-16-16-16zm3 24.4c-5 1.8-9.7 1.1-10.3-.7-.9-2.5 1.3-2.6.7-5.1-1.5-6-1.8-8.5 1.5-11.3 1.2-1 .2-1.6 1.3-2 1.2-.4.8.7 2.3.7 4.3-.1 5.6 2 8.2 7.7 1.1 2.4 2.9 1 3.7 3.5.7 1.7-2.4 5.4-7.4 7.2z"/>
</symbol>

<symbol id="chat" viewBox="0 0 20 19">
        <path d="M20 7.5C20 3.358 16.167 0 10 0S0 3.358 0 7.5 3.5 15 10 15c.062 0 .12-.005.18-.006C12.143 17.197 14.974 19 14.974 19s-.422-2.32-.623-4.605C18.046 13.248 20 10.595 20 7.5z"/>
</symbol>

<symbol id="click-2-call" viewBox="0 0 53.7 52.2">
        <g fill="#FFBB64"><path d="M21.8 23l5.1 5.1L32 23c-2.9-2.8-7.4-2.8-10.2 0zM34.7 20.1l4.5-4.5c-6.8-6.8-17.9-6.8-24.8 0l4.5 4.5c4.4-4.3 11.5-4.3 15.8 0z"/><path d="M7 8.2l5.4 5.4c8-8 21-8 28.9 0l5.4-5.4C35.7-2.7 17.9-2.7 7 8.2z"/></g><g fill="#1A1A1A"><path d="M46.9 18c-.7-.3-1.6 0-1.9.7l-2.4 5.4c-.3.7 0 1.6.7 1.9l4.1 1.8s1.4.6-2.2 8.7-4.9 7.5-4.9 7.5l-4.1-1.8c-.7-.3-1.6 0-1.9.7l-2.4 5.4c-.3.7 0 1.6.7 1.9l3.4 1.5s7.4 3.3 14.6-12.9-.3-19.5-.3-19.5L46.9 18zM3.4 19.5S-4 22.8 3.1 39s14.6 12.9 14.6 12.9l3.4-1.5c.7-.3 1.1-1.2.7-1.9L19.5 43c-.3-.7-1.2-1.1-1.9-.7l-4.1 1.8s-1.4.6-4.9-7.5-2.2-8.7-2.2-8.7l4.1-1.8c.7-.3 1.1-1.2.7-1.9l-2.4-5.4c-.4-.8-1.3-1.2-2-.8l-3.4 1.5z"/></g>
</symbol>

<symbol id="close" viewBox="0 0 32 32">
        <path d="M16 0C7.164 0 0 7.164 0 16s7.164 16 16 16 16-7.164 16-16S24.836 0 16 0zm7.914 21.086l-2.828 2.828L16 18.828l-5.086 5.086-2.828-2.828L13.172 16l-5.086-5.086 2.828-2.828L16 13.172l5.086-5.086 2.828 2.828L18.828 16l5.086 5.086z"/>
</symbol>

<symbol id="download" viewBox="-311 142.9 600.1 509.1">
        <path d="M263.5 620.2c0 17.6-14.3 31.8-31.8 31.8h-487.9c-17.6 0-31.8-14.2-31.8-31.8v-106c0-17.6 14.3-31.8 31.8-31.8h154.1l44.7 45.1c12.3 11.9 28.2 18.6 45.1 18.6s32.8-6.6 45.1-18.6l45.1-45.1h153.8c17.6 0 31.8 14.2 31.8 31.8v106zM151.2 348.7L2.7 497.2c-4 4.3-9.6 6.3-14.9 6.3s-10.9-2-14.9-6.3l-148.5-148.5c-6.3-6-8-15.2-4.6-23.2 3.3-7.6 10.9-12.9 19.6-12.9h84.8V164.1c0-11.6 9.6-21.2 21.2-21.2h84.8c11.6 0 21.2 9.6 21.2 21.2v148.5h84.9c8.6 0 16.2 5.3 19.6 12.9 3.2 8 1.6 17.3-4.7 23.2zM115 567.2c-11.6 0-21.2 9.6-21.2 21.2s9.6 21.2 21.2 21.2 21.2-9.6 21.2-21.2c.1-11.6-9.6-21.2-21.2-21.2zm84.9 0c-11.6 0-21.2 9.6-21.2 21.2s9.6 21.2 21.2 21.2 21.2-9.6 21.2-21.2-9.6-21.2-21.2-21.2z"/>
</symbol>

<symbol id="filter" viewBox="0 0 612 612">
        <path d="M0 0h612v99.45H0V0zm0 172.55h459V272H0v-99.45zM0 340h306v99.45H0V340zm0 172.55h153V612H0v-99.45z"/>
</symbol>

<symbol id="folder" viewBox="-311 142.9 600.1 509.1">
        <path d="M-14 242.5l-.7-54.6c0-24.8-20.2-45-45-45h-204.4c-24.8 0-45 14.3-45 31.7v430.3c0 24.8 20.2 45 45 45h508.2c24.8 0 45-20.2 45-45V287.5c0-24.8-20.2-45-45-45H-14z"/>
</symbol>

<symbol id="health" viewBox="-601 387 20 20">
        <path d="M-581.1 403.3c0 2.1-1.7 3.7-3.7 3.7h-12.5c-2.1 0-3.7-1.7-3.7-3.7v-12.5c0-2.1 1.7-3.7 3.7-3.7h12.5c2.1 0 3.7 1.7 3.7 3.7v12.5zm-3.3-7.1c0-.5-.4-.8-.8-.8h-4.2v-4.2c0-.5-.4-.8-.8-.8h-1.7c-.5 0-.8.4-.8.8v4.2h-4.2c-.5 0-.8.4-.8.8v1.7c0 .5.4.8.8.8h4.2v4.2c0 .5.4.8.8.8h1.7c.5 0 .8-.4.8-.8v-4.2h4.2c.5 0 .8-.4.8-.8v-1.7z"/>
</symbol>

<symbol id="love" viewBox="-601 387 20 20">
        <path d="M-591.5 406l-7-6.7c-.1-.1-2.5-2.3-2.5-5 0-3.3 2-5.2 5.3-5.2 2 0 3.8 1.5 4.7 2.4.9-.9 2.7-2.4 4.7-2.4 3.3 0 5.3 2 5.3 5.2 0 2.7-2.5 4.9-2.6 5l-7 6.7c-.1.1-.3.2-.5.2s-.3-.1-.4-.2z"/>
</symbol>

<symbol id="money" viewBox="-601 387 20 20">
        <path d="M-581 403.2c0 .4-.3.7-.7.7h-18.6c-.4 0-.7-.3-.7-.7v-12c0-.4.3-.7.7-.7h18.6c.4 0 .7.3.7.7v12zm-1.4-8.7c-1.5 0-2.7-1.2-2.7-2.7h-12c0 1.5-1.2 2.7-2.7 2.7v5.3c1.5 0 2.7 1.2 2.7 2.7h12c0-1.5 1.2-2.7 2.7-2.7v-5.3zm-8.6 7c-2.2 0-3.3-2.4-3.3-4.3s1.1-4.3 3.3-4.3 3.3 2.4 3.3 4.3-1.1 4.3-3.3 4.3zm2-1.6v-1h-1.3v-4.7h-1.2l-1.5 1.4.8.8c.2-.2.4-.3.6-.6v3h-1.3v1h3.9z"/>
</symbol>

<symbol id="pause" viewBox="0 0 320 480">
        <path d="M135 367.8c0 6.7-5.4 12.2-12 12.2H57c-6.6 0-12-5.5-12-12.2V112.2c0-6.7 5.4-12.2 12-12.2h66c6.6 0 12 5.5 12 12.2v255.6zM275 366.8c0 6.7-5.4 12.2-12 12.2h-66c-6.6 0-12-5.5-12-12.2V111.2c0-6.7 5.4-12.2 12-12.2h66c6.6 0 12 5.5 12 12.2v255.6z"/>
</symbol>

<symbol id="people-list" viewBox="0 0 20 14.0053">
        <path d="M7.7 8.335C7.046 8.745 6.303 9 5.5 9s-1.546-.254-2.2-.665C1.36 8.952 0 10.36 0 12c0 2.21 2.462 2 5.5 2s5.5.21 5.5-2c0-1.64-1.358-3.048-3.3-3.665z"/><ellipse cx="5.5" cy="4" rx="3.5" ry="4"/><g><path d="M20 3c0 .55-.45 1-1 1h-6c-.55 0-1-.45-1-1s.45-1 1-1h6c.55 0 1 .45 1 1zM20 7c0 .55-.45 1-1 1h-7c-.55 0-1-.45-1-1s.45-1 1-1h7c.55 0 1 .45 1 1zM20 11c0 .55-.45 1-1 1h-5c-.55 0-1-.45-1-1s.45-1 1-1h5c.55 0 1 .45 1 1z"/></g>
</symbol>

<symbol id="phone" viewBox="0 0 16.9601 22.219">
        <path d="M1.65 1.48s-4.665 2.914 1.694 13.09 11.023 7.262 11.023 7.262l2.126-1.328c.465-.29.607-.904.316-1.37l-2.127-3.402c-.29-.465-.904-.607-1.37-.316l-2.55 1.593s-.847.53-4.027-4.56-2.33-5.617-2.33-5.617L6.953 5.24c.466-.29.607-.904.316-1.37L5.144.467C4.854.002 4.24-.14 3.774.15L1.65 1.48z"/>
</symbol>

<symbol id="picks" viewBox="0 0 611.9998 612">
        <path d="M170.85 282.2l83.3 164.9S389.3 112.2 601.8 0c-5.1 79.9-26.35 148.75 10.2 233.75C518.5 255 326.4 494.7 264.35 612 175.95 500.65 72.25 414.8 0 388.45L170.85 282.2z"/>
</symbol>

<symbol id="ps-star" viewBox="-585 371.6 51.9 51.4">
        <style>.st0{fill:#BF4647;}</style><path class="st0" d="M-556.7 411.6c-2.1 0-4.1-.8-5.8-1.6-1.7-1-3-2.2-3.9-3.9-1.5-3.7-1.7-6.8-.4-9.7.1-.3.1-.8.1-1.3 0-.8 0-1.6.5-2.1.2-.2.5-.4.9-.4l.2-.1c.2-.1.5-.1.6 0 .2.2.2.4.1.6-.2.4-.3.9-.4 1.5-.1.4-.1.9-.3 1.2l.3 1.8v.2c-.6 2.3-.4 4.6.7 7.1.2.4.5.7.8 1.1.2.2.5.5.7.8 1.8 1.5 4.5 2.3 6.8 2 1.3-.4 2.9-1.1 3.6-2.4 0-.1.1-.1.1-.2.6-.5.8-1.2 1-1.9.2-.3.4-.7.5-1 .4-1.5.8-3.2-.1-4.7l-.2-.3c-.5-.6-1-1.2-1.6-1.6-.7-.6-1.6-1.4-2.6-1.8 0 0-.1 0-.1-.1h-.2c-.8-.3-1.5-.5-2.3-.6-.3-.1-.7-.1-1-.2l-.2.1c-1.3.5-2.6.9-3.6 1.8-.1.1-.3.2-.5.1-.2 0-.3-.2-.4-.3l-.4-1.2c-.1-.2 0-.6.3-.9 0-.1.2-.2.2-.2.2-.1.3-.2.5-.3.1-.2.3-.5 1.2-.8.3-.1.4-.1.6 0 .1-.2.4-.3.5-.3.1-.1.3-.2.5-.1.5-.1 1-.1 1.5-.1h2.2c.5.1.9.3 1.3.5.3.2.6.3.9.3.1 0 .2 0 .2.1 1 .5 2.1 1.1 2.7 2.1.2 0 .3.1.4.2.1.1.2.2.3.2s.2.1.2.2l.4.4c.4.4.8.8 1 1.4.1.2.3.4.4.7.4.7.9 1.5.9 2.5.4 1 .2 2.3-.4 3.4 0 .3-.2.6-.3.9-.1.2-.2.4-.2.5s-.1.2-.2.3c-.6 2.4-2.4 4.4-4.9 5.4-1 .5-2 .7-3.1.7zM-544 420.4c-.2 0-.3-.1-.3-.2-.8-1.8-2-3.2-3.3-4.8-.7-.8-1.3-1.6-2-2.5-.1-.2-.2-.4-.1-.6 0-.2.2-.3.3-.3 0-.1.2-.2.3-.3 1.3-.3 2.1.6 2.7 1.4.2.2.3.4.5.5 1.9 2.2 3 4.2 3.1 6 0 .1 0 .2-.1.3-.2.2-.4.4-.8.4l-.1.1h-.2zM-559.4 422.8c-.2 0-.5-.1-.6-.3 0 0 0-.1-.1-.1-.4-.7-.4-1.4-.3-2.1.1-.4.1-.8.2-1.3.2-1.6.5-3.3.9-4.8 0-.1.1-.2.3-.3 0 0 0-.1.1-.1.1-.2.3-.4.6-.4.2 0 .4.1.6.2.7.7.6 1.7.4 2.5v.2c-.3 1.7-.6 3.9-1.4 5.9-.1.2-.3.4-.5.4-.1.2-.1.2-.2.2zM-534.6 407.8c-.4 0-.7-.2-1-.3-.1 0-.2-.1-.2-.1-.6-.3-1.3-.5-1.9-.7-1.9-.7-3.9-1.4-5.5-2.8l-.1-.1-.2-.3c-.1-.1-.1-.3 0-.4.4-.7 1.1-.5 1.5-.4.2.1.5.1.6.1.1-.1.3-.1.4 0 1.1.6 2.4 1 3.7 1.4.6.2 1.1.3 1.6.5.4.1.7.4.9.6.2.2.4.4.7.4.1 0 .2.1.3.3.1 0 .3.1.4.3.1.2 0 .4-.1.5v.1c0 .1-.1.3-.3.5-.2.3-.5.4-.8.4zM-570.3 413.7c-.1 0-.2 0-.2-.1-.1 0-.3-.1-.4-.4-.1-.1-.1-.2 0-.4.6-1.4 2.1-2.2 3.5-2.8l.3-.2c.1 0 .2-.1.3 0v-.1c.2-.1.5-.4.9-.1.1 0 .1.1.1.2.1.2.1.4 0 .6-.1.2-.2.3-.3.4-1 1.2-2.3 1.9-3.5 2.5l-.5.2c-.1.2-.1.2-.2.2zM-546.5 396.9c-.2 0-.3-.1-.4-.3v-.1s-.1 0-.1-.1c0 0-.1 0-.1-.1-.1-.1-.2-.3-.2-.4-.1-.1-.1-.2 0-.4 1-2.6 3.3-4.2 5.4-5.9.5-.4 1-.7 1.4-1.1.3-.2.6-.4.8-.5.7-.5 1.4-1 2.3-1.1h.2c.1.1.2.1.4.1h.5c.3 0 .9-.1 1.2.7.1.2 0 .4-.2.5-3.4 1.7-6.2 4.2-9 6.5-.6.7-1.2 1.3-1.9 1.9-.1.3-.2.3-.3.3zM-579.8 403.4H-580.1c-.1-.1-.5-.2-.5-.6 0-.1.1-.3.2-.3.6-.5 1.3-.7 2-.8.3-.1.5-.1.8-.2.4 0 .7-.1 1-.1 1.9-.2 3.8-.4 5.7.3.3 0 .6.2.8.5.1.1.1.2 0 .4-.1.1-.2.2-.3.2l-.4.1h-.1c-1.3.1-2.5.2-3.8.3-1.7-.1-3.4 0-5.1.2zM-554.4 388.7l-.5-.1c-.1 0-.1-.1-.2-.1l-.1-.1c-.2-.1-.5-.3-.5-.6 0-.1 0-.3.1-.5.5-1.1 1.1-2.1 1.8-3.1.4-.6.8-1.1 1.1-1.7l.5-.7c.8-1.2 1.6-2.4 2.5-3.5l.1-.1c0-.1 0-.2.1-.2.1-.1.3-.3.6-.4h.3c.3.1.7.3.9.4.2.1.3.2.2.4l.2.1c.1.1.2.2.2.4s-.1.3-.2.4c-.4.2-.6.5-.8.9-.1.2-.3.5-.5.7-.5.7-1 1.5-1.5 2.3-1.2 1.9-2.4 3.8-4 5.4-.1.1-.2.1-.3.1zM-569.7 395.8s-.1 0 0 0l-.6-.1-.8-.2c-1.5-.3-3.1-.7-4.5-1.4-1.7-.7-3.2-1.5-4.9-2.3l-2.4-1.2c-.2-.1-.3-.2-.4-.2-.6-.4-1.4-.8-1.5-1.7 0-.2 0-.5.1-.8 0-.2.2-.4.2-.5l.1-.1c.1-.1.2-.2.3-.2.5-.1 1.1-.2 1.7 0 .6.3 1.1.6 1.7.8 1.4.6 2.8 1.3 3.9 2.5.7.5 1.6.8 2.6 1.1l.5.2c1.4-.4 2.4.4 3.3 1.1.4.3.8.6 1.2.8 0 0 .1 0 .1.1l.1.1c.2.2.6.5.4 1 0 .1-.1.1-.1.2-.1.1-.2.2-.4.3-.1 0-.2.1-.2.2-.1.2-.2.3-.4.3zM-563.4 388.5c-.3 0-.5-.2-.6-.4-.1-.1-.1-.2-.2-.2-1.6-1.4-1.9-3.4-2.2-5.2-.1-.8-.2-1.5-.4-2.2-.1-1.2-.3-2.4-.5-3.5-.2-1.5-.5-3-.6-4.5 0-.1 0-.2.1-.3.1-.1.2-.1.3-.1.1-.1.1-.1.2-.1.1-.1.2-.2.4-.2.7 0 .9.6 1.1.9.1.1.1.3.2.4 0 .1.1.1.1.2.4 3.3.8 6.8 1.5 10.2.1 1.2.6 2.3 1.1 3.3.1.3.3.6.4.9.1.2 0 .4-.1.5 0 0-.1.1-.2.1 0 .1-.1.1-.1.2h-.5z"/>
</symbol>

<symbol id="return-call" viewBox="0.1 0 319.9 302.6">
        <path fill="#BD4D4C" d="M231.5 194.2C67.6 167.5-7 224.3 37.4 244.8c0 0 33.1 17 61.8 18.4.6-.3 0 0-2.4-5.1-1.2-7.8 7.3-4.8 7.3-4.8s40.4 15 55 19.7c14.6 4.8-1.2 9.2-1.2 9.2s-42.8 16.3-54.6 19.7c-11.7 3.4-5.7-6.5-5.7-6.5l3.6-9.5c-45.7-2.4-130.2-33.7-91-71.1C52 178.5 132.8 175.1 189 178.2c56.2 3.1 131 21.1 131 58.5 0 29.6-60.8 41.7-75.2 44.9 0 0-38.4 7.5-54.8 8.2-12.8.6-11.2-5.6-11.2-5.6v-11.7c0-3.1 1.6-4.8 6.7-5.6 21.5-1 60.6-9.7 60.6-9.7 131.9-35.5-14.6-63-14.6-63z"/><ellipse fill="#F99C59" cx="85.1" cy="54" rx="16" ry="15.5"/><path fill="#F99C59" d="M117.9 82.5c-.4-5.9-5.3-10.5-11.3-10.5H63.7c-5.5 0-10 3.9-11.1 9-.6.9-.9 2-.9 3.2v41.1c0 3.2 2.4 5.9 5.5 5.9 3 0 5.5-2.6 5.5-5.9V94.6c.4 0 .7.1 1.1.1h7l-18 78.5 18.7.1v34.8c0 4.2 3.7 7.6 8.3 7.6 1.4 0 2.8-.3 3.9-.9 1.2.6 2.5.9 3.9.9 4.6 0 8.3-3.4 8.3-7.6v-34.8l18.7.1L100 94.6h7.3v30.7c0 3.2 2.4 5.9 5.5 5.9 3 0 5.5-2.6 5.5-5.9V84.2c-.2-.6-.3-1.2-.4-1.7z"/><path fill="#F99C59" d="M185.3 76.9v-.7c0-7.2-5.8-13-13-13h-49.1c-7.2 0-13 5.8-13 13v.7c-.3.8-.5 1.7-.5 2.7v47.1c0 3.7 2.8 6.7 6.3 6.7s6.3-3 6.3-6.7V89.2h3.2v66.1h.3c-.2.7-.3 1.5-.3 2.3v60.6c0 4.8 4.3 8.7 9.5 8.7 5.3 0 9.5-3.9 9.5-8.7v-60.6c0-.8-.1-1.5-.3-2.3h6.8c-.2.7-.3 1.5-.3 2.3v60.6c0 4.8 4.3 8.7 9.5 8.7s9.5-3.9 9.5-8.7v-60.6c0-.8-.1-1.5-.3-2.3h.3V89.2h3.6v37.5c0 3.7 2.8 6.7 6.3 6.7s6.3-3 6.3-6.7V79.6c-.1-1-.3-1.9-.6-2.7z"/><ellipse fill="#F99C59" cx="147.8" cy="42.7" rx="18.3" ry="17.7"/><g><path fill="#BD4D4C" d="M264 67.4c-.6-8-7.2-14.3-15.4-14.3h-58.2c-7.4 0-13.6 5.2-15.1 12.2-.8 1.3-1.2 2.7-1.2 4.4v55.9c0 4.4 3.3 8 7.4 8 4.1 0 7.4-3.6 7.4-8V83.9c.5 0 1 .1 1.4.1h9.5l-24.5 106.6 25.4.1V238c0 5.7 5.1 10.3 11.3 10.3 1.9 0 3.8-.4 5.3-1.2 1.6.8 3.4 1.2 5.3 1.2 6.3 0 11.3-4.6 11.3-10.3v-47.1l25.4.1-19.9-107h9.8v41.7c0 4.4 3.3 8 7.4 8s7.4-3.6 7.4-8V69.8c.4-.9.2-1.7 0-2.4z"/><ellipse fill="#BD4D4C" cx="219.6" cy="28.7" rx="21.7" ry="21.1"/></g>
</symbol>

<symbol id="search" viewBox="0 0 612.3668 611.426">
        <path d="M593.3 592.56c-21.25 21.25-61.2 26.35-82.45 5.95L321.3 407.26c-13.6-13.6-17.85-32.3-14.45-49.3-34 24.65-68 32.3-111.35 32.3-52.7 0-102-20.4-138.55-57.8S0 246.61 0 193.91c0-51.85 20.4-101.15 57.8-137.7 76.5-75.65 201.45-74.8 277.1 1.7 68.85 69.7 80.75 171.7 23.8 248.2 17-3.4 36.55.85 50.15 14.45l189.55 190.4c22.1 20.4 16.15 60.35-5.1 81.6zM311.1 193.91c0-30.6-11.9-58.65-33.15-80.75-44.2-44.2-116.45-45.05-161.5-.85-45.05 44.2-45.05 116.45-.85 160.65 44.2 44.2 116.45 45.05 161.5.85 21.25-21.25 33.15-49.3 34-79.9z"/>
</symbol>

<symbol id="sort" viewBox="0 0 612 612">
        <path d="M193.8 612V221h102.85L147.9 0 0 221h102v391M425.85 0v391H323l148.75 221L612 391H508.3V0"/>
</symbol>

<symbol id="trash" viewBox="0 0 20 20">
        <path d="M3.39 7.113l1.1 10.908C4.55 18.483 6.777 20 10 20c3.225-.002 5.45-1.518 5.51-1.98l1.103-10.907C14.93 8.055 12.413 8.5 10 8.5c-2.41 0-4.928-.445-6.61-1.387zm9.778-5.603l-.86-.95C11.98.085 11.62 0 10.917 0h-1.83c-.7 0-1.062.086-1.393.56l-.86.95C4.264 1.96 2.4 3.15 2.4 4.03v.17C2.4 5.745 5.803 7 10 7c4.198 0 7.6-1.254 7.6-2.8v-.17c0-.88-1.862-2.07-4.432-2.52zM12.07 4.34L11 3H9L7.932 4.34h-1.7s1.862-2.22 2.11-2.522c.19-.23.385-.318.637-.318h2.042c.253 0 .447.088.637.318.247.3 2.11 2.522 2.11 2.522h-1.7z"/>
</symbol>

<symbol id="video" viewBox="0 0 609.4501 487.9002">
        <path d="M609.45 243.95c0-90.1-9.35-165.75-27.2-199.75C572.9 19.55 545.7 0 514.25 0H92.65c-28.9 0-56.1 19.55-65.45 44.2C10.2 78.2 0 153.85 0 243.95S9.35 409.7 27.2 443.7c9.35 24.65 36.55 44.2 65.45 44.2h421.6c28.9 0 56.1-19.55 68-44.2 17-34 27.2-109.65 27.2-199.75zm-418.2-163.2l283.05 163.2-283.05 163.2V80.75z"/>
</symbol>

<symbol id="warning" viewBox="0 0 32 32">
        <path d="M14.7 11.3h2.7v6.5h-2.7zM14.7 19.5h2.7v2.2h-2.7z"/><path d="M16 0C7.2 0 0 7.2 0 16s7.2 16 16 16 16-7.2 16-16S24.9 0 16 0zm10.4 23.5c-.1.2-.4.3-.6.3H6.4c-.3 0-.5-.1-.6-.3-.1-.1-.1-.3-.1-.4 0-.1 0-.2.1-.4l9.6-17c.2-.3.4-.4.7-.4.3 0 .5.1.7.4l9.6 17c.1.1.1.2.1.4s-.1.2-.1.4z"/>
</symbol>
</svg>