<?xml version="1.0" encoding="utf-8"?>
<!-- Generator: Adobe Illustrator 19.2.0, SVG Export Plug-In . SVG Version: 6.00 Build 0)  -->
<svg version="1.1" id="Layer_1" xmlns="http://www.w3.org/2000/svg" xmlns:xlink="http://www.w3.org/1999/xlink" x="0px" y="0px"
	 width="220px" height="220px" viewBox="0 0 220 220" style="enable-background:new 0 0 220 220;" xml:space="preserve">
<style type="text/css">
	.st0{fill:#EC1C24;}
	.st1{fill:#F6921E;}
	.st2{fill:#FFCA05;}
	.st3{fill:#8BC53F;}
	.st4{fill:#00ADEE;}
	.st5{fill:#5B57A4;}
	.st6{fill:#FFFFFF;}
	.st7{fill:none;stroke:#5B57A4;stroke-width:0.25;stroke-miterlimit:10;}
	.st8{fill:#A2238D;}
</style>
<g>
	<path class="st8" d="M211.9,126c-2.2-1.1-3.6-3.7-5.3-6.5c-2.1-3.7-4.5-7.7-8.9-9.6c4.4-1.8,6.8-5.9,8.8-9.6
		c1.6-2.9,3.1-5.5,5.3-6.6c-2.4-0.4-4.6-2.4-7-4.6c-3.1-2.9-6.6-6-11.4-6.3c3.6-3.1,4.6-7.7,5.4-11.9c0.7-3.3,1.2-6.2,3-7.9
		c-2.4,0.4-5.1-0.8-8.1-2.2c-3.9-1.7-8.2-3.6-12.8-2.5c2.5-4.1,2-8.7,1.5-13c-0.4-3.3-0.7-6.3,0.4-8.5c-2.2,1.1-5.1,0.8-8.4,0.4
		c-4.2-0.5-8.9-0.9-12.9,1.6c1.1-4.7-0.8-8.9-2.5-12.8c-1.4-3-2.6-5.7-2.2-8.1c-1.7,1.7-4.7,2.3-7.9,3c-4.2,0.8-8.8,1.8-11.9,5.4
		c-0.3-4.8-3.5-8.3-6.3-11.4c-2.2-2.4-4.2-4.6-4.6-7c-1.1,2.2-3.7,3.7-6.6,5.3c-3.7,2.1-7.8,4.4-9.6,8.8c-1.8-4.4-5.9-6.8-9.5-8.9
		c-2.9-1.6-5.4-3.1-6.5-5.2c-0.4,2.4-2.4,4.6-4.7,7.1c-2.9,3.1-6,6.6-6.4,11.4c-3.1-3.7-7.7-4.6-11.8-5.5c-3.2-0.7-6.1-1.3-7.8-3
		c0.4,2.4-0.9,5.1-2.2,8.2c-1.8,3.9-3.7,8.2-2.6,12.8c-4.1-2.5-8.7-2.1-12.9-1.6c-3.3,0.3-6.2,0.7-8.3-0.4c1.1,2.2,0.8,5.1,0.4,8.5
		c-0.5,4.2-1,8.9,1.5,13c-4.7-1.1-8.9,0.7-12.8,2.5c-3,1.4-5.7,2.6-8.1,2.2c1.7,1.7,2.3,4.7,3,7.9c0.8,4.2,1.8,8.8,5.4,11.9
		c-4.8,0.4-8.3,3.5-11.4,6.3c-2.4,2.2-4.6,4.2-7,4.6c2.2,1.1,3.6,3.7,5.3,6.6c2.1,3.7,4.4,7.8,8.8,9.6c-4.5,1.8-6.8,5.9-8.9,9.5
		c-1.6,2.9-3.1,5.4-5.3,6.5c2.4,0.4,4.6,2.4,7.1,4.7c3.1,2.9,6.6,6,11.4,6.4c-3.7,3.1-4.7,7.7-5.5,11.8c-0.7,3.2-1.3,6.1-3,7.8
		c2.4-0.4,5.1,0.9,8.2,2.3c3.9,1.8,8.1,3.7,12.8,2.6c-2.5,4.1-2.1,8.7-1.6,12.9c0.3,3.3,0.7,6.2-0.4,8.4c2.2-1.1,5.2-0.8,8.5-0.4
		c4.2,0.5,8.9,1,13-1.5c-1.1,4.7,0.8,8.9,2.6,12.8c1.4,3,2.6,5.7,2.2,8.2c1.7-1.7,4.6-2.3,7.8-3c4.1-0.9,8.7-1.8,11.8-5.5
		c0.4,4.8,3.5,8.3,6.4,11.4c2.3,2.4,4.3,4.6,4.7,7.1c1.1-2.2,3.7-3.6,6.5-5.3c3.7-2.1,7.7-4.5,9.5-8.9c1.8,4.4,5.9,6.8,9.6,8.8
		c2.9,1.6,5.5,3.1,6.6,5.3c0.4-2.4,2.4-4.6,4.6-7c2.8-3.1,6-6.6,6.3-11.4c3.1,3.7,7.7,4.6,11.9,5.4c3.3,0.6,6.2,1.2,7.9,3
		c-0.4-2.4,0.8-5.1,2.2-8.1c1.8-3.9,3.6-8.1,2.5-12.8c4.1,2.5,8.8,2,13,1.5c3.3-0.4,6.3-0.7,8.5,0.4c-1.1-2.2-0.8-5.1-0.4-8.4
		c0.5-4.2,0.9-8.9-1.6-13c4.6,1.1,8.9-0.8,12.8-2.6c3-1.4,5.7-2.6,8.2-2.2c-1.7-1.7-2.3-4.6-3-7.8c-0.9-4.2-1.8-8.8-5.5-11.8
		c4.8-0.4,8.3-3.5,11.4-6.4C207.3,128.5,209.5,126.4,211.9,126z M197.9,128c-2.6,2.4-5.6,5.1-9.4,5.4l-5.4,0.4l4.1,3.5
		c2.9,2.5,3.7,6.4,4.4,9.9l0,0.1c0.4,1.8,0.7,3.5,1.3,5.1c-1.6,0.4-3.2,1.2-4.8,1.9c-2.6,1.2-5.5,2.5-8.4,2.5
		c-0.8,0-1.5-0.1-2.2-0.3l-5.2-1.3l2.8,4.6c2,3.3,1.6,7.3,1.2,10.8c-0.2,1.7-0.4,3.5-0.3,5.2c-0.2,0-0.5,0-0.7,0
		c-1.4,0-2.9,0.2-4.4,0.3l-0.1,0c-1.7,0.2-3.3,0.4-4.8,0.4c-2.5,0-4.4-0.5-6-1.5l-4.6-2.8l1.3,5.2c0.9,3.7-0.7,7.2-2.2,10.6
		c-0.8,1.7-1.5,3.3-1.9,4.9c-1.6-0.6-3.3-0.9-5.2-1.3c-3.5-0.7-7.5-1.5-9.9-4.4l-3.5-4.1l-0.4,5.4c-0.3,3.8-2.9,6.7-5.4,9.4
		c-1.2,1.3-2.4,2.6-3.3,4c-1.3-1-2.9-1.9-4.5-2.8c-3.3-1.8-6.6-3.7-8.1-7.2l-2-5l-2,5c-1.4,3.6-4.9,5.5-8,7.3l-0.1,0
		c-1.6,0.9-3.1,1.8-4.4,2.8c-0.9-1.4-2.2-2.7-3.4-4.1c-2.5-2.8-5.2-5.6-5.4-9.4l-0.4-5.4l-3.5,4.2c-2.4,2.9-6.4,3.7-9.9,4.4
		c-1.8,0.4-3.5,0.7-5.1,1.3c-0.4-1.6-1.2-3.2-2-4.9l0,0c-1.5-3.3-3.2-6.9-2.3-10.6l1.3-5.2l-4.6,2.8c-1.7,1-3.6,1.5-6.2,1.5
		c-1.6,0-3.2-0.2-4.6-0.3l0,0c-1.5-0.2-3-0.3-4.4-0.3c-0.3,0-0.5,0-0.8,0c0.1-1.7-0.1-3.4-0.3-5.3l0,0c-0.4-3.7-0.9-7.6,1.1-10.8
		l2.8-4.6l-5.2,1.3c-0.7,0.2-1.5,0.3-2.2,0.3c-2.9,0-5.8-1.3-8.4-2.5l-0.1,0c-1.6-0.7-3.2-1.5-4.8-1.9c0.6-1.6,1-3.4,1.3-5.2
		c0.7-3.5,1.5-7.5,4.4-9.9l4.1-3.5l-5.4-0.4c-3.8-0.3-6.8-3-9.4-5.4l0,0c-1.3-1.2-2.6-2.4-4-3.3c1.1-1.3,1.9-2.9,2.8-4.5
		c1.8-3.3,3.7-6.7,7.2-8.1l5-2.1l-5-2c-3.5-1.4-5.4-4.8-7.3-8l0,0c-0.9-1.6-1.8-3.1-2.8-4.4c1.4-0.9,2.7-2.1,4.1-3.4
		c2.6-2.4,5.6-5.2,9.4-5.5l5.4-0.4l-4.1-3.5c-2.9-2.5-3.7-6.4-4.5-9.9l0-0.1c-0.4-1.8-0.7-3.5-1.3-5c1.6-0.4,3.3-1.2,5-2
		c2.6-1.2,5.5-2.5,8.5-2.5c0.7,0,1.5,0.1,2.2,0.3l5.2,1.2L45,60.3c-2-3.2-1.5-7.1-1.1-10.8l0,0c0.2-1.8,0.4-3.6,0.3-5.3
		c0.2,0,0.5,0,0.8,0c1.4,0,2.8-0.1,4.3-0.3l0.2,0c1.4-0.2,3.1-0.3,4.6-0.3c2.5,0,4.5,0.5,6.2,1.5l4.6,2.8l-1.3-5.2
		c-0.9-3.7,0.8-7.4,2.3-10.6l0-0.1c0.8-1.7,1.5-3.3,1.9-4.9c1.5,0.6,3.2,0.9,4.9,1.3l0.1,0c3.5,0.7,7.4,1.5,9.9,4.4l3.5,4.1l0.4-5.4
		c0.3-3.8,3-6.8,5.4-9.4c1.3-1.4,2.5-2.7,3.4-4.1c1.3,1,2.8,1.9,4.4,2.8l0,0v0h0c3.1,1.8,6.6,3.8,8,7.3l2,5l2-5
		c1.4-3.5,5-5.5,8.1-7.2c1.6-0.9,3.2-1.8,4.5-2.8c0.9,1.4,2.1,2.7,3.3,4c2.4,2.6,5.1,5.6,5.4,9.4l0.4,5.4l3.5-4.1
		c2.5-2.9,6.4-3.7,9.9-4.4l0.1,0c1.8-0.4,3.5-0.7,5.1-1.3c0.4,1.6,1.2,3.2,1.9,4.8l0,0l0,0c1.5,3.2,3.1,6.9,2.2,10.6l-1.3,5.2
		l4.6-2.8c1.6-1,3.5-1.5,6-1.5c1.6,0,3.2,0.2,4.8,0.4c1.5,0.2,3.1,0.4,4.6,0.4c0.3,0,0.5,0,0.7,0c-0.1,1.7,0.1,3.4,0.3,5.2
		c0.4,3.5,0.8,7.5-1.2,10.8l-2.8,4.6l5.2-1.3c0.7-0.2,1.4-0.3,2.1-0.3c2.9,0,5.9,1.3,8.5,2.5l0.1,0c1.7,0.8,3.3,1.5,4.9,1.9
		c-0.6,1.5-0.9,3.3-1.3,5.1c-0.8,3.7-1.5,7.5-4.4,9.9l-4.1,3.5l5.4,0.4c3.8,0.3,6.8,3,9.4,5.5l0,0.1c1.4,1.2,2.7,2.4,4,3.4
		c-1,1.3-1.9,2.8-2.8,4.4c-1.9,3.2-3.8,6.6-7.3,8l-5,2l5,2.1c3.5,1.5,5.5,5,7.2,8.1c0.9,1.6,1.8,3.2,2.8,4.5
		C200.5,125.5,199.2,126.7,197.9,128z"/>
	<path class="st8" d="M132,150.5c0.5,0,0.9,0,1.4,0.1c1.3-2.9,4.1-6.6,7.4-9.8c2.9-2.9,5.9-5.3,8.5-6.7c0.4-0.2,0.8-0.4,1.3-0.6
		c-0.3-3.2,0.3-7.7,1.5-12.2c1.1-4,2.5-7.6,4-10.1c0.2-0.4,0.5-0.8,0.8-1.2c-1.9-2.6-3.6-6.9-4.8-11.3c-1.1-4-1.6-7.8-1.5-10.7
		c0-0.5,0-0.9,0.1-1.4c-2.9-1.3-6.6-4.1-9.8-7.4c-2.9-2.9-5.3-5.9-6.7-8.5c-0.2-0.4-0.4-0.8-0.6-1.3c-3.2,0.3-7.8-0.3-12.2-1.5
		c-4-1.1-7.6-2.5-10.1-4c-0.4-0.2-0.8-0.5-1.2-0.8c-0.4,0.3-0.8,0.6-1.2,0.8c-2.5,1.5-6.1,2.9-10.1,4c-4.4,1.2-9,1.8-12.2,1.5
		c-0.2,0.4-0.4,0.9-0.6,1.3c-1.4,2.6-3.8,5.6-6.7,8.5c-3.2,3.2-6.9,6-9.8,7.4c0.1,0.5,0.1,0.9,0.1,1.4c0.1,2.9-0.5,6.8-1.6,10.7
		c-1.2,4.4-3,8.7-4.8,11.3c0.3,0.4,0.6,0.8,0.8,1.2c1.5,2.5,3,6.1,4,10.1c1.2,4.4,1.8,9,1.5,12.2c0.4,0.2,0.8,0.4,1.2,0.6
		c2.6,1.4,5.6,3.8,8.5,6.7c3.2,3.2,6,6.9,7.4,9.8c0.5-0.1,1-0.1,1.4-0.1c3-0.1,6.8,0.5,10.7,1.6c4.4,1.2,8.7,2.9,11.3,4.8
		c2.6-1.9,6.9-3.6,11.3-4.8C125.2,151,129.1,150.5,132,150.5z"/>
	<path class="st8" d="M189.6,112.2l-4.9-2l4.9-2c3.4-1.4,5.3-4.7,7.1-7.8c0.9-1.5,1.7-3,2.7-4.3c-1.4-0.9-2.6-2.1-3.9-3.3l0-0.1
		c-2.6-2.4-5.5-5-9.1-5.3l-5.2-0.4l4-3.4c2.8-2.4,3.6-6.1,4.3-9.7c0.4-1.7,0.7-3.4,1.3-4.9c-1.6-0.4-3.1-1.1-4.7-1.9l-0.1,0
		c-2.5-1.2-5.4-2.5-8.3-2.5c-0.7,0-1.4,0.1-2.1,0.2l-5.1,1.2l2.8-4.5c2-3.2,1.5-7.1,1.1-10.5c-0.2-1.8-0.4-3.5-0.3-5.1
		c-0.2,0-0.5,0-0.7,0c-1.4,0-3-0.2-4.5-0.4c-1.5-0.2-3.1-0.4-4.6-0.4c-2.4,0-4.3,0.5-5.9,1.4l-4.5,2.8l1.2-5.1
		c0.9-3.6-0.7-7.2-2.2-10.4l0,0l0,0c-0.7-1.6-1.4-3.2-1.9-4.7c-1.5,0.6-3.2,0.9-4.9,1.3l-0.1,0c-3.4,0.7-7.3,1.5-9.7,4.3l-3.4,4
		l-0.4-5.2c-0.3-3.7-2.9-6.6-5.3-9.2c-1.2-1.3-2.3-2.6-3.2-3.9c-1.3,1-2.8,1.9-4.4,2.8c-3,1.7-6.5,3.6-7.9,7.1l-2,4.9l-2-4.9
		c-1.4-3.5-4.8-5.4-7.8-7.1h0v0l0,0c-1.5-0.9-3-1.7-4.2-2.7c-0.9,1.4-2.1,2.7-3.3,4c-2.4,2.6-5,5.5-5.3,9.2L86.6,39l-3.4-4
		c-2.4-2.8-6.2-3.6-9.7-4.3l-0.1,0c-1.7-0.4-3.4-0.7-4.8-1.3c-0.4,1.6-1.2,3.1-1.9,4.8l0,0.1c-1.5,3.2-3.1,6.8-2.2,10.3l1.2,5.1
		l-4.5-2.8c-1.6-1-3.5-1.5-6-1.5c-1.5,0-3.1,0.2-4.5,0.3l-0.2,0c-1.5,0.2-2.8,0.3-4.1,0.3c-0.3,0-0.5,0-0.8,0
		c0.1,1.6-0.1,3.4-0.3,5.2l0,0c-0.4,3.6-0.9,7.4,1.1,10.5l2.7,4.4L44,64.9c-0.7-0.2-1.4-0.2-2.1-0.2c-2.9,0-5.7,1.3-8.2,2.5
		c-1.7,0.8-3.2,1.5-4.8,1.9c0.6,1.5,0.9,3.1,1.3,4.9l0,0.1c0.7,3.4,1.5,7.3,4.3,9.7l4,3.4l-5.2,0.4c-3.7,0.3-6.6,3-9.2,5.3
		c-1.3,1.2-2.6,2.4-4,3.3c1,1.2,1.8,2.7,2.7,4.2l0,0c1.8,3.2,3.7,6.4,7.1,7.8l4.9,2l-4.9,2c-3.4,1.4-5.3,4.7-7.1,7.9
		c-0.9,1.6-1.7,3.1-2.8,4.4c1.3,0.9,2.6,2,3.9,3.2l0,0c2.6,2.3,5.5,5,9.2,5.3l5.3,0.4l-4,3.4c-2.8,2.4-3.6,6.3-4.3,9.7
		c-0.3,1.7-0.7,3.5-1.3,5c1.5,0.4,3.1,1.1,4.7,1.8l0.1,0c2.5,1.1,5.3,2.4,8.2,2.4c0.7,0,1.5-0.1,2.2-0.3l5.1-1.3l-2.8,4.5
		c-1.9,3.1-1.5,6.9-1.1,10.5l0,0c0.2,1.8,0.4,3.5,0.3,5.1c0.2,0,0.5,0,0.7,0c1.4,0,2.8,0.2,4.3,0.3l0,0c1.4,0.2,3,0.3,4.5,0.3
		c2.5,0,4.4-0.5,6-1.5l4.5-2.8l-1.3,5.1c-0.9,3.6,0.8,7.2,2.2,10.3l0,0c0.7,1.6,1.5,3.2,1.9,4.8c1.5-0.6,3.2-0.9,4.9-1.3
		c3.4-0.7,7.3-1.5,9.6-4.3l3.4-4.1l0.4,5.3c0.3,3.7,2.8,6.5,5.3,9.2c1.2,1.3,2.4,2.6,3.3,4c1.2-1,2.7-1.8,4.2-2.7l0.1,0
		c3-1.7,6.4-3.6,7.8-7.1l2-4.9l2,4.9c1.4,3.4,4.7,5.3,7.9,7.1c1.6,0.9,3.1,1.7,4.4,2.8c0.9-1.3,2-2.6,3.2-3.9c2.5-2.7,5-5.5,5.3-9.2
		l0.4-5.2l3.4,4c2.4,2.8,6.3,3.6,9.7,4.3c1.8,0.4,3.5,0.7,5,1.3c0.4-1.6,1.1-3.1,1.9-4.7c1.5-3.3,3-6.8,2.2-10.4l-1.3-5.1l4.5,2.8
		c1.6,1,3.4,1.4,5.9,1.4c1.5,0,3-0.2,4.7-0.4l0.1,0c1.5-0.2,2.9-0.3,4.3-0.3c0.3,0,0.5,0,0.7,0c-0.1-1.6,0.1-3.4,0.3-5.1
		c0.4-3.4,0.8-7.3-1.1-10.5l-2.8-4.5l5.1,1.3c0.7,0.2,1.4,0.3,2.1,0.3c2.8,0,5.7-1.3,8.2-2.4c1.6-0.7,3.2-1.4,4.7-1.9
		c-0.6-1.5-0.9-3.2-1.3-4.9l0-0.1c-0.7-3.4-1.4-7.3-4.3-9.7l-4-3.4l5.2-0.4c3.7-0.3,6.6-2.9,9.2-5.2c1.3-1.2,2.6-2.4,3.9-3.2
		c-1-1.3-1.9-2.8-2.8-4.4C194.9,117.1,193,113.7,189.6,112.2z M167.4,132c-3.1,2.3-6.5,4.8-10.6,5.4c1.5,3.9,1.1,8.1,0.7,11.9
		c-0.4,3.5-0.7,6.7,0.4,9c-2.4-1.2-5.5-0.8-9.1-0.4c-3.8,0.4-8,0.9-11.9-0.6c-0.6,4.1-3.1,7.5-5.4,10.6c-2.1,2.8-4,5.4-4.1,8
		c-1.5-2.2-4.4-3.5-7.7-4.9c-3.5-1.5-7.4-3.2-10-6.5c-2.6,3.2-6.4,4.9-10,6.5c-3.3,1.4-6.2,2.7-7.7,4.9c-0.1-2.6-2-5.1-4.1-8
		c-2.3-3.1-4.8-6.5-5.4-10.6c-3.9,1.5-8.1,1-11.9,0.6c-3.6-0.4-6.7-0.8-9.1,0.4c1.2-2.4,0.8-5.5,0.5-9c-0.4-3.8-0.9-8,0.7-11.9
		c-4.1-0.6-7.5-3.1-10.6-5.4c-2.9-2.2-5.4-4.1-8.1-4.2c2.2-1.4,3.5-4.3,4.9-7.6c1.5-3.5,3.3-7.4,6.5-9.9c-3.2-2.6-5-6.5-6.5-10
		c-1.4-3.3-2.7-6.2-4.9-7.7c2.6-0.1,5.2-2,8-4.1c3.1-2.3,6.5-4.8,10.6-5.4c-1.5-3.9-1-8.1-0.6-11.9c0.4-3.6,0.8-6.7-0.4-9.1
		c2.4,1.2,5.5,0.8,9,0.4c3.8-0.4,8-0.9,11.9,0.7c0.6-4.1,3.1-7.5,5.4-10.6c2.1-2.9,4-5.4,4.2-8.1c1.4,2.2,4.3,3.5,7.6,4.9
		c3.5,1.5,7.4,3.3,10,6.5c2.6-3.3,6.4-5,10-6.5c3.2-1.4,6.1-2.7,7.5-4.9c0.1,2.7,2,5.2,4.2,8.1c2.3,3.1,4.8,6.5,5.4,10.6
		c3.9-1.5,8.1-1.1,11.9-0.7c3.5,0.4,6.6,0.7,9-0.4c-1.2,2.4-0.8,5.5-0.4,9.1c0.5,3.9,0.9,8.1-0.6,11.9c4.1,0.6,7.5,3.1,10.6,5.4
		c2.9,2.1,5.4,4,8,4.1c-2.2,1.4-3.5,4.4-4.9,7.7c-1.5,3.5-3.2,7.4-6.5,10c3.2,2.6,5,6.4,6.5,9.9c1.4,3.3,2.7,6.1,4.9,7.6
		C172.8,127.9,170.3,129.8,167.4,132z"/>
	<path class="st8" d="M130.2,152.2c-2.4,0-5.4,0.4-8.6,1.3c-6,1.6-11.7,4.5-11,7c1.4,5.4,6.1,7.5,10.2,9.2c2.7,1.2,5.1,2.2,6.3,4
		c0.1-2.2,1.7-4.2,3.4-6.6c2.6-3.6,5.6-7.6,4.1-13.1C134.2,152.6,132,152.2,130.2,152.2z M129.4,165.6c-1.5,2.1-2.9,3.9-3,5.8
		c-1-1.6-3.2-2.5-5.6-3.5c-3.6-1.6-7.7-3.3-9-8.2c-0.6-2.2,4.5-4.8,9.8-6.2c2.8-0.7,5.5-1.1,7.6-1.1c1.5,0,3.5,0.3,3.9,1.6
		C134.4,158.8,131.8,162.4,129.4,165.6z"/>
	<path class="st8" d="M98.4,66.6c3.2-0.9,6.1-2,8.1-3.2c1.5-0.9,3.3-2.3,2.9-3.7c-1.5-5.5-6.1-7.5-10.1-9.3c-2.7-1.2-5-2.2-6.2-4
		c-0.1,2.2-1.7,4.2-3.4,6.6c-2.7,3.6-5.7,7.6-4.2,13.1C86,68.5,92.4,68.2,98.4,66.6z M90.6,54.5c1.6-2.1,3-3.9,3-5.9
		c1.1,1.6,3.1,2.5,5.5,3.6c3.6,1.6,7.7,3.4,9,8.2c0.4,1.3-1.2,2.5-2.6,3.3c-1.8,1.1-4.3,2.1-7.1,2.9c-5.3,1.4-11,1.7-11.5-0.5
		C85.5,61.3,88.2,57.7,90.6,54.5z"/>
	<path class="st8" d="M156.2,149.2c0.5-4.4,1.1-9.4-2.9-13.4c-1-1.1-3.1-0.2-4.7,0.7c-2,1.1-4.5,3-6.8,5.4
		c-4.4,4.4-7.8,9.8-6.1,11.6c4,4,9,3.4,13.4,2.8c2.9-0.3,5.5-0.6,7.5,0.4C155.6,154.7,155.9,152.1,156.2,149.2z M148.3,154.6
		c-3.9,0.4-8.4,1-11.9-2.6c-1.6-1.6,1.5-6.4,5.4-10.2c2-2.1,4.2-3.7,6-4.8c1.4-0.8,3.2-1.5,4.2-0.6c3.5,3.5,3,8,2.6,11.9
		c-0.3,2.5-0.5,4.8,0.3,6.5C153.2,154,150.9,154.3,148.3,154.6z"/>
	<path class="st8" d="M66.7,84.3c1.8,1.8,7.2-1.7,11.6-6.1c2.3-2.3,4.2-4.7,5.4-6.8c0.9-1.6,1.7-3.6,0.6-4.7c-4-4-9-3.4-13.4-3
		c-2.9,0.3-5.5,0.6-7.4-0.4c1,1.9,0.7,4.5,0.3,7.4C63.3,75.3,62.7,80.3,66.7,84.3z M65.1,65.1c1.7,0.9,4,0.6,6.5,0.3
		C75.5,65,80,64.5,83.5,68c0.9,0.9,0.2,2.8-0.6,4.1c-1,1.8-2.7,4-4.8,6c-3.9,3.9-8.6,7-10.2,5.4c-3.5-3.5-3-8-2.5-11.9
		C65.7,69.1,66,66.8,65.1,65.1z"/>
	<path class="st8" d="M169.6,120.8c-1.8-4.1-3.8-8.7-9.3-10.2c-1.4-0.4-2.8,1.4-3.7,2.9c-1.2,2-2.4,4.9-3.2,8
		c-1.6,6-1.9,12.4,0.5,13c5.4,1.5,9.5-1.6,13.1-4.2c2.4-1.8,4.5-3.3,6.6-3.4C171.8,125.8,170.8,123.5,169.6,120.8z M165.5,129.5
		c-3.2,2.4-6.7,5-11.6,3.7c-2.2-0.6-1.9-6.3-0.5-11.5c0.8-2.8,1.8-5.4,2.8-7.2c0.8-1.4,2.1-2.9,3.3-2.6c4.8,1.3,6.6,5.4,8.2,9
		c1,2.4,1.9,4.4,3.5,5.5C169.5,126.5,167.6,127.9,165.5,129.5z"/>
	<path class="st8" d="M59.6,109.4c2.4,0.7,5.3-5,6.9-11c0.9-3.2,1.3-6.3,1.3-8.6c0-1.8-0.4-4-1.8-4.4c-5.5-1.5-9.5,1.5-13.1,4.1
		c-2.3,1.7-4.4,3.3-6.6,3.4c1.8,1.2,2.9,3.6,4,6.3C52.2,103.3,54.2,107.9,59.6,109.4z M48.7,93.5c1.9-0.1,3.8-1.4,5.8-3
		c3.1-2.3,6.7-5,11.6-3.7c1.3,0.3,1.6,2.3,1.6,3.9c0,2.1-0.3,4.8-1.1,7.6c-1.4,5.3-4,10.3-6.2,9.7c-4.8-1.3-6.6-5.4-8.2-9
		C51.2,96.7,50.3,94.6,48.7,93.5z"/>
	<path class="st8" d="M152.2,89.8c-0.1,2.4,0.4,5.4,1.3,8.6c1.6,6,4.5,11.7,7,11c5.4-1.4,7.4-6.1,9.2-10.2c1.2-2.7,2.2-5.1,4-6.3
		c-2.2-0.1-4.2-1.6-6.6-3.4c-3.6-2.6-7.6-5.6-13.1-4.2C152.6,85.8,152.2,88,152.2,89.8z M165.5,90.5c2.1,1.5,3.9,2.9,5.8,3
		c-1.6,1.1-2.5,3.2-3.5,5.6c-1.6,3.6-3.3,7.7-8.2,9c-2.2,0.6-4.7-4.5-6.2-9.7c-0.7-2.8-1.1-5.5-1.1-7.6c0-1.6,0.3-3.6,1.6-3.9
		C158.8,85.6,162.4,88.2,165.5,90.5z"/>
	<path class="st8" d="M66.6,121.7c-0.9-3.2-2-6.1-3.2-8.1c-0.9-1.5-2.3-3.3-3.7-2.9c-5.5,1.5-7.5,6.1-9.3,10.1c-1.2,2.7-2.2,5-4,6.2
		c2.2,0.1,4.3,1.7,6.6,3.4c3.6,2.7,7.6,5.7,13.1,4.2C68.5,134,68.2,127.6,66.6,121.7z M54.5,129.5c-2.1-1.6-3.9-2.9-5.9-3
		c1.6-1.1,2.5-3.1,3.6-5.5c1.6-3.6,3.4-7.7,8.2-9c1.2-0.3,2.5,1.2,3.3,2.6c1.1,1.8,2.1,4.3,2.8,7.2c1.4,5.3,1.7,10.9-0.5,11.5
		C61.3,134.5,57.7,131.8,54.5,129.5z"/>
	<path class="st8" d="M141.8,78.2c4.4,4.4,9.7,7.9,11.5,6.1c4-4,3.4-9,2.9-13.4c-0.3-2.9-0.6-5.5,0.3-7.5c-1.9,1-4.5,0.7-7.4,0.4
		c-4.4-0.5-9.4-1-13.4,3c-1,1-0.2,3.1,0.7,4.7C137.5,73.5,139.4,75.9,141.8,78.2z M136.5,68c3.5-3.5,8-3,11.9-2.6
		c2.6,0.3,4.8,0.5,6.5-0.3c-0.9,1.7-0.6,4-0.3,6.6c0.4,3.9,1,8.4-2.6,11.9c-1.6,1.6-6.4-1.5-10.2-5.4c-2.1-2.1-3.7-4.2-4.7-6.1
		C136.3,70.8,135.6,68.9,136.5,68z"/>
	<path class="st8" d="M71.4,136.4c-1.6-0.9-3.6-1.7-4.7-0.7c-4,4-3.4,9-3,13.4c0.3,2.9,0.6,5.5-0.4,7.4c1.9-1,4.5-0.7,7.5-0.3
		c4.4,0.5,9.5,1.1,13.4-2.9c1.8-1.8-1.7-7.2-6-11.5C75.9,139.5,73.5,137.6,71.4,136.4z M83.5,152.1c-3.5,3.5-8,3-11.9,2.5
		c-2.6-0.3-4.9-0.5-6.6,0.3c0.9-1.7,0.6-4,0.3-6.5c-0.4-3.9-0.9-8.3,2.6-11.9c0.9-0.9,2.8-0.2,4.2,0.6c1.9,1,4,2.7,6,4.7
		C82,145.7,85.1,150.5,83.5,152.1z"/>
	<path class="st8" d="M113.6,63.4c2,1.2,4.9,2.3,8.1,3.2c6,1.6,12.4,1.9,13-0.5c1.4-5.5-1.6-9.5-4.2-13.1c-1.8-2.4-3.3-4.5-3.4-6.6
		c-1.2,1.8-3.6,2.8-6.2,4c-4.1,1.8-8.7,3.8-10.1,9.3C110.3,61.1,112,62.5,113.6,63.4z M111.9,60.4c1.3-4.8,5.4-6.6,9-8.2
		c2.4-1,4.4-2,5.5-3.6c0.1,1.9,1.5,3.8,3.1,5.9c2.4,3.2,5,6.7,3.7,11.6c-0.6,2.2-6.3,1.9-11.6,0.5c-2.8-0.8-5.3-1.8-7.1-2.9
		C113.1,62.9,111.6,61.6,111.9,60.4z"/>
	<path class="st8" d="M98.4,153.4c-3.2-0.9-6.3-1.3-8.6-1.2c-1.8,0-4,0.4-4.4,1.8c-1.5,5.4,1.5,9.5,4.2,13.1
		c1.7,2.3,3.3,4.4,3.4,6.6c1.2-1.8,3.6-2.9,6.3-4c4.1-1.8,8.7-3.8,10.2-9.2C110,157.9,104.3,155,98.4,153.4z M108.1,159.6
		c-1.3,4.8-5.4,6.6-9,8.2c-2.4,1-4.5,2-5.6,3.6c-0.1-1.9-1.5-3.8-3-5.8c-2.3-3.2-5-6.8-3.7-11.6c0.3-1.3,2.3-1.6,3.9-1.6
		c2.1,0,4.8,0.4,7.6,1.1C103.6,154.9,108.7,157.5,108.1,159.6z"/>
</g>
</svg>
