<?xml version="1.0" encoding="utf-8"?>
<!-- Generator: Adobe Illustrator 19.2.0, SVG Export Plug-In . SVG Version: 6.00 Build 0)  -->
<svg version="1.1" id="Layer_1" xmlns="http://www.w3.org/2000/svg" xmlns:xlink="http://www.w3.org/1999/xlink" x="0px" y="0px"
	 width="220px" height="220px" viewBox="0 0 220 220" style="enable-background:new 0 0 220 220;" xml:space="preserve">
<style type="text/css">
	.st0{fill:#EC1C24;}
	.st1{fill:#F6921E;}
	.st2{fill:#FFCA05;}
	.st3{fill:#8BC53F;}
	.st4{fill:#00ADEE;}
	.st5{fill:#5B57A4;}
	.st6{fill:#FFFFFF;}
	.st7{fill:none;stroke:#5B57A4;stroke-width:0.25;stroke-miterlimit:10;}
	.st8{fill:#A2238D;}
</style>
<g>
	<g>
		<path class="st3" d="M62.1,180.1c1.3,3.5,2.5,6.5,2,9.2c2.1-1.8,5.4-2.3,9.1-2.9c3.6-0.5,7.5-1.1,10.8-3.1
			c-9.1-3.2-17.3-8-24.5-14.2C59.4,173,60.8,176.7,62.1,180.1z"/>
		<path class="st3" d="M95.8,186.5c1.9,3.4,5,5.8,7.8,8.1c2.9,2.3,5.6,4.4,6.4,7c0.9-2.6,3.4-4.7,6.3-7c2.8-2.3,5.9-4.8,7.8-8.1
			c-4.6,0.8-9.3,1.3-14.2,1.3C105.1,187.8,100.4,187.4,95.8,186.5z"/>
		<path class="st3" d="M33.5,146.8c-0.6,3.7-1.1,6.9-2.9,9c2.7-0.6,5.8,0.7,9.3,2.1c3.4,1.3,7.1,2.8,10.9,2.7
			c-6.1-7.2-11-15.4-14.2-24.5C34.6,139.4,34,143.2,33.5,146.8z"/>
		<path class="st3" d="M146.8,186.4c3.7,0.5,7,1,9.1,2.9c-0.6-2.7,0.6-5.8,2-9.2c1.3-3.4,2.8-7.1,2.7-10.9
			c-7.2,6.1-15.5,11-24.5,14.2C139.3,185.3,143.2,185.9,146.8,186.4z"/>
		<path class="st3" d="M169.1,160.5c3.9,0.1,7.6-1.4,11-2.7c3.5-1.4,6.6-2.6,9.3-2c-1.8-2.1-2.3-5.3-2.9-9
			c-0.6-3.6-1.2-7.5-3.2-10.8C180.1,145,175.3,153.3,169.1,160.5z"/>
		<path class="st3" d="M189.3,64.1c-2.7,0.6-5.8-0.6-9.2-2c-3.4-1.3-7.1-2.8-11-2.7c6.1,7.2,11,15.5,14.2,24.6
			c2-3.3,2.6-7.2,3.1-10.9C187,69.5,187.5,66.2,189.3,64.1z"/>
		<path class="st3" d="M30.7,64.1c1.9,2.1,2.3,5.4,2.9,9.1c0.5,3.6,1.1,7.5,3.1,10.7c3.2-9,8.1-17.3,14.2-24.5
			c-3.8-0.1-7.5,1.3-10.9,2.7C36.4,63.5,33.4,64.7,30.7,64.1z"/>
		<path class="st3" d="M33.4,95.9c-3.3,1.9-5.8,4.9-8.1,7.7c-2.3,2.9-4.4,5.5-7,6.3c2.6,0.9,4.7,3.5,7,6.4c2.2,2.8,4.7,5.9,8,7.8
			c-0.8-4.6-1.3-9.3-1.3-14.1C32.1,105.2,32.6,100.5,33.4,95.9z"/>
		<path class="st3" d="M155.7,30.6c-2,1.8-5.3,2.3-9,2.9c-3.6,0.5-7.5,1.2-10.8,3.2c9.1,3.2,17.4,8.1,24.6,14.2
			c0.1-3.9-1.4-7.6-2.7-11C156.4,36.4,155.2,33.3,155.7,30.6z"/>
		<path class="st3" d="M116.4,25.4c-2.9-2.3-5.5-4.4-6.3-7c-0.9,2.6-3.5,4.7-6.4,7c-2.9,2.3-6,4.7-7.8,8.1c4.6-0.8,9.3-1.3,14.2-1.3
			c4.8,0,9.6,0.5,14.2,1.3C122.3,30.1,119.2,27.6,116.4,25.4z"/>
		<path class="st3" d="M64.2,30.6c0.6,2.7-0.7,5.8-2.1,9.3c-1.3,3.4-2.8,7.1-2.7,10.9c7.2-6.1,15.5-11,24.5-14.2
			c-3.3-2-7.2-2.6-10.8-3.2C69.5,32.9,66.3,32.4,64.2,30.6z"/>
		<path class="st3" d="M205.5,100.5c-3.7-4.7-7.9-9.8-13.8-12.4c3.8-5.2,4.8-11.7,5.6-17.6c0.8-5.5,1.5-10.4,4.3-13.5
			c-4,0.8-8.6-0.9-13.7-2.9c-5.6-2.2-11.7-4.5-18.1-3.8c0.7-6.4-1.7-12.5-3.9-18.1c-2.1-5.2-3.9-9.8-3-13.8c-3,2.7-7.9,3.5-13.3,4.3
			c-5.9,0.9-12.4,1.9-17.6,5.8c-2.6-5.9-7.7-10-12.4-13.8c-4.3-3.4-8.1-6.5-9.4-10.4c-1.3,3.9-5.2,7-9.6,10.5
			c-4.7,3.7-9.9,7.8-12.5,13.7c-5.2-3.8-11.7-4.8-17.6-5.7C65,21.7,60.2,21,57.1,18.3c0.9,4-1,8.7-3,13.8
			c-2.2,5.6-4.6,11.7-3.9,18.1c-6.4-0.7-12.5,1.6-18.1,3.8c-5.1,2-9.7,3.8-13.7,2.9c2.8,3.1,3.5,8,4.3,13.5c0.9,6,1.8,12.5,5.6,17.7
			c-5.9,2.6-10,7.7-13.8,12.4c-3.4,4.3-6.5,8.1-10.4,9.4c3.9,1.3,7,5.2,10.5,9.6c3.7,4.7,7.8,9.9,13.7,12.5
			c-3.8,5.2-4.8,11.7-5.7,17.6c-0.8,5.4-1.6,10.3-4.3,13.3c4-0.9,8.6,1,13.8,3c5.6,2.2,11.7,4.6,18.1,3.9
			c-0.7,6.4,1.6,12.5,3.8,18.1c2,5.1,3.8,9.7,3,13.7c3.1-2.8,8-3.5,13.5-4.3c5.9-0.9,12.4-1.8,17.6-5.6c2.6,5.9,7.7,10,12.5,13.7
			c4.4,3.5,8.3,6.5,9.6,10.5c1.3-3.9,5.1-6.9,9.4-10.4c4.7-3.7,9.8-7.9,12.4-13.8c5.2,3.8,11.7,4.8,17.6,5.6
			c5.5,0.8,10.4,1.5,13.5,4.3c-0.8-4,0.9-8.6,2.9-13.7c2.2-5.6,4.5-11.7,3.8-18.1c6.4,0.7,12.5-1.7,18.1-3.9c5.2-2.1,9.8-3.9,13.8-3
			c-2.7-3-3.5-7.9-4.3-13.3c-0.9-5.9-1.9-12.4-5.7-17.6c5.9-2.6,10-7.7,13.7-12.5c3.5-4.4,6.5-8.3,10.5-9.6
			C212,108.6,208.9,104.8,205.5,100.5z M197.1,117.2c-3,3.8-6.3,7.9-11.2,9.8c-0.5,2.2-1,4.3-1.7,6.4c3.3,4,4.1,9.2,4.9,14
			c0.6,4.1,1.2,7.8,3.3,10.1c-3.1-0.6-6.6,0.7-10.5,2.3c-4.5,1.8-9.4,3.7-14.5,2.9c-1.5,1.6-3.1,3.2-4.7,4.7c0.8,5.1-1,10-2.8,14.5
			c-1.5,3.9-2.9,7.4-2.2,10.4c-2.3-2.1-6.1-2.6-10.3-3.3c-4.7-0.7-9.9-1.5-14-4.7c-2.1,0.7-4.3,1.2-6.5,1.7
			c-1.8,4.9-5.9,8.2-9.6,11.2c-3.3,2.6-6.2,4.9-7.1,7.9c-1-3-3.9-5.3-7.3-7.9c-3.8-3-7.9-6.3-9.7-11.1c-2.2-0.5-4.3-1-6.5-1.7
			c-4,3.2-9.2,4-13.9,4.7c-4.2,0.6-7.9,1.2-10.3,3.3c0.6-3-0.7-6.5-2.2-10.4c-1.7-4.5-3.6-9.3-2.8-14.5c-1.6-1.5-3.2-3.1-4.7-4.7
			c-5.1,0.8-10-1.1-14.5-2.9c-3.9-1.6-7.4-3-10.5-2.3c2.1-2.3,2.6-6,3.3-10.1c0.7-4.7,1.5-9.9,4.8-13.9c-0.7-2.1-1.2-4.3-1.7-6.5
			c-4.8-1.9-8.1-6-11.1-9.7c-2.6-3.3-5-6.3-7.9-7.3c3-1,5.3-3.9,7.9-7.1c3-3.7,6.3-7.7,11.1-9.6c0.5-2.2,1.1-4.4,1.8-6.6
			c-3.2-4-4-9.2-4.7-13.9c-0.6-4.2-1.2-7.9-3.3-10.3c3,0.6,6.5-0.7,10.4-2.2c4.5-1.7,9.3-3.6,14.5-2.8c1.5-1.6,3.1-3.2,4.7-4.7
			c-0.8-5.1,1.1-10,2.9-14.5c1.6-3.9,3-7.4,2.3-10.5c2.3,2.1,6,2.6,10.1,3.3c4.7,0.7,9.9,1.5,13.9,4.8c2.1-0.7,4.3-1.2,6.5-1.7
			c1.9-4.9,6-8.1,9.7-11.1c3.3-2.6,6.3-5,7.3-8c1,3,3.9,5.3,7.1,7.9c3.7,3,7.8,6.3,9.6,11.2c2.2,0.5,4.4,1.1,6.5,1.7
			c4-3.3,9.2-4.1,14-4.8c4.1-0.6,7.8-1.2,10.1-3.3c-0.6,3.1,0.7,6.6,2.3,10.5c1.8,4.5,3.7,9.4,2.9,14.5c1.6,1.5,3.2,3.1,4.7,4.7
			c5.1-0.9,10.1,1,14.5,2.8c3.9,1.5,7.4,2.9,10.4,2.2c-2.1,2.3-2.6,6.1-3.3,10.3c-0.7,4.8-1.5,10-4.8,14c0.7,2.1,1.2,4.3,1.7,6.5
			c4.9,1.8,8.2,5.9,11.2,9.6c2.6,3.3,4.9,6.2,7.9,7.1C202,110.9,199.7,113.9,197.1,117.2z"/>
		<path class="st3" d="M194.6,103.6c-2.3-2.9-4.8-6-8.2-7.8c0.8,4.6,1.3,9.3,1.3,14.2c0,4.9-0.5,9.6-1.3,14.2c3.4-1.9,5.9-5,8.2-7.9
			c2.3-3,4.4-5.6,7-6.4C199,109.1,197,106.5,194.6,103.6z"/>
	</g>
	<g>
		<path class="st3" d="M90.6,70.5L108.8,38l1.3-2.3c0,0-0.1,0-0.1,0c-19.8,0-38.5,7.7-52.5,21.8c-4,4-7.4,8.4-10.4,13h2.7H90.6z"/>
		<path class="st3" d="M129.9,70.5h40.4h2.6c-2.9-4.7-6.4-9-10.4-13c-13.9-13.9-32.2-21.6-51.8-21.7l1.2,2.3L129.9,70.5z"/>
		<polygon class="st3" points="149.6,113.4 131.8,145.4 167.3,145.4 		"/>
		<path class="st3" d="M129.9,149l-18,32.5l-1.5,2.8l-1.5-2.8L90.6,149H49.8h-3l1.5-2.6l20.5-36.6L48.2,73.1l-1.3-2.4
			C39.6,82.4,35.6,95.9,35.6,110c0,19.8,7.7,38.5,21.8,52.5c14,14,32.7,21.8,52.5,21.8c19.8,0,38.5-7.7,52.5-21.8
			c4.1-4.1,7.7-8.7,10.7-13.6h-2.9H129.9z"/>
		<polygon class="st3" points="125.8,149 94.7,149 110.3,177 		"/>
		<polygon class="st3" points="147.5,109.7 127.8,74 92.7,74 72.7,109.7 92.7,145.4 127.8,145.4 		"/>
		<path class="st3" d="M173.1,70.8l-1.2,2.3l-20.3,36.6l20.3,36.6l1.4,2.6c7.1-11.6,11-24.9,11-38.9
			C184.2,95.9,180.3,82.5,173.1,70.8z"/>
		<polygon class="st3" points="88.7,145.4 70.7,113.3 52.8,145.4 		"/>
		<polygon class="st3" points="52.8,74 70.7,106.1 88.7,74 		"/>
		<polygon class="st3" points="131.8,74 149.6,106.1 167.3,74 		"/>
		<polygon class="st3" points="125.8,70.5 110.3,42.5 94.7,70.5 		"/>
	</g>
	<path class="st3" d="M173.3,149L173.3,149C173.2,148.9,173.2,148.9,173.3,149L173.3,149z"/>
	<path class="st3" d="M110.4,35.2l-0.3,0.5c0.2,0,0.4,0,0.6,0L110.4,35.2z"/>
	<path class="st3" d="M46.8,70.5l0.1,0.2c0-0.1,0.1-0.2,0.2-0.2H46.8z"/>
	<path class="st3" d="M173.3,70.5h-0.4c0.1,0.1,0.2,0.2,0.2,0.4L173.3,70.5z"/>
</g>
</svg>
