<?xml version="1.0" encoding="utf-8"?>
<!-- Generator: Adobe Illustrator 19.2.0, SVG Export Plug-In . SVG Version: 6.00 Build 0)  -->
<svg version="1.1" id="Layer_1" xmlns="http://www.w3.org/2000/svg" xmlns:xlink="http://www.w3.org/1999/xlink" x="0px" y="0px"
	 width="220px" height="220px" viewBox="0 0 220 220" style="enable-background:new 0 0 220 220;" xml:space="preserve">
<style type="text/css">
	.st0{fill:#EC1C24;}
	.st1{fill:#F6921E;}
	.st2{fill:#FFCA05;}
	.st3{fill:#8BC53F;}
	.st4{fill:#00ADEE;}
	.st5{fill:#5B57A4;}
	.st6{fill:#FFFFFF;}
	.st7{fill:none;stroke:#5B57A4;stroke-width:0.25;stroke-miterlimit:10;}
	.st8{fill:#A2238D;}
</style>
<g>
	<g>
		<path class="st0" d="M150.4,69.6H69.6v80.7h80.7V69.6z M139.1,89.9l-27.3,49.4l-1.6,2.9l-1.6-2.9L80.9,89.9l-1.5-2.7h3.1h54.9h3.1
			L139.1,89.9z"/>
		<polygon class="st0" points="110.1,134.6 134.4,90.8 85.7,90.8 		"/>
		<path class="st0" d="M53.7,75.3C53.7,75.3,53.7,75.3,53.7,75.3C44,77.9,38,87.3,32.6,95.7c-4.1,6.5-7.8,12.2-12.5,14.1
			c4.7,1.9,8.4,7.8,12.5,14.3c5.4,8.5,11.4,17.9,21,20.5c-6.2-10.1-9.8-21.9-9.8-34.6C43.9,97.3,47.5,85.4,53.7,75.3z"/>
		<path class="st0" d="M75.3,166.3c2.6,9.6,12,15.6,20.5,21c6.6,4.1,12.4,7.8,14.3,12.5c1.9-4.7,7.6-8.3,14.1-12.5
			c8.4-5.4,17.8-11.4,20.4-21.1c-10.1,6.2-22,9.8-34.7,9.8C97.3,176.1,85.4,172.5,75.3,166.3z"/>
		<path class="st0" d="M144.7,53.7C144.7,53.7,144.7,53.7,144.7,53.7c-2.6-9.7-12-15.7-20.4-21.1c-6.4-4.1-12.2-7.8-14.1-12.5
			c-1.9,4.7-7.8,8.4-14.3,12.5C87.4,38,77.9,44,75.3,53.7c0,0,0,0-0.1,0c10.1-6.2,22-9.8,34.7-9.8C122.7,43.9,134.6,47.5,144.7,53.7
			z"/>
		<path class="st0" d="M198.2,89.8c-8.9-13.9-19-29.7-37.2-29.7c-0.4,0-0.9,0.1-1.3,0.2c0.1-0.4,0.2-0.8,0.2-1.3
			c0-18.2-15.8-28.3-29.7-37.2c-9.1-5.8-17.2-11-19.9-17.6c-2.7,6.6-11,11.9-20.2,17.7c-14.1,8.9-30,18.9-30,37.1
			c0,0.4,0.1,0.9,0.2,1.3c-0.4-0.1-0.8-0.2-1.3-0.2c-18.2,0-28.3,15.8-37.2,29.7c-5.8,9.1-11,17.2-17.6,19.9
			c6.6,2.7,11.9,11,17.7,20.2c8.9,14.1,18.9,30,37.1,30c0.4,0,0.9-0.1,1.3-0.2c-0.1,0.4-0.2,0.8-0.2,1.3c0,18.1,15.9,28.2,30,37.1
			c9.3,5.9,17.5,11.1,20.2,17.7c2.7-6.6,10.8-11.8,19.9-17.6c13.9-8.9,29.7-19,29.7-37.2c0-0.4-0.1-0.9-0.2-1.3
			c0.4,0.1,0.8,0.2,1.3,0.2c18.1,0,28.2-15.9,37.1-30c5.9-9.3,11.1-17.5,17.7-20.2C209.2,107,204,98.9,198.2,89.8z M191.7,125.9
			c-7,11.1-14.9,23.6-29,24c-3.7,4.8-8,9.2-12.8,12.8c-0.4,14.1-12.8,22.1-23.8,29.1c-7.3,4.7-13.8,8.8-15.9,14.1
			c-2.2-5.3-8.8-9.5-16.2-14.2c-11.1-7-23.6-14.9-24-29c-4.8-3.7-9.2-8-12.8-12.8c-14.1-0.4-22-12.9-29-24
			c-4.7-7.4-8.8-14-14.2-16.2c5.3-2.2,9.4-8.6,14.1-15.9c7-11,15-23.4,29.1-23.7c0,0,0,0,0,0c3.7-4.9,8-9.2,12.9-12.9c0,0,0,0,0,0
			c0.4-14.1,12.9-22,24-29c7.4-4.7,14-8.9,16.2-14.2c2.2,5.3,8.6,9.4,15.9,14.1c11,7,23.4,15,23.8,29.1c0,0,0,0,0,0
			c4.9,3.7,9.2,8,12.9,12.9c0,0,0,0,0,0c14.1,0.4,22.1,12.8,29.1,23.7c4.7,7.3,8.8,13.8,14.1,15.9
			C200.6,111.9,196.4,118.5,191.7,125.9z"/>
		<path class="st0" d="M187.4,95.7c-5.4-8.4-11.4-17.8-21.1-20.4c0,0,0,0,0,0c6.2,10.1,9.8,22,9.8,34.7c0,12.7-3.6,24.6-9.8,34.6
			c9.6-2.6,15.6-12,21-20.5c4.1-6.6,7.8-12.4,12.5-14.3C195.2,107.9,191.5,102.1,187.4,95.7z"/>
		<path class="st0" d="M154.1,65.9c-11.8-11.8-27.5-18.3-44.1-18.3c-16.7,0-32.3,6.5-44.1,18.3C54.1,77.7,47.6,93.3,47.6,110
			c0,16.7,6.5,32.3,18.3,44.1c11.8,11.8,27.5,18.3,44.1,18.3c16.7,0,32.3-6.5,44.1-18.3c11.8-11.8,18.3-27.5,18.3-44.1
			C172.4,93.3,165.9,77.7,154.1,65.9z M154,150.4v3.7H66V66H154V150.4z"/>
	</g>
</g>
</svg>
