<?xml version="1.0" encoding="utf-8"?>
<!-- Generator: Adobe Illustrator 19.2.0, SVG Export Plug-In . SVG Version: 6.00 Build 0)  -->
<svg version="1.1" id="Layer_1" xmlns="http://www.w3.org/2000/svg" xmlns:xlink="http://www.w3.org/1999/xlink" x="0px" y="0px"
	 width="220px" height="220px" viewBox="0 0 220 220" style="enable-background:new 0 0 220 220;" xml:space="preserve">
<style type="text/css">
	.st0{fill:#EC1C24;}
	.st1{fill:#F6921E;}
	.st2{fill:#FFCA05;}
	.st3{fill:#8BC53F;}
	.st4{fill:#00ADEE;}
	.st5{fill:#5B57A4;}
	.st6{fill:#FFFFFF;}
	.st7{fill:none;stroke:#5B57A4;stroke-width:0.25;stroke-miterlimit:10;}
	.st8{fill:#A2238D;}
</style>
<g>
	<path class="st1" d="M174.1,110c0-13.6-4.2-26.5-12-37.4c5.1,8.7,8,18.7,8,29.4c0,32.6-27,59.1-60.1,59.1
		c-33.2,0-60.2-26.5-60.2-59.1c0-10.7,2.9-20.8,8-29.4c-7.8,10.8-12,23.8-12,37.4c0,17.1,6.7,33.2,18.8,45.4
		c12.1,12.1,28.2,18.8,45.4,18.8c17.1,0,33.2-6.7,45.4-18.8C167.4,143.2,174.1,127.1,174.1,110z"/>
	<path class="st1" d="M110,157.7c31.2,0,56.6-24.9,56.6-55.6c0-30.7-25.4-55.6-56.6-55.6c-31.2,0-56.6,24.9-56.6,55.6
		C53.3,132.7,78.7,157.7,110,157.7z"/>
	<path class="st1" d="M85.4,173.1c2.6,7.2,8.7,12.1,14.2,16.4c4.8,3.8,9.1,7.1,10.5,11.4c1.4-4.2,5.6-7.6,10.3-11.4
		c5.5-4.4,11.5-9.3,14.1-16.5c-7.6,3-15.9,4.6-24.5,4.6C101.3,177.7,93,176,85.4,173.1z"/>
	<path class="st1" d="M134.5,47c-2.6-7.3-8.6-12.1-14.1-16.5c-4.7-3.8-8.9-7.1-10.3-11.4c-1.4,4.3-5.7,7.7-10.5,11.4
		c-5.5,4.4-11.6,9.2-14.2,16.4c7.6-3,15.9-4.6,24.5-4.6C118.6,42.3,126.9,44,134.5,47z"/>
	<path class="st1" d="M43.1,120.4c-5,5.8-6.1,13.5-7.2,20.4c-0.9,6-1.7,11.3-4.7,14.6c4.4-0.9,9.5,1.1,15.1,3.3
		c6.6,2.6,13.8,5.5,21.4,4.1C54.8,152.5,45.7,137.5,43.1,120.4z"/>
	<path class="st1" d="M176.9,100.1c0-0.1,0-0.2,0-0.2c5-5.9,6.2-13.6,7.2-20.6c0.9-6,1.7-11.4,4.7-14.8c-4.4,0.9-9.4-1-15-3.2
		c-6.6-2.6-13.8-5.4-21.4-4c0,0,0,0,0,0C165.3,67.7,174.4,82.8,176.9,100.1z"/>
	<path class="st1" d="M67.7,57.2c-7.6-1.4-14.8,1.4-21.4,4c-5.6,2.2-10.6,4.1-15,3.2c3,3.4,3.8,8.7,4.7,14.8c1,7,2.2,14.7,7.1,20.5
		C45.7,82.6,54.7,67.6,67.7,57.2z"/>
	<path class="st1" d="M176.8,120.3c0,0,0-0.1,0-0.1c-2.6,17.2-11.6,32.2-24.6,42.6c7.6,1.4,14.8-1.5,21.4-4.1
		c5.7-2.3,10.7-4.3,15.1-3.3c-3-3.3-3.8-8.6-4.7-14.6C183,133.8,181.8,126.1,176.8,120.3z"/>
	<path class="st1" d="M194.8,141.9c-1.7-11-3.6-23.3-13.1-31.9c9.6-8.5,11.4-20.9,13-32c1.2-8.5,2.4-16.1,6.6-20.9
		c-6.2,1.3-13.2-1.5-21.2-4.6c-10.5-4.1-22.1-8.6-34.3-4.5c-2.5-12.7-12.3-20.5-21.1-27.5c-6.7-5.3-12.6-10.1-14.5-16.1
		c-2,6.1-8,10.8-14.8,16.2c-8.8,7-18.6,14.8-21.2,27.3c-12.2-4.1-23.8,0.4-34.3,4.5c-7.9,3.1-15,5.9-21.2,4.6
		c4.3,4.8,5.4,12.3,6.6,20.9c1.6,11.2,3.5,23.6,13.1,32.1c-9.6,8.5-11.5,20.9-13.2,31.9c-1.3,8.4-2.4,15.9-6.6,20.6
		c6.2-1.3,13.4,1.5,21.4,4.7c10.4,4.2,22.1,8.8,34.2,4.7c2.6,12.5,12.4,20.3,21.2,27.2c6.8,5.3,12.8,10.1,14.8,16.2
		c2-6,7.9-10.7,14.5-16.1c8.8-7,18.5-14.8,21-27.4c12.2,4,23.8-0.6,34.3-4.7c8-3.2,15.1-6,21.4-4.7
		C197.2,157.8,196.1,150.4,194.8,141.9z M176.5,161.8c-8.5,3.4-17.9,7.1-27.8,3.7c-3.1,2.2-6.5,4.1-10,5.8
		c-1.9,10.3-9.8,16.7-16.9,22.3c-5.3,4.3-10.1,8-11.6,12.8c-1.6-4.9-6.4-8.7-11.8-12.9c-7.2-5.7-15.1-12-17.1-22.2
		c-3.5-1.6-6.8-3.5-9.9-5.7c-9.9,3.5-19.4-0.3-27.9-3.6c-6.4-2.6-12.1-4.8-17.1-3.8c3.4-3.8,4.3-9.8,5.3-16.5
		c1.4-9,2.9-19,10.8-25.8c-0.2-1.9-0.3-3.9-0.3-5.9c0-1.9,0.1-3.8,0.3-5.7c-8-6.8-9.4-16.9-10.7-25.9c-1-6.8-1.9-12.9-5.3-16.7
		c4.9,1,10.6-1.2,16.9-3.6c8.5-3.3,17.9-7,27.8-3.5c0,0,0,0,0,0c3.1-2.2,6.5-4.1,10-5.8c1.9-10.3,9.9-16.6,17.1-22.3
		c5.4-4.3,10.2-8.1,11.8-12.9c1.6,4.8,6.3,8.6,11.6,12.8c7.1,5.7,15,12,16.9,22.3c0,0,0,0,0,0c3.6,1.7,6.9,3.6,10.1,5.9c0,0,0,0,0,0
		c9.9-3.5,19.3,0.2,27.8,3.5c6.3,2.5,12,4.7,16.9,3.6c-3.4,3.8-4.3,9.9-5.3,16.7c-1.3,9.1-2.8,19.2-10.8,26c0,0,0,0,0-0.1
		c0.2,1.9,0.3,3.8,0.3,5.7c0,1.9-0.1,3.9-0.3,5.8c0,0,0,0,0,0c8,6.8,9.5,16.9,10.9,25.9c1,6.7,1.9,12.7,5.3,16.5
		C188.6,157,182.9,159.3,176.5,161.8z"/>
	<path class="st1" d="M81.3,48.7C81.3,48.7,81.2,48.7,81.3,48.7L81.3,48.7C81.2,48.7,81.3,48.7,81.3,48.7z"/>
	<polygon class="st1" points="57.8,72.6 57.8,72.6 57.8,72.6 	"/>
	<path class="st1" d="M162.1,72.6C162.1,72.6,162.1,72.6,162.1,72.6C162.1,72.6,162.1,72.6,162.1,72.6
		C162.1,72.6,162.1,72.6,162.1,72.6z"/>
</g>
</svg>
