<?xml version="1.0" encoding="utf-8"?>
<!-- Generator: Adobe Illustrator 19.2.0, SVG Export Plug-In . SVG Version: 6.00 Build 0)  -->
<svg version="1.1" id="Layer_1" xmlns="http://www.w3.org/2000/svg" xmlns:xlink="http://www.w3.org/1999/xlink" x="0px" y="0px"
	 width="220px" height="220px" viewBox="0 0 220 220" style="enable-background:new 0 0 220 220;" xml:space="preserve">
<style type="text/css">
	.st0{fill:#EC1C24;}
	.st1{fill:#F6921E;}
	.st2{fill:#FFCA05;}
	.st3{fill:#8BC53F;}
	.st4{fill:#00ADEE;}
	.st5{fill:#5B57A4;}
	.st6{fill:#FFFFFF;}
	.st7{fill:none;stroke:#5B57A4;stroke-width:0.25;stroke-miterlimit:10;}
	.st8{fill:#A2238D;}
</style>
<g>
	<g>
		<path class="st2" d="M36.2,77.6c-3.9,2.5-7.3,4.8-10.8,4.8c2.8,2,4.3,6,5.9,10.4c1.5,4,3.1,8.3,5.9,11.7c0,0,0,0,0,0
			c0.9-12,4.7-23.2,10.7-32.9c0,0,0,0,0,0.1C43.5,72.7,39.7,75.2,36.2,77.6z"/>
		<path class="st2" d="M37.2,115.6c-2.9,3.4-4.5,7.7-6,11.6c-1.6,4.3-3.1,8.2-5.9,10.2c3.5,0,6.9,2.3,10.8,4.9
			c3.5,2.4,7.3,4.9,11.7,6C41.9,138.6,38.1,127.5,37.2,115.6C37.2,115.5,37.2,115.5,37.2,115.6z"/>
		<path class="st2" d="M54.4,157.2c-0.3,4.5,0.9,8.9,2,13c1.2,4.5,2.3,8.4,1.3,11.7c2.8-2,7-2.2,11.7-2.4c4.2-0.2,8.8-0.4,13-2
			C71.4,173,61.9,166,54.4,157.2z"/>
		<path class="st2" d="M57.7,38c1.1,3.3-0.1,7.3-1.3,11.8c-1.2,4.1-2.4,8.6-2.1,13c7.5-8.8,17-15.8,27.9-20.3c-4.1-1.7-8.7-2-13-2.2
			C64.6,40.2,60.5,40,57.7,38z"/>
		<path class="st2" d="M162.2,37.9c-2.8,2-6.9,2.2-11.5,2.4c-4.3,0.2-8.9,0.4-13.1,2.2c0,0,0,0,0,0c10.9,4.5,20.5,11.5,28,20.4
			c0,0,0,0,0,0c0.4-4.5-0.9-9-2.1-13.1C162.3,45.3,161.1,41.3,162.2,37.9z"/>
		<path class="st2" d="M118,29.8c-3.6-2.9-6.8-5.5-7.9-8.7c-1.1,3.3-4.4,5.9-8,8.8c-3.4,2.6-7,5.5-9.3,9.3
			c5.5-1.3,11.3-2.1,17.2-2.1c6,0,11.7,0.7,17.3,2.1c0,0,0,0,0,0C124.9,35.3,121.3,32.4,118,29.8z"/>
		<path class="st2" d="M182.6,104.6c3-3.4,4.6-7.8,6.1-11.9c1.6-4.4,3.1-8.3,5.9-10.4c-3.4,0-6.9-2.3-10.7-4.8
			c-3.6-2.4-7.5-4.9-11.9-5.9c0-0.1-0.1-0.1-0.1-0.2C177.9,81.3,181.8,92.5,182.6,104.6C182.6,104.6,182.6,104.6,182.6,104.6z"/>
		<path class="st2" d="M92.7,180.9c2.4,3.8,6,6.7,9.3,9.3c3.7,2.9,7,5.5,8,8.8c1.1-3.3,4.3-5.8,7.9-8.7c3.3-2.7,6.9-5.6,9.3-9.4
			c-5.5,1.3-11.3,2.1-17.3,2.1C104,182.9,98.2,182.2,92.7,180.9z"/>
		<path class="st2" d="M210.3,142.4c-4.1-3-6.3-8.7-8.7-15.2c-2.2-5.9-4.6-12.2-8.9-17.2c4.2-5.1,6.6-11.4,8.8-17.3
			c2.4-6.5,4.6-12.3,8.7-15.4c-5.1,0-10.2-3.4-16-7.2c-5.3-3.5-10.9-7.2-17.4-8.7c0.4-6.6-1.4-13.1-3.1-19.2
			c-1.9-6.7-3.6-12.7-2-17.6c-4.1,3-10.3,3.3-17.1,3.6c-6.3,0.3-13.1,0.6-19.2,3.1c-3.5-5.6-8.8-9.9-13.6-13.8
			c-5.4-4.3-10.2-8.1-11.7-13c-1.6,4.9-6.5,8.7-11.9,13.1c-4.9,3.9-10.2,8.1-13.8,13.7c-6.1-2.5-12.9-2.8-19.2-3.1
			c-6.9-0.3-13-0.6-17.1-3.6c1.6,4.9-0.1,10.9-2,17.6c-1.7,6.1-3.5,12.6-3.1,19.2c-6.4,1.6-12,5.3-17.3,8.7
			c-5.8,3.8-10.9,7.1-16,7.2c4.2,3,6.3,8.9,8.7,15.4c2.2,5.9,4.6,12.3,8.8,17.3c-4.3,5-6.7,11.4-8.9,17.3
			c-2.4,6.4-4.6,12.2-8.7,15.2c5.2,0,10.3,3.4,16.1,7.3c5.2,3.5,10.9,7.2,17.3,8.8c-0.5,6.6,1.3,13.1,2.9,19.2
			c1.8,6.6,3.4,12.5,1.9,17.4c4.2-3,10.4-3.3,17.3-3.6c6.3-0.3,13-0.5,19.2-3c3.5,5.6,8.8,9.8,13.8,13.7c5.5,4.3,10.3,8.2,11.9,13.1
			c1.6-4.9,6.4-8.7,11.7-13c4.9-3.9,10.2-8.2,13.7-13.8c6.1,2.5,12.9,2.7,19.2,3c7,0.3,13.2,0.5,17.3,3.6
			c-1.6-4.9,0.1-10.8,1.9-17.4c1.7-6.1,3.4-12.6,2.9-19.2c6.4-1.6,12.1-5.4,17.3-8.9C200,145.8,205.1,142.4,210.3,142.4z
			 M169.9,151.5c-0.6,0.9-1.3,1.8-1.9,2.6c1.5,6.1-0.2,12.3-1.7,17.9c-1.4,5-2.6,9.5-1.4,13.2c-3.2-2.3-7.9-2.5-13.2-2.7
			c-5.8-0.2-12.2-0.5-17.6-3.8c-1,0.4-2.1,0.7-3.1,1c-2.4,5.8-7.4,9.8-11.9,13.5c-4.1,3.3-7.7,6.2-8.9,9.9c-1.2-3.7-4.9-6.6-9.1-9.9
			c-4.6-3.6-9.6-7.6-12-13.4c-1.1-0.3-2.1-0.7-3.1-1c-5.4,3.3-11.7,3.5-17.6,3.8c-5.3,0.2-10,0.4-13.2,2.7c1.2-3.7,0-8.2-1.4-13.2
			c-1.5-5.6-3.2-11.8-1.7-17.9c-0.7-0.9-1.3-1.8-2-2.7c-6.2-0.5-11.6-4-16.4-7.3c-4.4-2.9-8.3-5.6-12.2-5.6
			c3.1-2.3,4.8-6.6,6.6-11.5c2.1-5.4,4.3-11.4,9.1-15.5c0-0.6,0-1.1,0-1.7c0-0.6,0-1.1,0-1.7c-4.8-4.1-7-10.1-9-15.5
			c-1.8-5-3.5-9.4-6.6-11.7c3.9,0,7.8-2.6,12.1-5.4c4.9-3.2,10.2-6.7,16.5-7.2c0,0,0,0,0,0c0.6-0.9,1.3-1.8,2-2.7c0,0,0,0,0,0
			c-1.5-6.1,0.2-12.3,1.8-17.9c1.4-5.1,2.7-9.6,1.5-13.4c3.1,2.3,7.8,2.5,13,2.7c5.8,0.3,12.2,0.6,17.6,3.9c0,0,0,0,0,0
			c1-0.4,2.1-0.7,3.1-1c2.4-5.8,7.4-9.8,12-13.4c4.2-3.3,7.9-6.2,9.1-9.9c1.2,3.7,4.8,6.6,8.9,9.9c4.6,3.6,9.5,7.7,11.9,13.5
			c0,0,0,0,0,0c1.1,0.3,2.1,0.7,3.2,1c5.4-3.4,11.8-3.7,17.6-3.9c5.2-0.2,9.9-0.5,13-2.7c-1.2,3.7,0.1,8.3,1.5,13.4
			c1.6,5.7,3.3,11.9,1.8,18c0,0,0,0,0,0c0.7,0.9,1.3,1.8,1.9,2.7c0,0,0,0,0,0c6.3,0.4,11.7,3.9,16.6,7.2c4.4,2.9,8.3,5.4,12.1,5.4
			c-3.2,2.3-4.8,6.7-6.6,11.7c-2,5.5-4.3,11.6-9.2,15.7c0,0.5,0,1,0,1.5c0,0.5,0,1,0,1.5c4.9,4.1,7.2,10.1,9.2,15.6
			c1.8,4.9,3.5,9.2,6.6,11.5c-3.9,0-7.8,2.6-12.2,5.6C181.5,147.5,176.2,151.1,169.9,151.5z"/>
		<path class="st2" d="M188.8,127.2c-1.5-4-3.2-8.4-6.2-11.8c-0.9,12-4.7,23.2-10.7,32.9c4.4-1.1,8.3-3.6,11.8-6
			c3.9-2.6,7.4-4.9,10.8-4.9C191.9,135.4,190.4,131.5,188.8,127.2z"/>
		<path class="st2" d="M137.6,177.5c4.1,1.7,8.7,1.9,13,2.1c4.7,0.2,8.9,0.4,11.7,2.4c-1.1-3.3,0-7.2,1.3-11.7
			c1.1-4.1,2.3-8.6,2-13.1C158.1,166,148.5,173,137.6,177.5z"/>
	</g>
	<g>
		<path class="st2" d="M168.8,73.3l-1.4,2.5l-55.6,100.5l-1.5,2.8l-1.5-2.8L52.6,75.8l-1.5-2.6h3h111.8L168.8,73.3
			c-2.8-4.5-6.1-8.6-9.8-12.4c-13.1-13.1-30.5-20.3-49.1-20.3c-18.5,0-36,7.2-49.1,20.3C47.7,74,40.5,91.5,40.5,110
			c0,18.5,7.2,36,20.3,49.1c13.1,13.1,30.5,20.3,49.1,20.3c18.5,0,36-7.2,49.1-20.3c13.1-13.1,20.3-30.5,20.3-49.1
			C179.3,96.8,175.7,84.2,168.8,73.3z"/>
		<polygon class="st2" points="162.9,76.7 57.1,76.7 110.3,171.9 		"/>
	</g>
	<path class="st2" d="M182.8,111.6C182.8,111.6,182.8,111.6,182.8,111.6C182.8,111.6,182.8,111.6,182.8,111.6
		C182.8,111.6,182.8,111.6,182.8,111.6z"/>
	<path class="st2" d="M168.9,73.2h-0.1C168.8,73.2,168.8,73.3,168.9,73.2L168.9,73.2z"/>
</g>
</svg>
