<?xml version="1.0" encoding="utf-8"?>
<!-- Generator: Adobe Illustrator 19.2.0, SVG Export Plug-In . SVG Version: 6.00 Build 0)  -->
<svg version="1.1" id="Layer_1" xmlns="http://www.w3.org/2000/svg" xmlns:xlink="http://www.w3.org/1999/xlink" x="0px" y="0px"
	 width="220px" height="220px" viewBox="0 0 220 220" style="enable-background:new 0 0 220 220;" xml:space="preserve">
<style type="text/css">
	.st0{fill:#EC1C24;}
	.st1{fill:#F6921E;}
	.st2{fill:#FFCA05;}
	.st3{fill:#8BC53F;}
	.st4{fill:#00ADEE;}
	.st5{fill:#5B57A4;}
	.st6{fill:#FFFFFF;}
	.st7{fill:none;stroke:#5B57A4;stroke-width:0.25;stroke-miterlimit:10;}
	.st8{fill:#A2238D;}
</style>
<g>
	<g>
		<path class="st5" d="M65,149.3c-0.7-0.8-1.4-1.7-2.1-2.6c0,0,0,0,0,0c-0.8,0.7-1.7,1.1-2.7,1.1c-15.2,0-23.6-12.1-31-22.7
			c-4.9-7-9.3-13.3-14.8-15.3c5.5-2,9.8-8.2,14.7-15.1C36.6,84.1,45,72.2,60.2,72.2c1,0,1.9,0.4,2.7,1.1c1.9-2.5,4-4.8,6.3-6.9
			c-2.8-2.2-5.7-3.6-7.9-3.6c-19,0-29.6,15-38.9,28.2c-6.1,8.6-11.5,16.3-18.4,18.9c6.9,2.6,12.4,10.4,18.5,19.2
			c9.3,13.3,19.8,28.4,38.8,28.4c2.2,0,4.6-1.7,7-4.5C67.2,151.7,66.1,150.5,65,149.3C65,149.3,65,149.3,65,149.3z"/>
		<path class="st5" d="M50.2,110C50.2,110,50.2,110,50.2,110c0-0.9,0-1.9,0.1-2.8c0-0.3,0-0.5,0-0.8c0-0.7,0.1-1.3,0.2-2
			c0-0.3,0-0.5,0.1-0.8c0.1-0.9,0.2-1.8,0.3-2.6c0,0,0-0.1,0-0.1c0.1-0.9,0.3-1.8,0.5-2.6c0.1-0.3,0.1-0.5,0.2-0.8
			c0.1-0.6,0.3-1.3,0.4-1.9c0.1-0.3,0.1-0.5,0.2-0.8c0.2-0.8,0.4-1.6,0.7-2.4c0,0,0-0.1,0-0.1c0.3-0.8,0.5-1.7,0.8-2.5
			c0.1-0.2,0.2-0.5,0.3-0.7c0.2-0.6,0.5-1.2,0.7-1.8c0.1-0.2,0.2-0.5,0.3-0.7c0.3-0.7,0.6-1.5,1-2.2c0-0.1,0.1-0.1,0.1-0.2
			c0.4-0.8,0.8-1.5,1.2-2.3c0.1-0.2,0.3-0.5,0.4-0.7c0.3-0.5,0.6-1.1,0.9-1.6c0.1-0.2,0.3-0.5,0.4-0.7c0.4-0.7,0.8-1.3,1.3-2
			c0-0.1,0.1-0.1,0.1-0.2c0,0,0,0,0,0c-11-3.4-22.3,10.7-28.8,19.9c-4.3,6.1-8.2,11.5-13,13.4c4.9,1.8,8.8,7.4,13.1,13.6
			c6.4,9.2,14.4,21.8,28.7,20.1c0,0,0,0,0,0c0-0.1-0.1-0.1-0.1-0.2c-0.4-0.7-0.9-1.3-1.3-2c-0.1-0.2-0.3-0.5-0.4-0.7
			c-0.3-0.5-0.6-1.1-0.9-1.6c-0.1-0.2-0.3-0.5-0.4-0.7c-0.4-0.8-0.8-1.5-1.2-2.3c0-0.1-0.1-0.1-0.1-0.2c-0.3-0.7-0.7-1.5-1-2.2
			c-0.1-0.2-0.2-0.5-0.3-0.8c-0.2-0.6-0.5-1.2-0.7-1.8c-0.1-0.2-0.2-0.5-0.3-0.7c-0.3-0.8-0.6-1.6-0.8-2.5c0,0,0-0.1,0-0.1
			c-0.2-0.8-0.5-1.6-0.7-2.4c-0.1-0.3-0.1-0.5-0.2-0.8c-0.2-0.6-0.3-1.3-0.4-1.9c-0.1-0.3-0.1-0.5-0.2-0.8c-0.2-0.9-0.3-1.8-0.5-2.7
			c0,0,0,0,0,0c-0.1-0.9-0.2-1.8-0.3-2.6c0-0.3-0.1-0.5-0.1-0.8c-0.1-0.7-0.1-1.3-0.2-2c0-0.3,0-0.5,0-0.8
			C50.3,111.9,50.2,110.9,50.2,110C50.2,110,50.2,110,50.2,110C50.2,110,50.2,110,50.2,110z"/>
	</g>
	<g>
		<path class="st5" d="M169.8,110c0,0.9,0,1.9-0.1,2.8c0,0.3,0,0.5,0,0.8c0,0.7-0.1,1.4-0.2,2c0,0.3,0,0.5-0.1,0.8
			c-0.1,0.9-0.2,1.8-0.3,2.6c0,0,0,0,0,0.1c-0.1,0.9-0.3,1.8-0.5,2.6c-0.1,0.3-0.1,0.5-0.2,0.8c-0.1,0.6-0.3,1.3-0.4,1.9
			c-0.1,0.3-0.1,0.5-0.2,0.8c-0.2,0.8-0.4,1.6-0.7,2.4c0,0,0,0.1,0,0.1c-0.3,0.8-0.5,1.7-0.8,2.5c-0.1,0.3-0.2,0.5-0.3,0.8
			c-0.2,0.6-0.5,1.2-0.7,1.8c-0.1,0.3-0.2,0.5-0.3,0.8c-0.3,0.7-0.7,1.5-1,2.2c0,0.1,0,0.1-0.1,0.2c-0.4,0.8-0.8,1.6-1.2,2.3
			c-0.1,0.2-0.2,0.4-0.4,0.7c-0.3,0.6-0.6,1.1-1,1.7c-0.1,0.2-0.3,0.4-0.4,0.6c-0.5,0.7-0.9,1.5-1.4,2.2c0,0,0,0,0,0c0,0,0,0,0,0.1
			c13.9,1.7,22.2-10.8,28.7-20.1c4.3-6.2,8.2-11.7,13.1-13.6c-4.9-1.8-8.7-7.2-13-13.4c-6.5-9.2-15.8-22.6-28.7-19.9c0,0,0,0,0,0
			c0.1,0.1,0.1,0.2,0.2,0.3c0.4,0.6,0.8,1.3,1.2,1.9c0.1,0.2,0.3,0.5,0.4,0.7c0.3,0.5,0.6,1.1,0.9,1.6c0.1,0.2,0.3,0.5,0.4,0.7
			c0.4,0.8,0.8,1.5,1.2,2.3c0,0.1,0.1,0.1,0.1,0.2c0.3,0.7,0.7,1.5,1,2.2c0.1,0.2,0.2,0.5,0.3,0.7c0.2,0.6,0.5,1.2,0.7,1.8
			c0.1,0.2,0.2,0.5,0.3,0.7c0.3,0.8,0.6,1.7,0.8,2.5c0,0,0,0.1,0,0.1c0.3,0.8,0.5,1.6,0.7,2.5c0.1,0.3,0.1,0.5,0.2,0.8
			c0.2,0.6,0.3,1.3,0.4,1.9c0.1,0.3,0.1,0.5,0.2,0.8c0.2,0.9,0.3,1.8,0.5,2.7c0,0,0,0,0,0.1c0.1,0.9,0.2,1.8,0.3,2.6
			c0,0.3,0.1,0.5,0.1,0.8c0.1,0.7,0.1,1.3,0.2,2c0,0.3,0,0.5,0,0.8C169.7,108.2,169.8,109.1,169.8,110
			C169.8,110,169.8,110,169.8,110C169.8,110,169.8,110,169.8,110C169.8,110,169.8,110,169.8,110z"/>
		<path class="st5" d="M197.6,90.9c-9.3-13.2-19.9-28.2-38.9-28.2c-2.1,0-5.1,1.5-7.9,3.6c2.3,2.1,4.4,4.4,6.3,6.9
			c0.8-0.7,1.7-1.1,2.7-1.1c15.2,0,23.7,12,31.1,22.5c4.9,6.9,9.2,13,14.7,15.1c-5.6,2.1-9.9,8.3-14.8,15.3
			c-7.4,10.7-15.9,22.7-31,22.7c-1,0-1.8-0.4-2.7-1.1c0,0,0,0,0,0c-0.7,0.9-1.4,1.7-2.1,2.5c0,0,0,0,0,0c-1.1,1.2-2.1,2.4-3.3,3.5
			c2.3,2.8,4.7,4.5,7,4.5c19,0,29.5-15.1,38.8-28.4c6.1-8.8,11.6-16.6,18.5-19.2C209.1,107.2,203.7,99.5,197.6,90.9z"/>
	</g>
	<path class="st5" d="M50.6,103.6c0,0.3-0.1,0.5-0.1,0.8C50.5,104.1,50.6,103.9,50.6,103.6z"/>
	<path class="st5" d="M50.4,106.4c0,0.3,0,0.5,0,0.8C50.3,107,50.3,106.7,50.4,106.4z"/>
	<path class="st5" d="M57.3,138.2c0.1,0.2,0.3,0.5,0.4,0.7C57.6,138.7,57.5,138.5,57.3,138.2z"/>
	<path class="st5" d="M50.3,112.8c0,0.3,0,0.5,0,0.8C50.3,113.3,50.3,113,50.3,112.8z"/>
	<path class="st5" d="M50.5,115.6c0,0.3,0,0.5,0.1,0.8C50.6,116.1,50.5,115.9,50.5,115.6z"/>
	<path class="st5" d="M53.8,130.3c0.1,0.2,0.2,0.5,0.3,0.7C54,130.8,53.9,130.5,53.8,130.3z"/>
	<path class="st5" d="M54.8,132.8c0.1,0.3,0.2,0.5,0.3,0.8C55,133.3,54.9,133,54.8,132.8z"/>
	<path class="st5" d="M56.1,135.8c0,0.1,0.1,0.1,0.1,0.2C56.1,135.9,56.1,135.8,56.1,135.8z"/>
	<path class="st5" d="M52,124.5c0.1,0.3,0.1,0.5,0.2,0.8C52.1,125,52.1,124.7,52,124.5z"/>
	<path class="st5" d="M52.9,127.7c0,0,0,0.1,0,0.1C52.9,127.7,52.9,127.7,52.9,127.7z"/>
	<path class="st5" d="M51.4,121.8c0.1,0.3,0.1,0.5,0.2,0.8C51.5,122.3,51.5,122,51.4,121.8z"/>
	<path class="st5" d="M50.9,119.1C50.9,119.1,50.9,119.1,50.9,119.1C50.9,119.1,50.9,119.1,50.9,119.1z"/>
	<path class="st5" d="M50.9,100.9C50.9,100.9,50.9,100.9,50.9,100.9C50.9,100.9,50.9,100.9,50.9,100.9z"/>
	<path class="st5" d="M60.5,76.6c0,0.1-0.1,0.1-0.1,0.2C60.4,76.7,60.4,76.6,60.5,76.6z"/>
	<path class="st5" d="M62.9,73.2C62.9,73.2,62.9,73.2,62.9,73.2c1.9-2.5,4-4.8,6.3-6.9c0,0,0,0,0,0C66.9,68.5,64.8,70.8,62.9,73.2z"
		/>
	<path class="st5" d="M65,149.3c1.1,1.2,2.2,2.4,3.3,3.5c0,0,0,0,0,0C67.2,151.7,66.1,150.5,65,149.3z"/>
	<path class="st5" d="M59.1,78.7c-0.1,0.2-0.3,0.5-0.4,0.7C58.8,79.2,58.9,79,59.1,78.7z"/>
	<path class="st5" d="M65,149.3c-0.7-0.8-1.4-1.7-2.1-2.6C63.6,147.6,64.3,148.5,65,149.3z"/>
	<path class="st5" d="M52.2,94.8c-0.1,0.3-0.1,0.5-0.2,0.8C52.1,95.3,52.1,95,52.2,94.8z"/>
	<path class="st5" d="M52.9,92.2c0,0,0,0.1,0,0.1C52.9,92.3,52.9,92.3,52.9,92.2z"/>
	<path class="st5" d="M51.6,97.5c-0.1,0.3-0.1,0.5-0.2,0.8C51.5,98,51.5,97.7,51.6,97.5z"/>
	<path class="st5" d="M57.7,81.1c-0.1,0.2-0.3,0.5-0.4,0.7C57.5,81.5,57.6,81.3,57.7,81.1z"/>
	<path class="st5" d="M56.2,84.1c0,0.1-0.1,0.1-0.1,0.2C56.1,84.2,56.1,84.1,56.2,84.1z"/>
	<path class="st5" d="M55.1,86.5c-0.1,0.2-0.2,0.5-0.3,0.7C54.9,87,55,86.7,55.1,86.5z"/>
	<path class="st5" d="M54.1,89c-0.1,0.2-0.2,0.5-0.3,0.7C53.9,89.5,54,89.2,54.1,89z"/>
	<polygon class="st5" points="50.2,110 50.2,110 50.2,110 	"/>
	<path class="st5" d="M60.4,143.3c0,0.1,0.1,0.1,0.1,0.2C60.4,143.4,60.4,143.3,60.4,143.3z"/>
	<path class="st5" d="M58.7,140.6c0.1,0.2,0.3,0.5,0.4,0.7C58.9,141,58.8,140.8,58.7,140.6z"/>
	<path class="st5" d="M164.9,133.6c0.1-0.2,0.2-0.5,0.3-0.8C165.1,133,165,133.3,164.9,133.6z"/>
	<path class="st5" d="M168.6,98.2c-0.1-0.3-0.1-0.5-0.2-0.8C168.5,97.7,168.5,98,168.6,98.2z"/>
	<path class="st5" d="M169.1,119.1C169.1,119.1,169.1,119.1,169.1,119.1C169.1,119.1,169.1,119.1,169.1,119.1z"/>
	<path class="st5" d="M169.5,104.4c0-0.3,0-0.5-0.1-0.8C169.4,103.9,169.5,104.1,169.5,104.4z"/>
	<path class="st5" d="M161.4,79.5c-0.1-0.2-0.3-0.5-0.4-0.7C161.1,79,161.2,79.2,161.4,79.5z"/>
	<path class="st5" d="M169.4,116.4c0-0.3,0.1-0.5,0.1-0.8C169.5,115.9,169.4,116.1,169.4,116.4z"/>
	<path class="st5" d="M163.8,135.9c0-0.1,0.1-0.1,0.1-0.2C163.9,135.8,163.9,135.9,163.8,135.9z"/>
	<path class="st5" d="M165.9,131c0.1-0.3,0.2-0.5,0.3-0.8C166.1,130.5,166,130.8,165.9,131z"/>
	<path class="st5" d="M169.1,100.9C169.1,100.9,169.1,100.9,169.1,100.9C169.1,100.9,169.1,100.9,169.1,100.9z"/>
	<path class="st5" d="M162.3,138.9c0.1-0.2,0.2-0.4,0.4-0.7C162.5,138.5,162.4,138.7,162.3,138.9z"/>
	<path class="st5" d="M159.7,76.8c-0.1-0.1-0.1-0.2-0.2-0.3C159.6,76.6,159.6,76.7,159.7,76.8z"/>
	<path class="st5" d="M167.8,125.2c0.1-0.3,0.1-0.5,0.2-0.8C167.9,124.7,167.9,125,167.8,125.2z"/>
	<path class="st5" d="M167.1,127.8c0,0,0-0.1,0-0.1C167.1,127.7,167.1,127.7,167.1,127.8z"/>
	<path class="st5" d="M157.1,73.2C157.1,73.2,157.1,73.2,157.1,73.2c-1.9-2.5-4-4.8-6.3-6.9c0,0,0,0,0,0
		C153,68.5,155.2,70.8,157.1,73.2z"/>
	<path class="st5" d="M157.1,146.8c-0.7,0.9-1.4,1.7-2.1,2.5C155.7,148.5,156.4,147.6,157.1,146.8z"/>
	<polygon class="st5" points="169.8,110 169.8,110 169.8,110 	"/>
	<path class="st5" d="M168.4,122.5c0.1-0.3,0.1-0.5,0.2-0.8C168.5,122,168.5,122.3,168.4,122.5z"/>
	<path class="st5" d="M159.5,143.4C159.5,143.4,159.5,143.4,159.5,143.4C159.5,143.4,159.5,143.4,159.5,143.4z"/>
	<path class="st5" d="M169.7,107.2c0-0.3,0-0.5,0-0.8C169.7,106.7,169.7,107,169.7,107.2z"/>
	<path class="st5" d="M165.2,87.2c-0.1-0.2-0.2-0.5-0.3-0.7C165,86.7,165.1,86.9,165.2,87.2z"/>
	<path class="st5" d="M163.9,84.2c0-0.1-0.1-0.1-0.1-0.2C163.9,84.1,163.9,84.2,163.9,84.2z"/>
	<path class="st5" d="M168,95.5c-0.1-0.3-0.1-0.5-0.2-0.8C167.9,95,167.9,95.3,168,95.5z"/>
	<g>
		<path class="st5" d="M77.9,79.7h64.2h14h1.8c-0.6-0.9-1.1-1.7-1.7-2.6c-0.3-0.5-0.7-1-1.1-1.4c-1.5-2-3.2-3.9-5-5.8
			c-0.5-0.5-1.1-1-1.6-1.5C138,58.6,124.4,53.3,110,53.3c-14.4,0-28,5.3-38.5,15.1c-0.5,0.5-1.1,1-1.6,1.5c-1.8,1.8-3.5,3.7-5,5.8
			c-0.4,0.5-0.7,1-1.1,1.4c-0.6,0.8-1.2,1.7-1.7,2.6h2.4H77.9z"/>
		<polygon class="st5" points="78.5,82.7 67,82.7 80.7,107 110.6,160.5 139.3,108.5 153.6,82.7 141.5,82.7 		"/>
		<path class="st5" d="M158.3,80.3l-0.9,1.6l-18,32.5l-27.6,49.8l-1.3,2.3l-1.3-2.3l-28.6-51.2L63.2,81.9L62,79.8
			c-5.7,9-8.7,19.3-8.7,30.2c0,11.9,3.7,23.2,10.4,32.7c0.4,0.5,0.8,1.1,1.2,1.6c1.5,2,3.2,3.9,5,5.8c0.1,0.1,0.2,0.1,0.2,0.2
			c10.7,10.6,24.8,16.4,39.9,16.4c15,0,29.2-5.8,39.9-16.4c0.1-0.1,0.2-0.1,0.2-0.2c1.8-1.8,3.5-3.8,5-5.8c0.4-0.5,0.8-1.1,1.2-1.6
			c6.7-9.5,10.4-20.8,10.4-32.7C166.7,99.3,163.8,89.2,158.3,80.3z"/>
	</g>
	<path class="st5" d="M155,149.3c-1,1.2-2.2,2.3-3.3,3.5c0,0,0,0,0,0C152.8,151.7,153.9,150.5,155,149.3z"/>
	<path class="st5" d="M162.7,81.8c-0.1-0.2-0.3-0.5-0.4-0.7C162.4,81.3,162.5,81.5,162.7,81.8z"/>
	<path class="st5" d="M167.1,92.3C167.1,92.3,167.1,92.3,167.1,92.3C167.1,92.3,167.1,92.3,167.1,92.3z"/>
	<path class="st5" d="M166.2,89.7c-0.1-0.2-0.2-0.5-0.3-0.7C166,89.2,166.1,89.5,166.2,89.7z"/>
	<path class="st5" d="M160.9,141.2c0.1-0.2,0.3-0.4,0.4-0.6C161.2,140.8,161.1,141,160.9,141.2z"/>
	<path class="st5" d="M169.6,113.6c0-0.3,0-0.5,0-0.8C169.7,113,169.7,113.3,169.6,113.6z"/>
	<path class="st6" d="M142.6,160.1c-0.1,0.1-0.2,0.2-0.4,0.2C142.3,160.2,142.5,160.2,142.6,160.1z"/>
	<path class="st6" d="M136.5,56.4c0.1,0.1,0.2,0.1,0.3,0.2C136.7,56.6,136.6,56.5,136.5,56.4z"/>
	<path class="st6" d="M142.3,59.7c0.1,0,0.2,0.1,0.2,0.1C142.4,59.8,142.4,59.8,142.3,59.7z"/>
	<path class="st6" d="M96.8,168.3c-0.4-0.1-0.7-0.2-1.1-0.3C96.1,168.1,96.4,168.2,96.8,168.3z"/>
	<path class="st6" d="M86.5,164.9c-0.1,0-0.2-0.1-0.3-0.1C86.3,164.9,86.4,164.9,86.5,164.9z"/>
	<path class="st6" d="M133.7,164.9c0,0-0.1,0-0.1,0C133.6,164.9,133.6,164.9,133.7,164.9z"/>
	<path class="st6" d="M83.5,163.6c-0.2-0.1-0.4-0.2-0.5-0.3C83.2,163.4,83.4,163.5,83.5,163.6z"/>
	<path class="st6" d="M80.7,162.1c-0.2-0.1-0.4-0.2-0.6-0.3C80.3,161.8,80.5,162,80.7,162.1z"/>
	<path class="st6" d="M136.9,163.3c-0.2,0.1-0.3,0.2-0.5,0.2C136.6,163.5,136.8,163.4,136.9,163.3z"/>
	<path class="st6" d="M92.6,52.8c0.3-0.1,0.5-0.1,0.8-0.2C93.1,52.7,92.9,52.7,92.6,52.8z"/>
	<path class="st6" d="M50.6,116.4c0.1,0.9,0.2,1.8,0.3,2.6C50.8,118.2,50.7,117.3,50.6,116.4z"/>
	<path class="st6" d="M50.9,119.1c0.1,0.9,0.3,1.8,0.5,2.7C51.2,120.9,51.1,120,50.9,119.1z"/>
	<path class="st6" d="M51.6,122.5c0.1,0.6,0.3,1.3,0.4,1.9C51.9,123.8,51.7,123.2,51.6,122.5z"/>
	<path class="st6" d="M52.2,125.2c0.2,0.8,0.4,1.6,0.7,2.4C52.7,126.9,52.4,126.1,52.2,125.2z"/>
	<path class="st6" d="M50.4,113.6c0,0.7,0.1,1.4,0.2,2C50.5,114.9,50.4,114.3,50.4,113.6z"/>
	<path class="st6" d="M50.3,107.2c0,0.9-0.1,1.8-0.1,2.8C50.2,109.1,50.3,108.2,50.3,107.2z"/>
	<path class="st6" d="M50.5,104.4c-0.1,0.7-0.1,1.3-0.2,2C50.4,105.7,50.5,105.1,50.5,104.4z"/>
	<path class="st6" d="M52.9,127.8c0.3,0.8,0.5,1.7,0.8,2.5C53.5,129.5,53.2,128.6,52.9,127.8z"/>
	<path class="st6" d="M50.3,112.8c0-0.9-0.1-1.8-0.1-2.8c0,0,0,0,0,0C50.2,110.9,50.3,111.9,50.3,112.8z"/>
	<path class="st6" d="M59.1,141.3c0.4,0.7,0.8,1.3,1.3,2C59.9,142.6,59.5,141.9,59.1,141.3z"/>
	<path class="st6" d="M56.2,135.9c0.4,0.8,0.8,1.5,1.2,2.3C56.9,137.5,56.5,136.7,56.2,135.9z"/>
	<path class="st6" d="M54.1,131c0.2,0.6,0.5,1.2,0.7,1.8C54.5,132.2,54.3,131.6,54.1,131z"/>
	<path class="st6" d="M55.1,133.6c0.3,0.7,0.6,1.5,1,2.2C55.7,135,55.4,134.3,55.1,133.6z"/>
	<path class="st6" d="M57.7,138.9c0.3,0.5,0.6,1.1,0.9,1.6C58.3,140,58,139.5,57.7,138.9z"/>
	<path class="st6" d="M58.6,79.4c-0.3,0.5-0.6,1.1-0.9,1.6C58,80.5,58.3,80,58.6,79.4z"/>
	<path class="st6" d="M57.3,81.8c-0.4,0.8-0.8,1.5-1.2,2.3C56.5,83.3,56.9,82.5,57.3,81.8z"/>
	<path class="st6" d="M56.1,84.3c-0.3,0.7-0.7,1.5-1,2.2C55.4,85.7,55.7,85,56.1,84.3z"/>
	<path class="st6" d="M65,149.3C65,149.3,65,149.3,65,149.3C65,149.3,65,149.3,65,149.3z"/>
	<path class="st6" d="M50.9,101c-0.1,0.9-0.2,1.7-0.3,2.6C50.7,102.7,50.8,101.8,50.9,101z"/>
	<path class="st6" d="M60.3,76.8c-0.4,0.6-0.9,1.3-1.3,2C59.5,78.1,59.9,77.4,60.3,76.8z"/>
	<path class="st6" d="M52,95.6c-0.2,0.6-0.3,1.3-0.4,1.9C51.7,96.8,51.9,96.2,52,95.6z"/>
	<path class="st6" d="M51.4,98.2c-0.2,0.9-0.3,1.8-0.5,2.6C51.1,100,51.2,99.1,51.4,98.2z"/>
	<path class="st6" d="M53.8,89.7c-0.3,0.8-0.6,1.7-0.8,2.5C53.2,91.4,53.5,90.5,53.8,89.7z"/>
	<path class="st6" d="M54.8,87.2c-0.2,0.6-0.5,1.2-0.7,1.8C54.3,88.4,54.5,87.8,54.8,87.2z"/>
	<path class="st6" d="M52.9,92.3c-0.2,0.8-0.5,1.6-0.7,2.4C52.4,94,52.7,93.1,52.9,92.3z"/>
	<path class="st6" d="M169.6,106.4c0-0.7-0.1-1.3-0.2-2C169.5,105.1,169.6,105.7,169.6,106.4z"/>
	<path class="st6" d="M167.8,94.8c-0.2-0.8-0.4-1.6-0.7-2.5C167.3,93.1,167.6,93.9,167.8,94.8z"/>
	<path class="st6" d="M168.4,97.5c-0.1-0.6-0.3-1.3-0.4-1.9C168.1,96.2,168.3,96.8,168.4,97.5z"/>
	<path class="st6" d="M169.5,115.6c0.1-0.7,0.1-1.3,0.2-2C169.6,114.3,169.5,114.9,169.5,115.6z"/>
	<path class="st6" d="M169.1,100.9c-0.1-0.9-0.3-1.8-0.5-2.7C168.8,99.1,168.9,100,169.1,100.9z"/>
	<path class="st6" d="M169.4,103.6c-0.1-0.9-0.2-1.8-0.3-2.6C169.2,101.8,169.3,102.7,169.4,103.6z"/>
	<path class="st6" d="M167.1,92.2c-0.3-0.8-0.5-1.7-0.8-2.5C166.5,90.5,166.8,91.4,167.1,92.2z"/>
	<path class="st6" d="M169.8,110c0-0.9,0-1.8-0.1-2.8C169.7,108.2,169.8,109.1,169.8,110z"/>
	<path class="st6" d="M165.9,89c-0.2-0.6-0.5-1.2-0.7-1.8C165.5,87.8,165.7,88.4,165.9,89z"/>
	<path class="st6" d="M169.8,110c0,0.9,0,1.9-0.1,2.8C169.7,111.9,169.8,110.9,169.8,110C169.8,110,169.8,110,169.8,110z"/>
	<path class="st6" d="M160.9,78.7c-0.4-0.7-0.8-1.3-1.2-1.9C160.1,77.4,160.5,78.1,160.9,78.7z"/>
	<path class="st6" d="M163.8,84.1c-0.4-0.8-0.8-1.5-1.2-2.3C163.1,82.5,163.5,83.3,163.8,84.1z"/>
	<path class="st6" d="M162.3,81.1c-0.3-0.5-0.6-1.1-0.9-1.6C161.7,80,162,80.5,162.3,81.1z"/>
	<path class="st6" d="M164.9,86.5c-0.3-0.7-0.7-1.5-1-2.2C164.3,85,164.6,85.7,164.9,86.5z"/>
	<path class="st6" d="M162.7,138.2c0.4-0.8,0.8-1.5,1.2-2.3C163.5,136.7,163.1,137.5,162.7,138.2z"/>
	<path class="st6" d="M161.3,140.6c0.3-0.6,0.7-1.1,1-1.7C162,139.5,161.7,140,161.3,140.6z"/>
	<path class="st6" d="M159.5,143.4c0.5-0.7,0.9-1.4,1.4-2.2C160.5,142,160,142.7,159.5,143.4z"/>
	<path class="st6" d="M163.9,135.8c0.3-0.7,0.7-1.5,1-2.2C164.6,134.3,164.3,135,163.9,135.8z"/>
	<path class="st6" d="M155,149.3C155,149.3,155,149.3,155,149.3C155,149.3,155,149.3,155,149.3z"/>
	<path class="st6" d="M167.1,127.6c0.2-0.8,0.5-1.6,0.7-2.4C167.6,126,167.3,126.8,167.1,127.6z"/>
	<path class="st6" d="M168.6,121.8c0.2-0.9,0.3-1.8,0.5-2.6C168.9,120,168.8,120.9,168.6,121.8z"/>
	<path class="st6" d="M168,124.4c0.2-0.6,0.3-1.3,0.4-1.9C168.3,123.2,168.1,123.8,168,124.4z"/>
	<path class="st6" d="M166.2,130.3c0.3-0.8,0.6-1.6,0.8-2.5C166.8,128.6,166.5,129.5,166.2,130.3z"/>
	<path class="st6" d="M169.1,119.1c0.1-0.9,0.2-1.8,0.3-2.6C169.3,117.3,169.2,118.2,169.1,119.1z"/>
	<path class="st6" d="M165.2,132.8c0.2-0.6,0.5-1.2,0.7-1.8C165.7,131.6,165.5,132.2,165.2,132.8z"/>
	<path class="st7" d="M151.2,66.6c-2.6-2.4-5.7-4.8-8.7-6.7c-0.1-0.1-0.2-0.1-0.2-0.1c-0.8-0.5-1.7-1-2.5-1.5
		c-0.1-0.1-0.2-0.1-0.4-0.2c-0.8-0.5-1.7-0.9-2.6-1.4c-0.1-0.1-0.2-0.1-0.3-0.2c-2.9-1.5-6-2.7-9.2-3.6c-0.2-0.1-0.5-0.1-0.7-0.2
		c-0.8-0.2-1.6-0.4-2.4-0.6c-0.3-0.1-0.7-0.2-1-0.2c-0.7-0.2-1.4-0.3-2.2-0.4c-0.4-0.1-0.8-0.1-1.1-0.2c-0.7-0.1-1.4-0.2-2.1-0.3
		c-0.4-0.1-0.8-0.1-1.2-0.1c-0.8-0.1-1.5-0.1-2.3-0.2c-0.3,0-0.7-0.1-1-0.1c-1.1-0.1-2.2-0.1-3.3-0.1c0,0,0,0,0,0
		c-1.1,0-2.2,0-3.3,0.1c-0.4,0-0.7,0.1-1.1,0.1c-0.8,0.1-1.5,0.1-2.2,0.2c-0.4,0-0.8,0.1-1.2,0.2c-0.7,0.1-1.4,0.2-2.1,0.3
		c-0.4,0.1-0.8,0.1-1.2,0.2c-0.7,0.1-1.4,0.3-2.1,0.4c-0.4,0.1-0.7,0.2-1.1,0.2c-0.8,0.2-1.6,0.4-2.3,0.6c-0.3,0.1-0.5,0.1-0.8,0.2
		c-2.1,0.6-4.2,1.4-6.2,2.3c0,0,0,0-0.1,0c-1,0.4-1.9,0.9-2.9,1.3c-0.1,0.1-0.3,0.1-0.4,0.2c-0.8,0.4-1.7,0.9-2.5,1.3
		c-0.1,0.1-0.3,0.2-0.4,0.2c-0.8,0.5-1.7,1-2.5,1.5c-0.1,0.1-0.2,0.1-0.3,0.2c-2.9,1.9-5.7,4.1-8.2,6.5"/>
	<path class="st7" d="M67.3,151.9c2,2,5.2,4.8,7.5,6.5c0,0,0.1,0,0.1,0.1c0.8,0.6,1.7,1.2,2.5,1.7c0.1,0.1,0.3,0.2,0.4,0.3
		c0.8,0.5,1.5,0.9,2.3,1.4c0.2,0.1,0.4,0.2,0.6,0.3c0.8,0.4,1.5,0.8,2.3,1.2c0.2,0.1,0.4,0.2,0.5,0.3c0.9,0.4,1.8,0.8,2.7,1.2
		c0.1,0,0.2,0.1,0.3,0.1c2,0.9,4,1.6,6.1,2.2c0.3,0.1,0.6,0.2,0.9,0.2c0.7,0.2,1.5,0.4,2.2,0.6c0.4,0.1,0.7,0.2,1.1,0.3
		c0.7,0.2,1.4,0.3,2.1,0.4c0.4,0.1,0.8,0.1,1.2,0.2c0.7,0.1,1.4,0.2,2.1,0.3c0.4,0.1,0.8,0.1,1.2,0.2c0.7,0.1,1.5,0.1,2.2,0.2
		c0.4,0,0.7,0.1,1.1,0.1c1.1,0.1,2.2,0.1,3.3,0.1c0,0,0,0,0,0c1.1,0,2.2,0,3.3-0.1c0.4,0,0.7-0.1,1-0.1c0.8-0.1,1.5-0.1,2.3-0.2
		c0.4,0,0.8-0.1,1.2-0.2c0.7-0.1,1.4-0.2,2.1-0.3c0.4-0.1,0.8-0.1,1.2-0.2c0.7-0.1,1.4-0.3,2.1-0.4c0.4-0.1,0.7-0.2,1.1-0.2
		c0.8-0.2,1.6-0.4,2.3-0.6c0.3-0.1,0.5-0.1,0.8-0.2c2.1-0.6,4.2-1.4,6.2-2.3c0,0,0.1,0,0.1,0c1-0.4,1.9-0.8,2.8-1.3
		c0.2-0.1,0.3-0.2,0.5-0.2c0.8-0.4,1.6-0.8,2.4-1.3c0.2-0.1,0.3-0.2,0.5-0.3c0.8-0.5,1.6-0.9,2.4-1.5c0.1-0.1,0.2-0.2,0.4-0.2
		c0.9-0.6,1.7-1.2,2.6-1.8c0,0,0,0,0,0c2.3-1.7,4.9-4,6.9-6"/>
	<path class="st6" d="M62,79.7L62,79.7c0.1,0.1,0.1,0,0.1,0H62z"/>
	<path class="st6" d="M158.6,79.7h-0.7c0.1,0.2,0.3,0.4,0.4,0.6L158.6,79.7z"/>
</g>
</svg>
