<?xml version="1.0" encoding="utf-8"?>
<!-- Generator: Adobe Illustrator 19.2.0, SVG Export Plug-In . SVG Version: 6.00 Build 0)  -->
<svg version="1.1" id="Layer_1" xmlns="http://www.w3.org/2000/svg" xmlns:xlink="http://www.w3.org/1999/xlink" x="0px" y="0px"
	 width="220px" height="220px" viewBox="0 0 220 220" style="enable-background:new 0 0 220 220;" xml:space="preserve">
<style type="text/css">
	.st0{fill:#EC1C24;}
	.st1{fill:#F6921E;}
	.st2{fill:#FFCA05;}
	.st3{fill:#8BC53F;}
	.st4{fill:#00ADEE;}
	.st5{fill:#5B57A4;}
	.st6{fill:#FFFFFF;}
	.st7{fill:none;stroke:#5B57A4;stroke-width:0.25;stroke-miterlimit:10;}
	.st8{fill:#A2238D;}
</style>
<g>
	<path class="st4" d="M44.4,159.2c-1.2,3.1-0.8,6.5-0.5,9.6c0.3,2.9,0.6,5.5-0.4,7.4c2-1,4.6-0.7,7.5-0.3c3.1,0.4,6.5,0.7,9.6-0.4
		c0,0,0,0,0,0C54.5,170.9,49,165.4,44.4,159.2z"/>
	<path class="st4" d="M71.5,189.7c1.4,2.6,2.7,4.9,2.5,7c1.4-1.7,4-2.4,6.8-3.2c3-0.9,6.3-1.8,8.7-4.1c-7.6-1.9-14.7-5-21.3-8.8
		C68.4,183.9,70,186.9,71.5,189.7z"/>
	<path class="st4" d="M26.4,139.1c-0.8,2.8-1.5,5.3-3.2,6.7c2.2-0.2,4.5,1.1,7.1,2.6c2.7,1.5,5.7,3.2,9.1,3.3
		c-3.9-6.6-6.9-13.7-8.8-21.3C28.2,132.8,27.2,136.1,26.4,139.1z"/>
	<path class="st4" d="M98.4,191.2c1.4,3.1,4.1,5.2,6.6,7.2c2.3,1.8,4.4,3.5,5.1,5.6c0.7-2.1,2.7-3.7,5-5.5c2.5-2,5.1-4.1,6.5-7.2
		c-3.8,0.5-7.7,0.8-11.6,0.8C106,192,102.2,191.7,98.4,191.2z"/>
	<path class="st4" d="M176.1,168.9c0.4-3.1,0.7-6.6-0.5-9.7c0,0,0,0,0,0c-4.7,6.2-10.2,11.8-16.4,16.4c0,0,0,0,0,0
		c3.2,1.2,6.6,0.8,9.7,0.5c2.9-0.3,5.6-0.7,7.5,0.3C175.5,174.4,175.8,171.8,176.1,168.9z"/>
	<path class="st4" d="M44.4,60.7C49,54.6,54.6,49,60.7,44.4c-3.2-1.2-6.6-0.9-9.7-0.5c-2.9,0.3-5.5,0.6-7.4-0.4c1,2,0.7,4.6,0.3,7.5
		C43.6,54.2,43.2,57.6,44.4,60.7z"/>
	<path class="st4" d="M21.6,104.9c-1.8,2.3-3.5,4.3-5.5,5c2.1,0.7,3.7,2.8,5.6,5.1c2,2.5,4.1,5.1,7.2,6.5c-0.5-3.8-0.8-7.6-0.8-11.5
		c0-3.9,0.3-7.8,0.8-11.6C25.7,99.8,23.5,102.5,21.6,104.9z"/>
	<path class="st4" d="M175.6,60.8C175.6,60.8,175.6,60.8,175.6,60.8c1.2-3.2,0.8-6.7,0.4-9.8c-0.3-3-0.7-5.6,0.3-7.5
		c-1.9,1-4.5,0.7-7.4,0.4c-3.2-0.4-6.6-0.7-9.8,0.5c0,0,0,0,0,0C165.3,49,170.9,54.6,175.6,60.8z"/>
	<path class="st4" d="M121.5,28.8c-1.4-3.1-4-5.3-6.5-7.2c-2.3-1.8-4.3-3.5-5-5.5c-0.7,2.1-2.7,3.7-5.1,5.6c-2.5,2-5.2,4.1-6.6,7.2
		c0,0,0,0-0.1,0c3.8-0.5,7.7-0.8,11.6-0.8C113.9,28,117.8,28.3,121.5,28.8z"/>
	<path class="st4" d="M173.8,68.6h2.8c-3.1-5-6.9-9.8-11.2-14.1c-14.8-14.8-34.5-23-55.5-23c-20.9,0-40.6,8.2-55.5,23
		c-4.3,4.3-8,9-11.2,14.1h2.9H173.8z"/>
	<path class="st4" d="M39.4,68.2C36,68.3,33,70,30.2,71.5c-2.6,1.4-4.9,2.7-7,2.5c1.7,1.4,2.4,4,3.2,6.8c0.9,3,1.8,6.3,4.1,8.8
		C32.5,82,35.5,74.8,39.4,68.2z"/>
	<path class="st4" d="M176.7,68.8l-1.3,2.4L112,185.9l-1.4,2.5c20.7-0.2,40.2-8.3,54.8-23c14.8-14.8,23-34.5,23-55.4
		C188.4,95.2,184.3,81.1,176.7,68.8z"/>
	<path class="st4" d="M180.5,151.8C180.5,151.8,180.5,151.8,180.5,151.8c3.4-0.2,6.5-1.8,9.2-3.4c2.6-1.4,4.9-2.7,7.1-2.6
		c-1.6-1.4-2.4-3.9-3.2-6.7c-0.9-3-1.9-6.3-4.2-8.8C187.5,138,184.4,145.2,180.5,151.8z"/>
	<path class="st4" d="M110.3,144c-11.9,0-22.5-5.8-29-14.8l29.1,52.1l28.5-51.5C132.2,138.5,121.9,144,110.3,144z"/>
	<path class="st4" d="M110.3,140.4c17.9,0,32.5-14.6,32.5-32.5c0-17.9-14.6-32.5-32.5-32.5C92.4,75.5,77.8,90,77.8,108
		C77.8,125.9,92.4,140.4,110.3,140.4z"/>
	<path class="st4" d="M198.4,104.9c-2-2.5-4.2-5.2-7.3-6.5c0,0,0,0,0,0c0.5,3.8,0.8,7.7,0.8,11.6c0,3.9-0.3,7.8-0.8,11.6
		c3.1-1.4,5.3-4.1,7.3-6.6c1.8-2.3,3.5-4.4,5.6-5.1C201.9,109.2,200.2,107.2,198.4,104.9z"/>
	<path class="st4" d="M208,117.4c2.7-3.5,5.2-6.5,8.3-7.6c-3.1-1-5.5-4-8.2-7.4c-3-3.7-6.2-7.8-11-9.8c3.6-3.7,5-8.7,6.3-13.3
		c1.2-4.2,2.3-8,4.7-10.1c-3.2,0.2-6.6-1.6-10.4-3.7c-4.2-2.3-8.7-4.8-13.9-4.9c1.9-4.8,1.3-10,0.7-14.7c-0.5-4.4-1-8.3,0.5-11.2
		c-2.9,1.5-6.7,1-11.1,0.6c-4.7-0.5-9.9-1.1-14.7,0.8c-0.1-5.1-2.6-9.7-5-13.9c-2.2-3.8-4.1-7.3-3.8-10.5c-2.1,2.4-5.8,3.5-10,4.7
		c-4.6,1.3-9.6,2.8-13.3,6.4c-2-4.7-6.1-8-9.8-10.9c-3.4-2.7-6.4-5.1-7.4-8.2c-1,3.1-4.1,5.5-7.6,8.3c-3.8,3-7.8,6.2-9.9,10.9
		c-3.7-3.6-8.7-5-13.3-6.4c-4.2-1.2-7.9-2.3-10-4.7c0.2,3.3-1.7,6.7-3.8,10.5c-2.3,4.2-4.9,8.7-5,13.8c-4.8-1.9-9.9-1.3-14.7-0.8
		c-4.3,0.5-8.2,0.9-11.1-0.5c1.5,2.9,1,6.8,0.5,11.2c-0.6,4.7-1.2,9.9,0.7,14.7c-5.1,0.1-9.7,2.6-13.9,4.9c-3.8,2.1-7.2,4-10.4,3.7
		c2.5,2.1,3.5,5.9,4.7,10.1c1.3,4.6,2.7,9.6,6.3,13.3c-4.7,2-8,6.1-10.9,9.8c-2.7,3.4-5.1,6.4-8.2,7.4c3.1,1,5.5,4.1,8.3,7.6
		c3,3.7,6.2,7.8,10.9,9.9c-3.6,3.7-5,8.7-6.4,13.2c-1.2,4.2-2.3,7.9-4.7,10c3.3-0.2,6.7,1.7,10.5,3.8c4.2,2.3,8.7,4.9,13.8,5
		c-1.9,4.8-1.3,9.9-0.8,14.7c0.5,4.3,0.9,8.2-0.6,11.1c2.9-1.5,6.8-1,11.2-0.5c4.7,0.6,9.9,1.2,14.7-0.7c0.1,5.1,2.6,9.7,4.9,13.9
		c2.1,3.8,4,7.2,3.7,10.4c2.1-2.5,5.9-3.5,10.1-4.7c4.6-1.3,9.6-2.7,13.3-6.3c2,4.7,6.1,8,9.9,10.9c3.5,2.7,6.5,5.2,7.6,8.3
		c1-3.1,4-5.5,7.4-8.2c3.7-3,7.8-6.2,9.8-11c3.7,3.6,8.7,5,13.3,6.3c4.2,1.2,8,2.3,10.1,4.7c-0.2-3.2,1.6-6.6,3.7-10.4
		c2.3-4.2,4.8-8.8,4.9-13.9c4.8,1.9,10,1.3,14.7,0.7c4.4-0.5,8.3-1,11.2,0.5c-1.5-2.9-1-6.7-0.6-11.1c0.5-4.7,1.1-9.9-0.8-14.7
		c5.1-0.1,9.7-2.6,13.9-5c3.8-2.1,7.3-4.1,10.5-3.8c-2.4-2.1-3.5-5.8-4.7-10c-1.3-4.6-2.8-9.6-6.4-13.3
		C201.8,125.3,205.1,121.2,208,117.4z M190.8,123.6c-0.3,1.6-0.6,3.2-1,4.8c3.4,2.8,4.7,7.1,5.8,10.9c0.9,3.2,1.7,6,3.6,7.6
		c-2.5-0.2-5.1,1.3-8,2.9c-3.5,2-7.4,4.1-11.8,3.7c0,0,0,0,0,0c-0.9,1.4-1.8,2.7-2.7,4.1c2.1,3.9,1.6,8.3,1.2,12.3
		c-0.4,3.3-0.7,6.2,0.4,8.4c-2.2-1.1-5.2-0.8-8.5-0.4c-4,0.5-8.4,1-12.3-1.1c0.1-0.1,0.2-0.1,0.3-0.2c-1.4,1-2.9,2-4.4,2.9
		c0.4,4.4-1.7,8.3-3.6,11.8c-1.6,2.9-3,5.5-2.8,7.9c-1.6-1.9-4.5-2.7-7.7-3.6c-3.9-1.1-8.1-2.3-10.9-5.7c0.7-0.2,1.3-0.3,2-0.5
		c2.5,2.3,5.8,3.3,8.8,4.1c2.9,0.8,5.4,1.5,6.8,3.2c-0.2-2.2,1.1-4.5,2.5-7c1.5-2.8,3.1-5.8,3.2-9.2c-8.5,5.1-18,8.6-28.2,10.3
		c-1.3,4.2-4.7,7-7.9,9.5c-2.6,2.1-4.9,3.9-5.6,6.2c-0.8-2.4-3.1-4.2-5.7-6.3c-3.1-2.5-6.6-5.3-7.9-9.5c-1.6-0.3-3.2-0.6-4.8-1
		c-2.8,3.3-7.1,4.6-10.9,5.7c-3.2,0.9-6.1,1.7-7.7,3.6c0.2-2.4-1.2-5-2.8-7.9c-1.9-3.5-4-7.3-3.6-11.7c-1.4-0.9-2.8-1.8-4.1-2.8
		c-3.9,2-8.3,1.5-12.2,1.1c-3.3-0.4-6.3-0.7-8.5,0.4c1.1-2.2,0.8-5.1,0.4-8.4c-0.4-4-0.9-8.3,1.1-12.2c-1-1.3-1.9-2.7-2.8-4.1
		c-4.4,0.4-8.2-1.8-11.7-3.7c-2.9-1.6-5.5-3.1-8-2.9c1.9-1.6,2.7-4.4,3.6-7.6c1.1-3.8,2.4-8,5.7-10.9c0,0.1,0.1,0.2,0.1,0.3
		c-0.4-1.7-0.8-3.5-1-5.2c0,0,0,0,0,0.1c-4.2-1.3-6.9-4.8-9.4-7.9c-2.1-2.6-3.9-5-6.3-5.7c2.3-0.8,4.2-3.1,6.2-5.6
		c2.5-3.1,5.3-6.5,9.5-7.8c0,0,0,0,0,0.1c0.3-1.7,0.6-3.3,1-4.9c-3.4-2.8-4.6-7.1-5.7-10.9c-0.9-3.2-1.7-6.1-3.6-7.7
		c2.4,0.2,5-1.2,7.9-2.8c3.5-1.9,7.4-4,11.8-3.6c0.9-1.4,1.8-2.7,2.7-4.1c-2-3.9-1.6-8.3-1.1-12.3c0.4-3.3,0.7-6.3-0.4-8.5
		c2.2,1.1,5.1,0.8,8.4,0.4c4-0.4,8.4-0.9,12.3,1.2c0,0-0.1,0-0.1,0.1c1.4-1,2.7-1.9,4.2-2.8c-0.4-4.4,1.7-8.3,3.7-11.8
		c1.6-2.9,3.1-5.5,2.9-8c1.6,1.9,4.4,2.7,7.6,3.6c3.8,1.1,8.1,2.4,10.9,5.8c-0.7,0.2-1.3,0.3-2,0.5c-2.5-2.3-5.7-3.3-8.8-4.2
		c-2.8-0.8-5.3-1.5-6.7-3.2c0.2,2.2-1.1,4.5-2.6,7.1C70,33,68.3,36,68.2,39.4c8.5-5,18-8.6,28.2-10.3c1.3-4.2,4.8-7,7.9-9.5
		c2.6-2.1,5-3.9,5.7-6.3c0.8,2.3,3.1,4.2,5.6,6.2c3.1,2.5,6.5,5.3,7.9,9.5c0,0-0.1,0-0.1,0c10.2,1.7,19.8,5.3,28.4,10.4
		c0,0,0,0-0.1,0c-0.1-3.4-1.8-6.5-3.3-9.3c-1.4-2.6-2.7-4.9-2.6-7.1c-1.4,1.6-3.9,2.4-6.7,3.2c-3.1,0.9-6.4,1.9-8.8,4.2
		c-0.6-0.2-1.3-0.3-2-0.5c2.8-3.5,7.1-4.7,10.9-5.9c3.2-0.9,6-1.7,7.6-3.6c-0.2,2.5,1.3,5.1,2.9,8c2,3.5,4.1,7.4,3.7,11.9
		c0,0-0.1,0-0.1-0.1c1.6,1,3.2,2.1,4.8,3.2c-0.2-0.2-0.4-0.3-0.6-0.5c3.9-2.1,8.4-1.7,12.4-1.2c3.3,0.4,6.2,0.7,8.4-0.4
		c-1.1,2.2-0.8,5.2-0.4,8.5c0.5,4,1,8.4-1.1,12.4c-0.1-0.1-0.1-0.2-0.2-0.3c1,1.4,2,2.9,2.9,4.3c0,0,0,0,0,0
		c4.4-0.4,8.3,1.7,11.9,3.6c2.9,1.6,5.5,3,7.9,2.8c-1.9,1.6-2.7,4.5-3.6,7.7c-1.1,3.9-2.3,8.1-5.8,11c-0.2-0.7-0.3-1.3-0.5-2
		c2.3-2.5,3.3-5.8,4.2-8.8c0.8-2.9,1.5-5.4,3.2-6.8c-2.2,0.2-4.4-1.1-7-2.5c-2.8-1.5-5.8-3.2-9.3-3.2c5.1,8.5,8.6,18.1,10.3,28.2
		c0,0,0,0,0-0.1c4.3,1.3,7.1,4.7,9.6,7.9c2.1,2.6,3.9,4.9,6.2,5.6c-2.4,0.8-4.2,3.1-6.3,5.7C197.8,118.8,195.1,122.2,190.8,123.6z"
		/>
	<path class="st4" d="M105.9,72.2H49.3l27.5,49.2c-1.7-4.1-2.6-8.7-2.6-13.4C74.2,89.6,88.1,74.4,105.9,72.2z"/>
	<path class="st4" d="M146.3,108c0,4.4-0.8,8.6-2.3,12.5l26.7-48.2h-56.1C132.5,74.4,146.3,89.6,146.3,108z"/>
	<path class="st4" d="M44.7,71.3l-1.4-2.6C35.6,81,31.5,95.2,31.5,110c0,20.9,8.2,40.6,23,55.4c14.8,14.8,34.5,23,55.5,23
		c0.1,0,0.2,0,0.3,0l-1.4-2.5L44.7,71.3z"/>
	<path class="st4" d="M96.5,29.1C96.4,29.1,96.4,29.1,96.5,29.1C96.4,29.1,96.4,29.1,96.5,29.1C96.4,29.1,96.4,29.1,96.5,29.1z"/>
	<path class="st4" d="M151.7,180.6C151.7,180.6,151.7,180.6,151.7,180.6C151.7,180.6,151.7,180.6,151.7,180.6
		C151.7,180.6,151.7,180.6,151.7,180.6z"/>
	<path class="st4" d="M121.6,28.8C121.6,28.8,121.6,28.8,121.6,28.8C121.5,28.8,121.5,28.8,121.6,28.8
		C121.6,28.8,121.6,28.8,121.6,28.8z"/>
	<path class="st4" d="M66.5,40.4C66.5,40.5,66.5,40.5,66.5,40.4C66.5,40.5,66.5,40.5,66.5,40.4C66.5,40.5,66.5,40.5,66.5,40.4z"/>
	<path class="st4" d="M68.2,39.4C68.2,39.4,68.2,39.4,68.2,39.4C68.2,39.4,68.2,39.4,68.2,39.4C68.2,39.4,68.2,39.4,68.2,39.4z"/>
	<path class="st4" d="M110.4,188.7l0.2-0.3c-0.1,0-0.2,0-0.3,0L110.4,188.7z"/>
	<path class="st4" d="M43.2,68.6L43.2,68.6c0.1,0.1,0.1,0,0.1,0H43.2z"/>
	<path class="st4" d="M176.8,68.6h-0.3c0,0.1,0.1,0.1,0.1,0.2L176.8,68.6z"/>
</g>
</svg>
