<?xml version="1.0" encoding="utf-8"?>
<!-- Generator: Adobe Illustrator 19.0.0, SVG Export Plug-In . SVG Version: 6.00 Build 0)  -->
<svg version="1.1" id="Isolation_Mode" xmlns="http://www.w3.org/2000/svg" xmlns:xlink="http://www.w3.org/1999/xlink" x="0px"
	 y="0px" width="206.1px" height="173px" viewBox="-202 310 206.1 173" style="enable-background:new -202 310 206.1 173;"
	 xml:space="preserve">
<style type="text/css">
	.st0{fill:#202020;}
</style>
<path class="st0" d="M-27.9,460.2c-16.2,38.2-62.7-5.5-60.1-25.5c3.7-20.1,53-29.7,23.4-59.7c-5.1-5.1-21.9-14.5-27.7-6.7
	c-1.9,0.3-3.5,1.1-4.6,2.7c2.8,1.1,2.7,0.7,1.8,2c1.1-0.1,2.2-0.2,3.3-0.5c-2,0.8-2.6,1.1-3.3,2c3.6,0.7,2.5,1.1,2.3,1.8l0.1,0.2
	c5.4,2.7,16,6,19.4,11.6c-4-4.5-8.3-6.2-14.4-8.7c7.4,3.5,12.7,7.7,15.3,13.9c-0.1,0.7-0.4,1.3-0.7,2c-3.8-8.8-9.7-15.9-21.4-14.9
	c13.4,0.7,17.2,7.1,20.7,16.2c-0.3,0.5-0.7,1.1-1.2,1.6c0.6,0,1.1-0.1,1.7-0.1c0.8,2.1,1.6,4.4,2.5,6.8c1.6-1.9,4.1-8,4-8
	c-1.2,1.5-3.4,5-3.7,5.2c-0.4-1.4-0.9-2.8-1.4-4.1c0.3,0,0.6,0,0.9-0.1c0.1,0.8,0.3,1.6,0.3,2.4c0.8-0.8,4-3.7,4.1-4.7
	c0.5-3,0.2-6-0.9-8.9c1.6,1.9,2.8,3.7,3.1,5.4c4.9,28.1-43,24.1-26.3,57.7c4.5,8.9,15.3,20.2,23.3,23.2c-5.9-4-10.8-8.9-14.8-14.8
	c9.6,10.4,24.1,24.8,39.9,18.9c-21.8,7.6-63-35.4-43.9-50C-102.7,444.4-45.5,506.4-27.9,460.2z"/>
<path d="M-42.4,456.8c4.3-6.7-22.1-0.4-21.8-0.8c3.3,3.5-2.4,3.2,1.9,5.9c-0.9,0-5.3-1.4-8.1,2.1C-61.5,461.5-47.6,468.9-42.4,456.8
	C-42.1,456.3-43.3,458.8-42.4,456.8z"/>
<path class="st0" d="M-115.7,377.3c0.9,0.5,1.7,1.1,2.4,1.8c-0.8-1.1-1.4-1.6-1.5-1.7c0.1,0.1,0.6,0.3,1.4,0.4
	c-1.4-2.5-4.4-2.4-6-4.4c1.9,0.7,3.7,1.5,5.4,2.5c-2.6-3.6-0.1-0.1,1.2,0.1c-1.3-1.5-4.1-4.6-6.5-5.6c1.5,0.6,2.8,1.4,4.3,2
	c-0.5-0.8-2.8-2.3-2.6-2.5l-0.2-0.2c-2.6-1.9-5.2-2.6-7.8-2.7c2.4-4.6,3.5-9.6,3.3-14.8c0.3,5.3-1.6,10.8-5.1,14.9
	c-1.2,0.1-2.3,0.4-3.5,0.7c6.8-6.4,12.2-16.1,3.6-23.5c14.1,16.1-13.8,28.4-24.8,31.3c-3,0.8-9.5-1.9-13.2-0.3
	c-13.2-5.8-19.9-22-15.3-35.3c5-9.5,13.1-18.7,22.9-21.3c1.3-0.3,3.8-1.1,5.3-1.4c-2.8-0.1-4,0.3-5.6,0.7c-2.3,0.6-5.9,2.5-8.3,3.9
	c2.5-2.2,7.1-5,10-5c3.2-0.2,6.1,0,8.7,0.5c-15.6-6.3-38.6,7.6-40.5,32.5c-0.7-15.6,13.1-31.1,27.4-35.2
	c23.7-6.7,32.4,28.3,48.7,10.8c-17.9,16.7-22.4-17.9-47-12.3c-10.8,2.4-24.5,13.9-28.5,24.7c-9.7,26.2,14,49.3,38.8,45.8
	c2.5-0.4,4.9-1.8,7.3-2.4c21.3-5.5,12.1-1,30,2.1C-112.8,381.2-114.4,379.4-115.7,377.3z"/>
<path class="st0" d="M-13.6,423.6c0.4,1.3,0.4,2.6-0.1,4c-0.5-1.3-1.6-2.6-3-3.8c-1.8-2.5-2.3-3.7-4.9-5.4c-0.2-0.1-1.1-0.7-1.3-0.8
	c0.1,0-1.1-0.6-0.9-0.6c-2.2-1.4-4.6-2.3-6.8-2.3c-0.4-0.1-0.7-0.2-1.1-0.3c0,0.1,0,0.2,0,0.4c-0.4,0-0.9,0.1-1.3,0.3
	c0.3,2.5,1,4.1,2.2,5.1c1.8,3.9,5.7,4.6,8.8,9.8c-2.1,1-6.4,3.8-6.8,5.3c2.7,0.2,2.7-1.1,5-0.5c-1.8,2.3-1.7,1.7-2.1,3.2
	c2.9-0.5,3.1-0.4,3.1,0.1c-0.4,0.2-0.7,0.5-1.1,0.7c0.4-0.2,0.7,0.1,1.1-0.1c0,0.1,0.7-0.1,0.7,0l-0.6,0.6c6.7-0.4,9.3-3.9,9.1-7.6
	C-11.4,428.7-11.7,426-13.6,423.6z"/>
<path class="st0" d="M-100.8,365.5c2.3-8.4,9.9-45.5-6.2-44c-8.5,0.8-15.1,53.4-6.6,22.7c-0.6,9.1-1.3,16.6,0.5,25.3
	c-2.3-14-0.4-32.4,9-43.3c-5.5,10.1-15.4,45.8-2.7,55c-12.4-11.8-1.1-42.9,4.1-54.5c-0.3,0.5-13.2,38.6-3.3,45.2
	c1.1-4.2,0.6-3.5,1.9-2.6c-0.2-1.4-0.4-2.7-0.8-4.1c1.3,2.8,1.1,2.8,2.3,3.8c0.1-1.5,0.2-3,0.3-4.5c1.3,5.7,0.5,0.8,1.2,1"/>
<path class="st0" d="M-66,439.5c3-0.2,8.5-1.5,8-3.3c0,0.2,2.1,0.3,1.8,2.1c1-1.5,1.8-2.8,2-5.4c0.2-2.5-1.2-7.4-2.7-9.8
	c10.4,8.3,2.8,16.7-2.9,22.2c15.6-11.9,12.2-31-5.4-23.1c0.6-0.3,2.3,7.8,0.4,9.6c-1.8,1.8-3.5,2.7-3.4,2.6c1.3,1.1,1.3,0.8,0.6,1.9
	c0.3,0.2,1.9-0.9,2-0.9c-1.1,1.4-1.6,1.5-2.3,2.3C-67.8,437.8-63.4,437-66,439.5z"/>
<path class="st0" d="M-93.3,449.5c-3.6,9.2-22.9,11.1-22.9-0.1c0.1,0,0.2,0,0.3,0c4.7,15.5,30.3,0.6,19.7-6
	c10.3,8.1-15.8,17.4-18.5,6c10.2-0.4,25.8-8,16.6-11.7c-0.7,2.3-0.4,2.1-1.7,1.5c-0.1,0.2,0.9,2.4,0.5,2.7c-0.5-1.6-1.1-2.3-2-2.8
	c-0.4,2.4-1,1.5-1.5,1.1l-0.1,0c-4.6,4.1-12.5,3.8-18.3,0.4c-1.9,8.3,11.8,32.6,21.8,17.1c-2.5,1.6-5.7,1.8-8.5,1
	C-102.3,458.6-95,455.7-93.3,449.5z"/>
<path class="st0" d="M-92.8,362c22.2-8,41.6,15.7,41.9,35.8c-3.2,18.7-28.8,17.6-33.8,32.9c3.4-6.8,9.6-9.4,16.3-11.8
	c-13.4,7.5-25,23.3-5.3,31.4c-30.9-17,25-36.2,28.4-51.2c-0.7,7.7-5.1,13.1-10.7,18.1c-7.8,7-25.4,7.6-24.9,20.9
	c0.5,13.2,23,18.8,29.9,7.3c-9.5,12.7-33.1,3-27.7-12.7c2.9-8.5,18-6.2,29-19.6c3.8-4.9,5.3-9.6,6-15.5
	c4.4-38.7-62.1-55.7-60.6-32.8c1.7-1.2,3.1-2.8,5-3.8c-0.3,0.4-0.5,1.3-0.4,2.1c1.8-1,2.8-3.9,4.8-4.5c-1.2,1.2-2.3,2.6-3.2,4.1
	c3.1-2,0.1,0.2-0.1,1.1c1.9-1.4,3.8-2.3,5.8-3.6L-92.8,362z"/>
<path class="st0" d="M-103.8,379.8c11.3,5.5,26.1,15.6,14.5,27.7c-5.3,2.8-13.7,7.5-15.3,13.8c1.9-3.1,5.2-5.9,8.4-7.5
	c-7.5,6.1-16.4,16.6-7.6,24c-12.2-15.3,14.6-21.7,21-29.5c-5.2,7.9-36.5,20.2-17.2,28.7c-16.5-8.8,10.3-17.5,15.8-24.3
	c6.2-7.7,8.1-12.1,4.4-22.2c-2.3-6.3-29.5-26.2-29.8-14.6c1.2-0.3,2.5-1,3.8-0.6c-2.6,1.5-0.3-0.3-0.9,1.5c0.4,0.1,3.1-1.3,3.7-0.9
	c-2.3,0.8-2.8,1.2-3.3,2.4c3.9-0.2,2.5,1.1,2.4,1.4"/>
</svg>
