<?xml version="1.0" encoding="utf-8"?>
<!-- Generator: Adobe Illustrator 19.0.0, SVG Export Plug-In . SVG Version: 6.00 Build 0)  -->
<svg version="1.1" id="Isolation_Mode" xmlns="http://www.w3.org/2000/svg" xmlns:xlink="http://www.w3.org/1999/xlink" x="0px"
	 y="0px" width="206.1px" height="173px" viewBox="-202 310 206.1 173" style="enable-background:new -202 310 206.1 173;"
	 xml:space="preserve">
<style type="text/css">
	.st0{fill:#231F20;}
</style>
<path class="st0" d="M-198.7,358.6c4.5,11.1,11.8,19,18.3,19.7c3.5,0.4,6.5-1.2,8.9-4.8l0.2-0.5l0,0c0.1-0.2,0.4-0.6,0.6-1.1
	c0.5-0.9,1.1-2,1.2-2.6l0.1-0.6l-0.4,0.5c-0.9,1-1.8,2.1-2.8,3c1.3-1.6,2.3-3.4,2.9-5.4c0.4-0.3,0.5-0.5,0.5-0.7
	c0-0.1-0.1-0.1-0.2-0.1c0.1-0.5,0.2-1,0.3-1.4v-0.3l-0.3,0.2c-1.9,1.2-2,1.5-1.9,1.7s0.2,0.2,0.4,0.2s0.4,0,0.6,0c0.1,0,0.3,0,0.4,0
	c0,0.1-0.1,0.3-0.1,0.4c-0.7,0.6-2.2,1.6-4.5,3c0.5-0.8,1.1-1.4,1.7-2c1-1,2.1-2,2.2-4.5V363l-0.2,0.1c-0.3,0.2-0.5,0.4-0.7,0.5
	c0.1-0.4,0.2-1,0.3-1.7l0.1-1.3l-0.4,1.2c-0.3,0.6-0.5,1.2-0.6,1.6c0.2-1.3,0.3-3.5,0.2-6.4v-0.3l-0.2,0.1c-3.8,2.8-5.5,6-6.7,8.4
	c-0.8,1.7-1.4,2.8-2.3,2.9c-1.4,0.1-3.7-2.3-9.4-10c-6.4-8.7-6.8-16.8-1.2-25.5c2-3,6.9-6.4,13.5-9.2c6-2.5,12.2-4,15.9-3.9
	c10.8,0.4,19.2,4.3,24.8,11.6c5.1,6.7,8,16.1,8.6,28.1c0.5,12.2-1.5,24.5-3.3,32.6c-10.7,13.3-8.9,36.4-6.8,49
	c0.1,1.2,0.2,2.3,0.3,3.5c-1.4-5.1-2.2-8.8-2.3-10.2h-0.3c-0.1,10.9,3.7,26.1,9.2,36l0,0c0.5,0.8,0.9,1.6,1.4,2.3l0,0
	c3.4,5.4,7.1,8.4,10.9,9c0.9,0.4,1.7,0.6,2.6,0.6c2.2,0,4.3-1.3,6.3-4c2-1.9,4.1-4.5,6-7.9c6.8-11.7,8-28.1,9.3-45.5
	c2.2-30.1,4.5-61.3,38.2-66.3c7.5-1.1,17,0.4,25.9,4c9.4,3.9,17,9.6,21.2,16.1c7.4,11.3,6.5,24.2-2.3,35.4
	c-8.2,10.4-21.2,16.1-29.6,13.1c-3.9-1.4-8.6-5.4-8.3-16.4v-0.8l0,0c-0.1-0.5,0.4-3.6,0.7-5.3c0.1-0.9,0.3-1.6,0.3-2l0.1-1l-0.4,0.9
	c-0.8,2-1.5,4-2,6.1c0.7-5.2,2-10.3,4-15.2l0.2-0.6l-0.5,0.5c-0.6,0.6-1.4,2.5-2,4c0.1-0.6,0.4-1.4,0.6-2.3l0.3-1l-0.6,0.9
	c-2,3.4-3.7,7.4-5.1,12c0.5-3.4,2.1-6.9,3.7-10.4c1-2.1,1.9-4.2,2.5-6l-0.3-0.1c-1.1,2.2-1.7,3.2-2,3.7c0.3-0.7,0.9-2.4,2.6-6.5
	l-0.3-0.1c-1.5,3.1-2.3,4.4-2.6,5c0.6-1.9,3.6-9.2,5.2-12.9c0.5-1.1,0.9-2,1.1-2.6l0.2-0.5l-0.4,0.3c-5,3.7-9.3,10.1-12,17.8
	c-2.7,7.6-3.6,15.9-2.6,23.1c1.4,10.1,6.6,17.4,14.6,20.4c13.5,5.1,27,0.9,36.8-11.8c5.7-7.3,9.5-16.6,10.6-26.1
	c1.2-9.9-0.9-19.2-5.6-26c-8.5-12.1-23.2-21-39.2-23.6c-14.3-2.4-27.8,0.5-38,8.1c-8.1,5.9-13.6,14.7-16.7,26.7
	c-2.6,10.4-3.4,21.7-4,34.4c-0.2,1.4-0.4,2.9-0.6,4.3c-0.3-2.1-0.9-3.8-1.8-5c3.2-20.2,0.9-28.7-4.7-32.9c-3.6-2.7-8.2-2.2-12.6-1
	c-1.3,0.3-2.4,0.8-3.6,1.4l0,0l0.1,0.2l0,0l0,0l0,0c1.4-0.7,3-1.2,4.7-1.4c4-0.5,7.1,1.1,9.6,3.4c4.9,4.6,7.1,14.3,6.1,29.9
	c-1-1.2-2.5-1.9-4.1-1.8c-2.5,0.2-5.3,2-7.1,4.8l0,0l-0.2,0.4c-0.3,0.7-0.5,2.2-0.1,3.6c-0.2-0.2-0.4-0.5-0.4-0.6v-0.3h-0.1
	l-0.1-0.5l-0.2,0.6c0,0.1,0,0.1,0,0.2c0,0.3,0,0.6,0,0.8c0,0.1,0,0.3,0,0.3s-0.5,0-1.1,0h-0.1h-0.1c-0.7,2.6-0.6,4.1,0.3,4.7
	c1.9,1.2,6.6-2.7,8.3-4.2c1.9,4.9,0.1,8.1-2.1,9.5l0.1,0.2c4.9-2.3,3.6-7.2,2.3-10.1c0.6-0.5,1.2-1.1,1.7-1.6c1.1,1.1,1.8,2.4,2,3.9
	c-0.9,6.6-1.9,12.5-2.6,16.5c-0.1,0.7-0.2,1.3-0.3,1.9h0.3c0.5-2.1,1.6-7.4,2.5-14l0.1-0.1c0.7-1,1.3-2.2,1.9-3.3
	c0.2-0.5,0.4-0.9,0.6-1.2c-3.3,20.9-8.2,44.8-15.8,45.8c-3.6,0.5-7.7-4.3-12.1-14.1c-0.2-0.6-0.5-1.3-0.8-2l0,0
	c-0.8-2.4-1.7-5-2.4-7.7c-0.8-3-1.5-6.2-2.1-9.6l0,0c-1.9-10.9-2.1-21.9-0.8-31.1c1.7-4.1,3.3-9.3,4.6-14.9c1.9-3.6,4.4-6.1,7.3-7.7
	l-0.1-0.2c-0.8,0.3-1.5,0.8-2.2,1.3c1-1,1.9-1.8,2.8-2.6c8.6-5.8,12.4-4.1,15-1.7l0.2-0.2c-4.1-3.9-9.5-3.4-15.4,1.6
	c-0.5,0.3-0.9,0.6-1.3,0.9c4.4-17.4,2.7-35.9-4.6-51.3c4.1,6.9,6.5,14.4,7.2,22.4l0.1,1.3l0.2-1.3c1.1-9.3-0.9-18.2-5.7-25.7
	c-4.4-6.9-11-12.5-19.1-16c-8.2-3.6-17.3-4.7-25.7-3.2c-9.2,1.6-17.4,6.3-23.5,13.6C-204.3,334.6-202.6,348.5-198.7,358.6z"/>
<path class="st0" d="M-131.9,434.4c-0.3,0.6-0.6,1.2-1.1,1.7c-0.8,0.7-2,1.3-3.7,1.6v0.3c1.6-0.1,2.9-0.7,3.9-1.7l0,0l0,0l0,0l0,0
	c0.6-0.6,1-1.2,1.2-1.9l0,0l0,0l0,0l0,0c0.9-2.3,0.9-5.5,0-9.9c0.1,0.1,0.3,0.3,0.4,0.4c0.1,2.2,1.1,5.3,3,6.8
	c-0.1,1.5-0.7,3.1-1.9,4.7l-0.5,0.7l0.7-0.5c1-0.6,2-1.5,2.9-2.3c0.8-0.7,1.7-1.5,2-1.6c0,0,0,0,0,0.1h0.1l0,0l0,0h0.1l0,0
	c0.3-1.1,0.7-2.2,0.8-3.1c0.1,0,0.1,0,0.1,0h0.1v-0.1c-0.1-0.5,1-5.4,1.7-5.6c0.1,0,0.2,0.2,0.3,0.4c0.1,0.1,0.1,0.2,0.1,0.2
	l0.3-0.1c0,0-0.1-0.1-0.1-0.2c-1.6-4.2-3.6-6.6-5.8-7.3c-1.5-0.5-3-0.2-4.6,0.9c-3.3,2.2-2.2,6-1,9.7
	C-132.2,430.1-131.5,432.4-131.9,434.4z"/>
</svg>
