<?xml version="1.0" encoding="utf-8"?>
<!-- Generator: Adobe Illustrator 19.0.0, SVG Export Plug-In . SVG Version: 6.00 Build 0)  -->
<svg version="1.1" id="cancer" xmlns="http://www.w3.org/2000/svg" xmlns:xlink="http://www.w3.org/1999/xlink" x="0px" y="0px"
	 width="455px" height="302px" viewBox="79 328.4 455 302" style="enable-background:new 79 328.4 455 302;" xml:space="preserve">
<style type="text/css">
	.st0{fill:#231F20;}
</style>
<path class="st0" d="M502.6,476.2C501.7,474.9,501.6,475.1,502.6,476.2L502.6,476.2z"/>
<path class="st0" d="M282.9,496.2C290.9,500.1,281.7,495.5,282.9,496.2L282.9,496.2z"/>
<path class="st0" d="M293.6,502.4c-3.6-1.8-7.2-3.9-10.7-6.2c-6.5-3.9-26.7-9.5-36.7-17.6C256.1,487,277,496.1,293.6,502.4z"/>
<path class="st0" d="M246.2,478.6c-2.5-2.1-4.3-4.1-5.1-6.1C242.1,474.7,243.9,476.7,246.2,478.6z"/>
<path class="st0" d="M313.7,509.2c-4.2-1.2-11.6-3.6-20.1-6.8C300,505.5,306.7,507.7,313.7,509.2z"/>
<path class="st0" d="M192.8,423.9c-0.3-0.6-0.5-1.2-0.8-1.8C192.3,422.9,192.6,423.5,192.8,423.9z"/>
<path class="st0" d="M365.2,552.8c-1.5,1.9-2.8,3.7-4,5.4C362.4,556.5,363.7,554.7,365.2,552.8z"/>
<path class="st0" d="M409.1,532.3c-4.9,0.6-9.7,2.3-14.4,4.9C400.3,534.7,405.4,533,409.1,532.3z"/>
<path class="st0" d="M180.8,429.5c0,0.2,0,0.4,0,0.6C180.8,429.8,180.8,429.6,180.8,429.5z"/>
<path class="st0" d="M97.6,427.8C97,429.5,108.1,420.9,97.6,427.8L97.6,427.8z"/>
<path class="st0" d="M348.3,621c-1.3-2-2-4.2-3-6.6c-0.8-2-1.8-4-3.2-6c3,0.1,6.6-0.6,10.6-1.7c3.3-0.3,6.5-1.1,9.4-2.3
	c-0.1,0-0.6-0.1-1.5-0.1c9.6-2.4,22.7-7.6,27.4-14.9c1.5-0.2,3-6.5,3.6-8.3c2.5-7.4,2.6-15.3,0.2-22.8c-1.6-5-9.2-3.2-8.4,1.6
	c-0.2,0-0.5,0-0.8,0c-0.5,0.1-1,0.3-1.5,0.2c-0.3-0.1,2.5,4.6,0.8,15.1c-0.7,4,0.1,4.1-3.2,8.5c-3.3,4.3-14.7,9.9-17.2,10.8
	c-8.1,3-4.4-8.4-1.1-15.9c3.2-7.1,19.6-18.2,19.4-18.2c-0.7,0.2-3.2,0.7-3.9,0.9c-5.1,1.7-9.7,4.7-13.2,8.7
	c6.2-11.1,18.3-25.4,31.9-32.9c-19,8.4-47.2,32.3-41.9,51.1c-0.5,1.8-0.8,3.7-1,5.7c-4-5,0.4-22.5,9.5-35.8
	c-11.9,16.9-14.8,32.7-9.5,36.3c0,0.4-0.1,0.7-0.1,1c0,0.1,0,0.1,0,0.2c-5.4,1.9-12.2,1-22.1-3.8C328.2,605.7,336,615.5,348.3,621z"
	/>
<path class="st0" d="M338.1,601.2c0.2,0,0.3,0,0.5,0c-0.4,0.8-0.5,1.7-0.5,2.5c0.1,0,0.1,0,0,0C336.5,603.5,336.5,601,338.1,601.2z"
	/>
<path class="st0" d="M348.5,621.1c0,0-0.1-0.1-0.2-0.1c2.4,3.8,6.7,5.9,17.8,6.7c0.2,0,0.2,0.6,0.4,0.6
	C355.3,627.5,351,624.8,348.5,621.1z"/>
<path class="st0" d="M85.8,426.7c-1.4,3.9-2.4,7.8-3.1,11.8c2.7-2.3,6.4-4.8,10.1-7.3c1.1,0.7,2.1,1.4,3.2,2.1
	c0.4-1.9,1-3.6,1.6-5.3c10.5-6.8,19.1-12.4,7-8.9c-0.2,0.4,5.9-7.6,5.9-7.1c0,2.1,1,2.4,2.2,1.9c0.1-0.1,0.1-0.1,0.2-0.2
	c0.8-4,3.8-6.4,7.4-7.6c0.6-0.5,1.3-1,1.9-1.5c0.3-0.3,0.5-0.7,0.6-1.2c-0.1,0.2,0.4,0.2,1.1,0c6.2-4.1,13.2-7,20.3-9.4
	c0.1-0.3,0.1-0.5,0.2-0.8c-16.4,0-14,3.7-10.1,1.6c-1,0.5-12.6,6.2-20.2,9.6c7.4-6.4,16.2-11,25-13.8c2.6-0.1,6-1.2,1.5-0.4
	c11.9-3.4,23.8-3.5,32.3,0c-3.3,0.6-6.5,1.5-9.8,2.7H163c-2.8,1-5.7,2.2-8.5,3.6c-0.4-0.1-0.3-0.1,0,0
	c-31.4,15.2-60.9,50.6-61.6,73.8c-0.9,32.1,27,68.7,56.5,58c0.9,0.6,1.9,1.1,2.9,1.7c-0.1-0.9-0.1-1.9-0.2-2.8
	c3.4-1.6,6.8-3.8,10.2-6.7c-4.4-1.7-8-3.6-10.9-5.6c0-0.8-0.1-1.6-0.1-2.4c-0.5,0.4-1,0.8-1.5,1.2c-17.9-14.2-1.3-33,8.8-36.7
	c1.7-0.2,3.4-0.3,4.9-0.2c2.8,1.5,2.2,7.3-6.3,19.7c0.8,0.8,1.5,1.4,2.2,1.9c-0.5,0.5-1,1-1.6,1.5c0.6-0.4,1.2-0.9,1.8-1.4
	c0.3,0.1,0.6,0.3,0.9,0.4c-0.1,1.2-0.1,2.4-0.2,3.6c0.1-0.1,0.3-0.3,0.4-0.4c0,0.3,0,0.5,0,0.8c1.6-1.5,3-3,4.2-4.5
	c1.2-0.8,2.6-3,4-6c7.7-9.5,28.1-33.3,13.5-60.4c0,0.4-0.1,0.7-0.1,1.1c0.3,0.8,0.5,1.6,0.7,2.5c2.5,7.8,1,16.6-0.9,24.6
	c-0.8,3.4-1.9,6.7-3.4,9.7c-0.8,2.8-1.8,5.6-3.1,8.2c-1.1,2.3-2.4,4.8-3.8,7.1c1.9-5.3,3.6-11.2,4.7-15.9c-0.5,0.9-2.4,4.2-4,7.3
	c-0.2-2.7-1-4.9-2.4-6.4c-3.7-7.3-12.8-6.7-21-1.1c-2.6,0.9-5,2.5-7.2,4.8c-13.5,9.2-23,26.5-6.3,43.8c-24.6-4.6-37-71.2,6-95.5
	c12-6.8,25.1-9.7,38.5-11.9c2,9.6,6.9,19,13.6,27.9c-0.4-0.6-0.7-1.2-1.1-1.8c1.3,2-0.3-0.6-4.9-8c-0.2-0.4-0.4-0.8-0.6-1.2
	c2.4,4,4.6,8.3,8.4,11.1c2.3,1.7,14.6,13.7,27.3,25.1c-0.4,0.3,0.4,1,2.2,2c3.1,2.7,6.2,5.4,9.2,7.9c-0.3-0.2-0.6-0.3-0.9-0.4
	c1.5,1.2,2.9,2.2,4.3,3.2c0.2,0.1,0.3,0.3,0.5,0.4c3.2,4,4.6,9.4,15.5,9.4c2,0.8,4,1.5,6,2.2c-1.4-0.8-2.7-1.5-4-2.2
	c0.2,0,0.3,0,0.5,0c-10.7-6.7-20.8-14.2-30.2-22.6c-0.4,0-0.8-0.1-1.1-0.1c-10.6-10.1-34.4-35-40.8-53.7l0.3-0.2
	c0.8-0.8,2.1-1.2,3-1.5c0.9,4.5,2.5,9.3,4.7,14.4c-1.2-3-3.2-8.6-4.6-14.4c1.1-0.3,1.6-0.3-0.1-0.4c-0.1-0.3-0.1-0.5-0.2-0.8
	c3.4-0.3,6.9-0.4,10.4-0.3c-5.2-4.5,1.3-1.7-11-3.8c0-0.3,0-0.5,0-0.7c4.2-0.2,8.9,2.2,13,1.7c-1.1-1.1-1.4-1.7-1.4-2.1
	c-0.6-0.1-1.3-0.3-2.2-0.5c4.8-0.3,9.7-0.4,14.5-0.3c-4.8-5.2-10.4-8.4-16.3-10.2c-0.1-0.2-0.2-0.3-0.3-0.4c0,0,4.3-16.6,12.1-21.4
	s1.7-0.1,2.5,0c57.7-24.6,209.8,22.6,226.4,86.6c4,15.1,1.1,27.9-5.8,38.2c-0.1,0.6-0.1,1.1-0.3,1.6c-0.3,0.8-1,1.6-1.8,1.9
	c-0.2,0.2-0.5,0.3-0.8,0.4c-0.7,0.8-1.4,1.7-2.2,2.5c-0.1,0-0.1-0.1-0.1-0.1c-1.3-2-2.7-3.9-3.8-5.4c-0.1,2.2-0.3,3.1-0.4,3.5
	c0.3,0,0.8,0.8,1.9,4.3c0.4,1.4,1,3.2,1.6,5.7c-0.5-0.5-0.9-1.2-1.3-1.8c-0.3-1.2-0.6-2.2-0.9-3.1c-0.1,0.1-0.2,0.2-0.3,0.3
	c0-0.1-0.1-0.1-0.1-0.2c-0.5-1.4-1-2.9-1.5-4.3c0-0.1,0-0.1,0-0.1l0,0c-0.6-1.5-1.3-3.1-2.4-4.3c-0.3,1.5-0.6,2.2-0.9,2.4
	c0.2,0.6,0.4,1.2,0.7,2c-0.6-0.7-1.1-1.5-1.7-2.2c-0.8-1.9-1.1-1.9-1-1.3c-1.7-2.3-3.5-4.6-5.3-6.8c-0.3-0.1-0.6-0.3-0.9-0.4
	c-0.8,6.7,1.6,13.7,5.1,21c0.8,1.6,1.6,3.2,2.5,4.8c-0.2,0.2-0.5,0.3-0.7,0.5c-0.8-1.5-1.6-3-2.3-4.5c-8.5,5.6-18.5,9.6-28.6,12.1
	c-8.7,2.1-18.1,2-26.8,1c-5.5-1.4-13.9-3-18.6-3.5c-5.8-1.4-9.9-2.8-10.7-3c-0.8-0.2-73-26.1-73.8-23.5
	c3.7,28.5,86.4,46.4,109.8,46.2c20.7-0.2,40.2-6.5,55.5-16.9c-0.8-1.4-1.6-2.7-2.4-4.1c0.3,0,0.5-0.1,0.8-0.2
	c0.7,1.2,1.4,2.5,2.1,3.7c7.5,12.9,22.6,27.1,21.9,40.2c-2.5,46.9-68.2,75.6-95.9,52.4c1,2.5,1.8,4.8,3.1,6.8
	c43.9,19.3,143.5-15.6,84.6-110.9c0.8-0.9,1.6-1.8,2.4-2.7c2.3,0.5,7.5,1.1,13.7,1.9l0.6,0.3c-3.4-0.4-5.9-0.8-8.8,0.2
	c5.4-0.5,11.1-0.5,16.2,1.3c1.4,0.3,2.6,0.8,3.5,1.3c0.4,0.3,0.7,0.6,1.1,0.9c1.2,0.8,2.4,1.7,3.4,2.8c1.2,1,2.3,1.8,2.9,2.2
	c0.5,1.1,1.1,2.5,1.7,4.1c1.4,2.3,3.7,9.5,3.5,7c-0.3-4.9,7,18.3,7.5,15.9c1.3-6-14.4-42.4-10.2-36.2c7.9,11.9,29.9,51.9,29.8,76.8
	c0,0.8-6.8-13.3-13.5-27.1c-6.5-13.2-12.7-26.3-12.5-25.6c0.4,1,2.9,6.5,3.2,7.5c2,6.4,3.3,13.1,3.6,19.8
	c6,17.3,14.3,34.1,25.2,48.3c29.2-48-5.2-129.1-57.3-120.2c-0.8,0.2-1.6,0.3-2.3,0.5c3.2-8.3,4.6-17.2,3.7-26.4
	c0.7,2,1.5,4.9,5.9,8.1c0.4,0.3,19.9-11.8,23-11.6c22.2,1.3,36.9,21.1,45.6,32.1c-14.2-7-34.9-20.1-34.8-20
	c-7.8-4.1-15.6-1.6-19.7-0.3c6.6-1.1,47.5,30.6,60.8,37.7c10.4-43.1-43-82.2-71.5-58.8c-6.4,6-9.3,9.1-9.6,11.4
	c-1.6-13.3-8-27.3-20.6-41c-32.1-35.2-165.2-100.5-223.7-67.6c-0.5-0.6-1.1-1.2-1.7-1.8c-21.6-22.5-57.3-23.4-79.9-3.2
	c-1.4,0-2.8-0.1-4.1-0.2c0.5,0.9,0.9,1.9,1.4,2.8c-2.6,2.7-5.1,5.7-7.2,9c0.2,0,0.5,0,1,0c1.7-0.8,3.4-1.4,5.2-1.9
	c0.4-0.3,0.9-0.5,1.5-0.6c0.4,0-6.5,5.7-6.1,5.7c2.2-0.5,9.6-3.1,11.8-3.3c5-1,10-2.2,15.1-2.6c7-0.6,14.1-0.5,21,0.6
	c3.5,0.5,7.3,1.4,10.8,2.8c-0.1-0.1-2.9-4.4-5.4-4.8c-21.8-3.3-37.7,1.4-37.8,0.1c-0.1-2.2,8-7.4,33.8-7.2
	c1.6,0.2,19.3,3.5,18.1,3.5c-36.8,0.9-8.1,8.5-7.6,8.9c4.5,2.2,10.3,1.9,10.8,7.5c0.1,0.9-0.2,1.6-0.7,2.1l0.2,2.7
	c1.5-2.8-4.6,9.1-4.4,6.8c-0.3-0.3-0.6-0.5-0.9-0.7c-33-21-74.7,3.2-91.6,39.1c-2.7,2.1-5.3,4.1-7.5,5.9
	C83.1,424.7,84.4,425.6,85.8,426.7z"/>
<path class="st0" d="M466.3,511.8c1.3,1.6,2.7,3.5,4,5.5C469,515.3,467.6,513.4,466.3,511.8z"/>
<path class="st0" d="M415.5,514.8c-0.3,0.2-0.5,0.3-0.7,0.5c0-0.2-0.1-0.3-0.2-0.5l0.6-0.6C415.3,514.4,415.4,514.6,415.5,514.8z"/>
<path class="st0" d="M428,505.8l-0.3,0.3c-0.4-0.7-0.8-1.5-1.3-2.3c-1.1-3.1,0-0.9,1.1,0.7C427.6,504.9,427.8,505.3,428,505.8z"/>
<path class="st0" d="M429,508.9c-0.4-0.9-0.9-1.8-1.4-2.8c0.1-0.1,0.2-0.2,0.3-0.3C428.3,506.7,428.6,507.7,429,508.9z"/>
<path class="st0" d="M188.4,357.8c0.9,0.4,1.5,0.7,1.9,0.9C189.8,358.6,189.3,358.2,188.4,357.8z"/>
<path class="st0" d="M198.1,401.5C204.6,403,198.3,400.1,198.1,401.5L198.1,401.5z"/>
</svg>
