<?xml version="1.0" encoding="utf-8"?>
<!-- Generator: Adobe Illustrator 19.0.0, SVG Export Plug-In . SVG Version: 6.00 Build 0)  -->
<svg version="1.1" id="Isolation_Mode" xmlns="http://www.w3.org/2000/svg" xmlns:xlink="http://www.w3.org/1999/xlink" x="0px"
	 y="0px" width="206.1px" height="173px" viewBox="-202 310 206.1 173" style="enable-background:new -202 310 206.1 173;"
	 xml:space="preserve">
<style type="text/css">
	.st0{fill:#202020;}
</style>
<g>
	<path class="st0" d="M-114.1,436.6c-8.2-3.6-12.9-16.6-12.9-21c-0.1-5.4,1.1-12.3,4.2-17.3c-3.3,4.9-6.2,8.3-5.6,16.9
		C-127.9,423.8-122.9,433.4-114.1,436.6z"/>
	<path class="st0" d="M-48.9,411.6c-3.1-0.8-5.8-1.5-8.3-2.2c2.2,0.5,4.5,1.1,7.1,1.7c-10.3-4.2-20.9-8.1-28.5-13.5
		c2.1,1.9,4,3.5,5.8,4.8c-2.6-1.7-5.6-3.7-9-6.3c-15.8-12-30.1-17.5-42.8,1.5c6.8-10.1,13.6-12.6,20.5-11.2
		c-8.1,0.7-14.7,5.7-18.8,12.5c1.2-1.8,2.6-3.5,4.3-4.9c21.6-19.6,33.9,10.6,52.7,19.3c18.4,8.5,44,8.2,38.3,34.2
		c-2.3,10.3-12.3,20.6-21.9,23.8c-39.9,13.3-62.9-58.3-9.6-36.4c3.9,1.3,8.7,7.4,9.3,11.6c0.3,0.6,0.3,1.6,0.1,2.7
		c-3.6,0.2-10,0-10.3,0.8c0.7-3.8-3.9-4,0.5-6.7c-5.1-0.7-4.5,4.1-3.2,7.8c-1-1.2-1.6-3.2-1.8-4.8c-0.1,1.8,0.3,3.6,1.1,5.3
		c-0.5-1-1.1-2-1.6-3c0.7,7.2,6.1,4.1,10.9,4.7c-3.3,0.5-8.1,2-10.6-1.1c0.6,1.4,1.7,2.3,3.1,2.7c-2.5-0.2-3.1-2.3-4.5-4
		c1.8,6.2,10.9,5.6,15.9,5c-3,0.5-6.1,0.5-9.1,1c1.5,0.3,6.1,0.2,6.1,0.5l0.5,0.1c22.4,0.9-1.3-53.1-36.3-31.7
		c-25.6,15.7-2.7,49.2,19.9,53.5c18.1,3.4,35.6-4,44.6-20C-8.7,431-27.6,420.5-48.9,411.6z M-44.6,471.3c12.9-6,22.9-25.6,18.1-39.1
		c-5-13.8-17.1-13.2-28.5-17.5c-2.7-1-5.6-2.7-8.6-4.7c15.6,5.6,35.4,4.7,39.7,25C-21.1,448.2-31.8,466.6-44.6,471.3z"/>
</g>
<path class="st0" d="M-148.3,465.6c2.3-12.4-4.7-25.7,3.1-36.9c-1.9-0.8-1.3-1.7-2.3-3.3c3,3.6,5.5,8.8,12.2,3.9
	c-3,0.5-5.8-0.2-8.7-1c6.4-0.1,12.2,0.3,18.7-1c-4.3,0.7-18.5,2.2-22.3-2.5c-0.9,1.4-4.6,5.3-6,7.8c4.3-18.8,25.6,1.1,37.5-11
	c-11.9,9-24.3-3.8-33.2,1.1c-5.7,2.5-13.1,43.9-3.3,48.2c0.2-1.5-0.5-4.1,0.1-5.1c1.5,1.7,1.8,2.1,3,2.6c-0.3-4-0.1-2.2,1.1-2.7"/>
<path class="st0" d="M-113.1,480.3c-0.5-0.5-3.2-2.9-3.3-3.2c1.9,0,2.7-0.1,3.7-0.6c-2.9-2.4-0.9-1-0.8-2.3l-0.1-0.3
	c-9-14.7-14-22.2-9.1-30.8c0.1-0.2,0.2-0.6,0.4-0.9c0.9,0.7,1.8,0.5,3.1-2.4c-1.3,1-2.1,1.6-2.7,1.7c-0.3-0.2,0.3-0.2-0.9-0.8
	c2.7-1.7,5.6-3.7,8.4-5.2c-0.2,0.1,1-1,1.7-1.7c-3.5,3-8.9,3.8-12,6c-3.1,2.2-5.8,6.6-6.3,11.3
	C-129.3,463.5-120.7,484.2-113.1,480.3z"/>
<path class="st0" d="M-107.8,424.7c-5.8,9.9-14.8,7.4-20.5,14.8c-1.8,2.2-2.5,5.8-2.6,10c0.4-4.3,2.3-7.8,5-10.9
	C-115,433.1-110.4,431.7-107.8,424.7z"/>
<path class="st0" d="M-126.3,363c5.3-10.2,3.8-21.3,14.1-28.6c11.4-8.1,17.4,0.2,28-4.1c-2.9-0.2-5.8-1.1-8.7-1.6
	c6-0.7,13.1,0.9,18,4.4c-8.2-6.3-25.5-8.1-35.9-6.2c15.7-6.1,34.6-1.3,44.6,14.5c-18-28.5-46.3-20.9-58.4-4.8
	c-4.3,5.7-9.4,16.3-7.7,31.4c0.4-1.1,0.3-2.4,0.9-3.4c1,2.8-0.4,0,1.3,1.3c0-1.3-0.1-2.5-0.3-3.8c0.9,2.5,0.9,2.9,1.9,3.9
	c0.2-1.3,0.5-2.6,0.9-3.9c0.5,5.1,0.5,0.9,1.1,1.1"/>
<path class="st0" d="M-117.8,361.9c-8.3-5.5-16.3,10.2-14.6,11.3c0,0,1-0.1,2.1-0.1c0.3-0.5,0.6-1.1,1-1.5c-0.1,0.5-0.1,1-0.2,1.3
	c0.1-0.1,0.3,0,0.6,0.4c0.1,0,0.3,0,0.4,0.1c0.6-1.4,0.9-4.9,2-5.9c-1.1,4.2-1.2,4.5-0.4,6.2c0.9-2.1,2.1-4.1,3.6-5.9
	c-3.6,7.1-0.2,2,0.4,1.8l0.2-0.1c1.7-1.9,4.8,0.4,2.7,1.2c-0.4,10.6-9.7,43.9-20.2,36.5c-1.4-2-0.8-7.9,0-9.5
	c4.1-14,7.1-27.2,1-43.3c-0.2-0.3-1-2-1.2-2.3c-4.6-7.2-10.3-13.3-5.1-23.7c-7.3,13.8,2.4,17.5,4.5,26.3c3.2,13.8,3.8,22.8-0.9,37.6
	c2.3-13.4,2.9-22.9-0.3-35.7c-1-3.9-6.8-8.4-7.2-11c-3.6-16.2,5.7-26.7,16.9-32.9c-21.3,9.9-22,26.5-15,38.3c1.4,1.6,4,5.5,4.7,8
	c4.1,15.3-4.2,28.5-1.9,43.6c0.6,4,1.3,8.1,3.1,9.3C-124.4,421.8-108.9,370.5-117.8,361.9z"/>
</svg>
