<?xml version="1.0" encoding="utf-8"?>
<!-- Generator: Adobe Illustrator 19.0.0, SVG Export Plug-In . SVG Version: 6.00 Build 0)  -->
<svg version="1.1" id="Isolation_Mode" xmlns="http://www.w3.org/2000/svg" xmlns:xlink="http://www.w3.org/1999/xlink" x="0px"
	 y="0px" width="206.1px" height="211.2px" viewBox="-202 291.8 206.1 211.2"
	 style="enable-background:new -202 291.8 206.1 211.2;" xml:space="preserve">
<style type="text/css">
	.st0{fill:#202020;}
</style>
<g>
	<g>
		<path class="st0" d="M-102.3,498.5c-0.3-0.1,1.8-1.8,1.8-2c0,0.2-1.5-0.1-1.9-0.1c1.5,0.3-1.8,2-2.1,2.2c1.5-1.7,2-2.2-0.8-2.2
			c4.6,0.4-1,1.6-0.4,3.8c0.4,1.6,2.4-0.1,3-0.4c-0.1,0.1,1.2-0.9,1.2-0.9"/>
	</g>
	<g>
		<path class="st0" d="M-104.7,500.6C-104.7,500.6-104.8,500.6-104.7,500.6"/>
	</g>
</g>
<g>
	<g>
		<path class="st0" d="M-93.3,497.2c-0.2,0.1-0.5,0.2-0.7,0.3c-0.4,0,1.5-2.1,1.5-2.2c0.1,0.2-1.5,0-1.9,0c1.4,0.3-1.5,2.2-1.8,2.6
			c1-2,1.9-2.5-1.1-2.6c4.7,0.5-1.4,2.3,0.4,4.9c1.1,1.6,3-1.5,3.4-1.9c-0.1,0-0.2,0.1-0.3,0"/>
	</g>
	<g>
		<path class="st0" d="M-95.6,500.4c-0.1,0-0.1,0-0.1-0.1"/>
	</g>
</g>
<g>
	<path class="st0" d="M-79.8,489.3c-2.1-1.9-5.3-2.5-7.9-1.7c-0.5,0.1-1,0.3-1.4,0.6c-0.4-0.4-0.9-0.8-1.5-1.1
		c-3.7-1.8-8.6-1.4-11.5,1.1c-2.4-0.7-5.3-0.1-7.1,1.8c1.8-1.1,4.4-1.7,6.7-1.3c-0.1,0.1-0.1,0.1-0.2,0.2c-3.6-0.4-8.3,2-10.6,5
		c2.3-2.8,6.9-4.8,10.2-4.4c-0.2,0.3-0.4,0.6-0.6,1c-3,0.1-6.9,2.5-8.4,3.9c-1.4,2.1-1.2,5.2,4.1,6.3c-1.9-0.1-5.6-0.6-5.3-3.5
		c0.3-3,4.7-5.1,7.1-5.7c0.9-0.2,1.6-0.3,2.2-0.2c-0.2,0.5-0.3,1.1-0.4,1.7c0.6-0.1,1.2-0.1,1.8-0.1c0,0,0.3-0.7,0.4-0.9
		c0.2,0.1,1.2,0.6,1.4,0.9c0-0.1,0.8-1.1,0.9-1.3c0.1,0.2,0.2,0.5,0.3,0.8c0.6-0.1,1.2,0,1.8,0.1l0,0c-0.2-0.7-0.5-1.3-0.8-1.8
		c1.8-0.9,4.4-1,6.2-0.2c-0.3,0.3-0.3,0.4,0,1.1c0.6,1.5,1.5,2.1,2.5,1.6c0.6,0.4,0.2,0.3,1.4-0.5c1.1-0.8,2.4-1.6,3.8-1.7
		c2.7-0.1,2.9,2.4,1.1,3.9c-0.4,0.4-2,1-2.2,1c0,0,1.6-1.9,1.6-2.2c0,0.2-1.4,0.2-1.9,0.3c1.7-0.2-1.6,2.2-1.8,2.3
		c1.5-1.7,1.5-2.3-0.9-1.2c2.5-1,1.8-0.2,0.6,1.2c-0.5,0.6-0.8,1-0.8,1.3c-0.6,0.4-1,0.9-1.3,1.5c0.8,0,1.6-0.3,2.4-0.4
		c-0.3,0.3-0.6,0.5-0.9,0.7c0.4,0,0.6-0.1,0.7-0.1c-0.1,0.1-0.2,0.2-0.3,0.4c0.8-0.1,1.6-1.4,2.3-1.3c-0.6,0.6-2.3,1.4-1,1.4
		c-0.3,0.2-0.6,0.4-0.8,0.6c0.9-0.2,2.1-0.4,2.9-0.9c-0.4,0.3-1.1,0.6-1.4,1c0.5,0,1.1-0.2,1.2-0.1l-0.2,0.2
		C-80.7,499.4-74.9,493.9-79.8,489.3z M-100.9,491.8c-0.2-0.4-0.5-0.7-0.8-0.9c0.2-0.3,0.4-0.5,0.6-0.7c0.3,0.2,0.6,0.5,0.8,0.8
		C-100.5,491.3-100.7,491.5-100.9,491.8z M-91.7,489.8c-2-1.2-5.1-0.9-7.3,0.3c-0.3-0.3-0.5-0.5-0.8-0.8c0.7-0.4,1.4-0.7,2.2-0.8
		C-92.2,488.1-91.6,489.8-91.7,489.8z"/>
</g>
<g>
	<g>
		<path class="st0" d="M-158.5,498.6c-0.3,0.1-0.5,0.1-0.8,0s1.9-1.6,2-1.8c0,0.2-1.5-0.2-1.9-0.3c1.5,0.4-2,1.8-2.3,2
			c1.6-1.6,2.2-2-0.6-2.3c4.5,0.8-1.1,1.5-0.7,3.8c0.3,1.6,4.3-0.9,4.3-0.9"/>
	</g>
	<g>
		<path class="st0" d="M-161.8,500.5C-161.8,500.5-161.9,500.5-161.8,500.5"/>
	</g>
</g>
<g>
	<g>
		<path class="st0" d="M-150.2,498.1c-0.2,0.1-0.5,0.2-0.7,0.2c-0.4,0,1.7-2,1.7-2.1c0.1,0.2-1.5-0.1-1.9-0.2c1.4,0.4-1.7,2.1-2,2.4
			c1.2-1.9,2.1-2.3-0.9-2.7c4.6,0.9-1.6,2.2,0,4.9c1,1.7,4-2,3.9-2"/>
	</g>
	<g>
		<path class="st0" d="M-152.7,501.1C-152.8,501.1-152.8,501.1-152.7,501.1"/>
	</g>
</g>
<g>
	<path class="st0" d="M-136,491.4c-1.9-2.1-5.1-2.9-7.7-2.4c-0.5,0.1-1,0.3-1.5,0.4c-0.4-0.5-0.8-0.9-1.4-1.2
		c-3.5-2.1-8.4-2.2-11.5,0.2c-2.4-0.9-5.3-0.6-7.2,1.1c1.9-0.9,4.6-1.3,6.7-0.7c-0.1,0.1-0.1,0.1-0.2,0.2c-3.5-0.7-8.5,1.3-11,4.1
		c2.5-2.6,7.3-4.2,10.5-3.5c-0.2,0.3-0.5,0.6-0.7,0.9c-3-0.2-7.5,1.9-8.7,3.1c-1.6,1.4-2.7,5.3,4.5,5.6c-2.4-0.1-5.9,0.6-5.9-2.9
		c0.3-3,5.1-4.7,7.6-5.1c0.9-0.1,1.6-0.1,2.2,0c-0.2,0.5-0.4,1.1-0.6,1.7c0.6,0,1.2,0,1.8,0c0,0,0.4-0.7,0.5-0.9
		c0.2,0.1,1.2,0.7,1.3,1.1c0-0.1,0.9-1,1-1.2c0.1,0.3,0.2,0.5,0.2,0.9c0.6,0,1.2,0.1,1.8,0.2l0,0c-0.1-0.7-0.4-1.3-0.7-1.9
		c1.9-0.7,4.5-0.6,6.2,0.3c-0.4,0.3-0.3,0.4-0.1,1.1c0.5,1.5,1.3,2.2,2.3,1.8c0.6,0.4,0.2,0.3,1.5-0.4c1.2-0.7,2.5-1.4,3.9-1.4
		c2.7,0.1,2.7,2.6,0.8,4c-0.5,0.3-2.1,0.8-2.3,0.8c0,0,1.8-1.8,1.8-2.1c0,0.2-1.4,0.1-1.9,0.1c1.7-0.1-1.8,2.1-2,2.1
		c1.6-1.6,1.7-2.2-0.8-1.3c2.6-0.8,1.8,0,0.5,1.2c-0.6,0.6-0.8,1-0.9,1.2c-0.6,0.3-1.1,0.8-1.4,1.4c0.8,0.1,1.6-0.2,2.4-0.2
		c-0.3,0.3-0.6,0.4-1,0.6c0.4,0,0.6,0,0.7-0.1c-0.1,0.1-0.2,0.2-0.3,0.4c0.8,0,1.7-1.3,2.4-1.1c-0.6,0.5-2.4,1.2-1.1,1.3
		c-0.3,0.2-0.6,0.3-0.8,0.5c0.9-0.1,2.1-0.2,3-0.6c-0.4,0.3-1.1,0.5-1.5,0.9c0.5,0,1.1-0.1,1.2,0l-0.2,0.2
		C-137.8,501.4-131.5,496.4-136,491.4z M-157.3,492.1c-0.2-0.4-0.4-0.7-0.7-1c0.2-0.2,0.4-0.5,0.7-0.7c0.3,0.2,0.5,0.5,0.7,0.9
		C-156.8,491.6-157,491.8-157.3,492.1z M-147.9,490.9c-1.9-1.3-5-1.4-7.3-0.3c-0.2-0.3-0.5-0.6-0.8-0.8c0.7-0.3,1.5-0.6,2.3-0.6
		C-148.3,489.2-147.8,490.8-147.9,490.9z"/>
</g>
<g>
	<g>
		<path class="st0" d="M3.5,332.8c-1.1-20.1-39-40.6-48.2-40.9c-8.3-0.7-17,13.9-16.8,14.3c0.2,0.6,2.2,1.4,2.8,1.8
			c0.8,0.5-3.3,6.2-1.4,0.8c-0.2,0.6-1.9,1.7-2.5,2c0.4-0.8,2.3-2.4,1.8-3.2c-0.2,1.3-3.5,0.2-4.9,3.4c-0.3,0.7,1.2,6.4,1.2,6.4
			c2.9,7.2,10.7,5.3,15,0.7c4.9-5.2,2.5-10.9,0.9-14.7c4.5-8.2,41.6,11.3,44,29.2c0-0.1,0-0.1,0-0.2c0.6,7.6-3.4,15.2-8.3,20.7
			c-3.5,3.9-8.7,8.5-14.3,8.8c-3-0.3-6.1-0.5-9.1-1.3c-6.6-1.8-11.6-6.2-18.8-5.5c-8.9,0.8-18.8,5.7-22.3,14.3
			c6.3-10.7,22.1-17.2,33.4-10.1c-7.7-3.9-15.1-2.1-22.6,1.4c-9.1,4.3-11,14.8-18.7,20.6c-0.3,0.1-1.4,0.6-1.6,0.7
			c-1.4,0.5-2.8,0.7-4.3,0.7c-0.1,0-0.1,0-0.2,0c0,0-0.1,0.1-0.1,0.1c2.2,0.1,4.4-0.2,6.5-1.3c6.2-4.5,8.4-12.5,14.4-17.4
			c3.2-2.6,7.6-4.1,11.6-5.1s8-1,11.8,0.7c3.5,1.6,6.5,3.9,10.2,5.1c2.9,1,7.3,2,9.8,2c10.2-0.3,18.9-9,24.3-17
			c-3.8,6.9-9.6,13.5-16.8,17c-5.1,2.5-9.9,2-15.3,0.8c-3.8-0.9-7.2-2.4-10.6-4.4c-1.9-1.1-3.8-2.1-6-2.5c-5.2-0.8-11.6,1.3-16,4
			c-3.6,2.2-5.9,5.8-8.1,9.2c-2.3,3.5-5.2,6.9-8.2,9.2c-4.5,2.4-9.3,1.8-14.1,0.6c-0.4,0-0.8,0.1-1.3,0.1c5.4,1.4,10.8,2.6,15.7,0
			c3.6-2.5,6.2-5.7,8.6-9.3c2.4-3.5,4.7-7.2,8.6-9.2c4.4-2.4,11-4.6,15.9-3.1c4.1,1.2,7.6,4.2,11.7,5.7c3.9,1.4,8.4,2.3,12.6,2.3
			c8.5-0.1,16.3-7.4,21.1-13.7C0,349.8,3.9,341.4,3.5,332.8z"/>
	</g>
	<g>
		<path class="st0" d="M-58.4,312.5c0,0.3,1,2.8,1,2.9"/>
	</g>
</g>
<g>
	<g>
		<path class="st0" d="M-10.3,440.5c-0.7,0.2-1.1,1-1.8,1.1c0.1-0.3,0.1-0.6,0.2-0.9c-0.4,0.2-0.8,0.4-1.2,0.6
			c-0.2,0.5-0.4,0.9-0.6,0.9c0.1-0.2,0.1-0.5,0.2-0.7c-7.2,1.8-9-4.3-9.3-5.1c-3-0.4-4.3-2.3-4.8-3.7c-1.2-3.2-0.4-6.1-0.7-9.3
			c-0.2-2.1-0.8-7.1-2.8-8.3c0.9,1.7,0.7,3.7,0.4,5.5c-1.4-3.8-2-7.9-3.8-11.6c3.1,7.6,1.9,15.2,0.4,23.1c-1.7-8.9,2-22.7-6.6-29
			c9.1,9.3,1.9,22.8,6.3,33.7c2,5,6.7,9.3,12.1,10.4C-18.5,448-8,446.7-10.3,440.5z"/>
	</g>
</g>
<g>
	<g>
		<path class="st0" d="M2.8,423.8c0.5-5.3,2.2-11.4,0.7-16.6c0.2,6-1.3,11.8-2.4,17.6c0.4-12.9,4.5-27.9-4-39.3
			c9.5,13,2.5,29.1,1.6,43.3c-0.1,2.1,0.2,4.1-0.1,6.3c-1.2,6.9-7.3,11.3-11.2,16.6c3.3-6.3,9.7-11.7,9.3-19.4
			c-0.4-8,1.9-15.6,2.7-23.5c0.8-7.2,0.6-15.3-3.6-21.6c-4-6-11.3-8.1-17.3-11.3c4.7,3,10.6,4.6,14.6,8.7c3.8,3.8,5.5,9.2,5.8,14.5
			c0.4,6-0.6,12.1-1.8,18c-0.9,4.7-2.5,10.3-1.9,14.8c0.8,5.6-3.5,10.5-6.5,14.7c-3.5,5-5.5,9.8-5.7,15.9c-0.2,4,0.2,8.1,0.5,12.1
			c0.2,2.9,1.1,7.3-0.4,10c-1.9,3.4-6.9,4.7-10.4,5.1c0,0-1.6-9.5-2.5-11.1c-0.8,1.4-1.8,2.6-3.5,3.2c0.6,1,1.2,2,1.1,3
			c-0.6-0.9-1.1-1.9-1.7-2.8c-0.6,0.2-1.2,0.3-1.7,0.3c0.2,1.5,0.4,3.1,0.8,4.4c-0.5-1.1-0.7-2.6-1.6-3.5c-0.2,1.1,0.1,2.2-0.1,2.5
			h0.1c0,2.3,0.7,4.9,1.3,7.1c0.5,1.9,1.3,3.6,2.9,4.7c3.6,2.3,10.2,1.7,13.8-0.3s7.2-5.3,8.7-9.2c1.6-4.1,1.4-9.2,1.3-13.5
			c-0.2-8-1.7-15.8,3.2-22.6c4.5-6.2,9.4-12,8.5-20.1C2.9,429.1,2.6,426.6,2.8,423.8z"/>
	</g>
</g>
<g>
	<g>
		<path class="st0" d="M-66.8,460.7c13.4-1.4,29.3-14.9,29.1-29.3c-2,13.4-13.4,24.6-26.5,27.3c-2.7,0.5-7.2-0.2-12.1-1.1
			c-1.1,0.3-2.3,0.7-3.3,1.3c-1.6,1.2-3.3,2.3-5.2,3.2c12.8,2.7,39.7,10.3,41.7-9.9c-1.8,2.8-4.1,4.9-7,6.4
			c4.5-4.8,8.7-10,11.3-16.1C-44.1,452.9-54.3,462.5-66.8,460.7z"/>
	</g>
</g>
<g>
	<g>
		<path class="st0" d="M-134.5,363.2L-134.5,363.2C-134.5,363.3-134.5,363.3-134.5,363.2z"/>
		<path class="st0" d="M-51.7,443.9C-51.7,444.3-51.5,445.2-51.7,443.9c-2.8-12.7-0.6-23.5-7.6-35.6c-2.2-3.8-9.6-9.8-10.4-13.8
			c-1.3-6.4-1.9-7.2,5.3-10.2c-8.7-7.5-15-8.9-23.2-16.1c-3.5,0-9.6-10.4-16.1-10.6c-4-0.1-9.2,3-13.1,4.3
			c7.2-1.4,13.5-1.7,19.6,2.7c3.9,2.7,6.1,7,10,9.8c4.6,3.3,10.4,4.5,15,7.8c-7.5-0.6-19.1-8.9-23.2-12.5c-4.2-3.7-8.1-7.8-14.2-5.6
			c4.9,0,7.9,1.7,11.7,4.3c3.1,2.1,5,6.1,8.2,8.4c4.5,3.2,10.2,4.3,15,6.9c-9.3,6.6-2,13.8,2.6,20.2c5.9,8.1,11.2,16.5,12.3,26.8
			c0.8,7.6,0,15-2.3,21.4c-1.2,3.4-1.8,9-3.2,12.1c-3.9,8.1-1.8,2.4-11.1,6.4c-0.2,0.8-3.7,2.8-4.8,3.1c-2.3,1.5-4.5,3-7,3.8
			c0.3,0.3,0.8,0.9-1.9,1.2c3.5,1.3,6.1-1.9,9.3-2.4c-2.1,1.5-4.4,2.7-6.9,3.5c4-0.2,3.6,0.1-1.2,0.9c3.8,0.5,8.2-0.9,11.5-2.5
			c-2,0.9-3.9,1.9-5.7,3c6-0.5,20.2-2.7,23.7-5.8c4-3.5,2.5-8.2,3.5-12.6c1-4.5,4.2-8.7,4.4-13.4C-51.9,451.8-52,450-51.7,443.9z
			 M-76.4,387.5c1.1-1.5,2.8-3.3,3.5-2.6C-74.3,385.5-75.4,386.3-76.4,387.5z"/>
		<path class="st0" d="M-76.9,388.3c-0.2,0.3-0.3,0.5-0.5,0.8C-77.4,389-77.2,388.7-76.9,388.3z"/>
		<path class="st0" d="M-65.2,468.7C-65.2,468.7-65.1,468.7-65.2,468.7C-65.1,468.7-65.1,468.7-65.2,468.7L-65.2,468.7z"/>
		<path class="st0" d="M-65.1,468.7C-65.1,468.6-65.1,468.6-65.1,468.7l0.1-0.1C-65,468.6-65.1,468.6-65.1,468.7z"/>
		<path class="st0" d="M-138.2,361.1c-0.5-1.1-1.6-2.1-2.3-2.9c-0.3-0.4-2.2-2.7-2.6-2.7c-0.3,0-0.8,0.7-1.1,0.9
			c1.9,1.6,3.8,3.3,5.7,4.8c0.2,0.4,0.3,0.7,0.3,1.1c-0.1,3.3-5.3,1.9-7.1,1.6c2,0.4,7.2,2,7.4-1.6c0-0.3,0-0.5-0.1-0.8
			c0.4,0.3,0.9,0.7,1.3,1c1.1,0.7,1.7,0.9,2.2,0.8C-134.9,362.9-138.1,361.1-138.2,361.1z M-144,356.3c0.8-1.2,2.6,1.4,3.2,2.1
			c0.6,0.6,1.4,1.3,1.9,2.1C-140.6,359.1-142.3,357.7-144,356.3z"/>
		<path class="st0" d="M-133.8,354.5c-0.3,1,0.5,3.2,0.6,4.3c0.1,1.3-1.1,3.2-1.3,4.4c0.7-0.3,1.9-2.4,1.8-4.1
			c-0.1-1.2-1.2-4.4-0.2-5.3C-133.5,354-133.6,353.9-133.8,354.5z"/>
		<path class="st0" d="M-129.6,353.7c0.2,0.2,2.3,4.9,2.5,5.2c-0.4-0.9-2.2-7.3-2.6-7.5c-0.7-0.5-5.7,0.6-6.2,1.3
			c-0.1,0.1,0.4,7.5,0.3,7.7c0.2-2.4,0.7-6.1,0.8-6.2C-134.5,353.9-130.5,352.4-129.6,353.7z"/>
		<path class="st0" d="M-119.2,362.7c-0.4,0.1-0.8,0.3-1.2,0.3c-0.2,0.1-0.4,0.1-0.6,0.2c-1.7,0.7-3.5,1.2-5,0.6
			c-2.2-0.9-2.2-4.4-3.1-6.3c-0.4-0.7-1.3-3.8-1.9-4.1c-0.1-0.1-0.6,0.1-0.9,0.2h0.1c1.4,0.2,1.6,5.7,2.5,7.2
			c1.3,2.1,2.8,3.9,5.4,3.7c2.3-0.2,6.8-2.4,6.8-2.5C-117.9,362.3-118.6,362.5-119.2,362.7z"/>
	</g>
	<g>
		<path class="st0" d="M-80.4,473.4l3.7-1.1c-0.7,0.2-1.6,0.4-2.6,0.7C-79.7,473.1-80,473.3-80.4,473.4z"/>
	</g>
</g>
<g>
	<g>
		<path class="st0" d="M-154.2,366.9c0.1-0.1-2.2,2.2-3.6,2.4c0.9-1,3-2.6,2.7-4.2c-0.3,0.3-0.6,0.6-1,0.8c0.2-0.4,0.3-0.8,0.5-1.2
			c-0.4,0.1-3.6,1.7-4.7,2.4c0.9-0.6,1.5-1.6,2.8-2.4c-1,0.2-2.4,0.6-2.4,0.6c-2,0.6-3.6,1.8-5.5,2.6c-1.8,0.7-3.3,1.1-4.5,2.7
			c-1,1.4-1.2,3.1-2.1,4.6c-1.5,2.4-3.4,4.5-4.8,6.9c-2.2,3.8-4.8,7.4-7.6,10.8c-2.8,3.3-5.6,6.5-7.6,10.3
			c-1.8,3.4-7.3,20.9-6.9,26.4c0.2,3.4,2,6.8,1.8,10.2c-0.5,5.8-5.3,14.8-4.8,20.6c0.5,5.4,4.2,12.2,9.9,13.5
			c-8.8-3.5-10.2-14.9-6.9-22.6c-1.7,6.4-1.5,12.5,2.8,17.7c0.9,1.2,2,2.2,3.2,3c3.3,2.1,7.2,1.9,10.6,3.6c-0.2,0.1-0.2,2.3,0.1,3
			c1.2,2.7,4.6,2.3,6.8,3.2c-2.2-1-5.4-0.6-6.7-3.3c-0.5-1-0.2-3,0-3c-3.1-2.2-7.5-1.8-10.8-4.1c-2.3-1.7-4.1-4.6-5.1-7.3
			c-2.3-6.6,1-12.8,4-18.5c0.9-2.2,1.8-4.3,1.9-6.7c0.1-2.5-0.8-5-1.1-7.5c-0.3-2.6,0.1-5.1,1.1-7.6c-1.5,6.4,2.8,11.9,1.4,18.2
			c-0.8,3.8-2.9,7.1-4.3,10.7c-2,5-1.9,9.9,1.3,14.4c1.4,2,3.2,3.2,5.5,4c2.2,0.8,5.5,1,7.3,2.7c0.6,1.4,0,3,0.9,4.2
			c0.7,1,2.1,1.1,3.2,1.4c1.4,0.3,2.5,0.8,3.7,1.5c2.9,1.9,5,2.2,8.5,2c1.5-0.1,3.4,0.6,4.8,0.4c1.1-0.1,1,0,1.3-1.8
			c-0.4,1.6-0.1,1.4-1.1,1.6c-0.5,0.1-4-0.7-4.9-0.6c-3.3,0.2-5.4,0-8.2-1.9c-1.6-1.1-3.4-1.3-5.3-2c-2.8-1.1-1.3-2.9-2.3-5.1
			c-1.8-1.9-5-2.1-7.5-3c-2.7-1-4.5-2.5-5.9-4.9c-3.2-5.6-1-11,1.7-16.3c1.4-2.8,2.7-5.6,3.1-8.7c0.5-4.6-1.9-8.7-2-13.2v0.1
			c-0.2-4.8,3.7-20.2,10.5-27.6c3.1-3.8,15.1-14,18.3-24.5c-0.2,0.3,12-4.8,14.2-9.5C-149.9,366.6-152.1,367.1-154.2,366.9z"/>
	</g>
</g>
<g>
	<g>
		<path class="st0" d="M-114.5,465.7c-1.6,2-5.3,10-11.9,9.1c-0.5-0.1-8.2-7.6-10.5-8.2c1.5,1.1,2.7,2.6,3.9,3.9
			c-3.2-2.3-6.1-5.1-8.8-8.1c2.5,3,5.4,5.8,8.1,8.6c2,2.1,4.8,6.3,7.9,7c-4.3-0.2-8.7-6.1-11.4-8.9c-3.4-3.6-7.3-7.4-8.8-12.3
			c0.6,4.8,5.4,9.2,8.5,12.6c2.9,3.3,7.1,9,11.8,9.4c5,0.4,9.4-4.2,12.5-7.5c1.9-2,8.2-8.7,6.2-11.9c-0.3,0.4-4,1.8-4,1.8"/>
	</g>
</g>
<g>
	<g>
		<path class="st0" d="M-150,395.8c-2.4-0.1,6.1,15.2,6.4,17.5c0.4,3,1,6.3-3.4,5.6c-2.2-0.3-11.8-5.6-12.3-5.4
			c-0.6,0.2,0,1.8,0.4,2.2c-0.2-0.3-0.3-0.5-0.2-0.6c0,0,10.4,5.2,11.6,5.5c4.8,1.4,5.7-1.7,5.4-5.9c-0.2-2.3-4.8-12.1-4.1-12.6
			c0.3,0,6.7,5.7,7.9,7.5C-139.7,406.3-148.8,395.9-150,395.8z"/>
		<path class="st0" d="M-169,412.5c4.7,3.8,16.8,11.4,17.4,10.5c0.5-0.8-5.2-5.7-7-7.2c1.2,1.2,4.7,5,5.8,6.2
			C-152.9,422-164.6,414.7-169,412.5z"/>
		<path class="st0" d="M-164.1,425c-0.2-0.2-1.3-0.7-1.5-0.8l-0.3,0.1c0.2,0.1,1,0.7,1.3,0.8c-0.3,0.1-1.4,0.4-1.6,0.5v0.1
			c0.3-0.1,1.4-0.4,1.6-0.5c2.7,1.6,7,4.1,3.7,5.6c-0.3,0.1-12.4,2.1-13.2,3.6c0.5,0,13.6-2.8,14-2.9c4.4-1-0.4-5.1-3.9-6.4
			c2.8-1.2-5.2-13.5-5.6-12.5c0,0.1-1.2,1.1-1.1,1.4C-170.7,414-161.9,424-164.1,425z"/>
		<path class="st0" d="M-107.2,393.8c0,0,0-0.1,0.1-0.1c-2.3,2-4.2,5.7-6.3,8.2c-2,2.5-4.2,5.6-7,7.1c-2.8,1.6-4-1.3-4.5-4.9
			c0,0.1,0,0.1,0,0.2c0.5,3.9,1.8,7.1,5.3,5.1c4.5-2.7,12.3-14.4,12.9-15.2C-106.9,394-107,393.9-107.2,393.8z"/>
		<path class="st0" d="M-108.5,396.7c0,0.1-0.1,0.1-0.1,0.2c-1.9,4.1-4.9,10.7-5.9,15.9c0.3-1,0.6-1.9,0.8-2.6
			C-112.3,405.5-110.4,401.1-108.5,396.7z"/>
		<path class="st0" d="M-129.1,369.7c-4.2,0.2-2.9,24.6-3.6,26.3c0.1,0,0.2,0.1,0.2,0.2c2.7-3.4,2.5-13.5,2.8-17.3
			c0.2-2.4,1.5-2,1.6-0.4c0.4,3.2,0.9,13.1,2.5,16c0,0,1.3,1.2,1.3,1.1C-125.2,394.3-124.9,369.5-129.1,369.7z"/>
		<path class="st0" d="M-132.6,396.7v-0.4c-0.2,0.1-0.7,1.2-0.8,1.1c-0.3,1-0.2,2.2-0.2,3.3c-0.2,1.9-0.2,10.1-3.3,9.7
			c-0.3,0-0.7-0.2-1-0.5c0.6,0.5,1.1,0.8,1.5,0.8c3.1-0.1,3.1-8.8,3.2-10.8c0.1-1,0.2-1.8,0.4-2.4
			C-132.9,397.3-132.6,396.7-132.6,396.7z"/>
		<path class="st0" d="M-96,433.2c1-0.1,2.3-1.2,3.4-1.6c2.4-1,4.9-1.8,7.4-2.5c1.9-0.6,3.9-1.2,5.9-1.8c1.6-0.1,3.3-0.2,4.9-0.2
			c-0.1-0.5-0.3-1.7-0.3-1.7s-0.1-0.8-0.2-1.1c-0.6,0.2-7.2,1-9.5,1.1c-2.7,0-5.8,0.2-8.4-0.7c-2.5-0.9-2.4-2.7-1.4-4.6
			c5-2.5,10-5,15-7.4c-0.2-0.3-0.7-2-1.1-2.2c-0.9-0.3-8.7,4.4-10.2,5.1c0.3-0.3,1.9-1.9,1.9-1.9c0.7-0.5,6.8-4.8,6.8-4.8
			c-0.1-0.1-1.7-2.1-1.8-2.3c-0.5,0.5-2.8,2.2-3.3,2.5c-4.9,2.5-9.9,4.9-15,7c-2.3,0.9-10.5,5.1-11.2,0.8c-0.6-3.5,1.9-8.6,3.1-11.6
			c1-2.6,2.1-5.3,3.2-7.9c1-2.3,1.9-2.6-0.2-3.8c-0.2-0.1-1.1-0.8-1.4-0.8c-0.5,0.1-1.5,2-1.8,2.4c-1.6,2.2-8.5,11.4-10.8,12.5
			c-1.6,0.8-1.6-0.3-2-2c-0.6-2.8-0.6-5.8-0.6-8.6c0-0.7-0.3-1.2-0.5-1.5c-0.1,0.1,0,0.6-0.1,0.6c0,3.8-0.2,7.5,0.9,11.1
			c1.4,4.4,5.7-0.9,7.3-2.7c1.4-1.6,2.7-3.2,3.9-4.8c1.3-1.7,2.5-4,4-5.4c0.5-0.4,0.6-1.3,1.3-0.5c0.5,0.6-0.1,1.3-0.5,2.1
			c-0.9,2.1-1.8,4.1-2.7,6.2c-1.7,4.1-3.6,8.4-4.2,12.7c-0.6,4.6,1.9,5.6,6,4.7c3.2-0.7,6.4-1.8,9.5-3.2c-3.9,1.8-8.8,4.4-13,3.9
			c-3.1-0.4-3.6-3.5-2.8-7.6c-0.8,2.8-1.3,6.3,1.2,7.7c4,2.3,11.2-1.8,14.8-3.4c1.1-0.5,2.1-1,3.2-1.4c-0.8,0.5-1.6,1-2.4,1.5
			c-1.3,0.8-9.2,4.8-7.4,6.9c1.4,1.6,6.7-1.7,8.8-2.8c-0.3,1.1-0.3,2.1,0.1,3.1c1.5,3,6.3,3.1,9.1,3.2c-3.4,0.9-7,2-9.4,3.9
			c-2.3,1.8-1.4,3.1,0.4,4c-0.3,0.2,20.5,5.8,21.5,4.8c0.3-0.3,1.4-6.2,1.8-6.4C-73.4,433.7-95.4,433.3-96,433.2z M-99.8,420.6
			c0.1,0,0.1-0.1,0.2-0.1c0.7-0.5,1.5-1,2.2-1.5c0,0.1,0,0.2,0.1,0.3c0,0,0,0,0.1,0.1C-98.1,419.8-98.9,420.2-99.8,420.6z"/>
	</g>
</g>
</svg>
