<?xml version="1.0" encoding="utf-8"?>
<!-- Generator: Adobe Illustrator 19.0.0, SVG Export Plug-In . SVG Version: 6.00 Build 0)  -->
<svg version="1.1" id="Isolation_Mode" xmlns="http://www.w3.org/2000/svg" xmlns:xlink="http://www.w3.org/1999/xlink" x="0px"
	 y="0px" width="206.1px" height="211.2px" viewBox="-202 291.8 206.1 211.2"
	 style="enable-background:new -202 291.8 206.1 211.2;" xml:space="preserve">
<g>
	<path d="M-178.7,425.8c3.5,5.4,12.6,11.5,19.3,10.8c3.2-0.3,9.4-2.7,8.4-6.9c-0.6,0.4-4.9,4.2-2.3,0.7c-0.7,0.6-1.4,1.2-1.4,1.2
		s0.2-0.7,0.6-1.4c-0.6,0.2-2.2,2.7-3.2,2.7c1.5-1.4,2.1-2.7,2-3.7c-1,0.8-2.2,1.3-3.5,1.5c3.3-2-5.3-2.9-7.9-4
		c-5.9-2.6-9.8-9.1-10.6-15c-5,5-8.7,8.8-8.6,16.8c0.2,11.3,14.6,27.7,27.3,23.9c-4.2-0.1-8.3-1.9-11.8-4.2c8,3.4,18.2,5.3,26.1,0.7
		c-12.3,6.6-35.5-0.3-35.9-17.9c2.3,10.5,10.7,14.8,18.9,16.9c6.4,1.7,23.9,1.2,21.4-10.9C-136.8,456.3-183.5,449.1-178.7,425.8z"/>
	<path d="M-100.4,352.8c-1.4-1.4-3-2.2-4.7-3c-15.5-7-33.7,5.6-37.4,7.6c-2.8,1.5-11.2,5.2-12.1,5.4c-3.3,0.6-6.7,0.6-10.1,0.4
		c-6.6-0.5-13.1-2.1-18.7-5.7c-3.5-2.3-6.6-4.9-8-12.2c-0.4-2.1-0.3-4.3,0.7-6.1c1.1-1.8,2.8-2.8,4.4-4.1c-1.9,0.8-3.8,1.9-5.1,3.6
		c-1.3,1.7-1.8,4.1-1.6,6.2c-0.5-2.6-0.3-5.3,1.4-7.5c1.6-2.1,4.4-3.3,6.9-3.7c4.9-0.8,11.4,0.4,13.6,5.4c-1.5-3.7-5.7-5.4-9.4-5.8
		c-4.5-0.5-9.9,0.7-12.6,4.7c-2.6,3.8-1.6,8.9-0.4,13c0.8,2.9,2.1,5.6,4.3,7.7c4.2,4.1,9.9,6.6,15.3,8.6c-5.5-1.3-11.2-4.1-15.6-7.7
		c-4.3-3.5-6.1-8.2-6.7-13.7c-0.5-5.3,1.2-9.9,6.2-12.2c4.9-2.3,11.4-2.5,16.2,0.3c2.3,1.4,3.8,2.9,4.6,5.5c2.6,9.5-7.3,15-12,15.1
		c6.2,1.1,12.6-5.5,13.1-10.5c0.3-3.1,0-5.5-1.7-7.8c-1.6-2.1-4-3.8-6.4-4.7c-5.5-1.8-12.8-1.2-17.4,2.6c-4.5,3.9-4.8,10.1-3.4,15.5
		c0.5,2,1.2,4.1,2.1,6c1.2,2.6,3.3,4.7,5.5,6.4c4.9,3.6,10.9,5.6,16.8,6.8c6.1,1.2,12.6,1.8,18.7,0.6c3-0.5,5.5-1.7,8.2-3.2
		c4.7-2.7,9.3-5.2,14.3-7.4c6.2-2.6,13.5-5.2,20.3-3.8c2.8,0.6,5.3,2.1,7.3,4.1c1.1,1,2.1,2.1,3.1,3.2
		C-99.5,363.7-100.4,352.8-100.4,352.8z"/>
	<path d="M-58.1,440.1c0.3,1.1,1.2,1.8,1.8,2.7c0.8,0.9,1.1,2,1.8,3c0.6,0.8,1.3,1.2,2.2,1.8c1.1,0.7,2,1.6,3,2.4
		c1.8,1.3,4.2,1.7,6.3,1.9c3.2,0.3,6.4,0.3,9.5,0.4c4.8,0.3,9.8-1,14-3.4c4-2.2,7.8-5.5,10.1-9.5c2.4-4.2,3.1-9.2,2.4-13.9
		c-0.4-2.3-0.8-4.6-1.6-6.9c-0.7-2.1-1.2-4.6-2.5-6.5c-0.8-1.1-1.4-2.4-2.1-3.6c-2.3-3.9-4.5-7.9-6.8-11.8
		c-0.3,2.7-1.3,11.9-1.5,13.8c-0.1,0.9-0.4,2-0.2,2.9c0.8-4.4,1.6-8.9,2.4-13.3c1.3,2.1,2.5,4.3,3.8,6.4c1.4,2.3,6.5,13.8,6.7,17.3
		c-1.1-4.6-7.5-17.8-8.6-20.3c-0.9,2.6-1.8,5.2-2.6,7.8c-1.5,4.5-3,8.8-6,12.6c4.8-5.4,6.6-12.8,8.9-19.5c1.2,2.7,2.4,5.4,3.6,8.2
		c3,7,4.9,15.1,1.5,22.3c-1.4,3-3.7,5.5-6.7,7c5.6-4.1,7.1-11.8,6.4-18.3c-0.6-4.8-2.5-9.1-4.5-13.5c-1.5,4.2-3,8.3-5.5,11.9
		c-1.6,2.3-3.5,4.6-6,6.1c-2.6,1.6-5.5,2.1-8.5,2.3c11,0.6,16.7-9.6,20.2-18.5c3.4,8.3,5.7,18.4-0.2,26.2c-3,3.9-7.6,6.9-12.4,7
		c-5.6,0.1-13.2-1-15.4-2c-2.3-1.1-4.4-2.8-6-4.9c-1-1.2-1.8-2.6-2.7-3.9c-0.8-1.1-1.7-2.2-3.1-2.6c0.1,1.2,0.6,2.4,0.8,3.5
		c-0.4-0.4-0.9-0.7-1.2-1.2c0.1,0.5,0.2,1,0.5,1.5c-0.3-0.3-0.6-0.6-1-0.7c0.1,0.7,0.8,1.4,1.3,1.9c0.3,0.3,1.3,0.8,1.3,1.3
		c-1-0.6-1.8-1.5-2.9-2.1c0.1,0.3,0.2,0.7,0.3,1c-0.4-0.3-0.7-1.1-1.2-1.2c0.3,0.8,0.7,1.5,1,2.3c0.3,0.7,0.6,1.5,1.1,2.1
		c-0.7-0.7-1.2-1.6-2.1-2c0.1,0.4,0.3,0.8,0.5,1.2c-0.5-0.2,0.3,0.7-0.2,0.7c0.1,0,0.1,0,0.2-0.1"/>
	<path d="M-87.9,315c-0.8-1.2-1.9-2.4-3.4-2.8c1,2.3,2.5,4.4,2.7,7c-0.3-0.6-3.4-7.7-7.7-8.9c-3.1-0.9-6.5-0.5-9.2,1.2
		c-5.9,3.8-8.5,13.3-3.2,18.7c1.6,1.6,3.4,2.9,7.7,3.6c0.5,0.1,0.1,15.8,0.3,21c0.3,10.4,0.1,20.7,0.5,31.1
		c0.2,5.4,0.6,10.7,0.7,16.1c0.1,5.3-0.2,10.9,1.1,16c-0.5-7.1-0.1-14.2,0.2-21.2c1,15.2,0.7,30.5,1.6,45.8
		c-0.7-21.4-0.2-42.8,0.6-64.2c0.2-6,0.5-12,1-18c0.5,14,0.7,28,0.5,42c-0.2,14.1-0.8,28.2-0.2,42.3c0.3,7.1,0.5,14.5,2.1,21.4
		c-3-20.6-1.6-41.7-1-62.4c0.3-10.3,0.6-20.6,0.4-30.9c-0.2-10.5-0.4-39.2-0.4-39.3c-0.1-0.3,0-0.5,0.3-0.5c4.3-1.4,5-3.2,6-4.5
		C-84.4,324.6-85.2,318.9-87.9,315C-88.2,314.5-86.7,316.6-87.9,315z M-103.5,324.3c-0.6-0.9-0.1-2.4,0.3-3.3c0.7-1.8,2.1-4.3,4-4.1
		c1.3,0.1,2.2,0.5,2.7,1.4c0.8,1.4-0.2,5.7-2.2,7.2c-0.5,0.4-0.9,0.6-1.5,0.4C-100.6,325.8-103,325-103.5,324.3
		C-103.5,324.2-103.2,324.7-103.5,324.3z"/>
	<path d="M-104.7,446.2c-0.9,0.7-1.7,1.6-2.3,2.5c-1.4,1.9-3.7,2.3-5,4.2c-1.7,2.3-4.4,3.3-6.4,5.3c-2.4,2.4-5.1,4.7-8.2,5.4
		l-2.9,0.7l1.8,2.1c1.3,1.5,2.5,3.1,4,4.5c2,2,4.6,3.6,7.3,4.4c2.7,0.8,5.5,1.1,8,1.1c2.6,0.1,5.1,0,7.5,0.1
		c1.2,0,13.7,0.9,17.1,0.6c3.4-0.3,6.9-0.9,10.2-2.2c1.5-0.6,3.6-1.4,5.8-2.5c2.2-1.1,4.3-2.6,6-4l8.5-6.2l-10.2-3.9
		c-1.7-0.5-3.3-1-4.6-1.1c1.5,0.6,2.9,1.2,4.4,1.8l8.8,3.5l-7.3,5.5c-3,2.2-6.6,4-10.1,5c3.4-1.4,6.6-3.5,9.5-5.8l5.6-4.3l-6.8-2.9
		c-3.2-1-6.5-2.7-9.6-4.6c-3.2-1.9-6.3-4-9.3-6.2c3,2.3,6.1,4.5,9.2,6.5c3.1,2,6.3,3.8,9.5,5l6,2.4l-5,3.6c-1.4,1-2.8,1.9-4.3,2.7
		c-1.5,0.8-3.1,1.5-4.6,2c-3.2,1.1-6.4,1.5-9.5,1.7c-3.1,0.2-6.2,0-9.2-0.3c-3-0.3-5.9-0.9-8.9-1.5c2.8,0.1,5.6,0.3,8.5,0.3
		c2.9,0.1,5.9,0,8.9-0.3c3-0.3,6.1-0.8,9.2-1.8c1.5-0.5,3-1.2,4.4-1.9c1.4-0.8,2.8-1.6,4.1-2.5l2-1.4l-2.4-1
		c-2.7-1.1-5.4-2.6-7.9-4.2c-2.5-1.6-22.2-16.7-22.9-17.2c-0.7-0.5-1.4-1.1-2-1.5c5,4.2,10,8.3,15.4,12.5c2.7,2.1,5.4,4.1,8.2,6.1
		c2.9,1.9,5.8,3.7,9,5.1l1,0.4l-0.9,0.6c-2.2,1.5-4.7,2.8-7.1,3.7c-2.5,0.9-5.1,1.4-7.6,1.8c-5.1,0.6-10.1,0.5-14.9,0.2
		c0,0-13-0.4-15.3-0.6c-2.3-0.2-4.4-0.6-6.1-1.3c-1.7-0.7,2.6-3.4,5-5.4c2.4-2,4.6-4.2,6.7-6.3c1.8-1.9,4.3-4.5,6.3-7
		c1-1.2,1.8-2.4,2.3-3.4c0.1-0.3,0.2-0.5,0.4-0.8c0.1-0.3,0.3-0.5,0.4-0.8c0.2-0.5,0.3-1,0.3-1.5c-0.7,0.4-1.5,1-2,1.6
		c-0.6,0.6-1.2,1.1-1.9,1.5c0.3-0.6,0.5-1.3,1-1.9c-0.5,0.4-1.2,0.8-1.5,1.4c0.3-0.5,0.5-1,0.5-1.4c-0.7,0.5-1.2,1.6-1.6,2.2
		c-0.2,0.4-0.9,2.1-1.4,2.3c0.5-1.3,1.3-2.9,1.6-4.1c-0.4,0.3-0.7,0.6-1,0.9c0.2-0.6,0.9-1.4,0.9-1.9c-0.8,0.8-1.4,1.6-2.3,2.4
		c-0.7,0.6-1.3,1.2-1.9,1.9c0.6-1,1.5-2.1,1.7-3c-0.5,0.2-0.8,0.7-1.1,1.1c0-0.1,0-0.2,0-0.2c-0.2,0.2-0.4,0.3-0.6,0.5
		c-0.1-0.1-0.2-0.1-0.2-0.2l0.1,0.1"/>
	<path d="M-159.6,361c-0.3,8.4,0.5,16.7,0.3,25.1c-0.2,7.2-1.3,22.1,0.3,29.3c-0.1-2.4-0.1-18.1,1-27.5c-0.3,12-1.7,24.3,0.8,36.2
		c-2-13-0.6-26.2-0.4-39.2c0.1-5.9,3.2-23.5-1.1-28.4c-0.1,3.5-0.7,0.4,0,4.3c-0.4-1.6-0.7-4.3-0.6,0.7
		C-160.1,356.5-159.4,361-159.6,361"/>
	<path d="M-159.1,357.2c-0.9,2.5-0.8,2.8-1.3,1.7c-0.2,0.8-0.6,1.7-0.9,2l0,0.1c-2.5,6.9-4.1,14-6.6,20.9c-2.4,6.6-6.4,13.9-6.8,21
		c0.5-2.2,1.2-4.4,2-6.5c-1.3,4.7-2.6,9.4-3.6,14.1c1.8-8.5,4.6-16.8,8.4-24.6c-3.7,10-8.8,21.2-9,32.1c0.9-10.9,5.4-21.3,9.1-31.4
		C-165.7,380.8-156.3,362.8-159.1,357.2z"/>
	<path d="M-157,359.2c0.5,2.6,0.1,3.9,0,4.3l0,0.1c1.3,7.2,3.6,14.1,4.9,21.3c1.3,6.9,1.6,15.2,4.8,21.5c-0.7-2.2-1.2-4.4-1.5-6.6
		c1.3,4.7,2.5,9.4,4.1,14c-2.8-8.2-4.6-16.8-5.3-25.4c1.9,10.5,3.2,22.7,8.5,32.2c-4.8-9.8-6.2-21.1-8.1-31.7
		C-150.6,382.9-151.7,362.6-157,359.2z"/>
	<path d="M-35.6,361c-0.3,8.4,0.5,16.7,0.3,25.1c-0.2,7.2-1.3,22.1,0.3,29.3c-0.1-2.4-0.1-18.1,1-27.5c-0.3,12-1.7,24.3,0.8,36.2
		c-2-13-0.6-26.2-0.4-39.2c0.1-5.9,3.2-23.5-1.1-28.4c-0.1,3.5-0.7,0.4,0,4.3c-0.4-1.6-0.7-4.3-0.6,0.7
		C-36.1,356.5-35.4,361-35.6,361"/>
	<path d="M-35.1,357.2c-0.9,2.5-0.8,2.8-1.3,1.7c-0.2,0.8-0.6,1.7-0.9,2l0,0.1c-2.5,6.9-4.1,14-6.6,20.9c-2.4,6.6-6.4,13.9-6.8,21
		c0.5-2.2,1.2-4.4,2-6.5c-1.3,4.7-2.6,9.4-3.6,14.1c1.8-8.5,4.6-16.8,8.4-24.6c-3.7,10-8.8,21.2-9,32.1c0.9-10.9,5.4-21.3,9.1-31.4
		C-41.7,380.8-32.3,362.8-35.1,357.2z"/>
	<path d="M-33,359.2c0.5,2.6,0.1,3.9,0,4.3l0,0.1c1.3,7.2,3.6,14.1,4.9,21.3c1.3,6.9,1.6,15.2,4.8,21.5c-0.7-2.2-1.2-4.4-1.5-6.6
		c1.3,4.7,2.5,9.4,4.1,14c-2.8-8.2-4.6-16.8-5.3-25.4c1.9,10.5,3.2,22.7,8.5,32.2c-4.8-9.8-6.2-21.1-8.1-31.7
		C-26.6,382.9-27.7,362.6-33,359.2z"/>
	<path d="M-94.4,352.3c1.4-1.4,3-2.2,4.7-3c15.5-7,33.7,5.6,37.4,7.6c2.8,1.5,11.2,5.2,12.1,5.4c3.3,0.6,6.7,0.6,10.1,0.4
		c6.6-0.5,13.1-2.1,18.7-5.7c3.5-2.3,6.6-4.9,8-12.2c0.4-2.1,0.3-4.3-0.7-6.1c-1.1-1.8-2.8-2.8-4.4-4.1c1.9,0.8,3.8,1.9,5.1,3.6
		c1.3,1.7,1.8,4.1,1.6,6.2c0.5-2.6,0.3-5.3-1.4-7.5c-1.6-2.1-4.4-3.3-6.9-3.7c-4.9-0.8-11.4,0.4-13.6,5.4c1.5-3.7,5.7-5.4,9.4-5.8
		c4.5-0.5,9.9,0.7,12.6,4.7c2.6,3.8,1.6,8.9,0.4,13c-0.8,2.9-2.1,5.6-4.3,7.7c-4.2,4.1-9.9,6.6-15.3,8.6c5.5-1.3,11.2-4.1,15.6-7.7
		c4.3-3.5,6.1-8.2,6.7-13.7c0.5-5.3-1.2-9.9-6.2-12.2c-4.9-2.3-11.4-2.5-16.2,0.3c-2.3,1.4-3.8,2.9-4.6,5.5c-2.6,9.5,7.3,15,12,15.1
		c-6.2,1.1-12.6-5.5-13.1-10.5c-0.3-3.1,0-5.5,1.7-7.8c1.6-2.1,4-3.8,6.4-4.7c5.5-1.8,12.8-1.2,17.4,2.6c4.5,3.9,4.8,10.1,3.4,15.5
		c-0.5,2-1.2,4.1-2.1,6c-1.2,2.6-3.3,4.7-5.5,6.4c-4.9,3.6-10.9,5.6-16.8,6.8c-6.1,1.2-12.6,1.8-18.7,0.6c-3-0.5-5.5-1.7-8.2-3.2
		c-4.7-2.7-9.3-5.2-14.3-7.4c-6.2-2.6-13.5-5.2-20.3-3.8c-2.8,0.6-5.3,2.1-7.3,4.1c-1.1,1-2.1,2.1-3.1,3.2
		C-95.3,363.2-94.4,352.3-94.4,352.3z"/>
</g>
</svg>
