<?xml version="1.0" encoding="utf-8"?>
<!-- Generator: Adobe Illustrator 19.0.0, SVG Export Plug-In . SVG Version: 6.00 Build 0)  -->
<svg version="1.1" id="Isolation_Mode" xmlns="http://www.w3.org/2000/svg" xmlns:xlink="http://www.w3.org/1999/xlink" x="0px"
	 y="0px" width="206.1px" height="173px" viewBox="-202 310 206.1 173" style="enable-background:new -202 310 206.1 173;"
	 xml:space="preserve">
<style type="text/css">
	.st0{fill:#202020;}
	.st1{fill:#222222;}
</style>
<g>
	<path class="st0" d="M-80.6,386.3c-22.5,3.9,5.5-30.8,11.1-29c4.8,1.5,8.7,16.4,8.6,22.1c-0.3,22.7-23.9,28.7-36.8,43
		c5.6-4.5,12.2-8.4,18-12.4c-11.5,9.6-35.3,19-29.1,37.1c-9.2-29.9,50.4-35.7,53.1-63.9c0,29-41.3,30.1-50.7,52
		c-5,11.6,5,23,3.3,35.5c3.5-18.8-9.9-26.8,2.8-41.7c16.6-19.4,49-21.8,44.5-53.9c-3.2-22.9-15.1-30.1-30.6-11.6
		c-25.4,30.2,13.9,37.4,19.8,21.3c-8.2,3.4-6.1,2.2-5.6,1.1c-2.4,0.7-4.4,3.2-6.8,3.5c4.8-2.7,4.3-2.1,5.4-4.3
		c-2.8,1.1-5,1.8-7.8,2.7c10.5-4,1.2-1,1.1-1.4"/>
	<path class="st0" d="M-110.8,436.2c-0.7,1-0.9,2.7-1.3,2.8c-0.5-1.2-0.9-1.9-1.6-2.4c-0.7,2-1,1.2-1.4,0.9h-0.1
		c-2.1,2.5-4,5.6-7,7.1c-2.5,1.2-5.9,0.7-9.1,0.1c-9.6-0.2-14.2,2.9-19,3.9c-0.3,0.1,6.7-0.7,7-0.8c5.3-0.5,8.6-1,13.7,1.4
		C-122.5,452.7-105.8,441.4-110.8,436.2z"/>
	<path class="st0" d="M-132.1,471c4.1-1.6,8-6,11.3-8.5c2.4-1.8,17.6-12.9,7.8-6.6c3.2-3,4-6.2,3.8-9.5c-0.1,5.9-6.5,10.9-12.7,11.4
		c1.4-0.7,18.9-10.8,9.2-16.6c13,8.8-27.1,19.9-23.4,28.4C-136.3,469.7-133.2,471-132.1,471"/>
	<path class="st0" d="M-133.9,469.9c9.9-16-18.3-23.8-24-19c8.7,1.1,17.8,4.7,18.5,13c0.1,1.5-0.3,2.7-1,3.5c-1.5,3-5,6.6-10.3,10.8
		c6.8-0.9,21.9-0.4,27.7-3.6c-2.2,0-4.4-0.2-6.5-0.7c4.4-0.8,9.8-0.1,13.9,1.4c-6-2.6-13.5-3.2-20.1-2.9c0.4-0.5,0.8-1,1.1-1.5
		c9.1-1,24.4,0.6,24.1,10.6C-109.1,471.6-124.4,469.4-133.9,469.9z"/>
	<path class="st0" d="M-107.7,434c6.3-6.5,11.3-18.7,15.7-26.9c2-3.7,6.2-20.3,0.5-5.4c0.3-4.8-0.2-9.6-1.6-14.2
		c2.5,10.9,0.5,16.8-7.3,23.1c6.8-10.4,9.1-16.9,3.7-30.4c2.5,10.6,2.4,15.9-1,24.6c-1.7,4.3-19.9,24.1-15.1,30.4
		c0.8-0.7,1.7-2.7,2.2-2.9c0.4,1.9,0.3,2.1,0.9,3c1.5-2.3,1.4-1.5,1.9-1.2"/>
	<path class="st0" d="M-50,394c2.4,4.1,9.9,4.8,9.9,4.8c-1.6-1-0.6-0.7,2.4-1.3c-2.9-0.4-5.6-2.1-6.2-4.6c2,2,7.1,3.8,9.2,0.8
		c-3.1,4-16.6-10.6-14.7-3C-50.5,392.8-49.8,392.9-50,394"/>
	<path class="st0" d="M-62.3,409.2c-0.1,2,1.5,4.6,4.8,6.2c-0.7-1.4,0.7-0.6,2.4-1.6c-2.7-0.1-3.9-1.6-2-4.9
		c-0.4,4.3,4.1,3.2,4.7,1.3c-1.2,2-3.5,0.7-3.5-0.5c0.1-0.6-0.4-4.1-0.5-4.1c-0.5-0.6-2.6,0.5-3.3,2
		C-61.1,405.9-62.5,408.5-62.3,409.2"/>
	<path class="st0" d="M-54.4,400.8c0.2,0.7,2,5.2,6.7,6c-1.3-1.5,0.3-1.1,2.2-1.1c-3.3-2.2-4-3.5-3.7-4.8c0.8,1.3,5.7,4.4,7.4,2.1
		c-3.7,2.4-9.2-11.8-10.7-5.2C-54.1,399.5-53.9,400-54.4,400.8"/>
	<path class="st0" d="M-68.3,415.1c-0.1,0.3-1,2.2-2.1,2.7c0,0,2.9,0.6,2.8,0.6c-1.1-1.8-0.3-2.6,3.3-2.3c-4,2-1.4,2.3,1.2,2.1
		c-6-0.3,0.9-1.8,1.9-3.5c1.1-1.8-5-0.1-6.7,0.2L-68.3,415.1z"/>
	<path class="st0" d="M-79.4,421.9c0.8-0.5-1,4.4-2.4,3c0,0,2.9,0.7,2.8,0.7c-0.2-1.7,0.7-2.7,2.8-2.5c-3.8,2.1-1.1,2.5,1.7,2.3
		c-8.6,0.3,3.7-3.3,1.8-4.4c-1.7-1-5.6,1-3.3,0.3C-77.8,421.6-78.6,421.8-79.4,421.9"/>
	<path class="st0" d="M-49.5,385.9c5.3,4.3,12.8,3.4,15.1,1.8c-3.6,0.9-6.3-1.7-6.9-2.8c2.5,2.1,7.2,3.2,9.4-1.3
		c-4,6.1-19.6-9.1-17-0.9C-50.2,384.8-49.3,384.8-49.5,385.9"/>
</g>
<path class="st1" d="M-136.1,410.4c22.3-5.4-1.6,30.6-8.2,29.2c-4.4-0.9-10.2-15.1-10.7-21c-2-22.4,20.8-29.9,32.7-44.9
	c-5.3,4.8-11.4,9-17,13.4c10.5-10.1,34-21.2,26.1-38.7c11.8,28.2-48.1,38.9-47.4,67.1c-3.5-29.1,39.1-33,46.2-55.3
	c3.7-11.7-9.3-31.4-8.8-43.6c-1.1,12.3,12,31.6,8.5,43.3c-2.6,8.6-14.6,14-21.1,19.2c-17.4,13.9-36.5,37.3-17.8,58.9
	c16.9,19.3,31.9-16.7,31.1-23.4c0-16.2-22.7-17.8-27.4-2c7.9-3.8,5.9-2.6,5.5-1.4c2.3-0.9,4.1-3.5,6.5-3.9c-4.5,2.9-4.2,2.4-5.1,4.6
	c2.7-1.3,4.9-2,7.5-3.1c-10.1,4.6-1.1,1-1,1.5"/>
<path class="st1" d="M-106.6,357.6c1.5-2.1,3.6-3.6,5.9-5.1c4.5-3,9.5-1.9,14.5-2.8c2.2,0.1,8.6-1.8,12.6-4.6
	c-6.7,2.7-10.4,3.4-16.9,2.8c6.8-2.5,16.8-0.5,21.7-8c0.2-0.2-58.6,9.5-41.8,19.5c1-1.8,0.5-1.5,1.6-0.9c-0.1-0.7-0.3-1.4-0.5-2.1
	c0.6,1.1,1.1,1.8,1.8,2.2C-107.5,356.6-107.1,357.4-106.6,357.6"/>
<path class="st1" d="M-92,323.6c-4,1.8-7.4,6.3-10.6,9.1c-2.3,2-16.5,13.9-7.2,7c-1.9,2.9-2.9,6.2-3,9.7
	c-0.1-6.4,5.6-11.3,11.7-12.1c-1.1,0.7-17.9,13.4-7.7,16.8c-13.6-7.1,24.9-21.7,20.9-29.4c0,0-2.9,1.5-1.9,1.5
	c-0.1-1.4-0.2-1.8-0.6-2.7C-92.1,325.3-91,323.6-92,323.6"/>
<path class="st1" d="M-68.4,337.4c-19.1-2.2-21.3-8.3-5.9-22c-6.7,4.3-21.7,4.8-27.2,5.3c2.2-0.1,4.4,0,6.6,0.3
	c-4.4,1-9.9,0.8-14.2-0.4c7.1,2.4,8.7,3.1,23.4,2.2c-7.2,2.5-32.3-0.1-32.6-11.5c-1.3,11.7,30.7,16.1,29.8,15.3
	c-10.2,12.2,22.6,23.3,25,14.2c-2.8,0.7-3.3,0.5-1.6-0.6c0.2,0-2.6,0.9-3,0.8c1.5-1.3,1.8-1.6,2.1-2.6
	C-70,338.7-67.3,338.4-68.4,337.4"/>
<path class="st1" d="M-113.2,361.6c-5.7,6.8-9.6,19.2-13.3,27.5c-1.8,4.2-4.1,20.5,0,5.5c0.1,4.8,1.1,9.4,3,13.8
	c-3.5-10.5-2.1-16.4,5.1-23.2c-5.7,10.5-7,18-0.9,30.1c-3.1-9.2-3.7-15.9-1.3-24.3c0.9-3.2,17.4-25.1,12.4-30.9
	c-1.6,1.8-1,1.6-1.9,0.7c-0.1,0.8-0.2,1.6-0.1,2.4c-0.6-1.8-0.5-2-1.1-2.9c-1.2,2.2-1.3,1.6-1.8,1.3"/>
<path class="st1" d="M-163.8,397.7c-3.8-5.1-5.4-5.1-7.2-5.5c1.3,1.5,0.5,1.8-2.9,1.7c2.6,0.9,3.7,1.5,4.9,3.2
	c-2.8-1.6-6.1-2.5-8.7,0.6c3.3-4,10.9,9.6,11.8,2.8C-164.6,398.7-164.3,398.5-163.8,397.7"/>
<path class="st1" d="M-157,388.9c-0.8-3.6-4.9-6.2-5.2-5.7c0.7,1.1,1,1.6-1.7,1.5c2.2,0.6,3.4,1.6,1.8,5c-0.2-4.1-3-4-4.2-1.1
	c0.8-1,1.7-1.6,2.6-1.1c0.8,0.5,1.1,5.3,1.3,5.5c0.7,0.6,3.1-1.4,2.8-2c1.6-0.2,1.9,0.1,2.6-0.3"/>
<path class="st1" d="M-167.3,404.6c-4-2.9-10.4-4.1-10.4-4.1c3,1.7,1.8,1.4-2.4,1.5c3.6,0.4,6.5,2.4,6.3,4.1c-1.9-2.3-6.7-4.5-9-0.2
	c2.8-4.2,17.5,9.5,15,2.1C-166.8,405.7-167.4,405.6-167.3,404.6"/>
<path class="st1" d="M-151.5,382.8c0.5-0.6,0.5-2.2,2.2-3c0,0-3-0.3-2.8-0.3c1.3,1.7,0.1,2.6-3.5,2.7c3.7-2.4,1.6-2.5-0.9-2
	c4.7-0.2-0.7,1.8-1.6,3.7c-0.9,1.9,6.8-1.5,3.4-0.1C-153.1,383.4-152.3,383-151.5,382.8"/>
<path class="st1" d="M-140.6,375.1c-0.7,0.5,0.3-2.7,2.1-3.3c0,0-3-0.4-2.9-0.4c1.3,1.7-0.1,2.4-2.3,2.6c3.5-2.5,0.6-2.5-2.1-2
	c8.5-1.1-3.4,3.6-1.3,4.5c1.8,0.8,5.4-1.6,3.2-0.6C-142.2,375.7-141.4,375.3-140.6,375.1"/>
<path class="st1" d="M-167.3,412.6c-5.6-4-13.2-2.6-15.4-0.8c3.6-1.2,7.2-0.7,8.7,1.7c-2.7-1.9-9-2-11,2.6
	c3.6-6.3,20.5,7.8,17.3-0.1C-166.6,413.7-167.4,413.7-167.3,412.6"/>
</svg>
