<?xml version="1.0" encoding="utf-8"?>
<!-- Generator: Adobe Illustrator 19.0.0, SVG Export Plug-In . SVG Version: 6.00 Build 0)  -->
<svg version="1.1" id="Isolation_Mode" xmlns="http://www.w3.org/2000/svg" xmlns:xlink="http://www.w3.org/1999/xlink" x="0px"
	 y="0px" width="206.1px" height="173px" viewBox="-202 310 206.1 173" style="enable-background:new -202 310 206.1 173;"
	 xml:space="preserve">
<style type="text/css">
	.st0{fill:#202020;}
	.st1{fill:none;}
</style>
<path class="st0" d="M-175.4,313.6c-4.7,3.3-15.8,2.6-17.5,5s-3,16.1,2.4,18.2c-1.2-1.4-1.9-3-1.9-4.9c1.7,3.1,3.8,6.4,6.9,8.4
	c-5.9-5.2-7-11.2-3.3-18.3c-1,7.4-2.1,16.9,10.7,19.3c-12.1-2.2-9.8-14-9.4-17.8c-0.5,1.4,0.9-1.2,0.2-1.9
	c3.8-1.4,15.5,0.4,14.2-5.9c0.2,0-1,1-2.3,1c1.1-3.8-0.1-0.5-0.4-1.9"/>
<path class="st0" d="M-110.5,317.2c-22.6,13.4-47.2-6.1-64.2,24c-7.3,12.9-8.2,33.5-0.9,46.8c-2.3-5.9-3.5-12.1-3.8-18.4
	c2,12.8,7.8,24.5,10.2,37.2c-3.5-23.5-16.5-45.6,1.8-66.2c-17,26.4,0.5,57.3,1.4,86c1.8-29.9-18.3-60.9,1.5-87.7
	c16.7-21.6,62.7,0,63.8-27.6c-1,1.9-1.6,3.8-3,5.4c0.2-0.8,0.4-1.8,0.6-2.6c-1.4,2.6-0.5,1.8-1,0.4c-0.9,1.2-1.6,4.8-3.1,5.6
	c2.3-3.8,2.1-3.9,1.5-5.8c-1,1.9-2.5,3.4-4.3,4.6c5.3-5.6,0.2-1.9,0.1-1.8"/>
<path class="st0" d="M-104.2,336.8c7.8-12,21.3-4.8,21.4,8.6c-0.1-14.9-11-23.7-21.1-11.5c-16.8,26.9,15.9,28,16.8,18.3
	c-2.1,2.1-1.7,1.2-0.8-0.7c0.4-0.3-3.4,2.3-3.4,2.3l3.8-3.5c0,0-1.6,1.2-1.2-0.2c-1.7,1.7-5.4,3.9-5.4,3.9
	c-12.8,1.9-12-8.8-7.8-15.3c0.3-0.4,1.2-1.9,1.6-2.3c1.1-1.6,1.4-1.8,2.9-2.4c2.2-0.8,5.2,0.7,5.4,0.8c-1-0.4-2.3-1.5-2.1-1.5
	c3.8,1.6,4.8,1.1,9.4,4.6C-93.6,328.3-98.3,331.7-104.2,336.8z"/>
<path class="st0" d="M-184.6,331.1c44.9,36.9,48.5,39.3,63.5,42.4c-3.8-0.5-7.8-2.6-11.1-4.6c7.9,2.8,16.5,5.6,24.9,5.6
	c-15.4-1-30-8.3-39.9-20.1c12.9,10.7,36,24.5,53.1,16.7c-16.2,5.1-32.4-4.2-45.5-12.8c-29.8-19.7-36.1-30-47.1-35.4
	c2.2,2.8,2.6,3.3,4.7,5c-3-0.6-2.9-0.8-4.5-0.4c1.1,0.9,2.3,2,3.3,2.9c-4.6-2.1-1.5-0.3-1.6,0.4"/>
<path class="st0" d="M-78.1,370.7c5.6-18.3-17.4-3.6-28.1-8.2c-6-2.3-20.2-12.7-30.9-5.1c13.7-8.3,30.6,15.8,49.7,9.7
	c5.6-2.1,4.5,4.7,3.7,7c1.4-1.9,4.5-3.3,5.4-3.1"/>
<path class="st1" d="M-106.5,369c-7-3.5-32.8-11.5-31.5-8.9"/>
<path class="st0" d="M-86.1,370.7c-17.5,10.7-33.7-12.4-50.8-14.3c3.5,0.5,5.2,2.2,7.9,3.6c-0.3-0.1,0,0.1,0.1,0.1
	c0,0-0.4-0.2-0.1,0c-5.8-1.9-12.1-3.4-17.5-4.8c0.1,0,4.4,1.4,3.8,1.1c9.8,3,17.9,7,25.2,14.2c-9.5-6.5-27.1-15.8-39.7-15.9
	c14.6,2.2,25.8,10.7,38.4,16.8c12.7,5.2,24.3,7.9,32.6,5.8c3.2-0.8,9.8-4.5,6-7.5c-0.3,1.1-0.9,2.2-1.8,3c0.2-2.5,0.2-0.3-0.6-1.6
	c-0.4,0.3-0.7,3.1-1.6,3.1c0.7-1.6,0.7-2.8,0.1-3.7c-1.4,2.5-1.9,0.6-2.1,0.3"/>
<path class="st0" d="M-84.1,403.2c-2.1-0.7-3.1-1.2-4.1-3.7c-1.6-4.6,7.4-10.2,8.5-13.8c1.4-4.7,2.3-6.8,1.2-12
	c-0.9,7.5-2.2,12.4-8.9,15.8c2.8-3.7,13.7-14.9,5.3-22.3c9,11.1-7.7,19.6-11.1,28.6c-2.4,8,11.4,23.6,12.3,11.5
	c-2.2-0.2-1.6,0.1-1.5-1.4c-0.6,0.4-1.2,0.9-1.8,1.5C-82.2,404.8-83.5,403.9-84.1,403.2"/>
<path class="st0" d="M-113.8,372.8c5.5-0.1-2.8,27.1-2.3,29.9c0.3-1.5,0.6-2.4,1-3.6c0.4,3-0.1,5.6,0.6,8.6
	c-0.7-6,0.7-12.8,5.2-17.1c-2.2,5.3-7,18.8-1.5,23.3c-6.1-6.5,14.1-43,0.7-44.2c0-0.2-0.6,3.8,0.2,2.8
	C-112.6,370.9-113.3,372-113.8,372.8"/>
<path class="st0" d="M-41.1,432.9c18.8-14-0.7-58.7-25.6-43.1c2.8-0.4,5.9-0.4,8.7-0.3c-3.8,0.2-11.3,1-19.4,0.6
	c10.7,1,28.6-2.4,33.3,9.9c-6.3-8.1-37.6-15-40.6-0.9c3.7-10.3,29.7-6.7,36.1-1.8c17.4,15.2,3.2,28.1,0.2,35.3
	c2.7-0.8,2.4-1.2,2.7,0.3c1-0.3,0.9-2.8,1.7-2.9c-0.2,1-0.4,2.1-0.6,3c1-0.8,1-0.5,0.2,0.9c0.8-0.6,2.3-1.8,2.8-2.7
	c-1.5,4.2-0.4,1.4,0.4,1.5"/>
<path class="st0" d="M-46.1,428.5c0.4-0.3,0.8-0.9,1.4-1.1"/>
<path class="st0" d="M-102.2,440c-17.8-2.5-12.8-16.3-12.1-27.1c-0.6,7-5.6,12.2-6.4,19c-2.1-8.4,8.8-18.3,3.5-26.2
	c4.4,9.5-6.8,15.8-5.2,24.7c1.7,7.5,11.7,15.8,21.6,14.6c-1.9-1.2-1.5-0.6-0.7-1.9c-0.7,0.2-1.5,0.4-2.2,0.6c1.4-0.9,2-1.4,2.6-2.2
	C-104,440.9-101.6,441.1-102.2,440"/>
<path class="st1" d="M-121.4,429.7c0.1-8.4,7-20.3,1.4-27.1"/>
<path class="st0" d="M-79.1,416.8c0.7,3.3,5.1,14.4,0.3,25.1c-2.3,6-5.6,15.8-4.2,23.4c0.1,0.4,0.3-5.4,1-7.1
	c-0.1,5.3-0.4,10.8,0.3,16c-1.1-9,0.2-20.5,6.4-27.6c-3.8,10.1-8.1,26-2.4,36.4c-5.2-15.6,4.4-30.6,5.5-37.9c1-6.9,2.7-30.8-5-31.2
	c1.7,1.2,2.5,3,2.4,3.5c-0.5-1-1.5-2-2.8-2.1c1,1,3.1,3.5-0.1,1.4l0.8,1.7C-77,418.4-78.4,417.2-79.1,416.8z"/>
<path class="st0" d="M-73.9,417.1c0.2,0.5,0.4,1.2,0.3,1.8"/>
<path class="st0" d="M-43.9,426.4c-2.6,7.4-0.4,16.5,5.4,21.3c-0.4-0.1,0,0,0.1,0.1c-0.5-0.2-1.1-0.1-1,0.7
	c0.5,3.7-3.4,7.4-3.7,12.6c-0.3,4.9,0.5,8.1,1.4,11.3c-0.8-10.5,4.2-15.7,7.9-24.1c-1,9.4-11.7,23-3.4,31.7
	c-8.8-13.2,13.4-29.8,0.3-39.5c0,0.1-0.2,0.3-0.2,0.3c2-3,2.7-16.4-2.3-18.1c-0.2,0.7-0.4,3.8-0.4,3.8c-1.2-1.4-1.7-1.8-2.7-2.2
	c-0.1,2.8-0.6,2-1.2,1.9"/>
<path class="st0" d="M-51.5,414.4c1.4,2.9,1.2,4.7,1.4,6.8c0.4,7.1-18.1,12-10.5,10.3c-2.2,1.9-4.7,3.3-7.3,4.5
	c5.6-2.6,11.7-3.8,17.1-6.8c-6.1,6.9-16,6.2-23,11.6c10.5-6,26.9-4.9,28.2-20.6c0.3-3.4-2.8-18.5-9.4-13.5c1.2,1.9,1.1,1.2-0.1,2
	c0.7,0.2,1.5,0.3,2.3,0.4c-2.9,0.2-1.3,1.7-1.4,2.3L-51.5,414.4z"/>
<path class="st0" d="M-51.1,407.4c0.3,0.3,0.7,0.8,0.8,1.2"/>
<path class="st0" d="M-124.3,420.7c-9.1,1.2-20.8,2.9-24.8,11.7c-1.2,5.1,2.1,26.4,12.6,26.2c-2.9-1.2-4.5-3.7-6.5-5.9
	c5.4,3.4,9.5,7.2,16.1,8.9c-8.6-2.7-23-12.9-17.4-24.4c-2,13,15.8,26.7,27.6,23.5c-12,1.4-33.2-14.2-25-27.4
	c3.6-12.2,23.5,0.6,23.4-10.3c-1.5,0.2-3.4,1.6-4.6,1.4c1-2,1.4-2.3,1.4-3.5C-124.6,422.1-124.1,421.4-124.3,420.7"/>
<path class="st0" d="M-58.7,372.8c-1.8,2.8-6,6.7-6,6.7c-1.4,3.4-0.4,6,2,15.3c0.4-0.5,0.9-1.1,1.5-1.7c0,0,0,0,0,0.1l0.1,0.1
	c1.5,0.7,5-2,5.8-2.7c-0.5-0.9-0.9-1.9-1.4-2.8c0.2-0.2,0.4-0.4,0.5-0.6c1.5,3.3,3.4,6.3,6,7.7c-1.5-2-2-4.4-2.4-6.8
	c1.7,3.8,3.8,7.4,6.4,10.6c-2.8-3.8-4.5-8.7-6.2-13.4c0.9,0.3,1.4,1.1,2.2,1.5c-2-2-2.9-6.2-5.7-10c5.5,6.9,10.4,19.7,14.8,23.9
	c-0.1,1-0.1,1.7,0,2.1c0-0.4,0.1-1,0.3-2C-47.7,393.3-48.4,379.8-58.7,372.8z M-52.6,387.2c0,0-1.6-1-6.1,0.3
	c-0.3-0.7-0.5-7.2-0.8-8.1c0,0,0.6-1.4,2.1,2.2c0.2,0.1,1.6-3.5,1.9,1.4C-54,378.7-52.6,387.2-52.6,387.2z"/>
<path class="st0" d="M-94.5,412.5v0.1c0,0,0,0,0.1,0c0.8-2.9,1-4.6,3.9-6.4C-93.6,406.4-94.3,409.2-94.5,412.5z"/>
<path class="st0" d="M-103.3,419.9c0.8-0.5,2.4-3,1.9-2.9c-0.8-1.2-1.8-3-2.7-5.3c-0.1,0.8-1.7,2.2-3,3.3c-0.9-0.7-2,0.1-2.8,1.6
	c-0.8-3.5-1.5-7.3-4.3-9.4c-1,2.1-0.6,2.1-2,1.4c-0.3,0.6,1.4,2.3,1.1,2.7c-3.4-3.2-0.5-1.2-2.7-2.7c-0.4,3.9,0,2.1-1.4,2.7
	l-0.2,0.1c2.3,0.8,8.6,18.9,12,15.9c0.5,0.9,3.1-0.1,3.1-0.1c0.1-0.8-0.9-1.5-2.2-2c0.2-0.9,0.4-2.2,0.7-3.6c0.6,0.4,1.4,0.7,2.2,1
	c1.4,0.9,2.7,1.5,4.4,1.5C-100.5,423.6-103,421.4-103.3,419.9z"/>
<path class="st0" d="M-94.5,422C-94.4,422-94.4,422-94.5,422c3-1.7,3.2-4.9,2-8.6l0,0c-0.1,0.4-0.1,0.8-0.1,1.2
	c0.5,3.1-0.8,5.8-2.7,7.4l0,0c-0.2,0.2-0.4,0.4-0.6,0.6C-95.4,422.5-94.9,422.4-94.5,422z"/>
</svg>
