<?xml version="1.0" encoding="utf-8"?>
<!-- Generator: Adobe Illustrator 19.0.0, SVG Export Plug-In . SVG Version: 6.00 Build 0)  -->
<svg version="1.1" id="Isolation_Mode" xmlns="http://www.w3.org/2000/svg" xmlns:xlink="http://www.w3.org/1999/xlink" x="0px"
	 y="0px" width="206.1px" height="173px" viewBox="-202 310 206.1 173" style="enable-background:new -202 310 206.1 173;"
	 xml:space="preserve">
<style type="text/css">
	.st0{fill:#202020;}
</style>
<path class="st0" d="M-68.9,331.9c0,0.3,0-3.6-1.9-5c-1.5-1.6-3.4-1-4.7-1.2c2.5,2.2,3.2,2.8,0.2,5.7c0.1-4.9-0.7-4.8-5-5.5
	c2.7,0.1,7.1,20,9.2,11.2c1.6-1.5,1.9-2.1,1.9-2.8L-68.9,331.9z"/>
<path class="st0" d="M-62.3,342.5c0.3,0,8.2-6.5,7.6-10.8c-0.3-1.5-1.3-2.3-2.3-2.4c2.8,2.9-0.6,6-4.9,6c3.2-1.8,5.4-6.6-0.5-7.8
	c5.8,1.4-8.6,9.6-3,12.2C-64,341.7-63.3,342.2-62.3,342.5"/>
<path class="st0" d="M-53.8,349.3c3,0.5,11-3.4,11.1-6.6c0.2-1.9-0.1-2.8-0.2-3.7c-1.5,4.2-5.2,3.8-7.5,2.5c3.6,0.4,8.1-3.3,3.9-7.1
	c6.2,7.3-18.8,6.5-10.4,11.4c0.9,2.1,1.7,3,2.5,3.3L-53.8,349.3z"/>
<path class="st0" d="M-51.1,359.9c2.3,1.1,19.4,2.9,12.5-0.3c2.7,0.5,4.6,0.2,5.4-3.9c-3,4.7-8.2,1.3-10.6-2.1
	c5.5,3.1,13.4,0.4,8.5-3.3c3.9,5.7-16.1,0.6-14.2,0.2c-7.5,1.9-2.6,5.6-3.3,4.5c-0.4,2.3-0.6,3.5,0,4L-51.1,359.9z"/>
<path class="st0" d="M-51.7,382.9c0.3,0.3,9.8,4.2,10.3,4.2c-1.7,0,3.1-3.4,3.1-3.4c-3.8,1.3-6-0.3-6.5-5.1c3.3,3.6,7,5.8,8.3-0.4
	c-1.8,6.1-17.4-8-14.8,0.5C-52.1,380.8-52.1,382.1-51.7,382.9"/>
<path class="st0" d="M-53.1,369.4c1.7,1.6,7.1,5.6,12.4,6.1c3.1,0.1,4.5-0.3,6.7-1.2c-4.8,0.4-8.4-1.4-9.2-6.5c2.8,2.9,9.6,7,13.3,2
	c-5.2,5.5-24.8-14.1-22.2-4.4c-1.4,2.1-1.4,3.2-1,4"/>
<path class="st0" d="M-81.3,337.5c1.2-1.2,2.6-4.4,2-5.2c-0.6-1.1-3.5-2.7-3.4-1.4c0.1,2,0.3,4.2-3,4.2c4.5-3.2,0.8-6-2.8-3.8
	c2.2-0.9,3.5-0.4,3.8,1.3c-3.4,5-5,6.6-1.6,6.6C-84.2,339.1-81.3,337.5-81.3,337.5z"/>
<path class="st0" d="M-74.4,388c16.2-12.3,24.2,13.5,35.9,16c-1.2-1.6-2.2-3.3-3-5.1c2.2,1.9,5.6,5.1,4.2,8.6
	c2.8-5.4-8.1-17.7-10.6-21.4c13.4,11.2,15.1,20,6.2,30.2c17.8-15.8-5.4-41.9-26.1-39.2c-2.6,0.3-21.2,7.2-12.4,13.1
	c1.3-2.6,0.9-2.3,2.1-1.4c0,0-0.1-3,0.2-3.2c0,1,0.2,2,0.6,2.9c0.4-0.9,0.6-0.7,0.7,0.6C-75.3,386.6-75,387.6-74.4,388"/>
<path class="st0" d="M-74.2,428.3c22.2,5.9,7.7,28.4,15.4,42.1c0.2-2.4,0.6-4.8,1.4-7.2c0.2,3.3,0.5,10.9-2.8,13.6
	c5.7-5.2,6-21.6,7.5-28.5c1,15.5,0,29.8-16.2,32.2c22.4,0.3,21.7-36.8,11.9-50c-1-1.3-23.4-18.8-22.8-5.4c0.9-0.4,1.9-0.8,2.9-0.9
	c-1.5,1.9-0.2,0.1-0.3,1.7c0.2,0,2.3-2.1,2.8-1.9c-0.8,0.6-1.5,1.4-2,2.4c1-0.2,1,0,0,0.9c2.9-1,2.3,0.2,2.3,0.8"/>
<path class="st0" d="M-85.6,398.2c8.5-0.7,10.4,3.1,18.1,6.2c2.3,0.9,15.6,14.8,7.3,3.9c1.3,0.7,5.7,3.2,5.7,5.1
	c0,0,0.1-0.8,0.1-0.8c1.5-2.4-12.4-14.9-12.8-15.4c14.3,10,17.4,13.9,9.1,24.5c16.2-16-7.7-31.5-24.3-32c-3-0.1-23.1,4.2-15.1,10
	c0.5-0.8,0.4-1.8,1.2-2.4c0.2,2.2-0.1,0.3,0.9,1.4c0.5-0.4,0-2.8,0.7-2.9c-0.2,1.6,0,2.7,0.7,3.6c1.2-2.2,1.5-0.6,1.8-0.3
	L-85.6,398.2z"/>
<path class="st0" d="M-59.5,453.2c-4-1.1-15.3,5.1-17.2,7.7c-1.3,1.9-2.2,3.8-2.2,8.1c1.6-5.4,5.3-7.4,11.1-6
	c-5,1.3-12.9,5.2-8.3,11.6c-1.3-2.4-1.2-9.3,8.1-9.4c4.2-0.1,6.6-5.2,7.6-7.4C-60.4,457.8-59.5,455.1-59.5,453.2"/>
<path class="st0" d="M-96.7,396c-67.4,0.1-11.5,57.1,19.7,30.8c-4.4,1.7-9,3-13.8,3.8c6.7-2.8,37.2-11.7,16.4-21.4
	c22.3,11.2-27.2,27-41.1,14.5c7.7,4.6,44.1,4.9,43.5-9.3c-0.2-4.1-14-9.7-18-9.4c16.8,4.9,21.2,10.9,9.5,17.7
	c-7.6,4.9-32.3,1.7-33.7,0.3c0.2,0.1-13.7-11.2-7.2-15.3c4.8-3.8,23.5-4.8,29-7.4c4-1.9-1.1,1.1,1.3-1.3c-1.8-0.8-3.3,1.6-4.8,1.2
	c8.1-5.7,0.3,0.8,4.4-2.9c-2,0-4,0-6,0.4c7.3-3.3,0.9-0.5,0.9-1.5"/>
<path class="st0" d="M-171.7,412c-4.8,2.5-5,7.7-5.2,9.3c2-4.4,4.2-6.2,9.4-5.3c-3.8,2-10,5.2-7.8,11.4c0-1.9,0.9-5,2.8-6.9
	c1-1,8.8-3.9,9.5-5c4.7-7.7,5.1-19.1-2.4-11.5c0,0.1,1.4,1.5,1.3,1.8c-2.3,0-0.8,2.5-3.5,5L-171.7,412z"/>
<path class="st0" d="M-122.6,399.2c-1.8-2.6-6.1-4.1-8.8-5c-5.1-1.7-12.6-0.3-18-0.1c-8.8,0.2-17,0-25.7,1.4
	c-3.4,0.5-7.7,0.4-12.1,4.7c6-3.2,3.5-1.8,11.5-2.9c-6.5,2.2-13.8,2.7-18,13.1c5.7-11.7,23.2-13.3,35.1-10.7
	c-16.7,0.1-27.6,3.3-33.7,12.7c-2.1,4.5,0.7,8.8,6.4,7.5c-15.3-2.8,4.5-16.5,15-17.8c14.1-2.6,26.9,1.5,40.4,1.3c2,0,4.2,2.4,6,3
	c0.1-0.9-0.4-1.7-0.4-2.6c2.3,1.1-0.2,0,1.7,0.2c-0.1-1.4-2.3-1-2.6-1.9c2.5,0.1,2.4,0.8,3.9,1c-0.4-1-1.6-2.9-2.5-3.4
	c4,1.6,1,0.1,1.6-0.4"/>
<path class="st0" d="M-35,378.9c0,0.2-0.8,3.6,0.4,7.1c0.1,1.4,0.5,2.1,0.6,2.3c0.2,1.2,0.6,1.4-0.2,3.7
	C-30.4,387.5-34.6,381.8-35,378.9z"/>
<path class="st0" d="M-28.8,390c-0.4,5.1-5,8.4-7.1,9.6c0,0,0.6,0,2.1-0.4C-32.6,399-27.6,397-28.8,390z"/>
<path class="st0" d="M-32.2,369.2c0.6-0.9,1.5-2.7-0.3-3.8c0.5-0.2,1.6-6-1.9-5.9c0.2-0.1,1.2-0.6,0.9-1.7
	c-4.6-25.2-18-50.6-48.2-36.1c-2.4,1.2-8.9,4.1-13.5,7.5c-9.2-16.8-25.8-30.4-36.3-4.5c-1.5,5.8,0.2,12,2.5,14.5
	c-1.9-4.8-2.2-7.5-1.2-11.8c-0.2,7.6,3.3,16.2,9.5,20.8c-6-4.9-15.1-30.2,2.6-31.1c-22.1,9.8,1.2,43.5,10.4,32.1
	c-15.1,8.6-28.5-28.8-6.9-30.3c4.6,0.8,8.3,10.2,11.3,15.6c-0.4,0.8-0.7,1.5-0.9,2.3c-0.1,0.4-0.1,0.9,0,1.3
	c-2-3.5-2.2-6.7-7.7-11.1c4.5,3.7,3.8,9,3.5,13.9c-1.9-4.5-3.1-14.3-10-15.2c9.6,2.5,5.8,24.2,17,21.1c1.5-0.4,3-1.8,4.2-3.5
	c1.9,0.2,3.7-1.9,4.8-4.9c0-1.8,0.5-1.7,0.7-2.3c4.8-1.6,7-5.9,12.1-7.7c26.9-9.1,29.8,2.6,38.2,24.3c2.5,8.5,2.5,12.2,8.2,22.9
	c0.1,1.2,0.2,2.4,0,4.6c0.9-0.3,1-3.3,1-3.1c0.8-1.3-0.4,6.6,0.3,6C-28.5,375.4-29.6,369.2-32.2,369.2z"/>
</svg>
