<?xml version="1.0" encoding="utf-8"?>
<!-- Generator: Adobe Illustrator 19.0.0, SVG Export Plug-In . SVG Version: 6.00 Build 0)  -->
<svg version="1.1" id="Isolation_Mode" xmlns="http://www.w3.org/2000/svg" xmlns:xlink="http://www.w3.org/1999/xlink" x="0px"
	 y="0px" width="206.1px" height="173px" viewBox="-202 310 206.1 173" style="enable-background:new -202 310 206.1 173;"
	 xml:space="preserve">
<style type="text/css">
	.st0{fill:#231F20;}
</style>
<path class="st0" d="M-76.2,408.7h0.2c31.9-19.4-8.5-66.9-33.2-72.6c3.8,2.5,7.4,5.2,10.7,8.3c-7.6-4.4-17-9.8-22-17.3
	c9.1,14.6,28,21.5,38.6,35.2c-12.3-12.6-51-27.3-38.5-49.2c-15.2,21.4,28.6,38.6,39,51.9c9.2,11.9,9.3,20.4,4.6,33.8
	c-0.5,1.4-2,2.6-3.8,3.9c-1.3-0.6-2.8-1.4-2.5-1.9l-0.2-0.3c-15.8-11.2-45.7-11.3-53.9,9.3c-1,2.4-0.7,5.7-1.7,7.8
	c-1.3,2.7,2.4,7.4,0.9,10.3c-1.5,2.9-6.3,1.3-7.3,3.3c-6.8,13.7-6.5,16.5,3.3,23.6c-0.1,0.5-0.1,1,0.1,1.5
	c3.9,11.3,16.6,12.5,28.7,10.8c13,1.2,26.6-1,31.6-9.2c-7,8.8-19.2,10.2-31.2,9.2c1.3-0.2,2.6-0.4,3.9-0.7c-4.4-0.1-8-0.1-11.7-0.3
	c-6.7-1.3-12.7-3.4-16.5-6.1c-1.7-1.1-2-2.2-1.7-3.1c1.5,1,3.2,2.2,5.1,3.5c-1.1-0.8-1.7-1.6-1.9-2.4c0.4,0.2,0.9,0.4,1.5,0.7
	c-0.3-0.3-0.5-0.6-0.7-1c0.5-0.2,0.8-0.3,1.3-0.4c2.2,0.2,4.6,0.2,4-1.3c0-0.1-0.1-0.2-0.2-0.3c1.6-1.1-0.5-1.5-3.5-2.6
	c0,0-0.1,0-0.1-0.1c0.7-0.9,1.3-1.7,1.5-2.4c-1-0.2-2.8,0-4.7,0.5c-1.7-1-3.4-2.1-4.9-3.2c-0.6-0.8-1-1.7-1.3-2.8
	c-3.1-12,11.3-6.1,12.4-16.4c0.8-5.6-1.1-11,0.2-16.6c6.1-16.4,31.1-10.6,44.6-4.2c-0.2,0.4-0.2,0.8-0.3,1.3
	c0.6-0.2,1.2-0.4,1.6-0.6c0.8,0.4,1.5,0.8,2.2,1.2c0.3,0.2-0.7,2.4-0.8,2.7c1.2-0.5,2.1-1.3,2.4-2.3c0.2-0.2,0.5-0.3,0.8-0.5
	c0.1,0.2,0.2,0.5,0.2,0.8c0.1-0.3,0.1-0.7,0-1c0.2-0.1,0.3-0.2,0.5-0.3c0.1,0,0.1,0.1,0.2,0.2c0-0.1,0-0.2,0-0.3
	c1.1-0.7,2.2-1.5,2.7-2.1C-78.4,409.9-77.8,408.7-76.2,408.7z"/>
<path class="st0" d="M-140.8,319.9c1.5,3.2-3.6,15.3-7.8,26C-143.6,334.9-138.2,324.1-140.8,319.9z"/>
<path class="st0" d="M-132,397.2c-2.4-2.7-2.2-1.9-0.7-2.7c-0.3-0.3-3.1-0.6-3.3-1.1c2.3,0.2,3,0.2,4.1-0.3c-1-0.6-2-1.3-2.8-2.1
	c3.9,1.2,1.2,0,1.4-0.6v-0.2c-6.6-8.9-14.1-14.1-14.7-26.3c-0.4-7.8,5.9-15.9,5.1-23.6c-0.8,2.1-2.2,4.9-3.2,7
	c0.7-3.1,1.8-5.6,3.1-8.1c-3.8,7.3-7.9,14.2-10.7,22.7c0.2-3.1,2.6-9.3,5.3-16c-3.8,8.5-7.3,17.2-6.5,23.1
	C-154.3,374.7-142.3,403.3-132,397.2z"/>
<path class="st0" d="M-138.9,330.2c-1.2,2.8-2.4,5.4-3.7,8C-141.3,335.8-140,333.3-138.9,330.2z"/>
<path class="st0" d="M-140.8,319.9c-0.1-0.2-0.2-0.4-0.4-0.5C-141,319.6-140.9,319.7-140.8,319.9z"/>
<path class="st0" d="M-84.3,458.2c-13.8,6-36.8,5.7-46,2c-1.6-0.6-2.9-1.2-3.9-1.6C-126,468.1-99,467.3-84.3,458.2z"/>
<path class="st0" d="M-77.5,434.1c6.1,10.6,1.7,18.8-6.8,24.1C-74.4,453.9-69.3,446.2-77.5,434.1z"/>
<path class="st0" d="M-42.5,442.5c-7.3-20.1-17.6-40.2-28.2-28.8c1,0.7,3.7,1.5,4.2,2.2c-2,0.6-2.6,0.7-3.4,1.6
	c3.4,1.3,1.7,1,1.6,2.1l0,0.2c5.4,4.4,12,7,16.4,12.8c4.2,5.5,10.2,35.2,8.7,18.5c1.9,5,3.6,10.1,5,15.3
	C-40.4,458.6-41.6,450.6-42.5,442.5z"/>
<path class="st0" d="M-40.2,449.3c1.3,9.3,2.1,19.2,7.7,25.4C-33,473.9-35.9,462.3-40.2,449.3z"/>
<path class="st0" d="M-43.1,436.4c0.2,2,0.4,4.1,0.6,6.1c0.8,2.3,1.6,4.5,2.3,6.8C-40.9,444.7-41.6,440.2-43.1,436.4z"/>
</svg>
