<?xml version="1.0" encoding="utf-8"?>
<!-- Generator: Adobe Illustrator 19.0.0, SVG Export Plug-In . SVG Version: 6.00 Build 0)  -->
<svg version="1.1" id="Isolation_Mode" xmlns="http://www.w3.org/2000/svg" xmlns:xlink="http://www.w3.org/1999/xlink" x="0px"
	 y="0px" width="206.1px" height="211.2px" viewBox="-202 291.8 206.1 211.2"
	 style="enable-background:new -202 291.8 206.1 211.2;" xml:space="preserve">
<style type="text/css">
	.st0{fill:#231F20;}
</style>
<g id="XMLID_23_">
	<path class="st0" d="M-92.4,382c-7.9,3.4-9.8,16.6-11,19.5c-1.3,3.2-1.6,5.6-3.8,15.2c-0.8,3.3-7.2,17.1-8,20.3
		c-0.4,1.8-3.2,12.8-3.7,16.5c1.1-4,1.6-5.4,3-9.3c-0.6,3.8-1.6,7.3-1.5,11.4c0.7-2.8,7-23.6,12.2-32.3c-1.5,4.6-7.2,23.1-8.8,27.7
		c-2.3,6.6-7.9,16-5.8,13.1c9.4-9.1,14.6-36.7,17.3-44.4c2.6-7.5,4.9-15.4,8.9-22.3c2-3.4,4.6-9.3,14-10.1c1.7-0.2,4-0.2,5.3-1.4
		C-75.5,385.3-86.6,379.5-92.4,382z"/>
	<path id="XMLID_2_" class="st0" d="M-43.8,386.4c11.2,0.4,22.2-16.4,28.6-32c0.8-2.3,3.3-12.5,2.3-14.8c0,3.6-1.7,15-11.9,23.7
		c12.1-15.9,9.7-28.7,8.8-35.3c0.1,16.5-8.9,33-12.4,37.5c-1.8,2.2-12.6,13.1-23.4,15.3c-1.6,0.2-7.6,1.7-8.3,2.9
		C-59.1,384-44.7,387-43.8,386.4z"/>
	<path id="XMLID_57_" class="st0" d="M-77.9,370.8c0.7,1,1.8,1.2,2.6,2c0.8,0.8,5.3,4.2,9.8,2.1c14-7.4,15.7-23.1,15.1-28.1
		c-0.3-2.6-1.3-5-2.4-7.4c-1-2.2-2.6-5.4-5.1-6.3c2.4,2.1,3.7,5.2,4.3,8.3c-2.8-5.8-7.4-11.3-13.6-13.7c10.4,4.7,16.6,18.6,9.5,28.6
		c1.7-5.3,1.7-11-0.4-16.2c-2-5-5.9-9.4-11-11.3c-2.5-0.9-5.8-1.5-8.2-0.1c6.5-2.2,13.2,2.5,16.5,7.8c3.6,5.8,4,13,1.8,19.3
		c-0.8,2.3-3.3,10.2-8.9,10.8c-1.7,0.1-8.2-2.9-9.2-2.8c0.3,0.8,1,1.5,1.3,2.3c-0.4,0-0.9-0.2-1.3-0.5c0.2,0.3,0.2,0.7,0.6,0.9
		c-0.3-0.1-0.7-0.3-1-0.2c0.1,0.5,2.6,1,2.7,1.3c-1,0-1.9-0.3-2.9-0.4c0.1,0.2,0.3,0.4,0.4,0.6c-0.5-0.1-0.8-0.5-1.3-0.5
		c0.4,0.5,0.8,0.9,1.2,1.4c0.4,0.5,0.7,0.9,1.2,1.2c-0.7-0.3-1.4-0.7-2.1-0.8"/>
	<path id="XMLID_3_" class="st0" d="M-78.8,327c-3.4,2.1-5.9,7-6.4,8.4c-0.9,2.6-1.3,5.3-2,8c-0.8,3.1-2.2,5.8-2,9.1
		c0.1,1.6,0.5,3.2,0.8,4.8c0.3,1.5,0.9,3.5,2.4,4.2c-1.4-2-1.4-4.3-1.3-6.7c1.4,4.6,3.1,9.8,7.5,12.4c-3.3-2.4-5.3-6-5.8-10.1
		c-0.5-4.6,1.1-9.3,3.8-13c-1.5,5.2-2.7,10.8-0.9,16.1c0.8,2.4,2.2,4.5,4.4,5.9c2,1.2,4.6,1.7,6.6,0.4c-8.9,2.3-11.1-8.9-10.9-12.4
		c0.3-6.1,2.3-14.2,3.3-16.5c0.9-2.3,6.7-3.1,7.6-4c0.3-0.3,1.8-2.1,2.1-2.4c-0.4-0.4-0.8-0.2-1.2-0.5c0.2-0.3,0.6-1.1,0.7-1.4
		c-0.6-0.4-1.8,1.3-2,1.1c0.5-0.7,1.1-1.3,1.7-1.9c-0.2,0-0.4-0.1-0.5-0.1c0.3-0.3,0.8-0.3,1-0.7c-0.5-0.1-0.9,0-1.4,0
		c-0.4,0-0.9-0.1-1.3,0.1c0.5-0.4,2.1-0.3,1.5-1.1S-78.8,327-78.8,327z"/>
	<path id="XMLID_4_" class="st0" d="M-87.1,429.4c2.1-2.4,3.2-8.8,3.2-13.5c-0.4,8.8-6.1,16-13.3,20.6c3.2-4.2,6.8-8.2,9.2-13
		c1.2-2.4,2.1-5,2.3-7.8c0.2-2.5-0.2-5.6-2.1-7.5c2.5,3.6,2,8.3,0.4,12.2c-1.7,4-4.5,7.5-7.3,10.8c-2.7,3.1-5.4,6.3-7.4,9.9
		c-1.1,1.9-9.9,17.1,1,24.6c-0.2-0.7-1.3-4.9-1.1-5.5c0.8,0.4,2.9,1,3.3,0.9c-0.1-0.3-0.4-0.5-0.5-0.8c-0.1-0.4-0.1-0.7-0.3-1
		c0.4,0.4,0.7,0.8,1.3,0.9C-98.4,460.2-108.8,453.6-87.1,429.4z"/>
	<path id="XMLID_36_" class="st0" d="M-55.7,389.7c17,5.3-2.6,20.1-5.6,22.6c-2.8,2.4-5,5.1-6.7,8.4c-0.7,1.4-1.5,2.7-2.2,4.2
		c-0.6,1.3-1.3,3-1,4.5c0.7-2.8,2.4-5.2,4.2-7.3c-2.5,5.4-5,11.1-5.6,17.1c1.7-11,8.5-20.4,18.2-25.7c-7.4,7.5-15.2,16.1-16.6,27
		c-0.4,2.8-0.4,6.1,0.8,8.7c-3.5-12,5.3-23.2,13.2-31.1c4.1-4.1,8.6-8,11.7-12.9c4.9-7.2,4.7-15.2-4.3-20.8c-2.4-1.5-6.4-3-8.7-0.4
		c0.7,0.5,1.7,0.5,2.4,1.1c-0.4,0.1-0.7,0.8-0.3,0.8c-0.3,0,1.8-0.2,2.2,0.4c-0.9,0.2-3.1,1.2-3.4,1.5c0.5,0.2,2.2,1,2.8,1.1
		c-0.6,0-1.4-0.1-1.9,0.2"/>
	<path id="XMLID_35_" class="st0" d="M-66.1,452.2c11.8,5.1,44.7,0,49,0.4c2.3,0.2,9.2,0.5,11.9,3.9c0-0.1-0.1-0.1-0.1-0.2
		c1.7,2.8,0.2,6.2-1.3,8.7c-1.6,2.6-3.8,4.8-6.1,6.8c-4.3,3.7-19.6,10-22.3,10.7c-6.2,1.5-12.4,2.2-18.7,2.7
		c-3.3,0.3-6.7,0.4-9.8,1.4c7.1-0.7,14.3-0.6,21.4-1.1c-12,2.2-24.3,2.1-36.5,2.7c-3.5,0.2,26.2,0.8,44.3-2
		c17.2-4.8,21.5-7.7,26.8-11.7c-9.2,11.9-30.2,14.4-36.7,15c-15.1,1.3-30.2-0.1-45.3,1.3c-7.8,0.8-16,2.1-23,5.8
		c13.6-6.1,28.9-6.1,43.5-5.9c14.5,0.2,29.3,0.6,43.4-3.3c5.4-1.5,10.6-4.9,15-8.4c5.3-4.1,10.6-9.5,12.5-16.1c1-3.4,0.8-7-0.9-10.1
		c-1.4-2.6-4-4.3-6.8-5.4c-8.9-3.4-37.6-1.4-45.3-1.4c-3.4,0-11.9,0.8-20.9-6.9c0,2.2,1.1,3.7,2.3,5.4c-0.8-0.4-1.7-1.2-2.3-1.9
		c0.4,0.8,1,2.4,1.7,2.9c-0.5-0.3-1.1-0.8-1.7-0.9c0.7,1.2,5.6,2.8,6.4,3.3c-2,0-4.1-1.2-5.9-2c0.4,0.5,1.5,1.3,2,1.8
		c-1-0.3-2-1-3-1.2c1,1.2,6.3,4.2,7.9,4.5c-1.7-0.2-3.4-0.8-5.1-1.1"/>
	<path class="st0" d="M-20,461.4c-4.5,1.2-47.5,16.6-74.8,1.8c-3.4-1.1-5.6-1.9-6.1-1.9c1.3,1.8,3.2,2.9,4.8,4.4
		c-0.9-0.3-1.8-0.4-2.6-0.9c0.7,0.6,1.4,1.2,2.2,1.6c-0.5-0.2-1.2-0.6-1.8-0.4c0.9,0.8,5.8,1.8,6.7,2.3c-1.7,0-3.4-0.6-5.1-0.8
		c5.7,6.4,22.7,9.3,23.2,9.4c-3.2,0.6-6.4,1.2-9.6,1.9c-0.1,0.1,43.2-5.2,48-6.1c-1.9,0.5-19.2,4.1-26,5.1
		c-13.5,2-27.3,3.5-40.2,8.1c-6.5,2.3-12.9,5.4-18.1,10c5.7-4.3,12.1-7.6,18.9-9.9c6.9-2.2,13.9-3.7,21.1-4.8
		c14.9-2.3,29.8-3.4,44.5-7.1c6.2-1.6,12.1-3.8,18-6.2C-17.3,466.9-19.8,461.5-20,461.4z"/>
	<path id="XMLID_33_" class="st0" d="M-114.2,476.3c-0.4-2.8-5-7.8-5-7.8c0.2,0.5-1,1.1-1.4,1.1c0,0.6,2.1,2.5,2.1,2.9
		c-0.8-0.7-2.7-1.6-2.9-1.7c-0.1,0.1,0.2,2.5,0.5,3.1c-0.4-0.6-1.5-0.4-1.5-0.4s0.2,1.4,0.4,2c-1.5-1-3.6-1.2-5.3-1.4
		c1.8-1,7-5.6,7.7-6.5c0.1-0.1-5.4,4.8-8.7,6.4c-1.7-0.1-3.5-0.3-5.2-0.4c11-4.9,16.5-12.2,14.9-19c2.5,9.4-14.7,18.1-18,18.7
		c-0.3,0.1-5.9-1.6-8.8-2.2c0.1,1,0.5,3.4,0.4,3.4c0.3,0.4,2.4,2.2,3.2,2.5c-0.3,0-3.9,0.2-4.6,0.1c0.3-0.4,1.3-2.2,1.1-2.5
		c-1.2,0.7-2.6,2.3-3.4,3.4c1.9,0.4,6.8,3.2,6.9,3.3c0.1,0.1,2.8-0.7,3.9-1c2.1,0.4,10.2,1.1,10.4,1.1c3.8,2.8,3.8,6.4-6,13.3
		C-117,488.5-113.8,480.1-114.2,476.3z"/>
	<path id="XMLID_30_" class="st0" d="M-16.9,319.5c0.3-3.2,1.4-6.3,2.8-9.2c0.2-0.4,0.4-0.9,0.7-1.4c0.1-0.1,5.1-3.8,7.4-5.8
		c-1.2-0.7-2.3-1.5-3.5-2.2c0.5-1.1,0.8-2,0.7-2.3c-0.2-0.7-0.4-1.4-0.6-2.1c-0.9,0.7-2.4,2-4.2,3.4c-0.4,0-2.3,0-2.6-0.3
		c-0.4,0.6-1.2,2.8-1.4,3.7c-2.2,1.9-7.8,7.5-9.3,8.9l-6.1-10.4c-0.6-0.7-1.2-1.4-1.8-2.1C-35.2,303-45.2,328-20,326.1
		c0-0.1,0.6-0.5,0.7-0.6c0.1-0.2,0.2-0.4,0.2-0.7c0,0-1.8-0.4-2.4-0.8c0.5-0.1,1-0.3,1.5-0.3c-0.4-0.2-1.5-1-2.1-0.9
		c-0.3,0-1.3,0.3-1.6,0c1-0.2,2.1-0.3,3.1-0.8c-0.2-0.1-0.5-0.2-0.7-0.4c0.4-0.1,1,0.1,1.4-0.3c-0.6-0.2-1.3-0.3-1.9-0.6
		c-0.5-0.2-0.9-0.5-1.5-0.6c0.7,0,1.5,0.2,2.2-0.1c-0.2-0.2-4.8-1.6-4.8-1.6c2.6,0.4,4.7-1.8,6.4-3.5l2-2.3
		c-1.8,4.5-2.2,9.3-1.6,12.2c0,0.1,0.1,0.1,0.1,0.2s0,0.2,0,0.3l0.1,0.2c0.1,0.4,0.2,0.7,0.4,1c-0.1-0.4-0.2-0.8-0.3-1.3l0,0l0,0
		c-0.3-3.3,1.1-8.8,2.7-13.9c0.3-0.3,0.5-0.5,0.8-0.8c-0.3,0.6-0.6,1.2-0.7,1.6c-1.9,5.1-2.6,11.2,0.2,16.1c1.3,2.4,3.6,4.7,6.4,5.3
		C-15,331.5-17.4,325.1-16.9,319.5z M-11.2,299.8c0,0,0.6-0.8,1.2-1.2c0.1,0.3,0.4,1.5,0.6,1.5c-0.2,0.2-0.4,0.3-0.6,0.4
		c-0.1,0-0.2,0.1-0.3,0.2C-10.8,300.1-11.8,300.6-11.2,299.8z"/>
	<path class="st0" d="M-67.8,405.4c-10.5,7.5-14-2.3-16.2-4.8c-0.6-0.3-1.8-1.4-2.5-1.6c1.5,0.7,0.5,1,1.5,3.4
		c0.7,1.7,1.2,3.7,1.3,5.5c-0.6-1.2-1.1-2.4-1.4-3.7c-0.2-0.9-0.4-2-0.8-2.8c-0.9-1.6-3.4-2.3-5.1-2.6c1.8,0.6,4.1,1.2,4.7,3.2
		c0.4,1.3,0.4,2.7,0.8,4c0.4,1.5,1,2.9,1.9,4.1c0.9,1.1,3.6,2.8,9,2.1C-70.9,411.7-67.8,406.3-67.8,405.4z"/>
	<path id="XMLID_28_" class="st0" d="M-86.7,402.3c-0.6-2-4-2.6-5.7-3L-86.7,402.3z"/>
	<path id="XMLID_27_" class="st0" d="M-67.1,319.2c-1.6-0.7-3.3-0.6-5.1-0.9c-15.3-2.5-26.4,3.9-29,8.5c-3.2,5.6-2.3,12-1.4,18.1
		c0.4,3.1,5.6,34.4-25.2,53.7c-2.7,2-5.5,3.8-8.4,5.5c-3,1.7-6.2,3.3-8.8,5.5c6-3.2,12.1-6.1,17.8-9.6c-8.8,6.9-19.2,12-29.9,15.4
		c-3.2,1-6.5,2-9.8,2.7c11-2.2,21.7-6.4,31.7-11.6c4.8-2.5,9.5-5.3,13.8-8.5c4-3,7.6-7.2,12.1-11.2c-3.2,5.8-8.7,11.4-13.8,15
		c-6.1,4.3-12.7,7.7-19.6,10.6c-7.1,3-14.6,5.5-22.1,7.1c-4.3,0.9-8.7,1.6-13.1,1.8c-4.2,0.2-8.3-0.1-12.5-0.7
		c11.7,2.5,24.2,0.2,35.5-3.2c11-3.2,21.8-7.8,31.4-14.1c29.5-13.2,28.9-38.8,29.1-49c0.1-3.7-0.6-7.3-1.3-10.9
		c-0.8-4.2-1.9-9.4,1.3-12.9c0.3-0.3,8.7-9.7,26.1-3.8c1.2,0.4,2.2,1.1,3,2.1c0.4,0.5,0.8,0.9,1.1,1.4c0.4,0.6,0.6,1.3,1.2,1.8
		c0.1-1.1,0.1-2.1-0.1-3.1c-0.2-1-0.7-1.8-1-2.8c0.7,0.5,1.4,1.1,1.8,1.9c-0.2-0.9-0.5-1.7-1.2-2.4c0.4,0.4,0.9,0.9,1.4,1.1
		c-0.3-1.1-1.3-1.9-2.3-2.4c-1.1-0.6-2.4-0.6-3.4-1.2c2,0,3.7,0.8,5.4,1.6c-0.4-0.5-0.8-1-1.3-1.5c1,0.3,1.5,1.4,2.5,1.8
		c-1.5-2.5-4.7-4.6-7.6-4.9c1.8,0.2,3.4,0.9,5.1,1.1c-0.6-0.6-1.4-0.9-2.2-1.3c0.1,0,0.2,0,0.2-0.1c-0.2-0.1-1.4-0.6-1-0.8
		c0,0.1-0.1,0.1-0.1,0.2"/>
	<path id="XMLID_24_" class="st0" d="M-165.3,453.9c-1.2-0.4-2.4-0.7-3.7-1.1c2.1-1.4,17.1-10.4,23-12.6c1.2,0.1,2.4,0.3,3.7,0.4
		c-5.8,2.5-19,8.1-21.6,11.3c1.5,0.5,3,1,4.5,1.4c3.3,0.7,6.7,0.6,10,0.1c6.6-1.1,12.2-3.1,18.4-5.5c-0.1,1.3-0.5,6.1-0.5,6.8
		c0.1-0.1,3.3-10.3,3-9.4c-5.4,2-19.8,7.1-31.6,5.8c7-4.4,12.9-6.9,20.5-10c1.5,0.2,2.9,0.4,4.4,0.6c-0.2-0.7-0.4-1.4-0.6-2.1
		c1.9-0.8,3.8-1.6,5.7-2.4c1.5-0.6,2.9-1.3,4.4-1.9c-3.8-0.4-7.7-0.8-11.5-1.2c-0.1-0.5-0.3-1.1-0.4-1.6c-1.1,0.4-2.1,0.8-3.1,1.3
		c-7.3-0.1-32.8-2.9-39-7.4c1.4-0.6,2.6-1.5,3.2-2.8c-1.8,0.1-5.3,0.3-5.4,0.2c0.8-0.5,2.3-0.6,3-1.2c-0.5,0-2.9,0-4.9,0
		c0.9-0.3,2.9-0.9,2.4-0.8c0.3-0.4-4.5,0-4.5,0c-6.9-0.2-14.9-4-14.6-2.5c0,0,7,8.6,7.3,8.8l-0.4,1c0.6,0,1.2-0.1,1.8-0.1
		c0.3,0.2,15,8.3,38.7,11c-2.2,1.2-13.1,7.2-16.6,10.1c-0.7,0.5,8.9-4.6,15.3-7.5c-5.6,3.5-12.6,7.5-17.8,11.5
		c2.7,0.6,7.1,1.4,9.8,2c5.4,1.3,10.7,1,16-0.4c3.7-1,7.3-2.4,10.8-3.9c-5.7,2.3-11.7,4.5-18,4.7
		C-157.9,456.1-161.5,455.1-165.3,453.9z M-131.3,435.9c-1.7,0.7-6.2,2.8-7.9,3.5c-0.1-0.4,2.2-3.7,2.2-4
		C-135.1,435.5-133.2,435.7-131.3,435.9z"/>
</g>
</svg>
