<?xml version="1.0" encoding="utf-8"?>
<!-- Generator: Adobe Illustrator 19.1.0, SVG Export Plug-In . SVG Version: 6.00 Build 0)  -->
<svg version="1.1" id="archive" xmlns="http://www.w3.org/2000/svg" xmlns:xlink="http://www.w3.org/1999/xlink" x="0px" y="0px"
	 viewBox="240 -209.1 600.1 509.1" style="enable-background:new 240 -209.1 600.1 509.1;" xml:space="preserve">
<g>
	<path d="M529.9-209.1c75.6,0,151.2,0,226.8,0c19.9,0,26.5,6.5,26.6,26.1c0.1,21.8,0.1,43.7,0,65.5c-0.1,18.6-7,25.5-25.2,25.5
		c-152.5,0-305,0-457.5,0c-18.5,0-25.5-6.8-25.5-25.2c-0.1-22.1-0.1-44.4,0-66.5c0.1-18.9,6.9-25.5,26.2-25.5
		C377.4-209.1,453.6-209.1,529.9-209.1z"/>
	<path d="M711.3-42.1c-121.5,0-242.8,0-364.3,0c-17.2,0-23,7-23,27.8c0,98.1,0,188.4,0,286.5c0,20.8,5.9,27.8,23,27.8
		c60.4,0,120.8,0,181.3,0c60.7,0,121.5,0,182.1,0c18.3,0,23.9-6.6,23.9-28.8c0-97.8,0-187.7,0-285.5
		C734.3-35.1,728.5-42.1,711.3-42.1z M570.7,96.5c-3.5,0.2-6.9,0.2-10.4,0.2c-10.4,0.2-20.9-0.2-31.3-0.2c-10.2,0-20.4,0.2-30.6,0.2
		c-3.4,0-6.8,0-10.2-0.2c-15.1-0.3-25-14.3-25-34.5c0-20.3,9.7-34.1,25-34.3c27.5-0.3,55.1-0.3,82.6,0c14.6,0.2,24.1,13.8,24.3,33.5
		C595.3,81.7,585.7,96,570.7,96.5z"/>
</g>
</svg>
