<?xml version="1.0" encoding="utf-8"?>
<!-- Generator: Adobe Illustrator 18.1.1, SVG Export Plug-In . SVG Version: 6.00 Build 0)  -->
<!DOCTYPE svg PUBLIC "-//W3C//DTD SVG 1.1//EN" "http://www.w3.org/Graphics/SVG/1.1/DTD/svg11.dtd">
<svg version="1.1" id="XMLID_1_" xmlns="http://www.w3.org/2000/svg" xmlns:xlink="http://www.w3.org/1999/xlink" x="0px" y="0px"
	 viewBox="0 0 600.1 509.15" enable-background="new 0 0 600.1 509.15" xml:space="preserve">
<path id="audio" d="M578.8499,386.75l-6.8,17.85l-67.15,11.9c-10.2,39.1-45.9,68.85-89.25,68.85v11.9
	c0,6.7999-5.1001,11.9-11.9,11.9H380.8c-6.8,0-11.8999-5.1001-11.8999-11.9V289c0-6.7999,5.1-11.9,11.8999-11.9h22.95
	c6.8,0,11.9,5.1001,11.9,11.9v11.9c34.85,0,64.6,19.5499,80.75,47.6l24.65-4.25c6.8-22.1,10.2-45.9,10.2-69.7001
	c0-108.7999-107.95-204-231.2-204s-231.2001,95.2001-231.2001,204c0,23.7999,3.3999,47.6001,10.2001,69.7001l24.6499,4.25
	c16.1499-28.0499,45.8999-47.6,80.75-47.6V289c0-6.7999,5.1001-11.9,11.8999-11.9h22.95c6.8,0,11.8999,5.1001,11.8999,11.9v208.25
	c0,6.7999-5.1,11.9-11.8999,11.9h-22.95c-6.8,0-11.8999-5.1001-11.8999-11.9v-11.9c-43.3501,0-79.05-28.8999-89.25-68.85
	l-67.1499-11.9L21.25,386.75C6.7999,351.0499,0,312.7999,0,273.7001C0,124.9501,137.7,0,300.05,0S600.1,124.9501,600.1,273.7001
	C600.0999,311.9501,593.2999,350.2001,578.8499,386.75z"/>
</svg>
