<?xml version="1.0" encoding="utf-8"?>
<!-- Generator: Adobe Illustrator 18.1.1, SVG Export Plug-In . SVG Version: 6.00 Build 0)  -->
<svg version="1.1" id="bell-circle" xmlns="http://www.w3.org/2000/svg" xmlns:xlink="http://www.w3.org/1999/xlink" x="0px" y="0px"
	 viewBox="-289 381 32 32" enable-background="new -289 381 32 32" xml:space="preserve">
<g>
	<path d="M-272.2,399c-5.1,1.9-6.8,4.4-6.5,5.1c0.2,0.4,3.8,1.4,8.2-0.2c4.4-1.6,6.6-4.7,6.5-5.2
		C-264.3,397.8-267.2,397.1-272.2,399z M-273.4,402.9c-1.4,0.5-2.5,0.1-3.2-0.6c1-0.8,2.1-1.5,4.1-2.2c0,0,0.2-0.1,0.4-0.2
		c0.1,0,0.1,0,0.1,0c0.1,0,0.1,0,0,0C-271.5,401.1-271.7,402.3-273.4,402.9z"/>
	<path d="M-272.1,400c-0.1,0-0.3,0.1-0.4,0.1c0,0,0,0,0,0C-272.5,400.1-272.3,400-272.1,400z"/>
	<path d="M-271.9,399.9C-271.9,399.9-271.9,399.9-271.9,399.9c0,0-0.1,0-0.1,0.1c0,0,0,0-0.1,0C-272.1,399.9-272,399.9-271.9,399.9z
		"/>
	<path d="M-273,381c-8.8,0-16,7.2-16,16s7.2,16,16,16s16-7.2,16-16S-264.1,381-273,381z M-270,405.4c-5,1.8-9.7,1.1-10.3-0.7
		c-0.9-2.5,1.3-2.6,0.7-5.1c-1.5-6-1.8-8.5,1.5-11.3c1.2-1,0.2-1.6,1.3-2c1.2-0.4,0.8,0.7,2.3,0.7c4.3-0.1,5.6,2,8.2,7.7
		c1.1,2.4,2.9,1,3.7,3.5C-261.9,399.9-265,403.6-270,405.4z"/>
</g>
</svg>
