<?xml version="1.0" encoding="utf-8"?>
<!-- Generator: Adobe Illustrator 17.1.0, SVG Export Plug-In . SVG Version: 6.00 Build 0)  -->
<!DOCTYPE svg PUBLIC "-//W3C//DTD SVG 1.1//EN" "http://www.w3.org/Graphics/SVG/1.1/DTD/svg11.dtd">
<svg version="1.1" xmlns="http://www.w3.org/2000/svg" xmlns:xlink="http://www.w3.org/1999/xlink" x="0px" y="0px" width="53.7px"
	 height="52.2px" viewBox="0 0 53.7 52.2" enable-background="new 0 0 53.7 52.2" xml:space="preserve">
<g id="Layer_4">
	<g>
		<path fill="#FFBB64" d="M21.8,23l5.1,5.1l5.1-5.1C29.1,20.2,24.6,20.2,21.8,23z"/>
		<path fill="#FFBB64" d="M34.7,20.1l4.5-4.5c-6.8-6.8-17.9-6.8-24.8,0l4.5,4.5C23.3,15.8,30.4,15.8,34.7,20.1z"/>
		<path fill="#FFBB64" d="M7,8.2l5.4,5.4c8-8,21-8,28.9,0l5.4-5.4C35.7-2.7,17.9-2.7,7,8.2z"/>
	</g>
</g>
<g id="Layer_3">
	<path id="phone_2_" fill="#1A1A1A" d="M46.9,18c-0.7-0.3-1.6,0-1.9,0.7l-2.4,5.4c-0.3,0.7,0,1.6,0.7,1.9l4.1,1.8
		c0,0,1.4,0.6-2.2,8.7s-4.9,7.5-4.9,7.5l-4.1-1.8c-0.7-0.3-1.6,0-1.9,0.7l-2.4,5.4c-0.3,0.7,0,1.6,0.7,1.9l3.4,1.5
		c0,0,7.4,3.3,14.6-12.9s-0.3-19.5-0.3-19.5L46.9,18z"/>
	<path id="phone_1_" fill="#1A1A1A" d="M3.4,19.5c0,0-7.4,3.3-0.3,19.5s14.6,12.9,14.6,12.9l3.4-1.5c0.7-0.3,1.1-1.2,0.7-1.9
		L19.5,43c-0.3-0.7-1.2-1.1-1.9-0.7l-4.1,1.8c0,0-1.4,0.6-4.9-7.5s-2.2-8.7-2.2-8.7l4.1-1.8c0.7-0.3,1.1-1.2,0.7-1.9l-2.4-5.4
		C8.4,18,7.5,17.6,6.8,18L3.4,19.5z"/>
</g>
</svg>
