<?xml version="1.0" encoding="utf-8"?>
<!-- Generator: Adobe Illustrator 19.1.0, SVG Export Plug-In . SVG Version: 6.00 Build 0)  -->
<svg version="1.1" id="archive" xmlns="http://www.w3.org/2000/svg" xmlns:xlink="http://www.w3.org/1999/xlink" x="0px" y="0px"
	 width="600.1px" height="509.1px" viewBox="-311 142.9 600.1 509.1" style="enable-background:new -311 142.9 600.1 509.1;"
	 xml:space="preserve">
<path id="archive_1_" d="M263.5,620.2c0,17.6-14.3,31.8-31.8,31.8h-487.9c-17.6,0-31.8-14.2-31.8-31.8v-106
	c0-17.6,14.3-31.8,31.8-31.8h154.1l44.7,45.1c12.3,11.9,28.2,18.6,45.1,18.6s32.8-6.6,45.1-18.6l45.1-45.1h153.8
	c17.6,0,31.8,14.2,31.8,31.8V620.2z M151.2,348.7L2.7,497.2c-4,4.3-9.6,6.3-14.9,6.3s-10.9-2-14.9-6.3l-148.5-148.5
	c-6.3-6-8-15.2-4.6-23.2c3.3-7.6,10.9-12.9,19.6-12.9h84.8V164.1c0-11.6,9.6-21.2,21.2-21.2h84.8c11.6,0,21.2,9.6,21.2,21.2v148.5
	h84.9c8.6,0,16.2,5.3,19.6,12.9C159.1,333.5,157.5,342.8,151.2,348.7z M115,567.2c-11.6,0-21.2,9.6-21.2,21.2
	c0,11.6,9.6,21.2,21.2,21.2c11.6,0,21.2-9.6,21.2-21.2C136.3,576.8,126.6,567.2,115,567.2z M199.9,567.2c-11.6,0-21.2,9.6-21.2,21.2
	c0,11.6,9.6,21.2,21.2,21.2c11.6,0,21.2-9.6,21.2-21.2C221.1,576.8,211.5,567.2,199.9,567.2z"/>
</svg>
