<?xml version="1.0" encoding="utf-8"?>
<!-- Generator: Adobe Illustrator 19.1.0, SVG Export Plug-In . SVG Version: 6.00 Build 0)  -->
<svg version="1.1" id="health" xmlns="http://www.w3.org/2000/svg" xmlns:xlink="http://www.w3.org/1999/xlink" x="0px" y="0px"
	 width="20px" height="20px" viewBox="-601 387 20 20" style="enable-background:new -601 387 20 20;" xml:space="preserve">
<path d="M-581.1,403.3c0,2.1-1.7,3.7-3.7,3.7h-12.5c-2.1,0-3.7-1.7-3.7-3.7v-12.5c0-2.1,1.7-3.7,3.7-3.7h12.5c2.1,0,3.7,1.7,3.7,3.7
	V403.3z M-584.4,396.2c0-0.5-0.4-0.8-0.8-0.8h-4.2v-4.2c0-0.5-0.4-0.8-0.8-0.8h-1.7c-0.5,0-0.8,0.4-0.8,0.8v4.2h-4.2
	c-0.5,0-0.8,0.4-0.8,0.8v1.7c0,0.5,0.4,0.8,0.8,0.8h4.2v4.2c0,0.5,0.4,0.8,0.8,0.8h1.7c0.5,0,0.8-0.4,0.8-0.8v-4.2h4.2
	c0.5,0,0.8-0.4,0.8-0.8V396.2z"/>
</svg>
