<?xml version="1.0" encoding="utf-8"?>
<!-- Generator: Adobe Illustrator 19.1.0, SVG Export Plug-In . SVG Version: 6.00 Build 0)  -->
<svg version="1.1" id="money" xmlns="http://www.w3.org/2000/svg" xmlns:xlink="http://www.w3.org/1999/xlink" x="0px" y="0px"
	 width="20px" height="20px" viewBox="-601 387 20 20" style="enable-background:new -601 387 20 20;" xml:space="preserve">
<path d="M-581,403.2c0,0.4-0.3,0.7-0.7,0.7h-18.6c-0.4,0-0.7-0.3-0.7-0.7v-12c0-0.4,0.3-0.7,0.7-0.7h18.6c0.4,0,0.7,0.3,0.7,0.7
	V403.2z M-582.4,394.5c-1.5,0-2.7-1.2-2.7-2.7h-12c0,1.5-1.2,2.7-2.7,2.7v5.3c1.5,0,2.7,1.2,2.7,2.7h12c0-1.5,1.2-2.7,2.7-2.7V394.5
	z M-591,401.5c-2.2,0-3.3-2.4-3.3-4.3s1.1-4.3,3.3-4.3s3.3,2.4,3.3,4.3S-588.8,401.5-591,401.5z M-589,399.9v-1h-1.3v-4.7h-1.2
	l-1.5,1.4l0.8,0.8c0.2-0.2,0.4-0.3,0.6-0.6h0v3h-1.3v1H-589z"/>
</svg>
