<?xml version="1.0" encoding="utf-8"?>
<!-- Generator: Adobe Illustrator 17.1.0, SVG Export Plug-In . SVG Version: 6.00 Build 0)  -->
<!DOCTYPE svg PUBLIC "-//W3C//DTD SVG 1.1//EN" "http://www.w3.org/Graphics/SVG/1.1/DTD/svg11.dtd">
<svg version="1.1" id="pause" xmlns="http://www.w3.org/2000/svg" xmlns:xlink="http://www.w3.org/1999/xlink" x="0px" y="0px"
	 width="320px" height="480px" viewBox="0 0 320 480" enable-background="new 0 0 320 480" xml:space="preserve">
<path d="M135,367.8c0,6.7-5.4,12.2-12,12.2H57c-6.6,0-12-5.5-12-12.2V112.2c0-6.7,5.4-12.2,12-12.2h66c6.6,0,12,5.5,12,12.2V367.8z"
	/>
<path d="M275,366.8c0,6.7-5.4,12.2-12,12.2h-66c-6.6,0-12-5.5-12-12.2V111.2c0-6.7,5.4-12.2,12-12.2h66c6.6,0,12,5.5,12,12.2V366.8z
	"/>
</svg>
