<?xml version="1.0" encoding="utf-8"?>
<!-- Generator: Adobe Illustrator 18.1.1, SVG Export Plug-In . SVG Version: 6.00 Build 0)  -->
<!DOCTYPE svg PUBLIC "-//W3C//DTD SVG 1.1//EN" "http://www.w3.org/Graphics/SVG/1.1/DTD/svg11.dtd">
<svg version="1.1" id="XMLID_1_" xmlns="http://www.w3.org/2000/svg" xmlns:xlink="http://www.w3.org/1999/xlink" x="0px" y="0px"
	 viewBox="0 0 20 14.0053" enable-background="new 0 0 20 14.0053" xml:space="preserve">
<g id="people">
	<g>
		<path d="M7.6996,8.3349C7.0463,8.7459,6.3028,9,5.5,9S3.9537,8.7459,3.3004,8.3349C1.3585,8.9523,0,10.36,0,12
			c0,2.2091,2.4625,2,5.5,2s5.5,0.2091,5.5-2C11,10.36,9.6415,8.9523,7.6996,8.3349z"/>
		<ellipse cx="5.5" cy="4" rx="3.5" ry="4"/>
	</g>
	<g>
		<g>
			<path d="M20,3c0,0.55-0.45,1-1,1h-6c-0.55,0-1-0.45-1-1l0,0c0-0.55,0.45-1,1-1h6C19.55,2,20,2.45,20,3L20,3z"/>
		</g>
		<g>
			<path d="M20,7c0,0.55-0.45,1-1,1h-7c-0.55,0-1-0.45-1-1l0,0c0-0.55,0.45-1,1-1h7C19.55,6,20,6.45,20,7L20,7z"/>
		</g>
		<g>
			<path d="M20,11c0,0.55-0.45,1-1,1h-5c-0.55,0-1-0.45-1-1l0,0c0-0.55,0.45-1,1-1h5C19.55,10,20,10.45,20,11L20,11z"/>
		</g>
	</g>
</g>
</svg>
