<?xml version="1.0" encoding="utf-8"?>
<!-- Generator: Adobe Illustrator 19.1.0, SVG Export Plug-In . SVG Version: 6.00 Build 0)  -->
<svg version="1.1" id="ps-star" xmlns="http://www.w3.org/2000/svg" xmlns:xlink="http://www.w3.org/1999/xlink" x="0px" y="0px"
	 viewBox="-33 20.6 51.9 51.4" style="enable-background:new -33 20.6 51.9 51.4;" xml:space="preserve">
<style type="text/css">
	.st0{fill:#BF4647;}
</style>
<g>
	<path class="st0" d="M-4.7,60.6c-2.1,0-4.1-0.8-5.8-1.6c-1.7-1-3-2.2-3.9-3.9c-1.5-3.7-1.7-6.8-0.4-9.7c0.1-0.3,0.1-0.8,0.1-1.3
		c0-0.8,0-1.6,0.5-2.1c0.2-0.2,0.5-0.4,0.9-0.4l0.2-0.1c0.2-0.1,0.5-0.1,0.6,0c0.2,0.2,0.2,0.4,0.1,0.6c-0.2,0.4-0.3,0.9-0.4,1.5
		c-0.1,0.4-0.1,0.9-0.3,1.2l0.3,1.8c0,0.1,0,0.2,0,0.2c-0.6,2.3-0.4,4.6,0.7,7.1c0.2,0.4,0.5,0.7,0.8,1.1c0.2,0.2,0.5,0.5,0.7,0.8
		c1.8,1.5,4.5,2.3,6.8,2c1.3-0.4,2.9-1.1,3.6-2.4c0-0.1,0.1-0.1,0.1-0.2c0.6-0.5,0.8-1.2,1-1.9c0.2-0.3,0.4-0.7,0.5-1
		c0.4-1.5,0.8-3.2-0.1-4.7l-0.2-0.3c-0.5-0.6-1-1.2-1.6-1.6c-0.7-0.6-1.6-1.4-2.6-1.8c0,0-0.1,0-0.1-0.1c-0.1,0-0.1,0-0.2,0
		c-0.8-0.3-1.5-0.5-2.3-0.6c-0.3-0.1-0.7-0.1-1-0.2l-0.2,0.1c-1.3,0.5-2.6,0.9-3.6,1.8c-0.1,0.1-0.3,0.2-0.5,0.1
		c-0.2,0-0.3-0.2-0.4-0.3l-0.4-1.2c-0.1-0.2,0-0.6,0.3-0.9c0-0.1,0.2-0.2,0.2-0.2c0.2-0.1,0.3-0.2,0.5-0.3c0.1-0.2,0.3-0.5,1.2-0.8
		c0.3-0.1,0.4-0.1,0.6,0c0.1-0.2,0.4-0.3,0.5-0.3c0.1-0.1,0.3-0.2,0.5-0.1c0.5-0.1,1-0.1,1.5-0.1c0.1,0,0.3,0,0.4,0h1.8
		c0.5,0.1,0.9,0.3,1.3,0.5c0.3,0.2,0.6,0.3,0.9,0.3c0.1,0,0.2,0,0.2,0.1c1,0.5,2.1,1.1,2.7,2.1c0.2,0,0.3,0.1,0.4,0.2
		s0.2,0.2,0.3,0.2s0.2,0.1,0.2,0.2c0.1,0.1,0.3,0.3,0.4,0.4c0.4,0.4,0.8,0.8,1,1.4c0.1,0.2,0.3,0.4,0.4,0.7c0.4,0.7,0.9,1.5,0.9,2.5
		c0.4,1,0.2,2.3-0.4,3.4c0,0.3-0.2,0.6-0.3,0.9c-0.1,0.2-0.2,0.4-0.2,0.5s-0.1,0.2-0.2,0.3c-0.6,2.4-2.4,4.4-4.9,5.4
		C-2.6,60.4-3.6,60.6-4.7,60.6z"/>
</g>
<g>
	<path class="st0" d="M8,69.4L8,69.4c-0.2,0-0.3-0.1-0.3-0.2c-0.8-1.8-2-3.2-3.3-4.8c-0.7-0.8-1.3-1.6-2-2.5
		c-0.1-0.2-0.2-0.4-0.1-0.6c0-0.2,0.2-0.3,0.3-0.3l0,0c0-0.1,0.2-0.2,0.3-0.3c1.3-0.3,2.1,0.6,2.7,1.4c0.2,0.2,0.3,0.4,0.5,0.5
		c1.9,2.2,3,4.2,3.1,6c0,0.1,0,0.2-0.1,0.3c-0.2,0.2-0.4,0.4-0.8,0.4l-0.1,0.1C8.1,69.4,8.1,69.4,8,69.4z"/>
</g>
<g>
	<path class="st0" d="M-7.4,71.8c-0.2,0-0.5-0.1-0.6-0.3c0,0,0-0.1-0.1-0.1c-0.4-0.7-0.4-1.4-0.3-2.1c0.1-0.4,0.1-0.8,0.2-1.3
		c0.2-1.6,0.5-3.3,0.9-4.8c0-0.1,0.1-0.2,0.3-0.3l0,0c0,0,0-0.1,0.1-0.1c0.1-0.2,0.3-0.4,0.6-0.4c0.2,0,0.4,0.1,0.6,0.2
		c0.7,0.7,0.6,1.7,0.4,2.5v0.2c-0.3,1.7-0.6,3.9-1.4,5.9c-0.1,0.2-0.3,0.4-0.5,0.4C-7.3,71.8-7.3,71.8-7.4,71.8z"/>
</g>
<g>
	<path class="st0" d="M17.4,56.8c-0.4,0-0.7-0.2-1-0.3c-0.1,0-0.2-0.1-0.2-0.1l0,0c-0.6-0.3-1.3-0.5-1.9-0.7
		c-1.9-0.7-3.9-1.4-5.5-2.8c0,0,0,0-0.1-0.1l-0.2-0.3c-0.1-0.1-0.1-0.3,0-0.4c0.4-0.7,1.1-0.5,1.5-0.4c0.2,0.1,0.5,0.1,0.6,0.1
		c0.1-0.1,0.3-0.1,0.4,0c1.1,0.6,2.4,1,3.7,1.4c0.6,0.2,1.1,0.3,1.6,0.5c0.4,0.1,0.7,0.4,0.9,0.6c0.2,0.2,0.4,0.4,0.7,0.4
		c0.1,0,0.2,0.1,0.3,0.3c0.1,0,0.3,0.1,0.4,0.3s0,0.4-0.1,0.5c0,0,0,0,0,0.1s-0.1,0.3-0.3,0.5C18,56.7,17.7,56.8,17.4,56.8z"/>
</g>
<g>
	<path class="st0" d="M-18.3,62.7c-0.1,0-0.2,0-0.2-0.1c-0.1,0-0.3-0.1-0.4-0.4c-0.1-0.1-0.1-0.2,0-0.4c0.6-1.4,2.1-2.2,3.5-2.8
		l0.3-0.2c0.1,0,0.2-0.1,0.3,0c0,0,0,0,0-0.1c0.2-0.1,0.5-0.4,0.9-0.1c0.1,0,0.1,0.1,0.1,0.2c0.1,0.2,0.1,0.4,0,0.6
		c-0.1,0.2-0.2,0.3-0.3,0.4c-1,1.2-2.3,1.9-3.5,2.5l-0.5,0.2C-18.2,62.7-18.2,62.7-18.3,62.7z"/>
</g>
<g>
	<g>
		<path class="st0" d="M5.5,45.9L5.5,45.9c-0.2,0-0.3-0.1-0.4-0.3v-0.1c0,0-0.1,0-0.1-0.1c0,0-0.1,0-0.1-0.1
			c-0.1-0.1-0.2-0.3-0.2-0.4c-0.1-0.1-0.1-0.2,0-0.4c1-2.6,3.3-4.2,5.4-5.9c0.5-0.4,1-0.7,1.4-1.1c0.3-0.2,0.6-0.4,0.8-0.5
			c0.7-0.5,1.4-1,2.3-1.1c0.1,0,0.2,0,0.2,0C14.9,36,15,36,15.2,36c0.1,0,0.1,0,0.2,0c0,0,0.2,0,0.3,0c0.3,0,0.9-0.1,1.2,0.7
			c0.1,0.2,0,0.4-0.2,0.5c-3.4,1.7-6.2,4.2-9,6.5c-0.6,0.7-1.2,1.3-1.9,1.9C5.7,45.9,5.6,45.9,5.5,45.9z"/>
	</g>
</g>
<g>
	<path class="st0" d="M-27.8,52.4c-0.1,0-0.1,0-0.2,0h-0.1c-0.1-0.1-0.5-0.2-0.5-0.6c0-0.1,0.1-0.3,0.2-0.3c0.6-0.5,1.3-0.7,2-0.8
		c0.3-0.1,0.5-0.1,0.8-0.2c0.4,0,0.7-0.1,1-0.1c1.9-0.2,3.8-0.4,5.7,0.3c0.3,0,0.6,0.2,0.8,0.5c0.1,0.1,0.1,0.2,0,0.4
		c-0.1,0.1-0.2,0.2-0.3,0.2l-0.4,0.1c0,0,0,0-0.1,0c-1.3,0.1-2.5,0.2-3.8,0.3C-24.4,52.1-26.1,52.2-27.8,52.4L-27.8,52.4z"/>
</g>
<g>
	<path class="st0" d="M-2.4,37.7L-2.4,37.7l-0.5-0.1c-0.1,0-0.1-0.1-0.2-0.1l-0.1-0.1c-0.2-0.1-0.5-0.3-0.5-0.6c0-0.1,0-0.3,0.1-0.5
		c0.5-1.1,1.1-2.1,1.8-3.1c0.4-0.6,0.8-1.1,1.1-1.7l0.5-0.7c0.8-1.2,1.6-2.4,2.5-3.5l0.1-0.1c0-0.1,0-0.2,0.1-0.2
		c0.1-0.1,0.3-0.3,0.6-0.4c0.1,0,0.2,0,0.3,0c0.3,0.1,0.7,0.3,0.9,0.4s0.3,0.2,0.2,0.4l0,0l0.2,0.1c0.1,0.1,0.2,0.2,0.2,0.4
		c0,0.2-0.1,0.3-0.2,0.4c-0.4,0.2-0.6,0.5-0.8,0.9c-0.1,0.2-0.3,0.5-0.5,0.7c-0.5,0.7-1,1.5-1.5,2.3c-1.2,1.9-2.4,3.8-4,5.4
		C-2.2,37.7-2.3,37.7-2.4,37.7z"/>
</g>
<g>
	<path class="st0" d="M-17.7,44.8C-17.7,44.8-17.8,44.8-17.7,44.8l-0.6-0.1l0,0l-0.8-0.2c-1.5-0.3-3.1-0.7-4.5-1.4
		c-1.7-0.7-3.2-1.5-4.9-2.3c-0.8-0.4-1.6-0.8-2.4-1.2c-0.2-0.1-0.3-0.2-0.4-0.2c-0.6-0.4-1.4-0.8-1.5-1.7c0-0.2,0-0.5,0.1-0.8
		c0-0.2,0.2-0.4,0.2-0.5l0.1-0.1c0.1-0.1,0.2-0.2,0.3-0.2c0.5-0.1,1.1-0.2,1.7,0c0.6,0.3,1.1,0.6,1.7,0.8c1.4,0.6,2.8,1.3,3.9,2.5
		c0.7,0.5,1.6,0.8,2.6,1.1l0.5,0.2c1.4-0.4,2.4,0.4,3.3,1.1c0.4,0.3,0.8,0.6,1.2,0.8c0,0,0.1,0,0.1,0.1l0.1,0.1
		c0.2,0.2,0.6,0.5,0.4,1c0,0.1-0.1,0.1-0.1,0.2c-0.1,0.1-0.2,0.2-0.4,0.3c-0.1,0-0.2,0.1-0.2,0.2C-17.4,44.7-17.5,44.8-17.7,44.8z"
		/>
</g>
<g>
	<path class="st0" d="M-11.4,37.5c-0.3,0-0.5-0.2-0.6-0.4c-0.1-0.1-0.1-0.2-0.2-0.2l0,0c-1.6-1.4-1.9-3.4-2.2-5.2
		c-0.1-0.8-0.2-1.5-0.4-2.2c-0.1-1.2-0.3-2.4-0.5-3.5c-0.2-1.5-0.5-3-0.6-4.5c0-0.1,0-0.2,0.1-0.3c0.1-0.1,0.2-0.1,0.3-0.1l0,0
		c0.1-0.1,0.1-0.1,0.2-0.1c0.1-0.1,0.2-0.2,0.4-0.2c0.7,0,0.9,0.6,1.1,0.9c0.1,0.1,0.1,0.3,0.2,0.4c0,0.1,0.1,0.1,0.1,0.2
		c0.4,3.3,0.8,6.8,1.5,10.2c0.1,1.2,0.6,2.3,1.1,3.3c0.1,0.3,0.3,0.6,0.4,0.9c0.1,0.2,0,0.4-0.1,0.5c0,0-0.1,0.1-0.2,0.1
		c0,0.1-0.1,0.1-0.1,0.2C-11.2,37.5-11.3,37.5-11.4,37.5z"/>
</g>
</svg>
