<?xml version="1.0" encoding="utf-8"?>
<!-- Generator: Adobe Illustrator 19.1.0, SVG Export Plug-In . SVG Version: 6.00 Build 0)  -->
<svg version="1.1" id="archive" xmlns="http://www.w3.org/2000/svg" xmlns:xlink="http://www.w3.org/1999/xlink" x="0px" y="0px"
	 width="600.1px" height="509.1px" viewBox="-311 142.9 600.1 509.1" style="enable-background:new -311 142.9 600.1 509.1;"
	 xml:space="preserve">
<g>
	<path d="M-7.2,142.9c83.3,0,166.6,0,249.8,0c21.9,0,29.2,6.5,29.3,26.1c0.1,21.8,0.1,43.7,0,65.5c-0.1,18.6-7.7,25.5-27.8,25.5
		c-168,0-336,0-504,0c-20.4,0-28.1-6.8-28.1-25.2c-0.1-22.1-0.1-44.4,0-66.5c0.1-18.9,7.6-25.5,28.9-25.5
		C-175.2,142.9-91.3,142.9-7.2,142.9z"/>
	<path d="M192.6,310c-133.8,0-267.5,0-401.3,0c-18.9,0-25.3,7-25.3,27.8c0,98.1,0,188.4,0,286.5c0,20.8,6.5,27.8,25.3,27.8
		c66.5,0,133.1,0,199.7,0c66.9,0,133.8,0,200.6,0c20.2,0,26.3-6.6,26.3-28.8c0-97.8,0-187.7,0-285.5C217.9,317,211.5,310,192.6,310z
		 M37.7,448.5c-3.9,0.2-7.6,0.2-11.5,0.2c-11.5,0.2-23-0.2-34.5-0.2c-11.2,0-22.5,0.2-33.7,0.2c-3.7,0-7.5,0-11.2-0.2
		c-16.6-0.3-27.5-14.3-27.5-34.5c0-20.3,10.7-34.1,27.5-34.3c30.3-0.3,60.7-0.3,91,0c16.1,0.2,26.5,13.8,26.8,33.5
		C64.8,433.8,54.2,448,37.7,448.5z"/>
</g>
</svg>
