<?xml version="1.0" encoding="utf-8"?>
<!-- Generator: Adobe Illustrator 19.1.0, SVG Export Plug-In . SVG Version: 6.00 Build 0)  -->
<svg version="1.1" id="aura" xmlns="http://www.w3.org/2000/svg" xmlns:xlink="http://www.w3.org/1999/xlink" x="0px" y="0px"
	 width="200px" height="200px" viewBox="0 0 200 200" enable-background="new 0 0 200 200" xml:space="preserve">
<g>
	<path d="M146.8,98.2l46.1,13.8l-1.5,8.4l-48.5-5.1l37.8,30.7l-4.6,6.8l-42.4-23l22.9,42.4l-6.8,4.6l-30.5-37.4l5,47.8l-8.2,1.7
		l-14-46.2l-13.9,46.2l-8.2-1.7l5-47.8l-30.5,37.4l-6.8-4.6l22.9-42.4l-42.5,23l-4.5-6.8l37.8-30.7l-48.5,5.1l-1.5-8.4l46-13.8
		l-46-13.6l1.5-8.3l48.5,5.1L23.4,50.7l4.5-6.8l42.5,23L47.6,24.5l6.8-4.6l30.5,37.4l-5-47.8l8.2-1.7L102,54l14-46.2l8.2,1.7
		l-5,47.8l30.5-37.4l6.8,4.6l-22.9,42.4l42.4-23l4.6,6.8l-37.8,30.7l48.5-5.1l1.5,8.3L146.8,98.2z"/>
</g>
</svg>
