<?xml version="1.0" encoding="utf-8"?>
<!-- Generator: Adobe Illustrator 19.1.0, SVG Export Plug-In . SVG Version: 6.00 Build 0)  -->
<svg version="1.1" id="bell-circle" xmlns="http://www.w3.org/2000/svg" xmlns:xlink="http://www.w3.org/1999/xlink" x="0px"
	 y="0px" width="32px" height="32px" viewBox="-595 381 32 32" style="enable-background:new -595 381 32 32;" xml:space="preserve"
	>
<g>
	<path d="M-578.2,399c-5.1,1.9-6.8,4.4-6.5,5.1c0.2,0.4,3.8,1.4,8.2-0.2s6.6-4.7,6.5-5.2C-570.3,397.8-573.2,397.1-578.2,399z
		 M-579.4,402.9c-1.4,0.5-2.5,0.1-3.2-0.6c1-0.8,2.1-1.5,4.1-2.2c0,0,0.2-0.1,0.4-0.2c0.1,0,0.1,0,0.1,0c0.1,0,0.1,0,0,0
		C-577.5,401.1-577.7,402.3-579.4,402.9z"/>
	<path d="M-578.1,400c-0.1,0-0.3,0.1-0.4,0.1l0,0C-578.5,400.1-578.3,400-578.1,400z"/>
	<path d="M-577.9,399.9L-577.9,399.9c0,0-0.1,0-0.1,0.1c0,0,0,0-0.1,0C-578.1,399.9-578,399.9-577.9,399.9z"/>
	<path d="M-579,381c-8.8,0-16,7.2-16,16s7.2,16,16,16s16-7.2,16-16S-570.1,381-579,381z M-576,405.4c-5,1.8-9.7,1.1-10.3-0.7
		c-0.9-2.5,1.3-2.6,0.7-5.1c-1.5-6-1.8-8.5,1.5-11.3c1.2-1,0.2-1.6,1.3-2c1.2-0.4,0.8,0.7,2.3,0.7c4.3-0.1,5.6,2,8.2,7.7
		c1.1,2.4,2.9,1,3.7,3.5C-567.9,399.9-571,403.6-576,405.4z"/>
</g>
</svg>
