<?xml version="1.0" encoding="utf-8"?>
<!-- Generator: Adobe Illustrator 19.1.0, SVG Export Plug-In . SVG Version: 6.00 Build 0)  -->
<svg version="1.1" id="chakra" xmlns="http://www.w3.org/2000/svg" xmlns:xlink="http://www.w3.org/1999/xlink" x="0px" y="0px"
	 width="200px" height="200px" viewBox="0 0 200 200" enable-background="new 0 0 200 200" xml:space="preserve">
<path d="M148.9,103.1c0.3-0.3,0.7-0.7,1-1C169.4,82.6,171,52.6,171,52.6s-30,1.6-49.4,21.1c-0.5,0.5-0.9,0.9-1.3,1.4
	c0-0.6,0-1.2,0-1.8c0-27.5-20.1-49.9-20.1-49.9S80.1,45.7,80.1,73.2c0,0.6,0,1.1,0,1.7c-0.4-0.4-0.8-0.8-1.2-1.3
	C59.4,54.2,29.5,52.6,29.5,52.6s1.6,30,21.1,49.4c0.3,0.3,0.7,0.7,1,1c-0.4,0-0.8,0-1.2,0c-27.5,0-49.9,20.1-49.9,20.1
	s22.3,20.1,49.9,20.1s49.9-9,49.9-20.1c0,0,0.1,0,0.1,0c0,0,0,0,0,0c0,11.1,22.3,20.1,49.9,20.1s49.9-20.1,49.9-20.1
	S177.7,103,150.1,103C149.7,103,149.3,103,148.9,103.1z"/>
</svg>
