<?xml version="1.0" encoding="utf-8"?>
<!-- Generator: Adobe Illustrator 18.1.1, SVG Export Plug-In . SVG Version: 6.00 Build 0)  -->
<!DOCTYPE svg PUBLIC "-//W3C//DTD SVG 1.1//EN" "http://www.w3.org/Graphics/SVG/1.1/DTD/svg11.dtd">
<svg version="1.1" id="XMLID_1_" xmlns="http://www.w3.org/2000/svg" xmlns:xlink="http://www.w3.org/1999/xlink" x="0px" y="0px"
	 viewBox="0 0 16.9601 22.219" enable-background="new 0 0 16.9601 22.219" xml:space="preserve">
<path id="phone" d="M1.6493,1.4793c0,0-4.6643,2.9146,1.6948,13.0911s11.0233,7.262,11.0233,7.262l2.1256-1.3282
	c0.4654-0.2908,0.6069-0.9038,0.3161-1.3691l-2.1265-3.4031c-0.2908-0.4654-0.9038-0.6069-1.3691-0.3161l-2.5496,1.5932
	c0,0-0.848,0.5299-4.0276-4.5584S4.4048,6.8326,4.4048,6.8326l2.5496-1.5932c0.4654-0.2908,0.6069-0.9038,0.3161-1.3691
	L5.144,0.4672C4.8532,0.0018,4.2402-0.1397,3.7749,0.1511L1.6493,1.4793z"/>
</svg>
