<?xml version="1.0" encoding="utf-8"?>
<!-- Generator: Adobe Illustrator 19.1.0, SVG Export Plug-In . SVG Version: 6.00 Build 0)  -->
<svg version="1.1" id="ps-star" xmlns="http://www.w3.org/2000/svg" xmlns:xlink="http://www.w3.org/1999/xlink" x="0px" y="0px"
	 width="51.9px" height="51.4px" viewBox="-585 371.6 51.9 51.4" style="enable-background:new -585 371.6 51.9 51.4;"
	 xml:space="preserve">
<style type="text/css">
	.st0{fill:#BF4647;}
</style>
<g>
	<path class="st0" d="M-556.7,411.6c-2.1,0-4.1-0.8-5.8-1.6c-1.7-1-3-2.2-3.9-3.9c-1.5-3.7-1.7-6.8-0.4-9.7c0.1-0.3,0.1-0.8,0.1-1.3
		c0-0.8,0-1.6,0.5-2.1c0.2-0.2,0.5-0.4,0.9-0.4l0.2-0.1c0.2-0.1,0.5-0.1,0.6,0c0.2,0.2,0.2,0.4,0.1,0.6c-0.2,0.4-0.3,0.9-0.4,1.5
		c-0.1,0.4-0.1,0.9-0.3,1.2l0.3,1.8c0,0.1,0,0.2,0,0.2c-0.6,2.3-0.4,4.6,0.7,7.1c0.2,0.4,0.5,0.7,0.8,1.1c0.2,0.2,0.5,0.5,0.7,0.8
		c1.8,1.5,4.5,2.3,6.8,2c1.3-0.4,2.9-1.1,3.6-2.4c0-0.1,0.1-0.1,0.1-0.2c0.6-0.5,0.8-1.2,1-1.9c0.2-0.3,0.4-0.7,0.5-1
		c0.4-1.5,0.8-3.2-0.1-4.7l-0.2-0.3c-0.5-0.6-1-1.2-1.6-1.6c-0.7-0.6-1.6-1.4-2.6-1.8c0,0-0.1,0-0.1-0.1c-0.1,0-0.1,0-0.2,0
		c-0.8-0.3-1.5-0.5-2.3-0.6c-0.3-0.1-0.7-0.1-1-0.2l-0.2,0.1c-1.3,0.5-2.6,0.9-3.6,1.8c-0.1,0.1-0.3,0.2-0.5,0.1
		c-0.2,0-0.3-0.2-0.4-0.3l-0.4-1.2c-0.1-0.2,0-0.6,0.3-0.9c0-0.1,0.2-0.2,0.2-0.2c0.2-0.1,0.3-0.2,0.5-0.3c0.1-0.2,0.3-0.5,1.2-0.8
		c0.3-0.1,0.4-0.1,0.6,0c0.1-0.2,0.4-0.3,0.5-0.3c0.1-0.1,0.3-0.2,0.5-0.1c0.5-0.1,1-0.1,1.5-0.1c0.1,0,0.3,0,0.4,0h1.8
		c0.5,0.1,0.9,0.3,1.3,0.5c0.3,0.2,0.6,0.3,0.9,0.3c0.1,0,0.2,0,0.2,0.1c1,0.5,2.1,1.1,2.7,2.1c0.2,0,0.3,0.1,0.4,0.2
		c0.1,0.1,0.2,0.2,0.3,0.2s0.2,0.1,0.2,0.2c0.1,0.1,0.3,0.3,0.4,0.4c0.4,0.4,0.8,0.8,1,1.4c0.1,0.2,0.3,0.4,0.4,0.7
		c0.4,0.7,0.9,1.5,0.9,2.5c0.4,1,0.2,2.3-0.4,3.4c0,0.3-0.2,0.6-0.3,0.9c-0.1,0.2-0.2,0.4-0.2,0.5s-0.1,0.2-0.2,0.3
		c-0.6,2.4-2.4,4.4-4.9,5.4C-554.6,411.4-555.6,411.6-556.7,411.6z"/>
</g>
<g>
	<path class="st0" d="M-544,420.4L-544,420.4c-0.2,0-0.3-0.1-0.3-0.2c-0.8-1.8-2-3.2-3.3-4.8c-0.7-0.8-1.3-1.6-2-2.5
		c-0.1-0.2-0.2-0.4-0.1-0.6c0-0.2,0.2-0.3,0.3-0.3l0,0c0-0.1,0.2-0.2,0.3-0.3c1.3-0.3,2.1,0.6,2.7,1.4c0.2,0.2,0.3,0.4,0.5,0.5
		c1.9,2.2,3,4.2,3.1,6c0,0.1,0,0.2-0.1,0.3c-0.2,0.2-0.4,0.4-0.8,0.4l-0.1,0.1C-543.9,420.4-543.9,420.4-544,420.4z"/>
</g>
<g>
	<path class="st0" d="M-559.4,422.8c-0.2,0-0.5-0.1-0.6-0.3c0,0,0-0.1-0.1-0.1c-0.4-0.7-0.4-1.4-0.3-2.1c0.1-0.4,0.1-0.8,0.2-1.3
		c0.2-1.6,0.5-3.3,0.9-4.8c0-0.1,0.1-0.2,0.3-0.3l0,0c0,0,0-0.1,0.1-0.1c0.1-0.2,0.3-0.4,0.6-0.4c0.2,0,0.4,0.1,0.6,0.2
		c0.7,0.7,0.6,1.7,0.4,2.5v0.2c-0.3,1.7-0.6,3.9-1.4,5.9c-0.1,0.2-0.3,0.4-0.5,0.4C-559.3,422.8-559.3,422.8-559.4,422.8z"/>
</g>
<g>
	<path class="st0" d="M-534.6,407.8c-0.4,0-0.7-0.2-1-0.3c-0.1,0-0.2-0.1-0.2-0.1l0,0c-0.6-0.3-1.3-0.5-1.9-0.7
		c-1.9-0.7-3.9-1.4-5.5-2.8c0,0,0,0-0.1-0.1l-0.2-0.3c-0.1-0.1-0.1-0.3,0-0.4c0.4-0.7,1.1-0.5,1.5-0.4c0.2,0.1,0.5,0.1,0.6,0.1
		c0.1-0.1,0.3-0.1,0.4,0c1.1,0.6,2.4,1,3.7,1.4c0.6,0.2,1.1,0.3,1.6,0.5c0.4,0.1,0.7,0.4,0.9,0.6c0.2,0.2,0.4,0.4,0.7,0.4
		c0.1,0,0.2,0.1,0.3,0.3c0.1,0,0.3,0.1,0.4,0.3c0.1,0.2,0,0.4-0.1,0.5c0,0,0,0,0,0.1c0,0.1-0.1,0.3-0.3,0.5
		C-534,407.7-534.3,407.8-534.6,407.8z"/>
</g>
<g>
	<path class="st0" d="M-570.3,413.7c-0.1,0-0.2,0-0.2-0.1c-0.1,0-0.3-0.1-0.4-0.4c-0.1-0.1-0.1-0.2,0-0.4c0.6-1.4,2.1-2.2,3.5-2.8
		l0.3-0.2c0.1,0,0.2-0.1,0.3,0c0,0,0,0,0-0.1c0.2-0.1,0.5-0.4,0.9-0.1c0.1,0,0.1,0.1,0.1,0.2c0.1,0.2,0.1,0.4,0,0.6
		c-0.1,0.2-0.2,0.3-0.3,0.4c-1,1.2-2.3,1.9-3.5,2.5l-0.5,0.2C-570.2,413.7-570.2,413.7-570.3,413.7z"/>
</g>
<g>
	<g>
		<path class="st0" d="M-546.5,396.9L-546.5,396.9c-0.2,0-0.3-0.1-0.4-0.3v-0.1c0,0-0.1,0-0.1-0.1c0,0-0.1,0-0.1-0.1
			c-0.1-0.1-0.2-0.3-0.2-0.4c-0.1-0.1-0.1-0.2,0-0.4c1-2.6,3.3-4.2,5.4-5.9c0.5-0.4,1-0.7,1.4-1.1c0.3-0.2,0.6-0.4,0.8-0.5
			c0.7-0.5,1.4-1,2.3-1.1c0.1,0,0.2,0,0.2,0c0.1,0.1,0.2,0.1,0.4,0.1c0.1,0,0.1,0,0.2,0c0,0,0.2,0,0.3,0c0.3,0,0.9-0.1,1.2,0.7
			c0.1,0.2,0,0.4-0.2,0.5c-3.4,1.7-6.2,4.2-9,6.5c-0.6,0.7-1.2,1.3-1.9,1.9C-546.3,396.9-546.4,396.9-546.5,396.9z"/>
	</g>
</g>
<g>
	<path class="st0" d="M-579.8,403.4c-0.1,0-0.1,0-0.2,0h-0.1c-0.1-0.1-0.5-0.2-0.5-0.6c0-0.1,0.1-0.3,0.2-0.3c0.6-0.5,1.3-0.7,2-0.8
		c0.3-0.1,0.5-0.1,0.8-0.2c0.4,0,0.7-0.1,1-0.1c1.9-0.2,3.8-0.4,5.7,0.3c0.3,0,0.6,0.2,0.8,0.5c0.1,0.1,0.1,0.2,0,0.4
		c-0.1,0.1-0.2,0.2-0.3,0.2l-0.4,0.1c0,0,0,0-0.1,0c-1.3,0.1-2.5,0.2-3.8,0.3C-576.4,403.1-578.1,403.2-579.8,403.4L-579.8,403.4z"
		/>
</g>
<g>
	<path class="st0" d="M-554.4,388.7L-554.4,388.7l-0.5-0.1c-0.1,0-0.1-0.1-0.2-0.1l-0.1-0.1c-0.2-0.1-0.5-0.3-0.5-0.6
		c0-0.1,0-0.3,0.1-0.5c0.5-1.1,1.1-2.1,1.8-3.1c0.4-0.6,0.8-1.1,1.1-1.7l0.5-0.7c0.8-1.2,1.6-2.4,2.5-3.5l0.1-0.1
		c0-0.1,0-0.2,0.1-0.2c0.1-0.1,0.3-0.3,0.6-0.4c0.1,0,0.2,0,0.3,0c0.3,0.1,0.7,0.3,0.9,0.4c0.2,0.1,0.3,0.2,0.2,0.4l0,0l0.2,0.1
		c0.1,0.1,0.2,0.2,0.2,0.4c0,0.2-0.1,0.3-0.2,0.4c-0.4,0.2-0.6,0.5-0.8,0.9c-0.1,0.2-0.3,0.5-0.5,0.7c-0.5,0.7-1,1.5-1.5,2.3
		c-1.2,1.9-2.4,3.8-4,5.4C-554.2,388.7-554.3,388.7-554.4,388.7z"/>
</g>
<g>
	<path class="st0" d="M-569.7,395.8C-569.7,395.8-569.8,395.8-569.7,395.8l-0.6-0.1l0,0l-0.8-0.2c-1.5-0.3-3.1-0.7-4.5-1.4
		c-1.7-0.7-3.2-1.5-4.9-2.3c-0.8-0.4-1.6-0.8-2.4-1.2c-0.2-0.1-0.3-0.2-0.4-0.2c-0.6-0.4-1.4-0.8-1.5-1.7c0-0.2,0-0.5,0.1-0.8
		c0-0.2,0.2-0.4,0.2-0.5l0.1-0.1c0.1-0.1,0.2-0.2,0.3-0.2c0.5-0.1,1.1-0.2,1.7,0c0.6,0.3,1.1,0.6,1.7,0.8c1.4,0.6,2.8,1.3,3.9,2.5
		c0.7,0.5,1.6,0.8,2.6,1.1l0.5,0.2c1.4-0.4,2.4,0.4,3.3,1.1c0.4,0.3,0.8,0.6,1.2,0.8c0,0,0.1,0,0.1,0.1l0.1,0.1
		c0.2,0.2,0.6,0.5,0.4,1c0,0.1-0.1,0.1-0.1,0.2c-0.1,0.1-0.2,0.2-0.4,0.3c-0.1,0-0.2,0.1-0.2,0.2
		C-569.4,395.7-569.5,395.8-569.7,395.8z"/>
</g>
<g>
	<path class="st0" d="M-563.4,388.5c-0.3,0-0.5-0.2-0.6-0.4c-0.1-0.1-0.1-0.2-0.2-0.2l0,0c-1.6-1.4-1.9-3.4-2.2-5.2
		c-0.1-0.8-0.2-1.5-0.4-2.2c-0.1-1.2-0.3-2.4-0.5-3.5c-0.2-1.5-0.5-3-0.6-4.5c0-0.1,0-0.2,0.1-0.3c0.1-0.1,0.2-0.1,0.3-0.1l0,0
		c0.1-0.1,0.1-0.1,0.2-0.1c0.1-0.1,0.2-0.2,0.4-0.2c0.7,0,0.9,0.6,1.1,0.9c0.1,0.1,0.1,0.3,0.2,0.4c0,0.1,0.1,0.1,0.1,0.2
		c0.4,3.3,0.8,6.8,1.5,10.2c0.1,1.2,0.6,2.3,1.1,3.3c0.1,0.3,0.3,0.6,0.4,0.9c0.1,0.2,0,0.4-0.1,0.5c0,0-0.1,0.1-0.2,0.1
		c0,0.1-0.1,0.1-0.1,0.2C-563.2,388.5-563.3,388.5-563.4,388.5z"/>
</g>
</svg>
