<?xml version="1.0" encoding="utf-8"?>
<!-- Generator: Adobe Illustrator 19.1.0, SVG Export Plug-In . SVG Version: 6.00 Build 0)  -->
<svg version="1.1" id="reiki" xmlns="http://www.w3.org/2000/svg" xmlns:xlink="http://www.w3.org/1999/xlink" x="0px" y="0px"
	 width="200px" height="200px" viewBox="0 0 200 200" enable-background="new 0 0 200 200" xml:space="preserve">
<g>
	<path d="M159.2,31.1c-4.4-1-9.2,1.2-11.1,5.5c-0.7,1.7-3.4,23.5-3.4,25.4c-2.9,16.1-5.2,24-7.2,29.7c-0.1,0.3-1.2,4-2.1,4
		c-1.9-0.1-1.6-4.3-1.6-4.7c0-20.3-1.9-31.2-0.3-60.3c0.2-3.2,0.2-14.3-1.9-16.9c-2.5-3.1-6.7-4.4-10.5-3.3c-4,1.2-4.6,5.2-5,9.3
		c-0.2,1.5-1,15.4-1,17c3.1,24.1-1,26.7-1,44.2c0,0.8-1.5,4.3-1.6,5c-0.3,1.6-0.7,2.8-2.3,2.8c-1.6,0-3.7-5.5-4-7.1
		c-0.1-0.8-0.1-1.6-0.1-2.4c0-11.3,2.4-22.7,0.7-37c-1.1-9.3,0-18.7,0-28.1c0-5.6-2.9-9.4-8.3-10.8c-0.2-0.1-0.4-0.2-0.6-0.3
		c-0.9,0-1.8,0-2.8,0c-2.9,0.8-4.5,3.1-5.9,6c-0.9,1.8-1.5,3.9-1.5,5.9c0,9.8-0.1,18.6-1.3,28.4c-1.4,11.1,0,29.6,0,40.6
		c0,0.3,0,0.7,0,1c-0.2,2.4-1.5,3.9-3.6,3.8c-2,0-3.3-1.6-3.3-4c-3.1-12.2-5.9-26.9-7.5-38c-0.7-5-0.8-12.6-2.4-18.6
		c-1.7-6.4-2.7-11.9-8.7-11.9c-4.8,0-7.5,2.7-8.1,9c-0.1,0.7-0.1,1.5-0.1,2.2c0,6.3,0.4,12.7,0.9,19.1c1.8,21,5.7,49.7,5.7,70.6
		c0,0.6,0,1.1,0,2.2c-0.7-0.8-6.3-4.2-6.3-4.2c-9.3-9-8.1-8.8-12.7-14.8c-4.5-5.8-17.2-9.5-22.5-5c-4,3.3,3.3,11.5,5.7,16.5
		c0.4,0.8,6.8,9.8,15,21.3c8.7,12.3,7.3,12.9,17.8,28.8c8.9,13.4,18.7,26.4,34.4,29.1c3,0.5,6,0.7,9,1.1c0.6,0.1,1.1,0.2,1.7,0.3
		c3.3,0,6.7,0,10,0c2.6-0.3,5.2-0.6,7.8-1.1c8.6-1.4,14.4-3.8,21.1-9.5c8.1-6.8,15.5-21,17.4-31.3c0.7-3.9,1.1-8,1.1-12
		c0.1-29.8,2.1-63.6,6-93C164.6,40.3,164.2,32.3,159.2,31.1z M131.7,165.8c-6.6,6.7-15.1,10.1-25.3,10.1c-9.7,0-17.8-3.4-24.4-10.1
		c-6.7-6.9-10.1-15.3-10.1-25.4c0-9.7,3.2-17.8,9.7-24.3c1.6-1.7,3.5-3.3,5.5-4.6c5.7-3.7,11.9-5.5,18.7-5.5
		c8.3,0,15.5,3.1,21.6,9.3c6.2,6.4,9.4,13.7,9.4,21.9c0,8.5-2.9,15.7-8.6,21.7c-5.8,5.8-12.8,8.7-20.9,8.7c-7.5,0-13.9-2.8-19.3-8.3
		c-5.2-5.3-7.8-11.6-7.8-18.9s2.4-13.4,7.3-18.5c1.4-1.4,2.7-2.5,4.1-3.4c4.5-2.9,9.2-4.4,14-4.4c6.5,0,12.1,2.4,16.7,7.1
		c4.5,4.6,6.7,10,6.7,16.3c0,6.4-2.2,11.8-6.7,16c-4.3,4-9.3,6-15,6c-5.4,0-9.9-1.9-13.6-5.7c-3.7-3.7-5.5-8.2-5.5-13.4
		c0-5.1,1.7-9.4,5.2-12.9c0.8-0.8,1.7-1.6,2.5-2.2c3.2-2.1,6.7-3.2,10.5-3.2c4.1,0,7.5,1.4,10.4,4.3c2.9,3.1,4.4,6.7,4.4,10.8
		s-1.5,7.7-4.6,10.5c-2.8,2.6-6.1,3.8-9.7,3.8c-2.8,0-5.3-1-7.4-3.1c-2.2-2.2-3.3-4.8-3.3-7.8c0-3,1.1-5.6,3.3-7.8
		c0.1-0.1,0.3-0.3,0.5-0.5c0.1-0.1,0.3-0.3,0.5-0.4c1.7-1.3,3.6-2,5.7-2c2,0,3.7,0.7,5,2c1.4,1.3,2,2.9,2,4.9c0,2.8-1.2,4.7-3.5,5.7
		c0.6-0.6,0.9-1.3,0.9-2.3c0-1-0.4-1.9-1.1-2.6c-0.7-0.8-1.7-1.1-2.8-1.1c-1.1,0-2,0.4-2.8,1.1c-0.1,0.1-0.2,0.2-0.3,0.3
		c-0.6,0.8-0.9,1.7-0.9,2.7c0,1.1,0.4,2.1,1.2,2.9c0.9,0.9,2,1.4,3.4,1.4c2.1,0,3.9-0.8,5.4-2.3c1.4-1.5,2.1-3.4,2.1-5.8
		c0-2.4-0.8-4.4-2.3-6c-1.6-1.7-3.7-2.5-6.2-2.5c-2.4,0-4.6,0.8-6.6,2.3c-0.1,0.1-0.3,0.3-0.4,0.4c-3,2.5-4.5,5.7-4.5,9.7
		c0,3.4,1.2,6.3,3.7,8.8c2.4,2.4,5.2,3.6,8.5,3.6c4.4,0,8.2-1.6,11.4-4.9c2.9-3,4.4-6.7,4.4-11c0-4.6-1.6-8.6-4.8-11.9
		c-3.1-3.3-6.9-4.9-11.5-4.9c-4,0-7.7,1.1-11,3.3c-0.1,0.1-0.3,0.2-0.6,0.4c-0.9,0.6-1.7,1.3-2.4,2.1c-3.8,3.9-5.7,8.6-5.7,14.1
		c0,5.7,2,10.6,5.9,14.7c4,4,8.9,6,14.7,6c6.6,0,12.2-2.4,16.9-7.1c4.3-4.5,6.5-10,6.5-16.5c0-6.7-2.4-12.6-7.2-17.6
		c-4.9-5-10.8-7.5-17.8-7.5c-5.4,0-10.4,1.6-15.3,4.9c-3.6,2.5-6.4,5.6-8.5,9.5c-2.2,4.1-3.4,8.6-3.4,13.6c0,7.7,2.8,14.4,8.4,20.2
		c5.8,5.9,12.6,8.8,20.4,8.8c8.5,0,15.9-3.1,22.1-9.4c6.1-6.3,9.2-13.9,9.2-22.9c0-8.7-3.3-16.4-9.8-23.1c-6.4-6.5-14-9.8-22.8-9.8
		c-4.9,0-9.7,1-14.1,2.9c4.1-2.5,8.9-3.7,14.4-3.7c10.1,0,18.5,3.5,25.3,10.4c6.9,7.1,10.4,15.6,10.4,25.5
		C141.7,150.2,138.4,159,131.7,165.8z"/>
</g>
</svg>
