<?xml version="1.0" encoding="utf-8"?>
<!-- Generator: Adobe Illustrator 17.1.0, SVG Export Plug-In . SVG Version: 6.00 Build 0)  -->
<!DOCTYPE svg PUBLIC "-//W3C//DTD SVG 1.1//EN" "http://www.w3.org/Graphics/SVG/1.1/DTD/svg11.dtd">
<svg version="1.1" id="Layer_1" xmlns="http://www.w3.org/2000/svg" xmlns:xlink="http://www.w3.org/1999/xlink" x="0px" y="0px"
	 width="319.9px" height="302.6px" viewBox="0.1 0 319.9 302.6" enable-background="new 0.1 0 319.9 302.6" xml:space="preserve">
<g id="Layer_2">
	<path fill="#BD4D4C" d="M231.5,194.2C67.6,167.5-7,224.3,37.4,244.8c0,0,33.1,17,61.8,18.4c0.6-0.3,0,0-2.4-5.1
		c-1.2-7.8,7.3-4.8,7.3-4.8s40.4,15,55,19.7c14.6,4.8-1.2,9.2-1.2,9.2s-42.8,16.3-54.6,19.7c-11.7,3.4-5.7-6.5-5.7-6.5l3.6-9.5
		c-45.7-2.4-130.2-33.7-91-71.1C52,178.5,132.8,175.1,189,178.2c56.2,3.1,131,21.1,131,58.5c0,29.6-60.8,41.7-75.2,44.9
		c0,0-38.4,7.5-54.8,8.2c-12.8,0.6-11.2-5.6-11.2-5.6c0-7.7,0-5.4,0-11.7c0-3.1,1.6-4.8,6.7-5.6c21.5-1,60.6-9.7,60.6-9.7
		C378,221.7,231.5,194.2,231.5,194.2z"/>
</g>
<g id="Layer_3">
	<g>
		<g>
			<ellipse fill="#F99C59" cx="85.1" cy="54" rx="16" ry="15.5"/>
		</g>
		<g>
			<path fill="#F99C59" d="M117.9,82.5c-0.4-5.9-5.3-10.5-11.3-10.5H63.7c-5.5,0-10,3.9-11.1,9c-0.6,0.9-0.9,2-0.9,3.2v41.1
				c0,3.2,2.4,5.9,5.5,5.9c3,0,5.5-2.6,5.5-5.9V94.6c0.4,0,0.7,0.1,1.1,0.1h7l-18,78.5l18.7,0.1v34.8c0,4.2,3.7,7.6,8.3,7.6
				c1.4,0,2.8-0.3,3.9-0.9c1.2,0.6,2.5,0.9,3.9,0.9c4.6,0,8.3-3.4,8.3-7.6v-34.8l18.7,0.1L100,94.6h6.7c0.2,0,0.4,0,0.6,0v30.7
				c0,3.2,2.4,5.9,5.5,5.9c3,0,5.5-2.6,5.5-5.9V84.2C118.1,83.6,118,83,117.9,82.5z"/>
		</g>
	</g>
	<g>
		<g>
			<path fill="#F99C59" d="M185.3,76.9c0-0.2,0-0.5,0-0.7c0-7.2-5.8-13-13-13h-49.1c-7.2,0-13,5.8-13,13c0,0.2,0,0.5,0,0.7
				c-0.3,0.8-0.5,1.7-0.5,2.7v47.1c0,3.7,2.8,6.7,6.3,6.7s6.3-3,6.3-6.7V89.2c0.3,0,0.6,0,1,0h2.2v66.1h0.3
				c-0.2,0.7-0.3,1.5-0.3,2.3v60.6c0,4.8,4.3,8.7,9.5,8.7c5.3,0,9.5-3.9,9.5-8.7v-60.6c0-0.8-0.1-1.5-0.3-2.3h6.8
				c-0.2,0.7-0.3,1.5-0.3,2.3v60.6c0,4.8,4.3,8.7,9.5,8.7s9.5-3.9,9.5-8.7v-60.6c0-0.8-0.1-1.5-0.3-2.3h0.3V89.2h2.6
				c0.3,0,0.6,0,1,0v37.5c0,3.7,2.8,6.7,6.3,6.7s6.3-3,6.3-6.7V79.6C185.8,78.6,185.6,77.7,185.3,76.9z"/>
		</g>
		<g>
			<ellipse fill="#F99C59" cx="147.8" cy="42.7" rx="18.3" ry="17.7"/>
		</g>
	</g>
	<g>
		<g>
			<path fill="#BD4D4C" d="M264,67.4c-0.6-8-7.2-14.3-15.4-14.3h-58.2c-7.4,0-13.6,5.2-15.1,12.2c-0.8,1.3-1.2,2.7-1.2,4.4v55.9
				c0,4.4,3.3,8,7.4,8c4.1,0,7.4-3.6,7.4-8V83.9c0.5,0,1,0.1,1.4,0.1h9.5l-24.5,106.6l25.4,0.1V238c0,5.7,5.1,10.3,11.3,10.3
				c1.9,0,3.8-0.4,5.3-1.2c1.6,0.8,3.4,1.2,5.3,1.2c6.3,0,11.3-4.6,11.3-10.3v-47.1l25.4,0.1L239.4,84h9c0.3,0,0.6,0,0.8,0v41.7
				c0,4.4,3.3,8,7.4,8s7.4-3.6,7.4-8V69.8C264.4,68.9,264.2,68.1,264,67.4z"/>
		</g>
		<g>
			<ellipse fill="#BD4D4C" cx="219.6" cy="28.7" rx="21.7" ry="21.1"/>
		</g>
	</g>
</g>
</svg>
