<?xml version="1.0" encoding="utf-8"?>
<!-- Generator: Adobe Illustrator 18.1.1, SVG Export Plug-In . SVG Version: 6.00 Build 0)  -->
<!DOCTYPE svg PUBLIC "-//W3C//DTD SVG 1.1//EN" "http://www.w3.org/Graphics/SVG/1.1/DTD/svg11.dtd">
<svg version="1.1" id="XMLID_2_" xmlns="http://www.w3.org/2000/svg" xmlns:xlink="http://www.w3.org/1999/xlink" x="0px" y="0px"
	 viewBox="0 0 612.3668 611.426" enable-background="new 0 0 612.3668 611.426" xml:space="preserve">
<path id="search" d="M593.2999,592.56c-21.25,21.25-61.2001,26.35-82.4501,5.9501l-189.5499-191.25
	c-13.5998-13.6-17.8498-32.2999-14.4501-49.2999c-34,24.65-68,32.2999-111.3498,32.2999c-52.7001,0-102-20.3999-138.5499-57.7999
	S0,246.6101,0,193.9103c0-51.8501,20.4002-101.15,57.7999-137.7001c76.5-75.6499,201.4501-74.7999,277.0998,1.7001
	c68.8498,69.7001,80.75,171.7001,23.7999,248.2001c17-3.3999,36.5499,0.8501,50.1502,14.4501l189.5499,190.4
	C620.4995,531.3601,614.5499,571.31,593.2999,592.56z M311.0998,193.91c0-30.6001-11.9002-58.6499-33.1502-80.75
	c-44.2001-44.2001-116.4501-45.0499-161.5-0.8501c-45.0499,44.2001-45.0499,116.4501-0.8498,160.65
	c44.2001,44.2001,116.4501,45.0499,161.5,0.85C298.3498,252.56,310.2495,224.5101,311.0998,193.91z"/>
</svg>
