<?xml version="1.0" encoding="utf-8"?>
<!-- Generator: Adobe Illustrator 19.1.0, SVG Export Plug-In . SVG Version: 6.00 Build 0)  -->
<svg version="1.1" id="home" xmlns="http://www.w3.org/2000/svg" xmlns:xlink="http://www.w3.org/1999/xlink" x="0px" y="0px"
	 width="200px" height="200px" viewBox="-511 297 200 200" style="enable-background:new -511 297 200 200;" xml:space="preserve">
<path d="M-353.8,460.6c-12.7,0-25.4,0-38,0c0-12.6,0-25.2,0-37.8c-12.9,0-25.4,0-38,0c0,12.8,0,25.3,0,37.8c-12.7,0-25.4,0-38,0
	c0-18.1,0-36.2,0-54.4c0-2,0.7-3.2,2.2-4.4c17.5-13,34.9-26.1,52.3-39.2c0.9-0.6,1.8-1.2,2.6-1.8c0.4,0.2,0.7,0.4,0.9,0.5
	c18.1,13.6,36.3,27.2,54.3,40.9c1,0.8,1.7,2.6,1.7,3.9C-353.7,424.3-353.8,442.5-353.8,460.6z"/>
<path d="M-334.8,405.3c-0.8-0.5-1.7-1-2.5-1.6c-23.8-18.4-47.5-36.9-71.3-55.4c-1.8-1.4-2.9-1.4-4.8,0
	c-23.7,18.5-47.5,36.9-71.3,55.4c-0.8,0.6-1.6,1-2.5,1.6c0-7.9,0-15.9,0-23.8c25.3-19.6,50.7-39.3,76.1-59
	c25.4,19.7,50.8,39.3,76.1,59C-334.8,389.4-334.8,397.4-334.8,405.3z"/>
</svg>
