<?xml version="1.0" encoding="utf-8"?>
<!-- Generator: Adobe Illustrator 19.1.0, SVG Export Plug-In . SVG Version: 6.00 Build 0)  -->
<svg version="1.1" id="meditation" xmlns="http://www.w3.org/2000/svg" xmlns:xlink="http://www.w3.org/1999/xlink" x="0px" y="0px"
	 width="200px" height="200px" viewBox="0 0 200 200" enable-background="new 0 0 200 200" xml:space="preserve">
<path d="M198.2,116.9c-7.8-9.4-18.2-0.5-26.7,2.1c-4.4,1.3-7.7,1.3-12.2,2.6c-5.4,1.6-8.6,5.4-13.6,0.6c19.9-10.3-4.1-26.1-9.3-39.8
	c-1.7-4.6-5.6-11-6-15.9c-0.4-4.1,1.9-7.1-0.8-10.8c-4.7-6.6-16.9-2.9-23.3-0.9c-9.8,3.1-10.8,4.4-20.8,6.9
	c-8.9,2.2-17.8-4.1-36.4,2.4C37,68.4,27.3,73,24.5,82.3c-2.7,8.9-12.3,8.7-24.1,10.6c0,17.8,0,27.1,0,44.9
	c23.3-9.3,35.9-5.7,59.4-1.5c19.9,3.5,38.9,12.3,59.1,11.7c4.3-0.1,6.7-1.6,10.8-2.4c5-0.9,10.7,1.7,15.8,1.2
	c4.6-0.5,7.8-2.2,12.3-2c5.2,0.2,9.3,1.4,14.7,1.3c3.7,0,8.2,1.2,10-3.1c2-4.8-4.5-6.3-3.7-9.4C180.2,128.4,205.7,126,198.2,116.9
	C194.6,112.6,200.1,119.2,198.2,116.9z M124.7,100.8c-1.9,8-16.7,4.7-22.3,4.8c-6.8,0.1-11.9-1-15-7.8c-4-8.6-5.9-15,2.7-15.3
	c8.5-0.3,20.3-3.8,28.2-6.4C119,88.4,126.2,94.7,124.7,100.8C124.5,101.6,125.4,97.9,124.7,100.8z"/>
</svg>
