<?xml version="1.0" encoding="utf-8"?>
<!-- Generator: Adobe Illustrator 19.1.0, SVG Export Plug-In . SVG Version: 6.00 Build 0)  -->
<svg version="1.1" id="audio" xmlns="http://www.w3.org/2000/svg" xmlns:xlink="http://www.w3.org/1999/xlink" x="0px" y="0px"
	 width="200px" height="200px" viewBox="-511 297 200 200" style="enable-background:new -511 297 200 200;" xml:space="preserve">
<style type="text/css">
	.st0{fill:#231F20;}
</style>
<g>
	<path class="st0" d="M-385.7,428.7c0,5.2-4.3,9.5-9.5,9.5h-37.6c-5.2,0-9.5-4.3-9.5-9.5v-75.3c0-5.2,4.3-9.5,9.5-9.5h37.6
		c5.2,0,9.5,4.3,9.5,9.5V428.7z M-392.8,365.3c0-1.3-1.1-2.4-2.4-2.4h-37.6c-1.3,0-2.4,1.1-2.4,2.4v51.7c0,1.3,1.1,2.4,2.4,2.4h37.6
		c1.3,0,2.4-1.1,2.4-2.4V365.3z M-408.1,353.5h-11.8c-0.6,0-1.1,0.5-1.1,1.1c0,0.6,0.5,1.1,1.1,1.1h11.8c0.6,0,1.1-0.5,1.1-1.1
		C-406.8,353.9-407.3,353.5-408.1,353.5z M-413.9,422.8c-3.3,0-5.8,2.7-5.8,5.8c0,3.2,2.7,5.8,5.8,5.8c3.3,0,5.8-2.7,5.8-5.8
		C-408.1,425.4-410.6,422.8-413.9,422.8z"/>
</g>
</svg>
